<svg width="459" height="459" viewBox="0 0 459 459" fill="none" xmlns="http://www.w3.org/2000/svg">
<g clip-path="url(#clip0_3_51)">
<path d="M141.461 328.767C136.158 321.044 136.993 314.764 143.965 309.927C154.424 302.671 185.43 283.58 199.345 259.288C213.26 234.995 228.752 209.094 228.83 193.759C228.907 178.424 224.871 148.135 229.716 145.182C234.562 142.229 248.079 145.393 251.906 147.99C255.732 150.587 259.893 152.432 270.372 152.421C280.851 152.41 290.145 156.099 296.931 153.015C303.717 149.931 309.954 147.688 311.609 149.738C312.712 151.104 321.366 161.117 337.571 179.777C342.67 183.353 348.382 190.759 354.706 201.993C361.03 213.228 364.673 219.899 365.634 222.008C367.819 222.696 368.013 223.691 366.216 224.992C363.521 226.943 308.622 256.401 283.792 270.157C258.962 283.913 238.155 300.037 205.423 313.361C172.691 326.685 151.84 329.796 147.278 331.285C144.237 332.277 142.298 331.438 141.461 328.767Z" fill="#EEEEE1"/>
<path d="M251.906 147.99C253.629 149.159 255.419 150.176 257.824 150.94C258.342 152.371 258.645 153.994 258.735 155.807C252.52 176.839 249.315 189.557 249.117 193.961C248.821 200.567 237.356 213.992 234.108 224.219C230.86 234.446 205.975 269.614 203.856 270.632C201.736 271.648 196.212 270.584 193.727 268.766C193.556 268.641 193.401 268.49 193.263 268.317C195.52 265.398 197.571 262.386 199.345 259.29C213.26 234.998 228.753 209.096 228.831 193.761C228.908 178.426 224.872 148.137 229.717 145.184C234.562 142.228 248.079 145.393 251.906 147.99Z" fill="#FAF8DE"/>
<path d="M237.501 144.061L237.682 144.278C238.015 144.724 238.099 145.102 237.745 145.228C236.859 145.542 232.313 149.167 232.106 154.588L232.005 158.276C231.93 162.248 231.95 165.618 231.755 166.588C231.502 167.85 232.445 169.785 231.277 170.588C230.592 171.059 229.44 171.352 227.821 171.466L227.566 166.611C227.073 155.984 227.147 146.744 229.716 145.18C231.467 144.114 234.351 143.846 237.501 144.061Z" fill="#DFEF25"/>
<path d="M228.617 150.627L228.927 164.949C228.945 166.131 228.951 166.897 228.936 166.933C228.889 167.044 228.115 167.827 227.649 168.263L227.567 166.614C227.234 159.443 227.16 152.904 227.935 148.929C228.239 149.319 228.598 149.893 228.617 150.627Z" fill="#0A47AB"/>
<path d="M197.639 266.805C198.739 266.291 205.391 253.713 206.482 251.935C207.209 250.75 209.48 246.838 213.295 240.2C217.288 239.277 219.805 238.282 220.847 237.216C221.889 236.15 221.082 233.272 218.427 228.581C219.473 223.382 220.179 220.225 220.543 219.109C221.089 217.436 227.17 202.843 228.253 204.739C229.336 206.635 239.929 203.252 242.862 201.928C245.795 200.604 242.834 184.077 241.541 182.692C240.679 181.769 236.378 181.248 228.637 181.131C229.961 178.186 230.966 176.592 231.65 176.35C232.676 175.987 240.019 174.257 240.896 174.997C241.773 175.737 251.118 183.143 251.724 190.263C252.33 197.384 248.021 211.69 244.818 213.462C241.615 215.234 230.774 218.586 229.945 223.511C229.116 228.437 230.326 239.663 225.528 243.418C220.731 247.173 207.966 264.686 204.576 267.373C201.184 270.061 196.539 267.32 197.639 266.805Z" fill="black"/>
<path d="M328.102 169.721C328.735 170.479 328.766 171.207 328.194 171.907C313.293 190.126 298.01 202.252 291.426 202.16C280.981 202.013 247.862 204.874 243.094 201.267C238.326 197.66 230.64 152.663 245.105 149.867C259.57 147.071 267.061 147.55 272.872 148.214C278.683 148.878 287.308 151.546 294.827 148.524C302.347 145.502 310.197 142.913 311.41 148.468C312.219 152.17 317.783 159.255 328.102 169.721Z" fill="#232724"/>
<path d="M245.105 149.866C259.57 147.07 267.061 147.549 272.872 148.213C278.683 148.877 287.308 151.545 294.827 148.523C302.347 145.501 310.197 142.912 311.41 148.467C311.515 148.95 311.702 149.49 311.969 150.088C309.766 148.785 308.26 147.969 307.446 147.639C305.83 146.983 294.627 151.348 289.57 152.627C284.513 153.906 270.545 151.662 264.715 150.582C259.741 149.661 246.887 150.485 242.822 150.75C243.517 150.326 244.275 150.026 245.105 149.866Z" fill="#808080"/>
<path d="M253.081 153.078L253.169 158.938C253.524 174.055 254.838 185.088 257.111 192.037L257.984 194.57C261.683 204.823 265.8 211.372 257.653 216.218C248.854 221.452 246.246 220.137 242.932 229.422C239.618 238.707 237.11 243.733 234.175 247.329C231.24 250.925 222.72 258.705 218.425 263.988C215.561 267.51 226.974 276.289 252.662 290.325C237.181 300.585 217.706 310.532 194.237 320.166C168.293 329.681 151.867 332.221 147.881 333.522C144.84 334.515 142.901 333.676 142.065 331.005C136.762 323.282 137.597 317.002 144.569 312.164L146.423 310.896C145.567 312.082 146.823 312.058 150.193 310.819L175.361 301.243C183.853 298.035 191.701 295.159 194.474 294.473C200.448 292.995 208.423 300.769 212.274 292.743C216.125 284.716 204.104 283.862 201.369 279.529L200.489 278.085C198.615 274.777 198.923 272.66 204.766 262.046C211.406 249.984 219.063 241.276 221.583 235.474C224.103 229.673 228.817 212.884 231.688 210.85C234.559 208.816 244.65 208.481 242.968 201.387L240.617 191.744C237.699 179.394 233.844 160.604 237.482 156.921C240.752 153.612 245.951 152.331 253.081 153.078Z" fill="#094178"/>
<path d="M252.478 150.841L252.566 156.701C252.921 171.818 254.235 182.851 256.508 189.8L257.381 192.333C261.08 202.586 265.197 209.135 257.05 213.981C248.251 219.215 245.643 217.9 242.329 227.186C239.015 236.471 236.507 241.496 233.572 245.092C230.637 248.688 222.117 256.468 217.822 261.751C214.958 265.273 226.371 274.052 252.059 288.088C236.577 298.349 217.101 308.296 193.629 317.93L188.569 319.741C166.377 327.489 152.049 329.898 147.718 331.149L147.278 331.283C146.586 331.509 145.94 331.654 145.338 331.717C144.57 331.69 143.852 331.631 143.181 331.539C142.188 331.234 141.382 330.574 140.769 329.566C135.927 321.31 136.993 314.763 143.965 309.926L146.534 308.174C145.743 309.48 147.046 309.77 150.451 309.043C159.08 307.201 187.896 293.713 193.871 292.236C199.846 290.759 207.821 298.532 211.672 290.506C215.523 282.479 203.502 281.625 200.767 277.292L199.887 275.848C198.012 272.54 198.32 270.423 204.164 259.809C210.804 247.747 218.461 239.039 220.981 233.238C223.501 227.437 228.215 210.647 231.086 208.613C233.957 206.579 244.048 206.244 242.366 199.15L240.015 189.507C237.097 177.157 233.242 158.367 236.88 154.684C240.148 151.374 245.348 150.093 252.478 150.841Z" fill="#2B67A0"/>
<path d="M240.984 193.719C241.034 193.688 228.896 190.496 228.681 188.648C228.466 186.8 225.965 194.616 226.478 195.364C226.991 196.112 240.12 200.27 242.142 199.702C244.163 199.134 240.934 193.75 240.984 193.719Z" fill="black"/>
<path d="M241.646 297.663C224.814 286.898 212.56 281.166 204.888 280.469C193.379 279.423 191.069 278.766 195.598 269.945C200.127 261.123 213.275 237.541 214.476 238.29C215.676 239.038 227.104 256.797 232.756 261.813C236.524 265.157 246.966 272.59 264.082 284.112L241.646 297.663Z" fill="#094178"/>
<path d="M242.628 295.951C225.796 285.186 213.543 279.454 205.871 278.757C194.362 277.711 192.052 277.054 196.581 268.233C201.11 259.411 214.258 235.828 215.458 236.577C216.658 237.325 228.086 255.085 233.738 260.101C237.506 263.445 247.948 270.878 265.065 282.4L242.628 295.951Z" fill="#3174AE"/>
<path d="M325.633 165.039C324.515 163.252 323.047 160.302 321.019 159.686C318.991 159.07 275.719 159.186 267.941 159.128C260.162 159.07 238.362 161.637 236.076 162.669C233.79 163.701 234.146 173.042 234.789 178.855C235.432 184.668 234.118 188.806 252.612 191.732C271.105 194.658 297.137 198.352 298.461 198.141C299.785 197.93 309.868 194.002 328.288 171.374C328.651 170.273 326.751 166.825 325.633 165.039Z" fill="#094178"/>
<path d="M325.448 163.386C324.33 161.599 322.862 158.649 320.834 158.033C318.806 157.417 275.534 157.533 267.756 157.475C259.977 157.417 238.178 159.984 235.892 161.016C233.606 162.048 233.962 171.389 234.605 177.202C235.248 183.015 233.934 187.153 252.427 190.079C270.92 193.005 296.952 196.699 298.276 196.488C299.599 196.277 309.683 192.349 328.103 169.721C328.467 168.62 326.566 165.173 325.448 163.386Z" fill="#2B67A0"/>
<path d="M314.994 250.353C312.179 226.179 310.848 213.515 311.002 212.359C311.233 210.625 338.248 180.025 338.881 179.657C339.515 179.289 344.352 182.839 346.416 186.863C348.479 190.887 353.867 197.184 356.283 200.958C358.699 204.732 365.672 217.552 365.633 222.008C362.154 225.735 358.976 228.325 356.1 229.78L314.994 250.353Z" fill="#2B67A0"/>
<path d="M202.836 269.754C201.536 272.721 199.785 272.967 195.472 271.854C191.16 270.741 190.294 270.796 190.46 269.36C190.625 267.923 191.829 262.149 192.87 262.322C193.911 262.495 204.136 266.787 202.836 269.754Z" fill="#232724"/>
<path d="M212.423 259.407C211.632 261.788 209.55 263.437 206.282 262.48C203.014 261.523 194.628 263.419 194.444 263.076C194.26 262.733 196.122 258.225 197.306 257.543C198.491 256.862 213.214 257.026 212.423 259.407Z" fill="#232724"/>
<path d="M216.54 250.412C215.488 253.079 213.297 254.608 210.185 254.565C207.073 254.523 200.619 255.746 200.361 254.916C200.103 254.086 202.656 247.331 203.315 247.502C203.973 247.672 217.592 247.745 216.54 250.412Z" fill="#232724"/>
<path d="M211.444 238.51C210.278 236.701 209.846 235.196 210.148 233.995C214.191 225.749 216.629 221.328 217.462 220.732C218.712 219.837 221.796 218.738 221.959 219.177C222.121 219.616 220.556 220.581 219.272 222.084C217.987 223.587 217.411 233.3 219.306 235.336C221.2 237.371 213.193 241.223 211.444 238.51Z" fill="#DAE4C9"/>
<path d="M208.869 236.777C207.494 238.087 206.646 240.907 205.838 242.982C205.032 245.057 205.313 245.711 205.637 245.48C205.961 245.249 212.516 241.169 215.389 241.426C218.262 241.683 225.908 243.579 227.632 241.049C229.356 238.519 223.767 234.269 219.913 234.347C216.058 234.426 210.244 235.466 208.869 236.777Z" fill="#232724"/>
<path d="M233.954 227.321C233.335 230.555 228.258 230.48 223.846 229.947C220.905 229.592 219.002 229.159 218.135 228.648C218.356 223.954 219.068 221.456 220.271 221.152C222.075 220.697 234.573 224.087 233.954 227.321Z" fill="#232724"/>
<path d="M241.562 216.107C240.841 218.221 234.452 218.228 232.021 217.646C229.59 217.064 220.808 219.511 220.293 218.555C219.778 217.6 222.238 210.835 223.607 210.455C224.975 210.076 233.859 209.491 237.05 210.848C240.239 212.206 242.283 213.993 241.562 216.107Z" fill="#232724"/>
<path d="M255.567 203.462C255.29 206.174 250.424 206.951 244.816 206.372C239.208 205.793 232.306 206.285 229.038 207.684C225.77 209.083 225.278 210.798 224.746 209.832C224.214 208.866 225.766 199.927 227.544 199.639C229.322 199.351 242.521 198.082 247.733 198.657C252.945 199.233 255.843 200.75 255.567 203.462Z" fill="#232724"/>
<path d="M248.76 178.78C247.917 176.114 244.349 174.979 238.342 176.553C232.335 178.127 229.4 181.535 228.209 183.501C227.019 185.468 224.457 192.104 224.804 193.832C225.035 194.984 226.205 196.225 228.314 197.555C229.385 192.779 231.055 189.472 233.321 187.632C236.72 184.873 239.716 182.923 243.294 182.634C246.872 182.345 249.603 181.446 248.76 178.78Z" fill="#232724"/>
<path d="M364.86 220.398L377.497 239.781C379.646 243.077 378.716 247.493 375.42 249.642C375.272 249.739 375.12 249.83 374.965 249.915C237.89 325.373 160.619 356.916 143.154 344.542C142.195 343.619 141.405 342.042 140.786 339.811C138.732 331.486 138.547 327.4 140.229 327.552C142.752 327.78 184.536 325.196 240.929 289.61C278.524 265.885 319.834 242.814 364.86 220.398Z" fill="#094178"/>
<path d="M365.633 222.008L377.412 239.763C379.587 243.042 378.693 247.464 375.414 249.639C375.251 249.747 375.083 249.849 374.911 249.944C237.87 325.382 160.617 356.914 143.154 344.542C142.195 343.619 141.405 342.042 140.786 339.811C139.248 332.56 139.319 329.01 141.002 329.162C143.525 329.39 185.309 326.806 241.702 291.22C279.297 267.496 320.607 244.425 365.633 222.008Z" fill="#ECEBE3"/>
<path d="M139.69 332.367L139.548 332.366C155.457 332.332 175.436 327.248 199.471 317.103C210.13 312.603 219.556 307.884 229.797 302.044L235.515 298.722L241.878 294.907L259.759 283.944C275.377 274.4 288.311 266.907 304.227 258.409L338.154 240.41L349.383 234.536C357.525 230.303 363.648 227.19 367.753 225.196L368.542 226.403L362.799 229.248C351.547 234.925 332.244 245.066 304.897 259.667C290.995 267.09 279.372 273.745 266.235 281.677L244.975 294.691C239.301 298.155 234.85 300.804 230.502 303.283C220.214 309.15 210.739 313.895 200.024 318.417C176.982 328.143 157.606 333.258 141.881 333.753L139.782 333.781C139.734 333.266 139.703 332.795 139.69 332.367Z" fill="#B6B5A5"/>
<path d="M140.647 339.164C146.809 341.34 155.645 341.754 163.491 340.165C172.367 338.367 195.374 334.396 255.956 305.904C292.108 288.901 336.822 265.643 370.877 245.041C373.141 243.672 375.421 241.734 377.718 239.229L377.326 239.636L377.411 239.763C379.586 243.042 378.692 247.464 375.413 249.639C375.25 249.747 375.082 249.849 374.91 249.944C237.869 325.381 160.616 356.913 143.153 344.541C142.194 343.618 141.404 342.041 140.785 339.81L140.647 339.164Z" fill="#0F1D87"/>
<path d="M244.727 163.643C240.458 163.661 232.449 165.083 228.919 169.884C225.388 174.684 226.343 177.687 228.629 180.91C229.668 180.691 230.355 180.346 230.692 179.878C231.419 176.257 233.004 173.997 235.446 173.099C239.11 171.751 247.795 171.347 248.963 169.007C250.132 166.667 248.996 163.626 244.727 163.643Z" fill="#232724"/>
<path d="M249.555 218.695L288.555 261.696" stroke="#094178" stroke-width="3" stroke-miterlimit="10"/>
<path d="M244.055 224.195L281.055 266.196" stroke="#094178" stroke-width="3" stroke-miterlimit="10"/>
<path d="M257.055 215.195L296.055 258.196" stroke="#094178" stroke-width="3" stroke-miterlimit="10"/>
</g>
<defs>
<clipPath id="clip0_3_51">
<rect width="458.9" height="458.9" fill="white"/>
</clipPath>
</defs>
</svg>
