<svg width="459" height="459" viewBox="0 0 459 459" fill="none" xmlns="http://www.w3.org/2000/svg">
<g clip-path="url(#clip0_7_2)">
<path d="M248.563 170.295C249.106 171.38 247.956 172.923 248.092 175.334C248.228 177.745 248.85 185.281 249.351 190.406C249.852 195.531 245.984 203.123 236.753 214.36C227.521 225.597 202.128 255.355 198.185 260.879C194.242 266.403 192.141 267.454 188.858 269.097C185.575 270.74 183.465 271.737 182.702 271.46C181.939 271.184 181.538 270.319 181.568 269.195C181.599 268.071 182.873 263.779 183.932 263.249C184.638 262.896 185.481 262.474 186.462 261.983C191.273 251.455 194.051 245.36 194.796 243.696C195.913 241.201 199.706 234.051 202.769 229.677C205.832 225.304 211.521 218.089 212.94 215.955C214.359 213.821 216.505 208.136 217.439 205.45C218.373 202.764 226.356 193.412 227.741 189.795C229.126 186.178 238.684 174.293 239.9 171.519C241.116 168.746 241.288 167.672 242.783 166.924C244.278 166.176 245.542 166.218 246.35 166.853C247.159 167.49 248.02 169.21 248.563 170.295Z" fill="#F4F4F4"/>
<path d="M203.896 239.719C205.606 240.499 202.414 247.775 200.702 247.524C199.172 247.299 196.896 246.283 194.982 243.302L195.792 241.637C196.359 240.518 197.073 239.164 197.866 237.729L199.219 235.345C199.801 236.899 202.497 239.082 203.896 239.719ZM209.374 220.966L212.916 221.461C215.824 221.9 218.564 222.568 218.532 224.327C218.487 226.791 214.169 227.234 212.063 226.516L210.037 225.796C208.799 225.393 207.904 225.299 208.065 226.448C208.306 228.171 211.046 232.737 209.809 233.659C208.587 234.569 206.9 228.411 204.382 227.416L209.261 220.938L209.374 220.966ZM227.786 200.13C227.999 202.169 225.096 215.955 222.587 216.037C220.077 216.12 218.587 213.177 217.178 210.209C216.889 209.6 216.495 209.295 216.041 209.223L217.159 206.249C217.262 205.962 217.356 205.694 217.441 205.451C217.706 204.688 218.54 203.388 219.63 201.833L221.088 201.222C224.121 199.988 227.648 198.814 227.786 200.13ZM230.06 185.798L231.577 185.919C234.534 186.216 236.458 186.754 237.349 187.534C239.067 189.037 235.744 193.427 233.312 192.008C231.392 190.888 229.778 190.032 227.235 190.854L227.526 190.298L227.743 189.797C228.089 188.891 228.948 187.467 230.06 185.798Z" fill="#D0CFCD"/>
<path d="M242.783 166.925C244.278 166.177 245.542 166.219 246.35 166.854C247.159 167.49 248.02 169.209 248.563 170.294C249.106 171.379 247.956 172.922 248.092 175.333L248.471 180.471C248.725 183.606 249.058 187.416 249.351 190.405C249.827 195.273 246.36 202.369 238.098 212.701L231.575 220.594C220.319 234.058 201.531 256.192 198.185 260.878C194.545 265.976 192.475 267.264 189.596 268.724L186.845 270.089C184.704 271.119 183.295 271.674 182.702 271.46C181.939 271.184 181.538 270.318 181.568 269.194C181.599 268.07 182.873 263.779 183.932 263.249L185.965 262.244C186.483 262.374 186.896 262.455 187.066 262.37C187.567 262.119 188.461 260.77 189.244 259.255L189.624 258.488C190.424 256.799 195.072 249.254 199.124 243.478L203.694 237.083C205.961 233.939 207.843 231.45 209.97 229.145C213.16 225.687 216.896 222.001 218.641 219.601L219.662 218.132C221.27 215.738 223.081 212.704 223.303 211.971C223.574 211.075 222.909 207.715 224.883 205.103C226.857 202.491 237.922 197.532 238.279 193.945C238.636 190.359 242.043 176.273 242.198 174.781C242.331 173.503 241.414 172.773 240.568 171.429L240.205 170.796L240.953 169.044C241.431 167.988 241.849 167.393 242.783 166.925Z" fill="#4F4F4F"/>
<path d="M242.472 167.097L242.915 166.872C244.571 168.393 245.531 169.447 245.795 170.033C246.256 171.055 246.114 174.314 246.178 179.845C246.216 183.072 246.633 187.031 247.431 191.723L247.796 193.779L246.857 194.249L246.12 190.267C245.799 188.418 245.55 186.782 245.371 185.358C244.926 181.8 245.396 171.789 245.222 170.319C245.086 169.172 243.401 168.337 242.195 167.282L242.472 167.097Z" fill="#1D1D1D"/>
<path d="M142.768 319.363C143.581 315.583 147.807 312.221 153.649 305.046C159.492 297.871 180.155 275.945 181.905 273.747C183.655 271.548 224.172 222.895 227.774 217.556C231.376 212.217 244.113 188.327 266.821 196.612C289.529 204.897 295.261 205.454 298.44 211.806C301.619 218.158 303.755 230.56 291.896 239.654C280.037 248.75 232.076 277.87 217.348 288.601C202.62 299.332 176.426 327.24 162.184 328.472C147.942 329.704 141.954 323.143 142.768 319.363Z" fill="#DCDCDC"/>
<path d="M204.096 270.657C207.788 271.43 190.563 291.59 186.574 295.703C182.585 299.816 172.529 305.263 168.025 306.39C164.316 307.319 151.518 317.404 142.7 320.191C142.689 319.897 142.712 319.623 142.768 319.363C143.523 315.853 147.22 312.704 152.423 306.527L153.65 305.046C158.474 299.122 173.4 283.144 179.444 276.514L186.679 274.387C196.612 271.551 202.418 270.306 204.096 270.657Z" fill="#EBEBEB"/>
<path d="M256.625 196.767C258.671 203.252 263.454 213.967 255.333 222.775C244.242 234.805 239.877 232.131 233.469 233.593C227.061 235.055 226.914 246.812 228.052 252.344C229.19 257.875 222.801 260.978 217.205 259.72C211.852 258.517 210.524 246.859 213.638 239.082L215.195 235.588C215.766 234.273 216.441 232.682 217.202 230.885L224.377 222.001L227.182 218.383L227.775 217.556C230.007 214.246 239.624 207.316 256.625 196.767Z" fill="#D0D0D0"/>
<path d="M253.678 208.486C255.067 212.927 253.197 221.648 248.299 226.17C245.033 229.185 241.563 230.922 237.889 231.38C238.72 223.789 239.92 218.757 241.486 216.283C243.836 212.572 252.289 204.046 253.678 208.486Z" fill="#D8D8D8"/>
<path d="M302.061 143.19C303.102 140.695 306.83 138.93 309.764 140.644C312.698 142.358 314.763 149.355 316.601 153.171C318.439 156.987 321.897 163.982 324.862 167.164L325.964 168.403C330.21 173.312 341.119 186.978 344.283 192.555C346.614 196.664 349.39 202.232 352.61 209.26L348.768 212.094C332.627 223.91 323.088 229.695 320.149 229.448C315.402 229.049 309.168 195.636 302.407 196.815C296.021 197.929 284.076 197.268 270.263 194.422L267.807 193.897C252.962 190.609 244.919 192.035 241.205 192.631C237.49 193.227 226.694 207.598 225.462 207.773C224.23 207.948 223.129 207.046 222.629 206.215C222.129 205.384 223.151 204.873 224.444 203.343C225.738 201.813 227.826 195.865 229.516 193.373C231.206 190.881 234.645 187.313 241.185 184.283C247.725 181.253 259.009 183.833 272.71 186.903C286.411 189.973 296.72 188.932 301.764 185.307C306.528 181.883 305.334 173.634 303.117 168.255L302.716 167.337C300.259 162.027 300.316 158.606 301.9 157.148C303.485 155.69 306.432 156.644 307.366 156.802L308.345 156.986C308.772 157.049 309.12 157.029 309.451 156.748C310.002 156.28 308.566 155.465 305.109 152.291C301.654 149.117 301.02 145.685 302.061 143.19ZM303.378 144.484C302.569 147.569 307.535 151.237 309.056 152.721L312.541 156.084C313.841 157.379 315.017 158.644 315.281 159.265C315.809 160.506 317.756 162.474 318.005 162.234C318.253 161.994 315.562 156.341 314.56 153.986C313.558 151.631 311.81 145.844 309.841 143.439C307.871 141.034 304.187 141.4 303.378 144.484Z" fill="#434343"/>
<path d="M240.154 189.23C244.848 186.999 249.504 186.049 254.123 186.381C261.051 186.878 264.326 188.264 272.263 190.058C280.2 191.853 291.966 192.35 297.887 190.623C301.834 189.471 305.778 186.643 309.717 182.14C311.17 187.393 307.869 191.113 299.814 193.3C287.731 196.58 264.938 195.055 257.677 192.023C252.836 190.001 246.995 189.07 240.154 189.23Z" fill="#EEEEEE"/>
<path d="M241.28 189.179C247.933 186.791 256.457 187.167 261.185 188.612C265.913 190.056 277.313 192.751 284.192 192.859C291.071 192.967 296.378 192.503 297.514 191.934C298.65 191.366 313.624 211.363 313.025 222.928C312.426 234.493 295.479 249.022 281.856 255.839C268.234 262.656 243.757 273.856 230.689 287.554L229.244 289.076C216.782 302.262 206.038 315.071 203.932 310.866C201.746 306.499 213.399 269.121 212.213 266.752C211.07 264.468 202.813 268.045 198.982 269.926L184.626 277.108C180.324 279.261 184.8 274.422 194.323 265.653C203.845 256.884 217.293 232.971 219.461 226.299C221.629 219.628 223.912 208.323 226.583 203.562C229.255 198.804 234.627 191.567 241.28 189.179ZM285.87 214.791C284.984 214.858 280.238 220.891 273.398 229.203C266.558 237.517 262.483 241.957 262.96 242.653C263.437 243.35 273.605 238.893 280.457 234.575C287.309 230.257 292.545 223.992 291.828 220.57C291.111 217.148 286.756 214.723 285.87 214.791ZM221.999 246.83C220.153 247.705 218.831 249.232 218.031 251.412C216.832 254.681 219.434 254.624 221.297 254.672C222.539 254.704 223.877 254.307 225.312 253.481L221.999 246.83ZM251.258 213.456L250.291 213.981C244.516 217.26 244.032 222.529 243.457 226.754C242.882 230.979 236.029 235.529 236.462 236.395C236.895 237.26 240.765 236.555 243.32 235.32C245.876 234.083 251.692 229.11 254.662 226.359C257.632 223.608 271.412 211.782 271.602 211.045C271.792 210.307 269.237 209.739 265.813 209.744C262.389 209.749 256.066 210.702 250.291 213.981L251.258 213.456Z" fill="#8E8C89"/>
<path d="M241.373 188.476C248.026 186.088 256.55 186.464 261.278 187.909C266.006 189.353 277.406 192.048 284.285 192.156C291.164 192.264 296.471 191.8 297.607 191.231C298.743 190.663 313.717 210.66 313.118 222.225C312.519 233.79 295.572 248.318 281.949 255.135C268.326 261.952 243.85 273.152 230.782 286.85C217.714 300.549 206.668 314.721 204.483 310.354C202.297 305.987 213.949 268.608 212.763 266.239C211.62 263.955 202.94 267.354 199.078 269.223L184.72 276.405C180.418 278.558 184.895 273.719 194.418 264.95C203.94 256.181 217.387 232.269 219.555 225.597C221.723 218.926 224.006 207.621 226.677 202.86C229.348 198.101 234.72 190.864 241.373 188.476ZM285.794 213.801C284.908 213.868 280.032 220.061 273.192 228.374C266.352 236.687 261.239 242.384 261.75 243.404C262.26 244.424 273.491 239.573 280.975 235.058C288.459 230.544 293.426 224.253 292.44 220.346C291.452 216.439 286.68 213.734 285.794 213.801ZM222.092 246.126C220.051 247.059 218.571 248.833 217.653 251.45C216.276 255.375 219.612 254.993 221.746 255.021C223.168 255.04 224.541 254.586 225.863 253.66L222.092 246.126ZM265.906 209.042C262.482 209.047 255.694 210.354 249.919 213.633C244.144 216.912 243.553 222.392 242.978 226.617C242.403 230.842 235.179 235.771 235.612 236.636C236.045 237.501 239.638 237.728 243.267 235.912C246.896 234.096 252.036 229.681 255.006 226.93C257.976 224.179 272.418 211.883 272.663 210.86C272.908 209.837 269.329 209.037 265.906 209.042Z" fill="#ECE9EB"/>
<path d="M241.373 188.476C247.551 186.259 255.342 186.425 260.209 187.616L263.68 188.593C269.171 190.07 278.388 192.063 284.285 192.156C291.164 192.264 296.471 191.8 297.607 191.231C298.743 190.663 313.717 210.66 313.118 222.226C312.887 226.677 310.235 231.567 306.283 236.287C302.633 235.259 299.523 231.49 298.062 225.168L297.774 223.774C295.329 210.384 285.635 208.93 268.034 202.725C258.188 199.254 243.186 202.736 223.027 213.172L223.896 210.144C224.778 207.207 225.701 204.598 226.676 202.86C229.347 198.101 234.72 190.864 241.373 188.476Z" fill="#D4CED3"/>
<path d="M241.373 188.476C245.687 186.928 250.787 186.542 255.129 186.855C260.733 189.074 264.971 192.335 269.391 193.547C276.771 195.571 285.301 201.293 290.514 205.504C295.727 209.715 307.917 220.045 289.341 236.641C268.337 250.986 253.566 256.186 245.029 252.242C231.848 246.152 224.74 237.837 218.177 248.281L217.543 249.351C213.047 257.386 207.668 262.937 201.406 266.005L204.734 257.186C206.365 252.902 207.948 248.807 209.483 244.901L211.408 241.702C215.451 234.837 218.6 228.541 219.556 225.599C220.815 221.723 222.114 216.281 223.505 211.469L225.772 206.648C227.61 202.825 229.322 199.491 230.907 196.646C233.691 193.232 237.291 189.941 241.373 188.476ZM271.195 230.789C265.385 237.781 261.289 242.487 261.749 243.405C262.259 244.425 273.49 239.574 280.974 235.059C288.458 230.545 293.425 224.254 292.439 220.347C291.452 216.438 286.68 213.733 285.794 213.801C285.374 213.833 284.059 215.239 282.064 217.594L271.195 230.789ZM251.268 212.911L249.919 213.633C244.144 216.912 243.553 222.393 242.978 226.618C242.403 230.843 235.179 235.772 235.612 236.637C236.045 237.502 239.638 237.729 243.267 235.913C246.442 234.324 250.775 230.745 253.798 228.033L256.697 225.414C261.502 221.165 272.45 211.75 272.664 210.86C272.91 209.836 269.329 209.037 265.906 209.042C263.009 209.046 257.703 209.983 252.641 212.257L251.268 212.911Z" fill="#D9D5D8"/>
<path d="M228.542 229.905L229.07 230.919L229.967 232.427C231.033 234.076 232.625 236.06 234.885 237.613C233.471 238.879 231.66 239.761 229.806 240.424C227.862 241.119 225.822 241.321 224.062 240.983C224.192 236.644 224.927 231.345 225.723 230.285C226.942 228.658 227.723 228.268 228.542 229.905Z" fill="#3700C3"/>
<path d="M291.358 196.818L276.632 210.734C264.53 222.087 256.309 229.532 251.968 233.069C245.56 238.291 241.748 239.179 239.312 238.956C243.46 238.67 248.594 235.198 252.661 231.754L254.682 229.986L264.565 221.016C275.211 211.261 288.903 198.542 290.314 197.153C290.696 196.777 291.046 196.694 291.358 196.818Z" fill="#DACEF6"/>
<path d="M186.858 274.344C189.335 274.136 191.324 273.658 192.825 272.91C195.076 271.788 205.876 265.746 207.107 264.276C208.339 262.805 214.516 252.912 215.838 249.64C217.16 246.367 217.91 243.975 220.415 242.777C222.92 241.579 230.398 237.291 233.776 237.904C237.154 238.519 237.374 231.92 237.683 230.284C237.992 228.648 239.709 220.916 240.536 219.177C241.363 217.438 243.429 213.139 246.291 212.082C249.153 211.025 254.445 210.178 258.437 209.66C262.429 209.142 266.151 210.004 266.75 206.824C267.349 203.644 266.547 200.216 262.677 198.043C258.806 195.871 246.887 201.251 239.091 207.77C231.295 214.289 216.16 239.025 209.966 247.137C203.772 255.248 194.453 268.912 189.564 271.127C186.304 272.604 185.403 273.676 186.858 274.344Z" fill="#B8B4B9"/>
<path d="M241.713 208.032L245.769 206.394C253.153 203.3 262.894 198.855 263.454 200.047C264.125 201.478 263.42 204.957 257.535 207.065L253.719 208.376C249.086 209.922 244.826 211.243 243.789 212.178C242.601 213.249 240.765 217.933 239.919 220.492L239.676 221.258C239.003 223.497 235.608 232.018 230.811 234.963L228.016 236.697C224.42 238.957 221.422 240.971 219.968 242.307C218.352 243.792 216.663 246.776 216.02 248.412L215.83 248.957C215.421 250.369 208.187 262.641 206.854 263.996L206.165 264.604C205.25 265.358 203.713 266.51 202.086 267.693L199.879 268.997C196.893 270.734 193.896 272.376 192.826 272.909C191.325 273.657 189.337 274.135 186.86 274.343C185.404 273.675 186.306 272.603 189.565 271.126C194.209 269.021 202.852 256.585 209.016 248.391L209.968 247.135C213.752 242.179 220.874 231.018 227.621 221.597L231.143 217.724C236.015 212.458 239.887 208.726 241.713 208.032Z" fill="#827E83"/>
<path d="M181.403 271.25C179.341 275.001 178.745 276.888 179.615 276.91C180.921 276.944 189.671 273.626 195.96 270.338C202.249 267.051 204.955 265.119 206.033 263.689C207.111 262.258 214.008 252.436 215.542 247.605C217.076 242.774 219.876 241.206 222.541 239.949C225.206 238.692 234.629 235.109 236.886 228.303C239.143 221.497 240.997 212.947 243.323 211.493C245.649 210.039 256.231 207.049 259.118 206.177C262.004 205.305 268.754 203.102 263.8 197.272C258.846 191.441 249.684 188.545 243.221 189.362C236.758 190.179 231.326 195.132 229.65 197.409C227.974 199.686 224.61 205.234 224.151 210.128C223.692 215.022 221.734 219.935 220.405 221.797C219.076 223.659 216.254 226.766 213.519 228.999C210.784 231.231 204.496 236.117 202.347 242.332C200.198 248.547 198.235 253.537 196.543 256.297C194.851 259.057 190.445 263.33 187.644 266.348C185.778 268.359 183.698 269.993 181.403 271.25Z" fill="#EDEBF0"/>
<path d="M264.723 200.166C264.116 197.102 256.573 189.981 245.459 189.87C234.346 189.759 225.739 201.502 226.137 207.851C226.534 214.2 230.062 213.216 234.538 214.259C239.014 215.302 240.059 212.767 242.354 211.171C244.649 209.574 251.457 207.144 256.574 205.707C261.691 204.269 265.33 203.23 264.723 200.166Z" fill="#DBD9DE"/>
<path d="M202.201 259.011C202.131 260.183 199.614 260.288 198.185 260.88C196.756 261.471 194.639 263.082 194.069 262.94C193.755 262.862 192.274 263.303 189.626 264.266L191.607 262.191C193.603 260.08 195.546 257.925 196.544 256.297C197.295 255.073 198.098 253.409 198.948 251.394C199.699 254.236 202.254 258.115 202.201 259.011ZM210.677 237.595C212.182 238.793 213.137 240.926 212.73 241.696C212.322 242.467 206.927 244.039 204.769 242.711L202.691 241.442C203.841 238.661 205.79 236.167 207.79 234.092C208.501 235.584 209.851 236.937 210.677 237.595ZM228.799 224.286C228.983 225.24 228.73 226.02 228.038 226.627C227.874 227.053 226.72 227.232 224.577 227.163C222.445 227.095 219.836 226.715 216.75 226.025C218.28 224.471 219.61 222.91 220.406 221.796C220.68 221.413 220.98 220.9 221.289 220.284C225.42 221.631 228.671 223.626 228.799 224.286Z" fill="#AFAAB4"/>
<path d="M309.765 140.644C312.699 142.358 314.764 149.355 316.602 153.171C318.44 156.987 321.898 163.982 324.863 167.164L325.965 168.403L327.985 170.794C332.983 176.814 341.542 187.722 344.285 192.556C346.616 196.665 349.392 202.233 352.612 209.26L350.928 210.496L348.94 205.889C345.974 199.231 343.455 194.471 341.382 191.609L335.658 183.787C331.042 177.533 325.562 170.24 323.986 168.643L322.733 167.528C320.22 165.219 315.057 160.067 314.147 159.503C313.278 157.889 312.145 156.447 309.454 156.748C310.005 156.28 308.569 155.465 305.112 152.291C301.654 149.117 301.02 145.684 302.062 143.19C303.103 140.696 306.83 138.93 309.765 140.644ZM303.378 144.484C302.569 147.569 307.535 151.237 309.056 152.721L312.541 156.084C313.841 157.379 315.017 158.644 315.281 159.265C315.809 160.506 317.756 162.474 318.005 162.234C318.253 161.994 315.562 156.341 314.56 153.986C313.558 151.631 311.81 145.844 309.841 143.439C307.871 141.034 304.187 141.4 303.378 144.484Z" fill="#E2E2E2"/>
<path d="M308.264 151.996L309.057 152.721L312.542 156.084C313.625 157.163 314.622 158.222 315.077 158.904L315.281 159.265C315.412 159.573 315.63 159.925 315.888 160.278L314.068 159.37L313.846 158.974C313.007 157.591 311.847 156.481 309.454 156.748C310.005 156.28 308.569 155.465 305.112 152.291C303.91 151.188 303.05 150.053 302.482 148.938C304.048 150.235 306.717 151.35 308.264 151.996Z" fill="#AEAEAE"/>
<path d="M163.141 308.834C166.533 309.013 171.489 310.443 177.598 306.612C183.708 302.781 199.773 287.376 208.395 276.553C217.017 265.73 226.613 257.123 240.462 253.382C254.311 249.64 269.963 244.855 279.756 239.931C289.549 235.007 300.661 224.602 300.687 219.02C300.713 213.438 297.76 209.574 294.719 207.094C291.678 204.614 286.591 200.259 287.572 196.334C288.554 192.409 292.257 192.048 293.404 191.823C294.551 191.598 300.715 191.1 304.96 187.083C309.206 183.066 312.031 178.53 310.261 172.733C308.492 166.936 306.123 162.225 305.372 160.404C304.621 158.584 305.408 157.09 306.396 156.762C307.384 156.434 310.033 157.719 311.161 158.253C312.289 158.787 313.993 159.286 314.636 159.631C315.28 159.976 316.696 160.611 316.881 160.88C317.066 161.149 321.869 165.208 321.822 166.377C321.775 167.546 322.599 168.502 323.842 170.207C325.085 171.912 329.803 177.765 329.293 181.098C328.782 184.432 322.513 186.254 318.856 187.345C315.199 188.436 311.089 190.769 311.567 193.637C312.044 196.505 314.277 199.189 317.052 201.585C319.827 203.981 322.915 208.176 323.362 211.894C323.809 215.612 332.679 211.904 333.042 210.003C333.405 208.102 330.957 205.748 328.567 205.068C326.177 204.388 325.159 200.724 329.189 197.779C333.219 194.834 337.724 193.738 340.133 194.841C342.542 195.944 346.2 200.289 344.08 205.967C341.96 211.645 322.891 234.58 303.94 245.649C284.989 256.719 275.105 260.898 251.98 274.468C228.855 288.038 205.428 316.276 200.311 318.724C195.194 321.171 170.734 333.098 158.645 326.057C146.556 319.015 159.749 308.655 163.141 308.834Z" fill="#CEB6DD"/>
<path d="M309.038 169.104C311.076 173.293 312.386 177.005 312.968 180.24C314.747 190.128 305.223 195.295 298.736 195.195L297.973 195.158C294.595 194.874 291.368 196.584 288.293 200.286C287.587 198.978 287.247 197.633 287.572 196.335C288.403 193.013 291.182 192.245 292.712 191.95L293.404 191.824C294.552 191.598 300.715 191.101 304.96 187.084C309.206 183.067 312.031 178.531 310.261 172.734C309.966 171.768 309.655 170.832 309.337 169.934L309.038 169.104Z" fill="#D9D9D8"/>
<path d="M246.051 260.566C253.788 260.834 261.215 261.416 268.33 262.311L256.77 271.69L253.624 273.507C253.084 273.822 252.535 274.143 251.98 274.469C239.449 281.822 226.83 293.482 217.083 303.012C205.705 311.717 196.255 318.62 188.731 323.725C179.184 327.302 166.382 330.564 158.646 326.058C146.557 319.016 159.75 308.657 163.143 308.835C166.535 309.014 171.491 310.444 177.6 306.613C183.443 302.949 198.395 288.694 207.23 277.99L208.395 276.554C214.815 268.495 221.775 261.665 230.628 257.158L232.971 258.016C236.343 259.186 240.708 260.381 246.051 260.566Z" fill="#CEB6DD"/>
<path d="M230.627 257.156L232.97 258.014C236.344 259.185 240.709 260.38 246.052 260.566C251.641 260.76 257.068 261.117 262.332 261.638C261.258 263 260.15 264.049 259.238 264.568L256.671 266.004C249.675 269.84 234.803 277.333 226.56 275.692C221.47 274.679 215.577 274.765 208.88 275.952L208.395 276.552C214.814 268.494 221.774 261.664 230.627 257.156Z" fill="#CEB6DD"/>
<path d="M240.462 253.382C251.589 250.377 263.881 246.696 273.362 242.812C266.466 246.096 260.333 248.24 255.704 249.729L254.218 250.202C246.731 252.56 234.561 255.775 225.884 260.991C217.206 266.207 211.04 274.492 201.547 285.047C192.054 295.602 181.316 304.678 179.262 306.067L178.108 306.824C175.971 308.162 172.743 309.756 168.168 309.656L166.241 309.522C165.938 309.507 165.72 309.503 165.585 309.508L162.944 311.482C160.956 313.001 159.925 313.894 159.851 314.159C159.718 314.637 161.046 315.393 162.43 315.746L163.023 315.871C164.59 316.127 160.024 317.292 158.905 316.257C157.958 315.381 155.213 315.241 156.4 313.024C158.683 310.478 161.744 308.763 163.142 308.836C166.534 309.015 171.49 310.445 177.599 306.614C183.442 302.95 198.394 288.695 207.229 277.991L208.394 276.555C217.016 265.73 226.613 257.123 240.462 253.382ZM300.444 213.029C303.637 219.357 300.91 225.309 290.406 232.844C296.184 228.054 300.671 222.565 300.688 219.02C300.714 213.438 297.761 209.574 294.72 207.094C292.971 205.668 290.546 203.622 288.987 201.394C291.429 204.468 297.508 207.211 300.444 213.029ZM306.397 156.762C307.014 156.557 308.28 156.982 309.419 157.46L311.494 158.394L309.412 157.749C308.24 157.423 307.161 157.218 306.756 157.477C305.798 158.09 305.404 158.961 306.089 160.704L307.679 164.459C308.67 166.843 309.88 169.965 310.76 173.213C312.269 178.781 309.847 184.8 304.11 188.518C298.372 192.236 293.143 191.898 291.319 192.863C289.495 193.828 287.059 195.612 288.023 199.571L288.247 200.189C287.573 198.911 287.258 197.6 287.575 196.333C288.406 193.011 291.185 192.243 292.715 191.948L293.407 191.822C294.555 191.596 300.718 191.099 304.963 187.082C309.209 183.065 312.034 178.529 310.264 172.732C308.495 166.935 306.126 162.224 305.375 160.403C304.622 158.584 305.409 157.09 306.397 156.762Z" fill="#CEB6DD"/>
<path d="M182.04 326.187C181.984 321.218 182.238 318.096 182.802 316.822C183.649 314.911 193.66 305.19 202.456 296.628C211.252 288.066 219.394 277.857 223.979 273.257C228.564 268.657 238.731 263.416 249.167 261.952C256.124 260.976 261.493 260.357 265.275 260.093C251.295 276.884 239.694 289.193 230.473 297.022C221.252 304.851 205.108 314.571 182.04 326.187Z" fill="#4B4B4B"/>
<path d="M146.042 312.674C146.511 312.124 147.53 311.334 147.583 311.934C147.667 312.892 145.804 314.76 146.553 314.779C148.055 314.817 158.763 308.28 165.268 302.594C171.773 296.908 172.239 295.382 174.172 294.486C176.105 293.59 177.864 294.555 177.414 296.515C176.965 298.475 170.364 305.054 167.638 307.33C164.913 309.606 160.679 312.959 159.701 313.669C158.723 314.379 160.84 315.69 163.023 315.867C165.206 316.044 174.203 315.609 178.391 316.691C182.579 317.773 187.449 320.335 188.602 321.654C189.755 322.974 174.305 330.695 169.394 333.036C164.483 335.377 143.604 343.522 140.998 342.746C138.392 341.969 134.766 338.529 133.922 335.931C133.078 333.333 135.643 327.073 139.482 321.42C143.32 315.769 145.572 313.224 146.042 312.674Z" fill="#4A4947"/>
<path d="M380.734 229.251C380.859 229.5 380.987 229.757 381.12 230.023C381.319 230.421 382.006 235.843 380.483 240.018C378.96 244.193 374.225 249.182 368.913 253.214C363.6 257.246 348.624 265.419 344.201 267.632C339.778 269.845 316.2 281.645 311.685 283.905C307.17 286.164 306.449 283.898 305.546 283.322C304.643 282.746 301.718 284.041 302.121 285.682C302.524 287.323 303.093 288.205 299.574 289.966C296.055 291.727 295.807 288.747 294.422 288.584C293.037 288.421 291.121 289.521 290.978 290.624C290.835 291.727 291.76 293.545 290.006 294.507C288.252 295.469 286.691 295.026 285.005 293.524C283.32 292.022 282.501 293.002 280.371 293.178C278.241 293.354 276.361 293.083 275.132 292.023C272.907 293.731 270.352 296.216 269.839 297.335C269.326 298.454 270.167 302.453 267.13 304.152C264.093 305.851 261.972 303.247 260.157 304.147C258.343 305.047 257.966 305.635 257.64 306.811C257.314 307.987 257.974 310.742 254.145 312.702C250.718 314.456 248.712 314.381 247.458 313.537C246.204 312.692 245.513 312.636 245.315 312.447C243.43 310.65 242.082 309.54 241.054 310.535C240.025 311.53 240.131 314.861 240.289 316.212C240.447 317.563 241.182 319.208 235.87 321.877C229.942 324.844 218.273 330.684 216.818 331.412C215.659 331.992 214.186 332.106 212.665 331C212.277 330.718 210.918 331.301 210.528 330.848C209.514 329.67 208.148 329.19 207.318 330.009C206.578 330.74 207.309 331.707 206.946 332.776C206.7 333.501 204.902 333.274 204.65 334.495C204.398 335.716 203.25 336.871 202.755 337.123C202.028 337.495 194.23 341.458 192.596 340.306C190.962 339.154 189.542 338.899 188.865 339.824C188.188 340.749 188.088 342.461 186.36 343.113C184.632 343.765 181.153 344.752 178.84 344.842C176.526 344.932 174.387 345.479 172.609 343.629C171.729 342.713 169.886 342.341 168.387 342.779C166.858 343.225 166.687 345.176 166.324 345.652C166.099 345.947 164.716 346.037 164.406 346.492C163.727 347.49 163.033 348.267 162.589 348.347C161.942 348.463 157.158 349.456 156.442 348.541C155.726 347.626 154.477 347.079 153.502 347.352C152.527 347.625 152.869 348.533 150.844 348.682C149.494 348.782 148.787 348.311 148.722 347.271C146.12 347.142 143.951 346.946 142.215 346.684C139.611 346.29 135.906 344.982 133.914 341.002C131.922 337.022 132.512 333.663 132.865 332.621C133.218 331.579 134.096 331.367 134.477 331.889C134.858 332.412 136.971 337.435 138.012 338.952C139.052 340.468 139.693 340.576 140.835 340.532C141.977 340.488 150.061 338.378 158.971 334.286C167.881 330.193 192.436 317.293 198.271 313.553C204.105 309.814 215.434 301.977 227.444 288.842C239.454 275.707 247.861 267.099 257.906 261.887C260.368 260.723 265.2 258.462 273.199 254.315C281.198 250.168 297.721 241.713 305.531 233.747C313.341 225.78 318.822 214.611 320.602 212.249C322.383 209.887 326.282 206.554 329.978 206.25C333.674 205.946 362.668 219.047 367.403 222.428C372.138 225.809 377.752 227.399 378.764 227.814C379.439 228.088 380.096 228.568 380.734 229.251Z" fill="#3B3A39"/>
<path d="M381.053 229.852L381.121 230.023C381.274 230.328 381.711 233.576 381.226 236.955C376.225 243.737 365.387 252.232 351.868 259.171L347.431 261.359C333.827 267.889 328.768 269.041 339.736 262.76L343.624 260.59C359.766 251.774 376.014 241.013 381.053 229.852Z" fill="#4B4B4B"/>
<path d="M139.908 341.034C139.329 341.483 140.671 343.924 142.237 344.871C143.803 345.818 145.858 346.461 152.517 345.756C159.176 345.051 161.437 344.601 162.944 344.856C163.949 345.026 165.052 345.33 166.255 345.767C167.278 343.698 168.306 342.778 169.337 343.008C170.368 343.237 171.566 343.537 172.93 343.908C171.759 343.036 171.871 342.345 173.265 341.836C175.356 341.073 181.921 339.529 188.875 337.165C195.829 334.801 202.655 332.371 203.773 332.495C204.891 332.619 206.196 333.25 206.686 333.056C207.174 332.862 207.595 332.026 207.508 331.28C207.422 330.534 207.247 330.114 208.077 329.758C208.909 329.403 210.3 331.004 210.735 331.03C211.169 331.056 211.794 330.765 211.844 330.332C211.893 329.9 211.226 329.023 214.395 327.492C217.564 325.96 237.482 315.515 238.104 315.315C238.725 315.115 239.512 315.6 239.577 315.974C239.642 316.348 240.747 316.007 240.657 314.691C240.567 313.375 241.74 311.839 242.574 311.632C243.408 311.425 244.903 312.238 245.145 312.445C245.306 312.583 245.627 312.422 246.108 311.963C245.893 311.432 246.087 310.776 246.692 309.994C247.598 308.821 256.068 304.391 260.728 301.751C265.388 299.111 272.504 293.53 273.829 291.935C274.712 290.872 276.337 289.202 278.704 286.928C275.107 279.715 274.136 275.07 275.793 272.994C278.278 269.879 319.627 244.268 329.586 238.022C339.545 231.776 357.544 212.053 356.756 210.136C355.968 208.218 353.841 204.447 352.885 204.07C351.929 203.693 339.606 204.556 334.121 205.06C328.636 205.564 325.202 207.161 321.253 212.647C317.304 218.132 310.603 231.681 301.064 238.893C291.525 246.104 280.849 251.335 270.494 256.322C260.139 261.31 249.774 266.167 241.305 274.753C232.837 283.339 219.192 299.425 210.418 305.71C201.643 311.996 177.37 326.627 162.509 333.246C147.648 339.865 144.069 340.53 142.639 340.852C141.21 341.171 140.488 340.585 139.908 341.034Z" fill="#D1CCCE"/>
<path d="M321.253 212.644C325.202 207.159 328.636 205.562 334.121 205.057L338.448 204.696C341.18 204.486 344.288 204.273 346.923 204.134C346.693 206.802 346.052 210.44 341.715 214.202L339.304 216.231C329.807 224.09 303.081 245.254 298.165 248.349C292.723 251.776 273.825 261.659 269.898 267.592C265.971 273.525 265.661 282.115 268.829 287.748C271.997 293.381 261.805 297.379 256.295 300.052C251.335 302.458 243.653 307.163 237.918 311.284L236.085 312.632C230.645 316.734 219.473 322.677 213.559 324.776L212.376 325.165C206.905 326.794 204.836 328.271 200.676 331.003C196.516 333.735 179.363 338.317 178.401 333.808C177.44 329.299 198.517 320.445 211.867 309.009C217.644 304.06 225.005 295.235 233.951 282.535L237.072 279.177C238.581 277.566 240.004 276.07 241.305 274.751C249.122 266.825 258.555 262.077 268.105 257.471L270.494 256.321C280.849 251.334 291.525 246.102 301.064 238.891C310.603 231.678 317.305 218.129 321.253 212.644Z" fill="#DAD8DA"/>
<path d="M141.194 344.008C142.624 344.662 143.919 345.076 145.079 345.249C148.029 345.69 159.87 344.047 164.946 343.151C170.022 342.255 195.537 333.91 205.555 329.736C215.572 325.562 240.212 310.909 251.072 304.034C260.352 298.159 271.012 287.619 276.475 281.905C277.039 283.411 277.786 285.084 278.704 286.925L276.857 288.726C275.747 289.828 274.879 290.732 274.253 291.439L273.829 291.932C272.593 293.421 266.311 298.382 261.69 301.183L252.303 306.42C249.49 308.004 247.146 309.405 246.693 309.991C246.089 310.773 245.894 311.429 246.109 311.96C245.628 312.419 245.307 312.58 245.146 312.442C244.904 312.235 243.409 311.422 242.575 311.629C241.86 311.807 240.896 312.96 240.692 314.115L240.658 314.688C240.736 315.84 239.9 316.245 239.646 316.078L239.577 315.972C239.512 315.598 238.725 315.113 238.104 315.313L231.414 318.721C226.319 321.358 219.621 324.844 216.197 326.587L214.395 327.49C211.225 329.022 211.893 329.898 211.843 330.33C211.794 330.762 211.169 331.054 210.734 331.028C210.3 331.002 208.908 329.401 208.077 329.756C207.246 330.111 207.421 330.531 207.508 331.278C207.595 332.024 207.174 332.861 206.685 333.054C206.196 333.247 204.891 332.617 203.773 332.493C203.214 332.431 201.228 333.007 198.512 333.895L188.874 337.163C181.92 339.527 175.355 341.071 173.264 341.834C171.87 342.343 171.758 343.034 172.929 343.906L170.423 343.259C170.042 343.167 169.68 343.083 169.336 343.006C168.305 342.777 167.277 343.696 166.254 345.765C165.052 345.328 163.948 345.025 162.943 344.854C161.436 344.599 159.176 345.049 152.516 345.754L150.088 345.966C145.317 346.281 143.593 345.689 142.236 344.868L141.725 344.502L141.194 344.008ZM321.253 212.644C324.898 207.581 328.104 205.83 332.891 205.195L336.178 204.879C342.205 204.377 352.036 203.733 352.885 204.068C353.16 204.176 353.532 204.566 353.941 205.111L347.1 206.58C342.17 207.667 338.149 208.626 335.034 209.462C327.443 211.5 322.941 216.898 315.713 230.609C308.485 244.32 277.254 257.567 264.817 263.857C252.38 270.147 239.658 295.046 207.546 313.088C184.131 326.245 164.55 333.97 152.282 337.608L156.063 336.047C157.934 335.256 160.07 334.33 162.509 333.244C177.37 326.625 201.642 311.993 210.418 305.708C219.192 299.422 232.836 283.337 241.305 274.751C249.122 266.825 258.555 262.077 268.105 257.471L270.494 256.321C280.849 251.334 291.525 246.103 301.064 238.892C310.603 231.679 317.305 218.129 321.253 212.644Z" fill="#E1E1E1"/>
<path d="M141.796 344.562C143.092 345.119 144.793 345.613 146.759 345.672L148.405 345.662C153.453 345.507 163.22 344.36 164.757 343.34L164.946 343.151C165.489 341.964 170.938 342.134 171.726 341.873L202.128 332.035C203.566 331.541 204.892 331.524 206.105 331.986C206.44 330.277 207.068 329.121 207.989 328.519C208.91 327.916 209.879 328.606 210.897 330.588C210.666 329.565 211.02 328.754 211.958 328.156L213.333 327.366C218.106 324.692 233.239 316.515 236.873 315.051L237.329 314.883C240.245 313.967 239.666 313.033 241.325 311.836C242.984 310.639 246.363 309.391 247.409 308.791L257.091 302.766C262.289 299.498 267.903 295.927 269.299 294.912C271.083 293.615 272.695 292.018 274.137 290.12L274.978 290.646L273.829 291.931C272.593 293.42 266.311 298.381 261.69 301.182L252.303 306.419C249.49 308.003 247.146 309.404 246.693 309.99C246.089 310.772 245.894 311.428 246.109 311.959C245.628 312.418 245.307 312.579 245.146 312.441C244.904 312.234 243.409 311.421 242.575 311.628C241.86 311.806 240.896 312.959 240.692 314.114L240.658 314.687C240.736 315.839 239.9 316.244 239.646 316.077L239.577 315.971C239.512 315.597 238.725 315.112 238.104 315.312L231.414 318.72C226.319 321.357 219.621 324.843 216.197 326.586L214.395 327.489C211.226 329.021 211.893 329.897 211.844 330.329C211.795 330.761 211.17 331.053 210.735 331.027C210.301 331.001 208.909 329.4 208.078 329.755C207.247 330.11 207.422 330.53 207.509 331.277C207.596 332.023 207.175 332.86 206.686 333.053C206.197 333.246 204.892 332.616 203.774 332.492C203.215 332.43 201.229 333.006 198.513 333.894L188.875 337.162C181.921 339.526 175.356 341.07 173.265 341.833C171.871 342.342 171.759 343.033 172.93 343.905L170.424 343.258C170.043 343.166 169.681 343.082 169.337 343.005C168.305 342.776 167.277 343.695 166.254 345.764C165.052 345.327 163.948 345.024 162.943 344.853C161.436 344.598 159.176 345.048 152.516 345.753L150.088 345.965C146.051 346.232 144.196 345.848 142.898 345.227L142.236 344.867L141.796 344.562ZM321.253 212.644C324.898 207.581 328.104 205.83 332.891 205.195L336.178 204.879C342.205 204.377 352.036 203.733 352.885 204.068L353.099 204.193C352.257 204.365 351.384 204.476 350.488 204.557L345.362 204.869C339.937 205.242 331.857 206.056 328.12 208.105C322.659 211.1 315.874 224.568 307.826 233.546C299.779 242.524 282.405 251.335 270.229 257.342C258.769 262.996 248.195 270.269 242.787 275.765L238.922 279.934C232.32 286.99 220.142 299.471 213.536 304.88L211.832 306.238C204.268 312.113 194.136 317.973 173.389 329.064C162.94 334.649 154.232 338.131 147.264 339.509L149.581 338.663C152.207 337.669 155.805 336.202 160.794 334.005L162.509 333.245C177.371 326.626 201.643 311.994 210.418 305.709C219.192 299.423 232.836 283.338 241.305 274.752C249.122 266.826 258.555 262.078 268.105 257.472L270.494 256.322C280.849 251.335 291.525 246.104 301.064 238.893C310.603 231.679 317.305 218.129 321.253 212.644Z" fill="#FBFBFB"/>
<path d="M167.809 339.789C168.653 340.82 170.341 341.888 172.158 342.712C172.081 342.949 172.201 343.233 172.505 343.543C172.442 343.597 172.343 343.656 172.231 343.718L170.22 343.212C169.913 343.139 169.619 343.071 169.337 343.008C168.435 342.807 167.535 343.486 166.639 345.045L166.352 345.58L165.908 345.428C163.699 344.634 162.758 343.798 163.084 342.922C163.424 342.006 164.999 340.961 167.809 339.789Z" fill="#ECEBE9"/>
<path d="M361.873 213.952C362.318 213.423 362.452 212.188 362.11 211.921C361.768 211.654 359.679 209.288 358.31 208.923C356.941 208.558 355.967 208.487 355.507 208.815C355.046 209.143 344.204 218.514 337.682 223.063C331.16 227.612 310.713 241.634 305.617 244.788C300.521 247.942 283.935 258.457 279.532 261.005C275.13 263.553 269.007 269.287 268.263 275.107C267.519 280.927 271.197 288.137 272.486 289.799C273.775 291.461 274.079 291.472 274.688 291.089C275.297 290.706 278.044 287.848 278.634 287.564C279.224 287.28 282.057 286.125 287.212 283.623C292.367 281.121 308.679 273.88 327.279 264.537C345.879 255.194 362.341 246.674 368.98 241.507C375.619 236.34 381.179 230.145 380.59 228.968C380.001 227.791 378.59 224.766 375.981 225.033C375.624 225.003 375.59 224.172 375.162 223.397C374.734 222.622 372.424 217.931 368.546 216.457C364.667 214.983 362.784 214.868 362.296 214.801C361.809 214.733 361.428 214.481 361.873 213.952Z" fill="#D9D9D9"/>
<path d="M351.428 238.886C354.281 237.4 356.489 236.226 360.241 233.852C363.993 231.478 372.849 223.623 372.328 225.95C371.918 227.783 373.687 229.098 373.518 230.591C373.472 230.994 372.949 231.55 372.608 231.964C371 233.911 365.858 238.361 359.836 241.786C353.813 245.211 339.739 253.037 338.456 253.498C337.174 253.96 342.103 244.184 344.696 242.576C347.289 240.968 348.574 240.372 351.428 238.886Z" fill="#8F88B9"/>
<path d="M362.262 213.008C362.22 213.246 362.146 213.484 362.045 213.685L361.873 213.952C361.428 214.481 361.809 214.733 362.297 214.8L363.129 214.909C364.094 215.059 365.832 215.425 368.547 216.457C372.426 217.931 374.735 222.621 375.163 223.397C375.591 224.173 375.625 225.003 375.982 225.033C376.223 225.008 376.454 225.012 376.675 225.039C376.922 227.584 373.956 230.409 372.176 231.964C370.202 233.688 370.085 227.764 370.884 225.665C371.683 223.566 368.37 219.821 366.597 218.599C364.824 217.377 362.639 216.229 360.359 217.225C359.219 217.723 357.766 218.74 356.282 219.876L352.012 223.24C350.32 224.537 348.446 226.108 346.389 227.951L345.138 228.823C344.409 229.31 343.892 229.608 343.587 229.719C342.9 229.967 344.203 228.635 346.523 226.528L347.882 225.338C350.834 222.81 355.946 218.669 357.079 217.722L358.29 216.658L362.262 213.008Z" fill="#BEBAC7"/>
<path d="M348.632 224.373C347.524 226.268 347.091 227.859 347.331 229.146C347.692 231.076 349.036 229.892 348.968 231.1C348.9 232.309 348.197 234.935 350.209 237.298C351.55 238.873 353.409 240.43 355.785 241.969C347.626 248.107 340.204 252.878 333.521 256.281C323.496 261.386 306.345 270.696 297.513 274.966C291.625 277.812 284.599 281.125 276.435 284.903C274.488 282.023 273.645 279.501 273.905 277.336C274.295 274.089 273.8 271.347 286.376 263.341C298.952 255.335 334.465 234.441 339.509 230.588C342.872 228.019 345.913 225.947 348.632 224.373Z" fill="#5A4991"/>
<path d="M345.276 233.946C345.748 237.057 327.722 248.436 315.873 255.644L304.468 262.546C298.062 266.46 294.39 268.831 290.445 271.477C287.381 273.53 286.109 276.416 286.629 280.138L279.115 283.66C278.236 284.068 277.343 284.483 276.435 284.903C274.488 282.023 273.645 279.5 273.905 277.335L274.019 276.286C274.217 274.542 274.602 272.76 277.425 270.012C280.666 267.431 285.167 264.273 290.157 260.97L294.474 258.313C302.185 253.594 312.235 247.559 320.94 242.271L326.035 239.545C337.792 233.385 344.794 230.772 345.276 233.946Z" fill="#594B84"/>
<path d="M280.478 272.105C280.295 272.874 277.824 274.468 277.483 276.229C277.244 277.461 278.696 279.676 279.685 279.843C282.087 280.248 300.044 269.446 307.475 265.379C314.906 261.312 348.422 243.464 350.087 242.087C351.197 241.169 351.826 240.177 351.972 239.11C354.212 240.562 355.533 241.733 355.937 242.626C356.543 243.964 345.566 248.917 334.911 254.211C324.256 259.505 311.574 267.072 303.117 270.727C294.66 274.382 281.351 281.606 279.598 281.893C277.845 282.18 276.266 278.744 276.396 276.933C276.528 275.121 280.789 270.799 280.478 272.105Z" fill="#71659E"/>
<path d="M278.356 287.822C277.324 286.385 277.032 284.641 276.837 283.156C277.499 283.123 278.224 282.94 279.012 282.609L307.902 268.791L321.888 261.832C333.693 255.892 349.924 247.539 360.277 241.367C370.63 235.195 375.865 229.75 375.982 225.033C378.591 224.767 380.003 227.791 380.592 228.968C381.181 230.145 375.62 236.34 368.981 241.507C363.172 246.028 349.842 253.116 334.14 261.077L323.033 266.654C306.937 274.619 293.165 280.78 287.857 283.313L283.781 285.254L278.356 287.822Z" fill="#AA9ED1"/>
<path d="M379.084 228.57C379.071 229.45 373.054 236.795 367.056 241.261C361.058 245.727 330.789 261.281 323.064 265.025L284.24 283.442C281.518 284.749 279.704 285.639 279.365 285.849C278.507 286.381 278.147 287 278.285 287.704L278.356 287.821C277.455 286.567 277.118 285.079 276.918 283.734C277.162 283.875 277.453 283.946 277.793 283.958C278.675 283.99 280.046 283.465 282.573 282.293L310.621 268.951C316.184 266.266 322.251 263.294 328.387 260.201L334.047 257.305C348.663 249.723 363.963 241.021 368.713 237.491C373.724 233.766 376.95 228.373 377.443 226.438L377.506 226.078C377.611 224.563 379.097 227.689 379.084 228.57Z" fill="#8470C3"/>
<path d="M375.982 225.033C378.591 224.767 380.003 227.791 380.592 228.968C381.181 230.145 375.62 236.341 368.98 241.508C363.171 246.029 349.841 253.117 334.139 261.078L323.032 266.655L314.877 270.637C302.401 276.653 292.241 281.221 287.856 283.313L278.355 287.822L278.199 287.579L280.522 286.33C283.035 285.035 286.99 283.103 292.387 280.536L307.304 273.491C332.592 261.411 362.537 245.707 366.772 242.428C371.333 238.896 376.774 233.44 378.263 231.598C379.752 229.756 379.875 228.421 378.873 226.788C377.983 225.336 377.196 225.635 376.773 226.474L376.632 226.812C374.876 230.878 370.318 235.971 363.371 240.391L360.084 242.363C349.872 248.269 325.399 261.123 302.328 272.282L296.327 275.151C288.214 278.979 282.504 281.436 279.198 282.522L307.9 268.793L321.886 261.834L328.11 258.685C338.939 253.171 351.648 246.512 360.275 241.369C370.63 235.195 375.865 229.75 375.982 225.033Z" fill="#D8D1EC"/>
<path d="M355.508 208.815C355.969 208.487 356.942 208.558 358.311 208.923C359.68 209.288 361.769 211.654 362.111 211.921C362.396 212.144 362.351 213.038 362.07 213.637L361.745 214.136C361.428 214.547 361.026 214.958 360.563 215.365L359.665 216.137C355.603 219.582 343.401 229.486 333.53 235.909L296.932 259.261C292.712 261.923 289.282 264.049 287.433 265.114L284.381 266.824C280.05 269.304 276.556 271.698 275.731 274.05C274.756 276.829 275.814 280.931 276.678 282.876C277.2 284.051 277.77 285.665 278.39 287.719C277.535 288.378 275.241 290.744 274.691 291.09C274.082 291.473 273.778 291.462 272.489 289.8C271.2 288.138 267.521 280.927 268.266 275.108C268.957 269.704 274.286 264.374 278.568 261.6L284.015 258.296L305.62 244.789C310.021 242.065 325.872 231.235 334.314 225.402L337.685 223.064C344.204 218.514 355.047 209.143 355.508 208.815Z" fill="#8F7FC0"/>
<path d="M355.508 208.815C355.969 208.487 356.942 208.558 358.311 208.923C358.995 209.105 359.86 209.788 360.596 210.459L362.17 211.99C357.426 213.6 348.838 217.775 343.114 221.578C335.741 226.478 324.457 237.946 307.315 248.866C290.917 259.314 274.618 266.735 269.19 271.907C271.036 267.681 275.136 263.819 278.566 261.597L284.013 258.294L305.618 244.787C309.39 242.452 321.575 234.162 330.295 228.168L337.682 223.063L339.472 221.776C346.011 216.952 355.087 209.114 355.508 208.815Z" fill="#A296CA"/>
<path d="M355.508 208.815C355.702 208.677 355.986 208.61 356.352 208.605C354.489 210.984 351.78 213.516 348.241 216.201L345.981 217.869C339.896 222.274 328.536 229.995 320.368 235.376L295.044 251.782C287.021 257.026 279.488 261.995 277.911 263.118C274.86 265.289 268.777 271.32 268.695 276.808C268.612 282.296 271.393 287.538 272.675 289.385C273.278 290.254 273.905 290.852 274.555 291.181L274.69 291.089C274.081 291.472 273.777 291.461 272.488 289.799C271.199 288.137 267.52 280.926 268.265 275.107C268.956 269.703 274.285 264.373 278.567 261.599L284.014 258.295L305.619 244.789C309.391 242.454 321.576 234.164 330.296 228.17L337.683 223.065L339.473 221.777C346.011 216.952 355.087 209.114 355.508 208.815Z" fill="#69589E"/>
<path d="M363.983 216.059C364.493 216.183 367.821 217.388 369.712 219.238C371.603 221.088 372.524 222.837 372.649 223.639C372.774 224.441 374.712 224.638 374.126 222.982C373.54 221.326 371.453 218.653 369.536 217.418C367.619 216.183 365.293 215.605 364.241 215.533C363.187 215.461 363.472 215.935 363.983 216.059Z" fill="#9594A5"/>
<path d="M182.944 329.443C180.42 331.383 177.1 335.12 178.446 335.617C179.792 336.113 185.109 335.794 185.273 335.417C185.437 335.04 181.312 334.56 181.284 333.857C181.256 333.152 185.468 327.503 182.944 329.443Z" fill="#D6CFD1"/>
<path d="M179.523 334.717C179.846 334.903 181.675 335.18 185.008 335.547C183.916 335.858 179.635 336.055 178.447 335.617C177.608 335.308 178.581 333.74 180.044 332.133C179.39 333.678 179.216 334.539 179.523 334.717Z" fill="#E7E3E6"/>
<path d="M261.339 202.488C262.054 200.922 263.013 199.987 259.967 198.063C256.921 196.139 249.176 192.684 247.241 191.86C245.305 191.036 241.433 190.45 238.221 192.411C235.009 194.372 233.788 195.458 232.015 197.919C230.242 200.38 228.022 204.371 228.171 206.795C228.32 209.219 231.578 210.857 234.915 210.044C238.252 209.232 248.348 207.289 250.708 206.689C253.067 206.088 260.624 204.054 261.339 202.488Z" fill="#B0AFB2"/>
<path d="M261.152 201.533C261.867 199.967 262.826 199.032 259.78 197.108C256.734 195.184 248.989 191.729 247.054 190.905C245.118 190.081 241.246 189.495 238.034 191.456C234.822 193.417 233.601 194.503 231.828 196.964C230.055 199.425 227.835 203.416 227.984 205.84C228.133 208.264 231.391 209.902 234.728 209.089C238.065 208.277 248.161 206.334 250.521 205.734C252.88 205.133 260.437 203.099 261.152 201.533Z" fill="#E9E9E9"/>
<path d="M238.032 191.455C241.244 189.494 245.117 190.08 247.052 190.904L250.535 192.451C253.242 193.685 256.734 195.343 258.925 196.597L260.196 197.382C260.514 197.935 260.59 198.432 260.356 198.84C258.698 201.735 250.255 204.328 243.058 205.623C235.861 206.918 230.551 206.664 229.89 205.927C229.636 205.644 229.008 204.591 228.428 203.298C229.135 201.14 230.589 198.679 231.826 196.962C233.599 194.502 234.82 193.415 238.032 191.455Z" fill="#CECDD2"/>
<path d="M259.539 199.656C259.573 198.943 255.065 196.895 253.719 196.23C252.373 195.565 247.22 193.362 245.124 193.216C243.029 193.07 240.486 193.699 239.448 194.281C238.409 194.863 239.787 198.048 241.423 198.959C243.06 199.87 254.402 200.012 256.168 200.291C257.934 200.57 259.505 200.369 259.539 199.656Z" fill="#D6D5DA"/>
<path d="M254.817 196.956C252.408 196.808 248.49 197.27 245.039 197.684C241.588 198.098 234.938 196.585 237.627 195.205C240.316 193.825 242.246 192.801 244.573 193.02C246.901 193.239 257.225 197.104 254.817 196.956Z" fill="#DFDEE2"/>
<path d="M241.433 202.374C240.598 204.404 239.493 205.71 238.118 206.291C236.056 207.163 231.115 208.257 230.668 206.675C230.222 205.093 231.825 201.099 233.4 199.133C234.975 197.167 242.725 193.422 242.528 195.638C242.398 197.117 242.033 199.362 241.433 202.374Z" fill="#B8B6BC"/>
<path d="M235.91 196.094C231.585 200.444 229.02 204.589 230.156 206.446C230.659 207.268 232.798 207.3 236.566 206.818C238.034 206.63 239.714 206.363 241.581 206.027L245.26 205.325L251.106 204.102C255.388 203.202 259.621 201.425 259.995 200.071C260.408 198.576 249.963 193.518 246.27 192.917C241.998 192.221 239.108 192.878 235.91 196.094ZM246.158 193.619C249.395 194.146 259.538 199.057 259.31 199.88C259.066 200.762 255.59 202.287 251.954 203.177L247.083 204.225L243.252 204.991C242.642 205.107 242.044 205.219 241.456 205.324C239.6 205.658 237.931 205.924 236.477 206.11C233.154 206.535 231.029 206.504 230.765 206.073C229.898 204.656 232.362 200.674 236.416 196.596C239.432 193.563 242.092 192.958 246.158 193.619Z" fill="#979797"/>
<path d="M229.192 212.214L237.179 213.833L236.795 215.542L228.724 213.896L229.192 212.214Z" fill="#B1AFB3"/>
<path d="M220.324 228.396L219.839 229.737L223.923 231.687L224.142 230.174L220.324 228.396Z" fill="#D0CECB"/>
<path d="M211.766 245.859L207.313 244.732L207.005 246.095L211.481 247.322L211.766 245.859Z" fill="#D8D8D8"/>
<path d="M193.83 270.445C194.557 269.319 197.185 265.123 195.955 264.04C194.725 262.958 190.234 262.005 189.68 262.342C189.126 262.679 187.512 266.052 186.668 266.836C185.824 267.619 185.619 266.123 184.759 267.791C183.899 269.459 182.965 271.247 182.703 271.461C182.441 271.675 182.109 270.41 181.402 271.25C180.831 271.928 178.395 275.764 177.641 277.514C177.461 277.93 178.071 278.246 178.026 278.353C177.794 278.908 182.157 278.524 185.413 276.685C186.995 275.791 188.988 274.789 190.566 273.629C192.235 272.401 193.456 271.024 193.83 270.445Z" fill="#757575"/>
<path d="M193.33 269.638C194.057 268.512 196.967 264.904 195.737 263.821C194.507 262.739 190.232 262.005 189.678 262.342C189.124 262.679 187.51 266.052 186.666 266.836C185.822 267.619 185.618 266.123 184.758 267.791C183.898 269.459 182.964 271.247 182.702 271.461C182.44 271.675 182.108 270.41 181.401 271.25C180.694 272.089 177.758 276.992 177.526 277.547C177.294 278.102 181.657 277.718 184.913 275.879C186.495 274.985 188.487 273.983 190.065 272.823C191.735 271.595 192.956 270.218 193.33 269.638Z" fill="#EEECEC"/>
<path d="M189.679 262.342C190.233 262.005 194.508 262.739 195.738 263.821C196.023 264.072 196.086 264.458 196.005 264.918C193.545 268.101 189.283 272.351 186.892 273.063C185.323 273.53 183.097 273.518 180.216 273.026L180.917 271.925C181.121 271.619 181.289 271.383 181.402 271.25C182.109 270.411 182.44 271.675 182.703 271.461C182.965 271.247 183.899 269.459 184.759 267.791C185.62 266.123 185.824 267.619 186.668 266.836C187.512 266.053 189.124 262.679 189.679 262.342Z" fill="#E8E5EA"/>
<path d="M185.395 267.236C184.508 267.171 184.029 266.053 184.675 264.845C185.321 263.637 186.622 261.464 187.286 261.076C187.95 260.688 192.293 257.346 193.723 256.79C195.153 256.234 196.185 255.989 197.211 255.45C198.238 254.911 200.225 249.728 199.897 248.871C199.569 248.015 197.068 244.847 196.021 243.534C194.974 242.221 193.71 239.822 194.606 238.297C195.501 236.772 198.017 235.617 199.367 235.864C200.717 236.111 204.506 237.406 205.674 237.454C206.842 237.502 209.199 232.416 208.652 231.267C208.104 230.118 204.38 227.363 203.844 226.606C203.308 225.85 202.765 224.339 203.197 223.839C203.629 223.339 204.032 222.315 206.166 221.37C208.301 220.426 217.111 222.852 219.802 221.525C222.493 220.198 223.326 217.441 222.699 216.502C222.073 215.563 219.844 214.13 218.843 212.072C217.842 210.013 216.26 207.081 217.073 204.69C217.885 202.3 220.21 200.496 221.122 200.33C222.033 200.164 222.761 198.873 225.419 197.986C228.077 197.1 231.047 198.572 233.3 197.706C235.553 196.839 236.731 192.997 236.01 191.968C235.289 190.94 232.317 189.633 231.346 189.478C230.375 189.323 229.06 188.863 228.013 189.32C226.966 189.777 226.821 187.884 227.694 186.643C228.567 185.402 230.935 184.662 232.922 185.798C234.909 186.934 238.624 189.058 238.973 190.948C239.322 192.838 238.999 196.647 237.965 198.45C236.932 200.253 235.501 202.242 230.058 201.65C226.43 201.256 223.161 202.322 220.252 204.849C220.207 205.47 220.671 206.759 221.642 208.717C223.1 211.654 228.114 215.933 226.845 219.114C225.576 222.295 222.577 225.068 220.204 225.377C217.831 225.686 212.343 224.789 210.6 224.838C209.438 224.871 208.28 224.696 207.125 224.315C209.219 226.214 210.372 227.384 210.583 227.823C210.9 228.483 213.678 232.149 212.188 234.643C210.697 237.137 209.198 239.655 207.543 240.408C205.888 241.161 200.09 239.667 199.479 239.703C199.071 239.727 198.609 239.851 198.093 240.075C199.683 241.904 200.904 243.68 201.756 245.405C203.033 247.992 204.291 250.847 202.577 254.239C200.864 257.631 199.214 258.744 197.027 259.841C194.84 260.938 192.551 262.404 191.542 262.586C190.533 262.768 188.956 263.996 188.098 265.09C187.241 266.191 186.283 267.301 185.395 267.236Z" fill="#F0EFEE"/>
<path d="M201.502 244.927L201.754 245.411C203.032 247.998 204.29 250.853 202.576 254.245C201.052 257.26 199.58 258.475 197.735 259.478L195.387 260.713C193.773 261.597 192.296 262.456 191.54 262.592C190.531 262.774 188.954 264.002 188.096 265.096C187.239 266.19 186.28 267.3 185.393 267.235C185.122 267.215 184.889 267.097 184.715 266.908C186.067 264.71 188.357 262.543 191.582 260.403L193.021 259.487C200.566 254.88 201.547 252.293 202.202 250.272C202.596 249.069 202.148 246.784 201.502 244.927ZM194.658 239.448C194.791 240.736 196.605 243.077 198.176 245.179L199.629 247.081C200.474 248.229 200.98 249.162 200.607 250.037C200.355 250.629 199.844 251.486 199.019 252.4L199.485 251.12C199.824 250.084 200.017 249.186 199.896 248.872C199.568 248.016 197.066 244.848 196.019 243.535C194.972 242.222 193.708 239.823 194.604 238.298C194.803 237.96 195.081 237.639 195.409 237.349C194.924 238.089 194.598 238.87 194.658 239.448ZM210.458 227.626L211.178 228.822C212.023 230.248 213.307 232.778 212.189 234.649L211.067 236.496C209.939 238.292 208.785 239.849 207.544 240.414C205.889 241.167 200.091 239.673 199.48 239.709C199.071 239.733 198.609 239.857 198.093 240.081L199.058 241.254L198.547 240.739C197.76 239.874 197.422 239.033 199.407 239.041L202.224 239.189C205.177 239.268 206.951 238.832 208.178 237.022L209.037 235.662C210.354 233.431 211.66 230.512 211.016 229.238C210.598 228.412 209.942 227.37 209.046 226.113L209.936 227.011C210.169 227.262 210.344 227.468 210.458 227.626ZM207.558 228.771C208.985 230.062 209.926 231.495 208.992 232.63C208.907 232.733 208.752 232.835 208.539 232.935C208.732 232.208 208.803 231.587 208.651 231.269C208.103 230.12 204.379 227.365 203.843 226.608C203.307 225.852 202.764 224.341 203.196 223.841L203.517 223.401C203.464 225.347 206.417 227.739 207.558 228.771ZM221.642 208.722C223.1 211.659 228.114 215.937 226.845 219.119C225.576 222.3 222.577 225.073 220.204 225.382C218.094 225.657 213.524 224.978 211.31 224.859L210.6 224.843C209.531 224.873 208.465 224.728 207.403 224.407C206.739 223.835 206.354 223.308 206.226 222.813C207.166 223.784 214.005 224.402 216.486 224.153C218.968 223.904 220.976 223.611 222.482 221.691C223.988 219.771 225.708 216.362 225.273 215.209C224.837 214.057 222.281 211.274 221.221 208.245C221.058 207.779 220.915 207.322 220.793 206.875L221.316 208.047C221.417 208.263 221.526 208.488 221.642 208.722ZM219.07 210.7L220.999 212.813C222.438 214.403 223.579 215.837 223.347 216.891C223.263 217.274 223.072 217.641 222.806 217.976C222.957 217.356 222.913 216.824 222.7 216.504C222.074 215.565 219.845 214.133 218.844 212.074L217.929 210.165C217.469 209.138 217.054 208.027 216.906 206.937C217.298 208.224 217.88 209.361 219.07 210.7ZM238.972 190.951C239.321 192.841 238.998 196.65 237.964 198.453L237.486 199.229C236.44 200.772 234.722 202.161 230.057 201.653C226.473 201.263 223.24 202.299 220.358 204.76C220.262 204.06 220.227 203.381 220.251 202.731C221.823 201.478 223.431 200.673 225.076 200.317C227.543 199.782 232.475 200.499 234.477 199.073C236.479 197.647 238.718 192.354 238.22 190.795C237.974 190.025 237.084 188.849 236.085 187.752C237.51 188.747 238.776 189.886 238.972 190.951ZM228.156 188.283C230.155 187.573 234.075 189.278 235.283 190.521C235.77 191.022 236.056 191.681 236.172 192.357C236.133 192.201 236.08 192.073 236.009 191.972C235.288 190.944 232.316 189.637 231.345 189.482L230.054 189.228C229.595 189.147 229.12 189.094 228.668 189.15L228.013 189.324C227.429 189.579 227.126 189.103 227.123 188.416C227.388 188.476 227.735 188.432 228.156 188.283Z" fill="#CFC9D3"/>
<path d="M202.567 259.388C199.248 257.63 197.363 256.587 196.911 256.259C196.233 255.767 198.736 247.994 200.083 248.757C200.981 249.266 202.938 250.409 205.952 252.188L202.567 259.388Z" fill="#9E8DCD"/>
<path d="M197.998 251.343C199.108 251.576 200.757 252.303 202.945 253.522L204.808 254.604L203.717 256.973L201.623 255.647L200.754 255.125C199.544 254.412 198.319 254.084 197.078 254.141C197.203 253.641 197.372 253.077 197.569 252.508L197.998 251.343Z" fill="#E4DEEB"/>
<path d="M212.808 241.656C208.739 239.051 206.406 237.699 205.807 237.597C204.909 237.445 208.393 231.427 208.536 231.004C208.679 230.581 211.827 231.961 213.079 232.58C213.913 232.993 215.019 233.715 216.396 234.745L212.808 241.656Z" fill="#9E8DCD"/>
<path d="M206.839 234.287L207.484 233.029L208.701 233.518C208.884 233.59 209.302 233.804 209.954 234.159L215.165 237.112L214.09 239.198L212.66 238.414C211.614 237.862 210.149 237.116 208.265 236.176L206.379 235.25L206.839 234.287Z" fill="#E4DEEB"/>
<path d="M228.672 227.309C225.832 226.604 223.867 225.619 222.778 224.356C221.689 223.093 220.84 221.98 220.233 221.019C221.222 217.995 221.834 216.42 222.069 216.295C222.422 216.107 223.343 215.468 225.886 216.49C227.581 217.171 229.628 218.507 232.028 220.498C231.092 221.867 230.435 222.935 230.056 223.705C229.677 224.474 229.215 225.676 228.672 227.309Z" fill="#9E8DCD"/>
<path d="M221.096 218.479L221.311 217.91L222.709 218.371C222.958 218.456 223.215 218.546 223.481 218.64C224.662 219.059 227.183 220.524 231.043 223.033L230.58 222.748L230.057 223.705L229.647 224.627C228.717 224.191 227.826 223.728 226.97 223.245L225.711 222.505C224.239 221.605 222.413 220.736 220.233 219.899L220.563 220.025L221.096 218.479Z" fill="#E4DEEB"/>
<path d="M241.487 202.978C236.722 200.173 233.928 198.658 233.104 198.433C231.868 198.096 233.43 197.125 233.971 196.236C234.511 195.348 235.014 191.427 235.239 191.42C235.464 191.413 238.218 192.317 240.155 193.141C241.446 193.69 242.742 194.539 244.041 195.687L241.487 202.978Z" fill="#9E8DCD"/>
<path d="M234.265 195.475L234.633 193.975L235.895 194.259C236.503 194.391 238.279 195.372 241.222 197.2L243.096 198.376L242.376 200.48L241.622 200.029C240.494 199.392 238.499 198.367 235.637 196.956L234.007 196.153L234.148 195.838L234.265 195.475Z" fill="#E4DEEB"/>
<path d="M324.755 232.805C325.542 232.419 321.759 235.547 314.101 240.414C301.525 248.407 281.97 260.477 278.296 263.002C272.385 267.064 269.459 271.753 268.942 275.701C268.424 279.649 270.381 285.372 271.725 287.81C270.531 286.366 268.731 281.314 268.569 277.744C268.407 274.174 270.364 268.583 276.627 263.78C280.16 261.07 293.896 252.387 305.999 244.701C315.344 238.767 323.932 233.209 324.755 232.805Z" fill="#EEEEEE"/>
</g>
<defs>
<clipPath id="clip0_7_2">
<rect width="458.9" height="458.9" fill="white"/>
</clipPath>
</defs>
</svg>
