<svg width="459" height="459" viewBox="0 0 459 459" fill="none" xmlns="http://www.w3.org/2000/svg">
<g clip-path="url(#clip0_7_275)">
<path d="M128.528 326.137C127.513 321.147 131.352 315.264 140.047 308.488C153.089 298.324 173.488 282.266 174.609 280.918C175.73 279.57 182.689 271.421 184.53 270.387C186.371 269.353 191.895 266.211 192.53 266.383C193.165 266.555 217.961 247.02 227.383 235.172C236.805 223.324 240.578 214.342 241.221 212.375C241.864 210.409 239.438 207.688 239.192 206.151C238.946 204.614 238.163 202.217 238.133 196.506C238.103 190.795 235.98 174.853 236.558 172.581C236.943 171.066 237.743 168.637 238.959 165.294L238.682 149.928L257.589 145.918L261.766 167.477C281.509 165.505 296.606 166.605 307.056 170.778C322.732 177.037 335.113 188.355 339.144 194.528C341.832 198.643 346.583 205.78 353.398 215.938L355.085 219.308C326.675 233.688 306.874 244.061 295.682 250.425C278.894 259.971 250.53 282.201 235.953 290.654C221.376 299.107 141.56 332.327 138.853 333.114C136.146 333.901 134.772 332.11 133.782 330.376C133.122 329.22 131.371 327.807 128.528 326.137Z" fill="#F7F6F4"/>
<path d="M237.54 176.912L238.33 178.49L239.46 191.518L243.31 199.212L242.797 200.543L238.063 194.421C237.803 189.654 236.912 181.824 236.583 176.874C236.865 176.888 237.184 176.901 237.54 176.912Z" fill="#BDBDBD"/>
<path d="M316.694 189.601L325.703 200.882C336.048 213.998 341.919 222.134 343.318 225.292L327.244 233.545C313.279 240.774 302.76 246.401 295.683 250.425C284.491 256.789 265.417 268.994 238.462 287.04C216.193 304.779 192.692 303.396 235.366 260.544C242.928 252.951 260.915 232.272 280.908 211.389C285.477 206.616 306.631 195.912 316.694 189.601Z" fill="#EAE5DE"/>
<path d="M132.626 315.358C134.583 317.542 139.232 318.267 142.698 316.667C147.129 314.622 173.351 295.675 190.764 289.196C202.373 284.877 212.686 287.784 221.703 297.919L221.562 297.759C193.838 310.556 141.046 332.476 138.853 333.113C136.146 333.9 132.921 332.434 131.931 330.701C131.271 329.545 130.137 328.011 128.53 326.099C127.876 322.908 129.229 319.342 132.589 315.401L132.626 315.358Z" fill="#EAE9E8"/>
<path d="M309.437 201.113C304.509 213.569 302.76 226.972 304.19 241.322C317.563 235.47 329.786 229.871 340.86 224.526C336.082 209.73 331.779 201.131 327.95 198.73C322.208 195.128 316.624 194.244 314.413 194.895C312.94 195.328 311.281 197.401 309.437 201.113Z" fill="#D9D9D9"/>
<path d="M314.095 195.013L314.414 194.895C314.483 194.875 314.554 194.856 314.629 194.839L314.531 195.557L314.387 196.379C308.503 209.212 305.855 223.863 306.441 240.334L304.19 241.323C302.759 226.973 304.508 213.571 309.437 201.114C311.281 197.402 312.94 195.329 314.414 194.895L314.095 195.013Z" fill="#C1B9AB"/>
<path d="M320.603 149.528C321.584 148.24 322.055 147.898 322.541 147.897C323.027 147.896 331.48 152.486 334.472 161.446C335.098 162.411 338.846 166.453 345.719 173.573C346.298 173.682 346.742 173.792 347.053 173.901C347.364 174.01 347.839 174.225 348.479 174.546C351.926 179.077 354.417 182.595 355.952 185.101C356.646 186.233 357.552 189.275 358.198 190.333C360.986 194.902 364.261 200.318 368.024 206.58L348.736 220.587C341.786 210.458 334.947 201.464 328.22 193.605C318.129 181.815 319.622 150.816 320.603 149.528Z" fill="#E2E1DF"/>
<path d="M346.815 173.259L348.478 174.545C351.925 179.076 354.416 182.594 355.951 185.1C356.645 186.232 357.551 189.274 358.197 190.332L358.44 190.737L357.857 198.346L358.467 200.295L357.239 202.758L356.196 201.616L355.253 190.723L354.115 187.957C353.468 188.86 353.008 189.101 352.736 188.68C352.463 188.259 352.212 187.023 351.982 184.972L348.171 177.223L346.428 176.126L345.286 173.163L345.493 173.052C345.806 173.143 346.248 173.212 346.815 173.259Z" fill="#A8A7A4"/>
<path d="M334.472 161.445L335.181 162.385C335.891 163.276 337.077 164.695 338.739 166.642C332.796 178.257 330.051 187.863 330.502 195.479L329.666 195.308L328.219 193.603C323.711 188.336 318.433 183.604 312.385 179.405L331.486 155.647C332.678 157.315 333.739 159.249 334.472 161.445Z" fill="#D4D3D1"/>
<path d="M334.472 161.445C334.569 161.595 334.747 161.834 335.006 162.164C331.073 167.887 325.893 175.681 319.47 185.546L319.756 185.114C317.977 183.576 316.115 182.096 314.168 180.675L330.3 153.73C332.124 156.005 333.514 158.576 334.472 161.445Z" fill="#C0B6A6"/>
<path d="M320.613 145.189L322.293 146.706L322.855 147.384L323.526 147.81L330.711 154.257C331.426 155.201 332.069 156.193 332.64 157.235C332.906 158.395 333.037 159.442 333.039 160.389C325.944 168.969 320.815 176.631 317.654 183.375C313.229 179.769 308.304 176.511 302.892 173.591L320.614 150.388C320.27 149.34 319.794 148.223 319.186 147.036L320.613 145.189Z" fill="#DFDFDF"/>
<path d="M320.018 145.965C320.473 145.901 320.912 145.858 321.337 145.835L322.293 146.707L322.855 147.385L323.526 147.811L327.103 151.028C318.089 162.344 312.009 172.303 309.233 177.322C307.206 176.018 305.09 174.777 302.893 173.591L320.615 150.388C320.271 149.34 319.795 148.223 319.187 147.036L320.018 145.965Z" fill="#F1EEEA"/>
<path d="M315.652 130.231C320.842 129.265 321.225 137.763 320.587 142.259C320.357 143.881 321.374 145.7 322.855 147.386C328.57 150.765 332.431 155.415 334.435 161.336C333.77 161.823 333.047 161.905 332.264 161.593C330.891 158.615 329.294 156.396 327.472 154.937C326.106 153.843 324.653 152.886 323.115 152.067L321.547 151.294L304.654 173.424L303.517 172.771L318.613 150.897C319.31 148.585 319.308 147.135 318.22 145.28L316.671 142.749C314.284 138.663 310.934 131.109 315.652 130.231ZM316.387 132.876C315.79 134.327 316.79 137.676 319.388 142.922C319.679 139.439 319.607 137.151 319.172 136.059C318.52 134.421 317.282 130.699 316.387 132.876Z" fill="#E58E40"/>
<path d="M315.652 130.231C320.842 129.265 321.225 137.763 320.587 142.259C320.357 143.881 321.374 145.7 322.855 147.386C328.57 150.765 332.431 155.415 334.435 161.336C333.77 161.823 333.047 161.905 332.264 161.593C330.891 158.615 329.294 156.396 327.472 154.937C326.106 153.843 324.653 152.886 323.115 152.067L322.431 151.729C321.578 150.698 320.457 149.63 319.067 148.524C319.144 147.397 318.885 146.414 318.22 145.281L316.671 142.75L315.935 141.43C313.695 137.219 311.406 131.021 315.652 130.231ZM316.387 132.876C315.79 134.327 316.79 137.676 319.388 142.922C319.679 139.439 319.607 137.151 319.172 136.059L318.491 134.331C317.841 132.776 317.026 131.321 316.387 132.876Z" fill="#CA762B"/>
<path d="M238.724 152.258L243.205 150.992L248.69 161.952L249.345 170.269C249.71 175.437 249.822 178.556 249.681 179.625L249.636 179.866C249.219 181.417 247.376 186.734 245.938 179.599L245.76 178.641C244.959 173.957 242.657 167.339 238.853 158.786L238.724 152.258Z" fill="#DFBEA0"/>
<path d="M245.444 240.845C255.559 232.78 263.837 227.029 270.278 223.591C276.719 220.153 280.089 219.983 280.387 223.082C282.562 219.877 281.584 214.971 277.453 208.364C273.322 201.757 268.384 196.488 262.638 192.557C259.789 208.621 256.477 219.116 252.702 224.044C248.928 228.97 246.509 234.571 245.444 240.845Z" fill="#DF7E1B"/>
<path d="M246.127 173.086C248.02 171.016 255.121 168.508 261.622 166.74L261.765 167.478C282.703 163.685 295.472 165.231 306.191 170.162C321.085 177.014 334.677 188.735 338.709 194.908L346.21 205.199C348.276 208.295 350.671 211.875 353.397 215.939L334.438 226.984C332.353 224.063 328.366 220.418 326.574 218.104C324.782 215.79 323.278 215.007 322.444 212.388C319.384 205.758 309.271 201.385 307.706 201.378C306.141 201.37 296.341 213.281 285.166 214.416C277.716 215.172 270.929 212.176 264.807 205.428C264.732 209.882 263.977 213.859 262.544 217.36C260.59 222.134 256.44 227.408 251.514 231.586L241.562 239.617C232.711 246.861 220.51 257.082 217.639 260.153L217.265 260.577C214.533 263.952 191.883 283.567 184.973 285.242C181.017 286.2 177.944 284.312 175.751 279.576L178.642 276.269C180.109 274.627 181.695 272.91 182.913 271.738C184.339 274.635 185.651 275.982 186.842 275.802L187.251 275.696C189.434 274.937 194.764 270.445 211.253 256.797C228.879 242.208 239.382 225.535 242.008 220.151C244.509 215.024 244.953 197.867 244.162 193.671L244.034 193.142C243.079 190.162 243.065 176.435 246.127 173.086Z" fill="#F4A55E"/>
<path d="M306.366 198.666C294.726 212.708 286.63 214.202 278.395 212.604C273.971 211.355 270.651 209.742 266.763 205.456C266.422 209.43 264.405 215.496 262.992 218.277C260.5 223.185 259.129 227.097 244.582 242.231C234.884 252.32 220.923 263.728 202.699 276.456C231.422 244.92 247.066 225.75 249.632 218.946C252.198 212.142 255.618 201.517 259.894 187.071C260.424 185.704 308.089 185.677 306.366 198.666Z" fill="#BB5901"/>
<path d="M265.556 170.73C284.115 166.64 300.474 167.934 314.634 174.612C325.99 181.343 335.458 189.929 338.709 194.907L346.21 205.198C348.276 208.294 350.671 211.874 353.397 215.938L347.867 219.157C329.728 196.007 317.248 183.516 310.43 181.682C303.38 179.787 289.973 177.034 270.211 173.425L265.556 170.73Z" fill="#D08441"/>
<path d="M182.915 271.735C184.341 274.632 185.653 275.979 186.844 275.799L187.253 275.693C188.759 275.169 191.763 272.869 198.895 267.012C198.84 271.152 198.327 274.712 197.366 277.692C192.279 281.519 187.541 284.616 184.975 285.238C181.019 286.196 177.946 284.308 175.753 279.572L178.644 276.265L181.308 273.362C181.881 272.759 182.427 272.204 182.915 271.735Z" fill="#F0CFB1"/>
<path d="M187.053 268.132C189.812 266.042 192.964 264.851 194.103 264.604C195.243 264.357 197.716 265.473 195.86 268.115C194.623 269.876 192.116 272.324 188.339 275.457C186.466 276.424 185.215 276.578 184.587 275.92C183.959 275.262 183.554 274.2 183.371 272.735C183.986 271.059 185.213 269.525 187.053 268.132Z" fill="#E6E6E6"/>
<path d="M183.662 273.043C183.378 271.447 183.317 270.534 183.48 270.305C183.724 269.962 187.19 266.397 188.222 266.554C188.91 266.659 188.845 268.164 188.027 271.069L186.925 273.229L184.391 274.497L183.662 273.043Z" fill="#525252"/>
<path d="M190.102 273.159C194.328 269.879 196.436 267.711 196.428 266.654C196.415 265.07 194.519 260.959 196.299 259.691C197.486 258.846 199.086 258.434 201.1 258.456C199.781 261.616 199.622 263.649 200.624 264.554C199.471 265.698 195.963 268.567 190.102 273.159Z" fill="#525252"/>
<path d="M200.624 264.555C201.959 263.23 202.729 262.419 202.933 262.12C203.239 261.672 204.183 258.23 207.101 258.081C207.568 258.453 208.302 258.322 209.302 257.688L213.736 253.873C214.34 249.285 215.033 246.883 215.815 246.668C216.596 246.453 218.211 246.499 220.659 246.806L226.174 241.484C225.455 238.318 225.346 236.179 225.847 235.066C226.209 234.459 227.818 233.933 230.676 233.487L231.308 234.751L234.951 230.51L234.596 229.801L237.872 228.161L238.049 226.069L234.654 226.845C234.221 225.29 234.505 224.152 235.506 223.433C236.507 222.714 237.69 221.824 239.056 220.765L241.249 221.538L242.72 218.931L241.509 216.512L244.086 215.223L244.708 212.109L243.639 211.914L243.503 207.012L245.434 206.045L246.468 205.527L248.528 202.53L245.934 201.909L246.024 200.049L248.497 198.811L248.16 193.549L243.45 198.368L241.918 202.104L243.413 205.09L241.639 205.978C239.899 210.012 238.9 212.414 238.643 213.186C238.258 214.344 237.43 218.312 237.452 218.676C237.475 219.04 232.587 219.881 231.36 223.339C230.543 225.644 230.037 227.923 229.842 230.175C226.617 230.268 224.775 230.882 224.317 232.017C223.63 233.72 221.315 238.396 220.764 240.025C220.397 241.111 220.234 242.097 220.273 242.982C217.656 243.064 215.81 243.577 214.736 244.521C213.125 245.938 209.94 248.034 208.539 253.491C207.611 253.534 202.971 255.031 201.095 258.457C199.849 260.74 199.691 262.773 200.624 264.555Z" fill="#525252"/>
<path d="M186.86 278.43C185.494 281.07 188.6 284.544 190.907 283.582C193.214 282.62 202.854 278.133 215.526 267.326C228.197 256.52 243.33 243.34 253.596 229.76C260.44 220.707 264.037 210.376 264.389 198.769C268.662 207.07 274.305 211.556 281.318 212.228C291.837 213.236 297.046 207.518 305.767 199.401C306.933 198.629 315 200.853 318.303 204.383C320.505 206.736 323.442 210.415 327.115 215.417C326.706 207.236 325.081 201.752 322.241 198.963C319.401 196.174 306.565 192.333 283.736 187.439L257.311 189.867L241.599 227.182L219.589 253.784L195.392 274.916C190.614 275.499 187.771 276.67 186.86 278.43Z" fill="#AC8553"/>
<path d="M187.037 281.747C185.695 279.043 184.396 277.785 197.085 267.981C209.775 258.177 237.19 234.35 243.174 216.879C249.158 199.408 250.119 180.335 248.494 174.911C247.41 171.295 244.479 162.871 239.702 149.638L257.961 143.719C260.441 155.363 261.859 162.844 262.217 166.162C262.754 171.139 263.057 169.628 266.15 169.661C269.243 169.694 287.976 166.172 301.481 171.597C314.986 177.023 328.675 185.289 337.425 197.748C343.258 206.054 347.882 212.72 351.296 217.748L334.622 226.093C328.134 219.603 325.079 215.66 325.457 214.264C325.852 213.179 321.784 205.547 316.549 201.705C311.314 197.863 306.192 196.623 303.785 199.172C301.379 201.721 290.789 213.53 280.188 210.981C273.121 209.282 267.595 203.732 263.61 194.332C263.108 208.991 259.16 220.96 251.766 230.239C240.675 244.159 214.695 267.64 204.168 274.715C193.64 281.791 188.379 284.451 187.037 281.747Z" fill="#F6F2EB"/>
<path d="M337.424 197.748L346.618 210.928C348.371 213.464 349.93 215.737 351.296 217.748L334.622 226.093L332.35 223.779C327.776 219.023 325.468 215.949 325.426 214.556L325.457 214.264C325.852 213.179 321.784 205.547 316.549 201.705C314.653 200.314 312.772 199.263 311.029 198.611L312.142 195.414C314.38 188.873 315.495 184.841 315.494 183.322C315.493 182.162 314.696 180.072 313.104 177.053C322.473 182.143 331.198 188.885 337.424 197.748Z" fill="#E7E2DC"/>
<path d="M242.768 158.183L260.011 153.602L260.959 158.459L244.208 162.244L242.768 158.183Z" fill="#E4DED6"/>
<path d="M241.178 153.738L259.041 148.854L260.063 153.86L242.731 158.079L241.178 153.738Z" fill="#D1C8BB"/>
<path d="M245.872 167.002L261.963 164.246L262.15 165.595L262.361 167.375L247.057 170.468L245.872 167.002Z" fill="#B3A590"/>
<path d="M346.72 211.149L346.981 211.455L350.311 216.303C350.65 216.799 350.978 217.281 351.295 217.749L347.872 219.457L343.726 212.958L346.72 211.149Z" fill="#A3A3A3"/>
<path d="M337.242 215.892C339.001 215.011 340.656 213.083 339.271 209.953C337.885 206.823 334.726 205.904 332.33 207.283C329.934 208.662 329.113 211.514 330.862 214.355C332.611 217.196 335.482 216.773 337.242 215.892Z" fill="#BCB5A8"/>
<path d="M336.752 214.815C338.068 214.156 339.318 212.739 338.326 210.486C337.333 208.233 334.999 207.602 333.205 208.63C331.411 209.658 330.769 211.735 332.035 213.774C333.299 215.814 335.436 215.474 336.752 214.815Z" fill="#DBD2C0"/>
<path d="M335.748 212.896C336.461 212.376 336.586 212.021 336.094 211.256C335.602 210.49 335.065 209.97 334.097 210.655C333.129 211.341 333.573 212.294 333.925 212.763C334.277 213.232 335.035 213.416 335.748 212.896Z" fill="#917F5D"/>
<path d="M193.506 279.181C194.903 278.099 196.43 276.856 195.785 275.63C195.14 274.404 191.824 274.867 190.263 276.592C188.701 278.318 188.757 279.772 189.436 280.366C190.115 280.96 192.109 280.263 193.506 279.181Z" fill="#A8906D"/>
<path d="M193.112 278.467C194.509 277.385 196.036 276.142 195.391 274.916C194.746 273.69 191.43 274.153 189.869 275.878C188.307 277.604 188.363 279.058 189.042 279.652C189.72 280.248 191.715 279.549 193.112 278.467Z" fill="#E4D0B3"/>
<path d="M258.861 185.417C262.071 183.952 261.621 180.463 260.74 178.703C259.859 176.943 257.415 174.881 254.648 176.227C251.881 177.573 251.778 180.926 252.659 182.686C253.54 184.446 255.651 186.882 258.861 185.417Z" fill="#ACA9A1"/>
<path d="M257.873 182.967C258.78 182.549 259.421 181.188 258.777 179.912C258.134 178.636 256.717 178.708 255.731 179.25C254.745 179.792 254.318 180.996 254.966 182.147C255.614 183.298 256.966 183.385 257.873 182.967Z" fill="#6E3300"/>
<path d="M202.317 302.548C212.015 297.469 225.499 289.098 242.768 277.437C254.47 269.535 274.603 253.85 303.095 238.053C316.858 230.422 332.411 225.327 345.284 218.689C353.866 214.264 361.306 209.947 367.604 205.739L368.524 209.128L215.717 302.465L205.903 306.036L202.317 302.548Z" fill="#BDB198"/>
<path d="M378.678 225.568C377.205 221.982 371.169 209.912 370.383 208.572C369.597 207.232 368.425 205.136 366.753 206.455C364.394 208.586 350.922 219.013 319.043 232.579C287.164 246.145 229.619 289.628 204.673 302.275C179.727 314.922 140.112 325.143 134.684 324.576C131.066 324.198 128.983 324.053 128.436 324.141C128.933 325.784 129.439 327.023 129.954 327.86C133.593 333.765 137.93 337.06 140.95 338.605C146.441 341.415 169.552 342.537 201.044 330.13C222.039 321.858 240.058 312.841 255.102 303.077C254.248 297.619 254.209 294.067 254.982 292.419C256.143 289.948 279.656 265.711 304.3 256.857C328.944 248.002 350.328 241.691 351.677 242.204C352.576 242.546 353.817 242.533 355.399 242.166C362.544 237.986 367.754 234.899 371.027 232.905C375.938 229.912 378.44 226.265 378.678 225.568Z" fill="#EAE7DF"/>
<path d="M372.124 213.407L372.422 212.511L375.652 219.048C376.303 220.392 376.923 221.689 377.448 222.816L378.414 224.949C378.18 225.759 377.925 226.496 377.651 227.158C376.478 228.649 374.282 230.919 371.027 232.903L359.104 239.993L355.508 242.102L355.228 242.203C353.729 242.532 352.544 242.532 351.676 242.202C350.328 241.689 328.944 248.001 304.299 256.855C284.208 264.074 264.869 281.514 257.78 289.052L245.715 295.208C235.348 300.425 223.493 306.156 221.401 306.075C218.499 305.963 243.495 289.011 262.92 277.607L286.275 264.262C305.028 253.6 326.913 241.339 337.825 236.422L348.783 231.495C358.107 227.237 364.825 223.752 368.294 219.528C370.039 217.406 371.315 215.365 372.124 213.407Z" fill="#E4E0D8"/>
<path d="M208.018 318.552C221.384 312.889 230.292 308.964 234.742 306.777C239.192 304.59 244.178 302.094 249.701 299.291L251.697 298.292C259.445 298.082 267.985 295.663 277.316 291.033C286.647 286.403 307.409 274.159 339.603 254.3L354.594 241.424C360.822 238.54 365.781 235.794 369.471 233.186C373.162 230.578 376.205 227.926 378.602 225.229C377.146 229.69 376.369 231.977 376.272 232.089C376.175 232.201 368.032 240.285 351.841 256.34L241.503 312.202L202.734 326.336L208.018 318.552Z" fill="#BFB7A6"/>
<path d="M201.019 304.062L204.851 302.184L204.329 301.586C208.481 306.126 210.487 310.134 210.347 313.611C210.207 317.088 208.863 320.823 206.314 324.815C204.321 328.113 197.222 331.467 185.016 334.876C172.81 338.285 161.392 339.142 150.762 337.446C154.361 329.456 158.9 322.895 164.379 317.764C176.3 314.158 189.791 309.369 201.019 304.062Z" fill="#BFB7A6"/>
<path d="M128.436 324.141C128.983 324.053 131.066 324.198 134.684 324.576C136.454 324.761 141.863 323.798 149.213 321.977L144.558 328.324C142.361 331.385 141.351 332.948 141.529 333.014L148.91 333.885C157.637 334.869 170.952 336.357 170.671 336.594L170.348 336.812C169.722 337.214 168.223 338.129 165.852 339.558C152.953 341.261 144.082 340.207 140.949 338.604C137.93 337.059 133.592 333.764 129.953 327.859C129.439 327.024 128.933 325.784 128.436 324.141Z" fill="#BDB7AA"/>
<path d="M366.642 206.754C367.543 205.934 368.094 205.836 368.549 206.158C365.903 208.929 361.546 212.204 355.477 215.987C343.46 223.477 322.238 230.093 296.817 244.784C271.396 259.475 252.874 273.231 229.36 288.819C206.983 303.653 205.024 304.248 203.659 304.538L203.453 304.582C202.887 304.705 202.01 304.568 200.823 304.169C202.137 303.537 203.425 302.907 204.673 302.274C229.619 289.627 287.164 246.144 319.043 232.578C350.922 219.012 365.08 208.176 366.642 206.754Z" fill="white"/>
<path d="M128.357 324.194C132.075 325.503 134.153 326.502 134.592 327.191C135.25 328.224 132.686 337.226 149.336 338.615C165.986 340.004 190.442 333.19 197.262 328.952C201.809 326.127 205.755 322.95 209.1 319.421C218.787 315.516 226.363 312.304 231.826 309.784C237.289 307.264 243.926 303.737 251.738 299.202C258.817 300.374 265.398 299.447 271.481 296.419C280.605 291.877 334.438 265.545 336.572 263.844C338.706 262.143 349.372 254.937 355.287 241.939C357.619 241.066 376.848 230.842 378.703 225.194C379.212 233.206 380.761 246.973 356.695 260.07C340.651 268.801 327.603 275.757 317.551 280.937L310.874 280.977L276.945 297.957C272.474 302.436 269.582 304.984 268.267 305.601C266.295 306.527 224.69 327.409 213.087 333.216C201.484 339.023 162.152 354.459 143.768 343.991C131.512 337.012 126.375 330.413 128.357 324.194Z" fill="#DED6C7"/>
<path d="M276.944 297.958L274.84 300.037L274.495 300.371C274.084 300.768 273.692 301.143 273.317 301.496C273.018 301.778 272.732 302.044 272.457 302.296C272.151 302.577 271.861 302.839 271.584 303.085L271.789 302.902C271.59 303.08 271.399 303.249 271.214 303.41L271.584 303.084C271.409 303.24 271.239 303.388 271.075 303.53L271.073 303.532C270.734 303.825 270.417 304.091 270.124 304.327L270.292 304.19C270.16 304.298 270.032 304.401 269.909 304.498L270.124 304.326C269.996 304.429 269.873 304.526 269.754 304.618L269.752 304.619C269.376 304.91 269.044 305.146 268.759 305.325L268.756 305.327L268.589 305.428L266.683 306.378C258.64 310.367 223.583 327.962 213.085 333.215L210.921 334.257L210.058 334.654C209.773 334.784 209.479 334.916 209.178 335.051H209.177C208.607 335.305 208.008 335.568 207.383 335.837L207.606 335.741C207.307 335.87 207.001 336.001 206.69 336.133L207.384 335.837C207.067 335.973 206.744 336.111 206.414 336.25L206.418 336.248C205.996 336.426 205.567 336.604 205.129 336.785C204.59 337.007 204.035 337.232 203.467 337.458L202.285 337.925C202.124 337.988 201.963 338.051 201.8 338.114C201.127 338.375 200.437 338.637 199.732 338.9C198.82 339.24 197.881 339.582 196.919 339.923L197.745 339.628C197.392 339.755 197.035 339.882 196.676 340.009L196.679 340.008C195.706 340.351 194.714 340.692 193.704 341.029H193.703C192.889 341.3 192.062 341.569 191.224 341.834C190.925 341.929 190.627 342.022 190.328 342.115C188.839 342.577 187.318 343.026 185.776 343.455L186.515 343.248C185.923 343.416 185.327 343.581 184.728 343.743L185.776 343.455C185.241 343.604 184.703 343.75 184.164 343.894L184.728 343.743C184.336 343.849 183.942 343.954 183.548 344.057L184.164 343.894C183.667 344.026 183.169 344.156 182.669 344.283L183.548 344.056C183.022 344.194 182.494 344.328 181.964 344.46C180.665 344.784 179.357 345.09 178.045 345.374L179.578 345.032C178.361 345.312 177.138 345.574 175.915 345.816L176.397 345.72C175.867 345.827 175.337 345.93 174.807 346.029L175.914 345.816C175.409 345.916 174.903 346.012 174.398 346.105L174.807 346.029C174.299 346.124 173.79 346.216 173.282 346.303L174.398 346.105C173.859 346.204 173.32 346.298 172.782 346.388L173.282 346.303C172.739 346.397 172.196 346.486 171.654 346.57L172.782 346.388C172.208 346.484 171.634 346.575 171.061 346.66H171.062C170.028 346.814 168.999 346.95 167.975 347.067L168.411 347.016C168.009 347.064 167.608 347.109 167.208 347.15C166.651 347.208 166.095 347.26 165.541 347.306C164.825 347.365 164.115 347.414 163.41 347.451L163.338 347.455C185.004 341.903 201.874 334.063 214.107 327.911L330.149 269.403C345.495 261.609 355.931 255.516 361.435 251.343C367.613 246.659 374.102 241.661 378.754 233.533C377.949 241.007 373.927 250.337 357.896 259.4L356.694 260.066L342.332 267.838C340.931 268.591 339.559 269.327 338.217 270.046H338.216C337.8 270.269 337.387 270.49 336.976 270.709C336.291 271.075 335.616 271.436 334.949 271.791C333.929 272.335 332.925 272.869 331.939 273.393C331.028 273.877 330.13 274.352 329.249 274.819C328.846 275.032 328.443 275.245 328.043 275.456C326.881 276.069 325.749 276.664 324.645 277.243L324.65 277.241C323.735 277.721 322.844 278.187 321.972 278.641C320.437 279.441 318.965 280.205 317.551 280.933L310.874 280.973L276.944 297.958Z" fill="#BDB198"/>
<path d="M137.282 333.057C135.33 330.483 140.723 321.96 161.302 310.843C181.881 299.726 196.672 295.14 203.754 302.443C210.836 309.746 210.211 320.113 199.486 326.835C188.761 333.557 166.212 338.531 153.42 337.874C140.628 337.219 139.234 335.63 137.282 333.057Z" fill="#DCD8D2"/>
<path d="M203.754 302.443C203.95 302.645 205.264 304.318 203.385 305.889C200.771 308.074 191.926 312.064 186.935 314.024C178.357 317.394 170.957 318.86 159.211 322.224C148.866 325.187 141.557 328.798 137.283 333.056C135.392 330.563 140.394 322.486 159.418 311.877L161.303 310.843C181.881 299.726 196.673 295.14 203.754 302.443Z" fill="#E8E5E2"/>
<path d="M203.044 301.773L203.373 302.064C201.187 301.444 198.183 301.454 194.36 302.094C187.593 303.227 178.65 305.976 163.535 312.853C154.375 317.021 145.856 322.848 137.979 330.332L136.945 331.341C137.466 327.776 143.592 320.699 159.43 311.869L161.301 310.842C181.217 300.085 195.712 295.442 203.044 301.773Z" fill="#F6F6F5"/>
<path d="M153.199 325.813C153.015 322.36 154.858 319.029 155.557 320.501C156.986 328.689 162.737 326.869 174.013 325.234C185.289 323.599 198.523 317.62 199.799 320.474C200.737 322.574 198.62 326.09 197.394 328.043C186.531 333.883 167.174 338.116 155.003 337.926C154.6 337.831 154.234 337.748 153.908 337.675C150.266 336.868 151.398 335.068 155.177 331.484C153.815 330.46 153.383 329.265 153.199 325.813Z" fill="#C3A788"/>
<path d="M197.086 319.761L197.177 319.747C198.574 319.627 199.505 319.815 199.8 320.474C200.739 322.574 198.62 326.091 197.395 328.044C186.55 333.881 167.166 338.12 154.989 337.927L153.909 337.677C151.603 337.166 151.211 336.257 152.193 334.749L153.6 334.62C160.786 333.833 173.721 330.54 197.086 319.761Z" fill="#C5B6A4"/>
<path d="M326.242 238.383C341.04 233.919 353.236 233.351 355.444 238.703C357.651 244.055 348.199 257.254 335.771 264.829C329.102 268.894 311.683 277.429 295.91 284.998L266.712 298.943C259.847 302.379 250.842 301.804 250.331 298.969L250.224 298.09C250.016 294.799 251.726 287.762 268.101 273.485C286.113 257.781 311.445 242.847 326.242 238.383ZM289.562 273.968C288.366 273.254 280.772 276.605 272.71 281.425C264.648 286.245 264.726 288.535 265.008 290.28C265.29 292.025 266.82 292.746 270.176 291.716C273.532 290.686 287.683 284.714 290.445 281.17C293.206 277.627 290.758 274.683 289.562 273.968Z" fill="#B7895B"/>
<path d="M314.952 264.679C320.222 264.28 318.546 272.09 309.634 277.75C307.923 278.837 306.204 279.878 304.478 280.875C301.615 282.254 298.736 283.642 295.909 284.998L291.385 287.157L288.917 282.599C289.575 282.094 290.099 281.613 290.444 281.17C293.206 277.627 290.757 274.682 289.561 273.968C289.398 273.871 289.117 273.849 288.733 273.896C302.973 267.997 311.712 264.924 314.952 264.679Z" fill="#A04F00"/>
<path d="M295.102 282.766C295.005 283.872 294.879 284.807 294.725 285.572L292.351 286.695L289.236 282.342L289.385 282.226C289.826 281.857 290.185 281.503 290.444 281.171C293.206 277.628 290.757 274.683 289.561 273.969C292.678 273.983 294.524 276.917 295.102 282.766Z" fill="#C98F57"/>
<path d="M269.604 277.477C276.3 272.98 289.683 265.803 309.755 255.946C323.515 249.528 344.359 241.695 346.038 242.597C347.911 243.603 347.047 246.061 335.899 254.66C324.751 263.259 315.577 264.958 307.101 267.214C302.298 268.492 296.088 271.004 289.523 273.951C288.366 273.254 280.772 276.605 272.71 281.425C268.259 284.086 266.289 285.977 265.465 287.429C261.401 291.633 260.175 295.549 259.661 295.99L259.221 296.266C258.146 296.85 255.363 298.051 250.872 299.871C250.573 299.61 250.392 299.305 250.332 298.968C250.201 298.241 250.121 297.244 250.379 295.898L250.92 295.038L251.608 294.11C254.209 290.859 259.56 284.222 269.604 277.477Z" fill="#E0710E"/>
<path d="M316.837 274.806L318.245 273.898C333.228 264.247 343.032 256.711 347.656 251.29C352.62 245.471 354.854 240.797 354.358 237.268L354.33 237.119C354.82 237.574 355.195 238.101 355.443 238.703C357.65 244.055 348.198 257.254 335.77 264.829L333.833 265.965C329.879 268.215 323.785 271.35 316.837 274.806Z" fill="#ECC7A2"/>
<path d="M265.008 290.28C265.291 292.024 266.82 292.746 270.176 291.716L270.799 291.508L268.422 295.585C267.818 296.669 266.934 297.571 265.77 298.291L264.845 298.797C260.01 301.015 257.916 300.926 256.191 300.403L254.93 299.959C252.82 299.18 253.946 298.317 259.416 295.099C261.02 292.292 262.99 289.819 265.326 287.681C264.808 288.736 264.89 289.555 265.008 290.28Z" fill="#703300"/>
<path d="M294.889 282.546C295.075 283.714 295.07 284.699 294.874 285.5L269.173 297.743C268.924 295.249 269.39 293.197 270.572 291.578L270.175 291.716C273.512 290.692 287.524 284.78 290.396 281.23C293.163 280.662 294.66 281.102 294.889 282.546Z" fill="#E0C7B1"/>
<path d="M240.715 152.55L258.88 147.91L259.484 151.15L241.732 155.356L240.715 152.55Z" fill="#B3A590"/>
</g>
<defs>
<clipPath id="clip0_7_275">
<rect width="458.899" height="458.899" fill="white"/>
</clipPath>
</defs>
</svg>
