<svg width="459" height="459" viewBox="0 0 459 459" fill="none" xmlns="http://www.w3.org/2000/svg">
<g clip-path="url(#clip0_7_88)">
<path d="M174.995 287.87C173.677 288.53 170.042 292.126 166.935 293.682C163.827 295.237 159.263 297.537 151.12 305.017C142.977 312.498 134.215 320.391 132.333 323.728C130.451 327.065 130.775 331.371 132.494 334.743C134.215 338.113 139.474 341.865 141.074 343.197C142.674 344.529 144.069 344.643 145.916 344.162C147.763 343.681 226.101 308.421 257.794 290.307C289.486 272.193 271.916 269.43 265.513 268.174C259.11 266.918 287.475 238.079 281.742 226.69C276.008 215.302 250.835 213.893 245.067 216.634C239.299 219.375 189.313 274.334 185.08 278.827C180.847 283.319 176.313 287.21 174.995 287.87Z" fill="#ECEEEF"/>
<path d="M245.066 216.632C250.834 213.892 276.007 215.3 281.742 226.688C287.474 238.078 259.109 266.916 265.512 268.172L268.701 268.828C275.73 270.472 284.665 274.562 259.416 289.366L257.793 290.305C226.101 308.419 147.762 343.679 145.915 344.16C144.068 344.641 142.673 344.526 141.073 343.195L138.07 340.792C137.564 340.373 137.036 339.923 136.513 339.452C132.947 332.784 132.58 327.921 135.407 324.854C141.193 318.578 166.341 305.996 180.254 297.605L181.752 296.69C195.274 288.325 208.971 281.874 213.927 279.568C218.685 277.354 216.57 274.628 208.07 278.343C199.57 282.058 196.399 281.855 191.197 281.774C189.553 281.749 188.131 279.889 185.911 277.933L205.576 256.626C221.579 239.403 241.548 218.305 245.066 216.632Z" fill="#DADEE0"/>
<path d="M245.066 216.632C250.834 213.892 276.007 215.3 281.742 226.688C287.474 238.078 259.109 266.916 265.512 268.173L268.701 268.829C275.73 270.473 284.665 274.563 259.416 289.367L257.793 290.306C228.33 307.146 158.551 338.805 147.397 343.561C138.524 335.241 136.662 330.242 142.136 326.641C147.248 323.279 162.853 316.519 176.223 309.9C189.593 303.281 194.917 300.952 204.96 295.922C215.003 290.892 220.608 286.059 223.654 282.024C228.006 276.26 219.055 269.836 217.656 270.792C216.257 271.748 210.309 275.491 206.486 278.237C202.663 280.984 194.724 283.568 190.27 282.822C188.709 282.561 190.699 276.622 194.581 268.515L214.239 247.344C228.069 232.609 242.164 218.012 245.066 216.632Z" fill="#CDD1D2"/>
<path d="M221.214 262.131C224.969 259.981 242.934 261.56 245.164 265.768C247.394 269.976 262.791 285.651 255.194 291.322L253.013 292.871C252.778 293.033 252.531 293.203 252.271 293.381L248.61 295.353C215.862 312.801 157.514 339.249 147.398 343.563C146.203 342.443 145.136 341.383 144.196 340.379C143.589 337.862 145.612 334.551 154.858 329.765L158.975 327.718C178.916 317.936 221.895 297.668 227.136 293.2C232.633 288.514 229.168 281.959 231.804 278.598C234.44 275.237 231.877 273.84 227.899 274.042C223.922 274.244 219.837 269.041 219.426 268.934C219.015 268.826 218.124 269.347 217.489 269.79C215.936 270.873 212.748 273.36 209.767 275.735L207.802 277.06C205.906 278.305 204.268 279.262 203.354 279.508C200.128 280.374 217.459 264.28 221.214 262.131Z" fill="#BBC2C5"/>
<path d="M245.066 216.632C250.834 213.892 276.007 215.3 281.742 226.688C287.474 238.078 259.109 266.916 265.512 268.172L268.701 268.828C275.73 270.472 284.665 274.562 259.416 289.366L257.793 290.305C226.101 308.419 147.762 343.679 145.915 344.16C144.068 344.641 142.673 344.526 141.073 343.195L138.671 341.283C137.655 340.461 136.501 339.485 135.438 338.445L134.369 336.608C133.888 335.761 133.499 335.039 133.253 334.535C131.99 331.911 132.342 330.401 133.873 332.715L134.219 333.27C136.038 336.349 141.29 341.082 141.784 341.246C142.231 341.395 150.574 336.673 157.524 333.309L179.871 322.828C190.206 317.917 201.811 312.298 208.841 308.585L210.184 307.869C222.545 301.205 240.278 290.217 239.11 289.233L237.989 288.018C235.844 285.571 233.441 282.07 234.577 280.174L237.517 275.563C239.325 272.691 241.148 269.559 240.779 268.826C240.164 267.605 232.999 272.326 228.273 272.446C223.547 272.566 221.177 265.783 218.765 267.582C216.353 269.381 205.123 278.869 202.98 280.014C200.837 281.159 198.475 282.019 197.871 283.263C197.267 284.507 201.051 284.276 202.109 284.258C203.167 284.24 205.18 286.08 204.961 288.335C204.742 290.59 202.115 295.573 198.834 297.093C195.553 298.613 192.413 299.674 191.176 298.131C190.351 297.103 190.024 295.772 190.195 294.139L186.932 294.607C185.574 294.782 181.01 292.327 179.949 292.231C178.888 292.135 173.289 292.193 171.536 292.429C170.075 292.626 169.205 293.284 168.108 293.16L167.938 293.118C170.47 291.582 173.144 289.092 174.535 288.144L174.993 287.865C176.123 287.3 179.615 284.36 183.255 280.702L185.077 278.821C189.312 274.332 239.298 219.374 245.066 216.632Z" fill="#9998A7"/>
<path d="M262.637 237.321C265.382 237.189 269.062 233.013 267.999 230.26C266.936 227.507 258.393 225.705 255.854 225.839C253.315 225.973 251.366 227.027 254.179 230.322C256.992 233.617 259.892 237.453 262.637 237.321Z" fill="#A3857C"/>
<path d="M256.651 228.518C259.854 229.049 264.485 229.532 265.157 230.932C265.829 232.332 264.82 233.883 262.356 234.066C259.891 234.25 255.518 227.384 253.813 227.294C252.109 227.203 247.34 227.85 248.583 230.409C249.825 232.968 261.67 239.333 262.869 239.855C264.067 240.377 270.673 236.62 270.723 234.293C270.773 231.966 272.722 227.252 267.821 226.247C262.92 225.241 253.449 227.987 256.651 228.518Z" fill="#967D73"/>
<path d="M245.973 261.272C246.77 260.561 250.188 257.134 253.105 253.646C253.676 252.963 251.791 251.703 253.124 250.162C254.457 248.621 255.855 250.224 256.23 249.66C256.584 249.127 256.623 249.213 256.858 248.756C257.01 248.492 256.065 247.629 256.442 246.51C256.819 245.392 257.483 245.031 257.455 244.648C257.26 242.017 253.201 240.521 251.975 239.822C250.551 239.01 244.709 239.226 242.458 241.346C240.207 243.466 235.695 248.557 238.125 249.186C240.555 249.815 243.36 249.849 245.121 253.492C246.882 257.135 244.5 262.587 245.973 261.272Z" fill="#BBBCC1"/>
<path d="M288.07 186.977C280.107 191.43 273.844 198.144 281.058 203.52C285.868 207.104 292.346 211.222 300.492 215.874L336.114 185.16C336.04 184.663 335.977 184.381 335.926 184.313C331.755 178.788 329.01 175.467 327.27 173.192C325.498 170.875 322.321 167.124 317.739 161.939C314.277 168.145 310.471 172.857 306.321 176.078C300.097 180.909 296.034 182.524 288.07 186.977Z" fill="#65656E"/>
<path d="M319.028 172.404C318.901 173.927 317.972 175.971 314.836 178.964C311.7 181.958 298.966 187.619 294.742 192.141C290.518 196.663 290.306 199.988 292.152 201.361C293.998 202.734 307.828 188.987 311.653 184.808C315.478 180.629 317.116 178.92 319.145 178.415C321.173 177.91 324.695 179.322 323.702 177.648C322.707 175.974 319.155 170.881 319.028 172.404Z" fill="#737378"/>
<path d="M317.74 161.939L320.321 164.878C322.733 167.645 324.64 169.896 326.04 171.63L332.824 180.261C333.758 181.463 334.79 182.806 335.927 184.313L335.982 184.452L336.115 185.16L300.493 215.874C297.02 213.891 293.849 212.004 290.983 210.215C291.08 208.097 291.662 206.042 292.149 206.166C292.953 206.371 295.116 205.007 295.686 204.396L306.678 191.805C311.274 186.565 315.811 181.455 316.931 180.422C318.619 178.864 319.968 178.816 321.164 179.062L324.982 180.009C326.467 180.356 328.014 180.699 328.431 180.739C329.061 180.799 322.377 174.647 319.815 170.994L319.408 170.377C317.251 166.852 315.99 169.757 315.197 171.4C314.404 173.043 301.421 184.761 292.303 190.529C285.236 194.999 286.033 203.22 286.988 207.658C284.781 206.201 282.81 204.827 281.06 203.523C273.845 198.147 280.108 191.433 288.072 186.98C296.035 182.527 300.099 180.912 306.323 176.081C310.471 172.858 314.277 168.145 317.74 161.939Z" fill="#504F51"/>
<path d="M252.899 289.361C244.934 288.938 237.881 285.401 236.225 282.617C234.569 279.833 234.43 276.168 236.742 273.762C239.054 271.356 260.744 247.595 264.119 242.954C267.493 238.313 271.271 232.804 270.15 229.495C269.029 226.186 263.465 225.879 258.801 225.987C254.137 226.095 247.39 225.487 244.244 225.805C241.098 226.123 244.822 204.936 245.71 199.795C246.597 194.654 246.981 191.389 256.89 187.199C266.798 183.009 277.216 182.035 282.783 180.116C288.349 178.196 296.858 174.917 296.392 170.572C295.926 166.228 295.437 159.345 296.477 154.266C297.517 149.187 299.352 147.574 301.132 146.587C302.912 145.6 303.958 145.491 304.321 145.896C304.684 146.301 305.255 146.605 305.261 147.001C305.267 147.397 304.917 148.549 305.108 149.22C305.299 149.891 310.181 154.906 312.131 156.69C314.081 158.473 318.822 161.266 319.396 161.792C319.97 162.318 321.369 163.731 320.899 164.222C320.429 164.713 319.277 164.952 318.953 165.833C318.629 166.714 318.753 171.641 316.251 175.671C313.749 179.7 296.19 187.614 292.311 189.66C288.432 191.705 284.619 195.589 285.567 200.027C286.515 204.465 295.515 206.273 300.333 207.613C305.151 208.953 326.705 219.106 327.043 221.852C327.381 224.598 299.434 255.326 288.48 264.578C277.526 273.83 260.864 289.785 252.899 289.361Z" fill="#BAB3DD"/>
<path d="M253.718 288.494C245.753 288.071 239.623 284.897 237.967 282.113C236.311 279.329 236.367 276.232 238.679 273.826C240.991 271.42 262.714 247.991 266.089 243.35C269.463 238.709 272.719 232.407 271.598 229.097C270.477 225.788 265.373 224.811 260.71 224.918C256.047 225.025 247.85 224.815 244.705 225.133C241.56 225.451 244.823 204.934 245.711 199.793C246.598 194.652 246.982 191.387 256.891 187.197C266.799 183.007 277.217 182.033 282.784 180.114C288.35 178.194 296.859 174.915 296.393 170.57C295.927 166.226 295.438 159.343 296.478 154.264C297.518 149.185 299.353 147.572 301.133 146.585C302.913 145.598 303.959 145.489 304.322 145.894C304.685 146.299 305.256 146.603 305.262 146.999C305.268 147.395 304.918 148.547 305.109 149.218C305.3 149.889 310.182 154.904 312.132 156.688C314.082 158.471 318.823 161.264 319.397 161.79C319.971 162.316 320.811 163.05 320.341 163.541C319.871 164.032 318.719 164.271 318.395 165.152C318.071 166.033 318.195 170.96 315.693 174.99C313.191 179.019 295.632 186.933 291.753 188.979C287.874 191.025 284.061 194.908 285.009 199.346C285.957 203.784 294.446 206.068 299.264 207.409C304.082 208.749 326.195 219.581 326.533 222.327C326.871 225.073 299.435 255.324 288.481 264.576C277.527 273.828 261.683 288.917 253.718 288.494Z" fill="#7756D3"/>
<path d="M243.889 277.855C244.381 282.822 251.82 283.129 255.263 284.662C257.074 285.469 259.945 285.736 262.45 285.394C259.073 287.406 256.055 288.618 253.717 288.494C245.752 288.071 239.622 284.897 237.966 282.113C236.31 279.329 236.366 276.232 238.678 273.826L246.669 265.227C248.984 262.712 251.557 259.902 254.063 257.14C247.93 265.863 243.571 274.64 243.889 277.855ZM318.761 216.606L317.344 214.944C320.219 218.271 322.9 221.508 325.385 224.655C320.279 232.221 299.635 254.76 289.59 263.618L288.48 264.578C282.332 269.771 274.644 276.802 267.674 281.897L268.252 279.946C270.562 271.77 275.768 250.32 279.462 243.539C282.342 238.254 294.715 228.878 316.583 215.412C317.335 215.812 318.061 216.212 318.761 216.606ZM256.517 187.357L256.28 187.744C251.817 195.188 255.877 198.435 259.036 201.061C262.775 204.17 263.01 213.158 275.398 216.282L276.666 216.736C285.934 219.558 276.751 231.67 267.063 241.956C270.052 237.513 272.608 232.084 271.596 229.096C270.555 226.023 266.08 224.961 261.712 224.911L257.865 224.949C253.23 224.965 247.276 224.872 244.702 225.132C241.79 225.427 244.372 207.858 245.475 201.173L245.965 198.322C246.755 194.06 247.926 191.06 256.517 187.357Z" fill="#7152CB"/>
<path d="M280.243 214.61C291.135 216.859 296.114 223.376 288.869 234.704C284.382 241.718 267.576 254.849 238.45 274.095L249.375 262.282C255.811 255.257 263.174 247.095 265.658 243.917L266.088 243.35C269.462 238.709 272.718 232.407 271.597 229.097C270.556 226.024 266.081 224.962 261.713 224.912L257.866 224.95C253.231 224.966 247.277 224.873 244.703 225.133C243.248 225.28 244.195 214.04 244.614 208.853C250.992 212.136 256.574 213.829 261.36 213.933C268.54 214.088 275.168 213.562 280.243 214.61ZM254.186 196.557L256.273 196.375C264.758 195.835 278.256 197.1 277.996 200.358C277.765 203.255 255.361 204.609 244.619 206.712L245.463 201.259L246.029 197.997C249.452 197.226 252.315 196.771 254.186 196.557Z" fill="#674DC5"/>
<path d="M299.919 147.41C303.251 151.699 305.445 154.955 306.5 157.179L308.374 161.714C310.387 166.814 312.548 173.629 309.503 177.052C305.588 181.453 296.541 184.06 289.68 187.412C282.819 190.764 276.858 195.076 271.518 195.208C266.179 195.341 261.554 194.818 257.127 194.997C254.818 195.09 250.902 197.356 245.381 201.794L245.97 198.305C246.768 193.991 247.971 190.969 256.889 187.198C266.797 183.008 277.215 182.034 282.782 180.115L285.755 179.043C290.935 177.072 296.779 174.192 296.391 170.571C295.925 166.227 295.436 159.344 296.476 154.265C297.256 150.455 298.483 148.596 299.799 147.488L299.919 147.41Z" fill="#DFA76D"/>
<path d="M297.384 151.09C299.577 150.645 301.168 151.114 301.895 152.815C306.542 163.684 306.625 169.508 302.777 176.325C299.143 182.764 288.913 184.538 279.593 188.03L277.959 188.665C268.231 192.6 258.263 192.286 255.14 193.599C253.248 194.395 250.387 196.725 246.559 200.589L245.381 201.794L245.97 198.305L246.261 196.912C247.131 193.31 248.962 190.55 256.889 187.198C266.797 183.008 277.215 182.034 282.782 180.115L285.755 179.043L287.715 178.262C292.298 176.341 296.73 173.739 296.391 170.572C295.925 166.228 295.436 159.345 296.476 154.266C296.649 153.419 296.845 152.669 297.058 152.002L297.384 151.09Z" fill="#F4C782"/>
<path d="M304.32 145.895C304.683 146.3 305.254 146.604 305.26 147C305.265 147.297 305.069 148.019 305.051 148.645L305.315 149.658L304.3 151.689C303.197 153.992 302.796 156.345 303.367 159.754C304.03 163.711 303.603 168.238 300.345 173.106C297.087 177.974 292.059 180.956 283.178 183.569C279.821 184.452 275.978 185.506 271.649 186.729C265.156 188.564 261.505 189.773 258.201 191.064C253.574 192.871 251.114 195.174 248.573 197.607C247.959 198.195 246.73 197.744 246.123 197.571L246.45 196.224C247.394 192.95 249.475 190.333 256.89 187.198C266.798 183.008 277.216 182.034 282.783 180.115L285.756 179.043C290.936 177.072 296.78 174.192 296.392 170.571C295.926 166.227 295.437 159.344 296.477 154.265C297.517 149.186 299.352 147.573 301.132 146.586C302.91 145.599 303.957 145.49 304.32 145.895Z" fill="#9F4C0B"/>
<path d="M304.32 145.895C304.683 146.3 305.254 146.604 305.26 147C305.265 147.297 305.069 148.019 305.051 148.645L305.107 149.219L304.092 151.25C302.989 153.553 302.246 155.726 302.68 158.841C303.237 162.846 303.209 168.273 299.381 173.142C295.792 177.706 291.69 180.413 282.809 183.026L272.684 185.845C266.191 187.68 260.845 189.302 257.54 190.593C252.913 192.4 250.561 194.568 248.02 197.001C247.406 197.589 246.731 197.743 246.124 197.571L246.451 196.224C247.395 192.95 249.476 190.333 256.891 187.198C266.799 183.008 277.217 182.034 282.784 180.115L285.757 179.043C290.937 177.072 296.781 174.192 296.393 170.571C295.927 166.227 295.438 159.344 296.478 154.265C297.518 149.186 299.353 147.573 301.133 146.586C302.91 145.599 303.957 145.49 304.32 145.895Z" fill="#FBD47F"/>
<path d="M304.32 145.895C304.683 146.3 305.254 146.604 305.26 147C305.265 147.297 305.069 148.019 305.051 148.645L305.107 149.219L304.092 151.25C302.989 153.553 302.246 155.726 302.68 158.841C303.237 162.846 303.209 168.273 299.381 173.142C295.792 177.706 291.69 180.413 282.809 183.026L272.684 185.845L268.535 187.036C263.916 188.385 260.11 189.589 257.54 190.593C252.913 192.4 250.561 194.568 248.02 197.001C247.789 197.223 247.549 197.383 247.307 197.487C248.29 195.621 250.144 192.827 253.649 191.025C258.82 188.366 269.896 184.931 277.856 183.128L279.633 182.742C287.631 181.087 293.684 177.784 296.977 174.841C300.27 171.898 301.953 165.631 302.021 162.813C302.09 159.995 299.807 156.414 301.622 152.251C303.035 149.011 303.376 146.896 302.794 145.834C303.589 145.589 304.09 145.64 304.32 145.895Z" fill="#F4AA5A"/>
<path d="M305.436 214.556L291.165 207.433C288.462 206.057 286.882 205.181 286.014 204.561C282.06 201.737 280.658 196.251 284.428 192.117C286.509 189.835 290.106 187.514 296.011 184.392L305.977 179.271L306.535 178.975C312.47 175.807 315.485 172.046 316.053 167.878L316.141 166.909C316.29 163.66 316.984 161.909 318.565 161.907C318.958 161.906 319.278 162.225 319.279 162.618C319.279 162.913 319.1 163.167 318.845 163.275L318.568 163.331C318.129 163.332 317.68 164.462 317.565 166.973C317.331 172.073 314.013 176.598 307.207 180.231L298.335 184.785C291.587 188.274 287.596 190.758 285.482 193.076C282.362 196.497 283.519 201.025 286.843 203.4C287.618 203.954 289.109 204.781 291.628 206.067L304.936 212.702L311.018 215.844C319.568 220.382 322.3 228.934 320.167 234.358C318.942 237.472 274.53 278.465 269.115 281.461C265.496 283.463 260.934 285.737 254.906 288.314L246.826 285.612C244.007 284.647 242.214 283.995 241.436 283.652C238.301 282.269 236.693 277.395 239.773 274.355L242.846 271.179C250.22 263.399 265.891 246.234 268.779 242.505C273.381 236.564 275.456 231.583 274.202 228.39C272.42 223.849 270.299 222.4 263.589 222.452L258.77 222.539C254.053 222.664 248.179 222.917 241.151 223.296C236.465 223.549 238.821 222.441 248.218 219.972C254.395 219.687 259.537 219.752 263.423 219.676C271.168 219.526 274.983 221.51 276.806 227.308C278.046 231.252 277.016 237.39 271.746 243.65L268.807 244.722C263.27 251.3 244.805 271.388 240.775 275.367C238.492 277.621 239.716 281.333 242.012 282.346L243.277 282.848C245.343 283.626 249.288 285.004 254.83 286.988L259.293 284.884C262.82 283.186 265.864 281.629 268.426 280.212C273.579 277.362 317.763 236.579 318.842 233.834C320.719 229.06 318.236 221.285 310.351 217.1L308.925 216.349C307.815 215.774 306.659 215.178 305.436 214.556Z" fill="#5A37B5"/>
<path d="M248.216 219.975C254.393 219.69 259.535 219.755 263.421 219.679C271.166 219.529 274.981 221.513 276.804 227.311C278.044 231.255 277.014 237.393 271.744 243.653L268.805 244.725L266.238 247.697C265.45 248.594 265.033 249.005 264.096 250.055C263.992 250.213 265.845 252.758 264.306 253.887C262.767 255.016 261.584 252.934 261.398 253.105C261.113 253.46 260.856 253.736 260.305 254.346C260.151 254.566 262.183 256.423 260.735 257.996C259.287 259.569 257.625 257.268 257.221 257.712C254.284 260.942 251.773 263.698 249.026 266.66C245.026 270.179 241.291 273.624 238.404 276.554C238.65 275.769 239.098 275.019 239.77 274.356L242.843 271.18L251.78 261.576C258.937 253.79 266.812 245.042 268.776 242.506C273.378 236.565 275.453 231.584 274.199 228.391C272.417 223.85 270.296 222.401 263.586 222.453L258.767 222.54L255.012 222.658C252.364 222.752 249.428 222.879 246.202 223.037L241.147 223.298C236.464 223.553 238.819 222.445 248.216 219.975Z" fill="#4A27A6"/>
<path d="M254.569 250.846L254.847 250.78C255.875 250.652 258.655 253.676 259.602 255.062C260.549 256.447 260.618 257.061 259.944 257.546C259.27 258.031 258.396 257.072 257.981 256.252C257.565 255.432 255.66 253.654 255.218 253.306C254.776 252.958 254.333 252.976 254.075 252.492C253.816 252.008 253.821 250.908 254.848 250.78L254.569 250.846ZM258.285 246.565L258.563 246.499C259.591 246.371 262.371 249.395 263.318 250.781C264.265 252.166 264.334 252.78 263.66 253.265C262.986 253.75 262.112 252.791 261.697 251.971C261.281 251.151 259.376 249.373 258.934 249.025C258.492 248.677 258.049 248.695 257.791 248.211C257.532 247.727 257.537 246.627 258.564 246.499L258.285 246.565Z" fill="#9053DC"/>
<path d="M254.468 250.889L254.848 250.779C255.349 250.717 256.267 251.404 257.185 252.285L256.166 254.165L255.443 253.494C255.349 253.412 255.273 253.347 255.218 253.304C254.776 252.956 254.333 252.974 254.075 252.49C253.89 252.144 253.84 251.484 254.2 251.089L254.468 250.889ZM258.009 246.323L258.388 246.205C258.802 246.154 259.529 246.661 260.311 247.376C259.905 247.919 259.496 248.506 259.083 249.136L258.934 249.024C258.492 248.676 257.898 248.549 257.639 248.065C257.454 247.719 257.391 246.983 257.744 246.544L258.009 246.323Z" fill="#8343D1"/>
<path d="M262.783 243.051C264.277 243.327 265.863 243.077 267.322 242.035C268.781 240.993 271.192 238.273 272.438 235.623C273.684 232.973 273.762 231.978 273.913 230.43C274.064 228.882 271.536 224.536 269.269 223.775C267.002 223.014 269.71 224.541 270.63 227.053C271.549 229.565 271.028 234.501 269.319 236.974C267.611 239.447 261.29 242.775 262.783 243.051Z" fill="#8A532D"/>
<path d="M264.879 243.007C265.989 242.766 268.593 240.577 270.359 238.016C272.125 235.455 273.563 231.47 273.553 230.152C273.543 228.834 271.502 224.005 267.833 223.238C264.164 222.471 251.879 223.076 249.682 223.346C248.218 223.526 247.138 223.667 246.442 223.768C251.638 226.482 254.549 227.926 255.173 228.1C256.11 228.362 258.901 228.486 261.175 228.63C263.449 228.774 266.644 228.27 267.361 229.8C268.078 231.33 267.569 231.977 267.144 232.835C266.719 233.693 265.067 236.217 263.899 236.725C262.731 237.234 261.15 236.643 259.798 235.539C258.446 234.435 257.015 232.334 254.961 231.466C253.592 230.887 252.524 230.335 251.759 229.81L243.677 224.097L236.555 234.863C241.26 235.858 244.246 236.338 245.513 236.304C247.413 236.253 248.498 236.008 249.28 236.221C250.062 236.434 253.039 236.876 253.402 237.459C253.765 238.042 254.082 238.765 254.555 239.07C255.028 239.375 258.339 241.187 260.38 242.291C262.419 243.395 263.769 243.248 264.879 243.007Z" fill="#C28D59"/>
<path d="M236.555 234.863L243.677 224.097L251.759 229.81C251.891 229.9 252.032 229.992 252.181 230.084C247.973 231.122 245.224 232.226 243.938 233.396C243.003 234.246 242.924 235.172 243.701 236.174C242.333 235.998 240.384 235.652 237.863 235.136L236.555 234.863ZM246.442 223.768L249.682 223.346C250.712 223.219 253.958 223.019 257.494 222.922C256.431 224.775 256.045 225.971 256.329 226.51C256.628 227.077 257.173 227.717 257.963 228.428L256.601 228.318C255.983 228.257 255.479 228.186 255.172 228.101L254.669 227.908C253.515 227.409 250.772 226.029 246.442 223.768Z" fill="#BD7E59"/>
<path d="M246.457 235.423C244.599 235.018 243.892 234.406 245.27 234.319C246.648 234.232 251.712 235.815 252.443 236.121C253.174 236.427 255.284 238.08 257.052 239.321L257.645 239.755C259.192 240.949 262.03 242.713 264.376 242.158C266.722 241.603 268.67 239.302 269.873 237.418C271.076 235.533 273.345 231.683 272.678 228.697C272.387 227.396 271.51 225.633 269.955 224.22C272.279 225.902 273.545 229.114 273.553 230.152C273.563 231.471 272.124 235.455 270.359 238.016C268.594 240.577 265.99 242.766 264.879 243.007C263.769 243.248 262.418 243.395 260.378 242.291L254.553 239.07C254.316 238.917 254.119 238.66 253.936 238.369L253.401 237.459C253.038 236.876 250.062 236.434 249.279 236.221C248.92 236.123 248.497 236.122 247.961 236.154L247.088 235.669C246.837 235.544 246.626 235.46 246.457 235.423Z" fill="#E1AE86"/>
<path d="M256.488 232.386C257.776 233.388 258.728 234.507 259.718 235.316C261.07 236.42 262.641 236.826 263.809 236.317C264.831 235.872 266.163 234.286 266.78 233.222L266.994 232.829C267.419 231.971 267.633 230.686 267.362 229.801C267.285 229.549 267.081 229.377 266.864 229.227C267.556 229.512 268.079 230.051 268.194 230.602C268.469 231.921 267.905 233.412 265.918 235.708C263.931 238.004 262.215 237.531 260.539 236.56C259.868 236.171 259.172 235.481 258.487 234.716L256.488 232.386ZM250.745 236.526L249.279 236.22C248.497 236.007 247.412 236.252 245.512 236.303C244.499 236.33 242.385 236.028 239.171 235.397L236.554 234.862L237.809 232.988L243.462 234.697C244.022 234.903 247.241 235.2 248.645 235.577C249.217 235.731 249.962 236.074 250.745 236.526Z" fill="#925728"/>
<path d="M241.364 163.821C240.529 163.404 238.839 163.763 237.464 164.998C236.089 166.233 229.054 180.14 227.916 181.596C227.643 182.034 227.46 182.415 227.367 182.74C226.617 183.017 226.033 183.737 225.615 184.9C224.988 186.645 219.623 196.311 218.83 198.652C218.037 200.993 214.536 208.153 214.297 208.817C214.058 209.481 207.777 221.992 206.488 225.41C205.2 228.828 205.124 230.411 204.584 231.81C204.044 233.209 202.153 236.337 201.538 237.539C200.924 238.74 198.219 239.938 197.78 241.05C197.341 242.162 196.458 242.991 195.429 244.382C194.4 245.773 191.135 251.494 190.139 253.485C189.143 255.476 187.455 259.873 185.9 262.99C184.346 266.107 183.675 266.28 182.454 269.29C181.233 272.301 180.094 275.761 179.887 276.778C179.68 277.795 178.075 280.066 177.179 281.789C176.283 283.512 176.158 285.239 174.454 286.568C172.75 287.897 171.836 289.949 174.563 289.948C177.29 289.947 192.81 284.026 197.1 281.617C201.39 279.207 205.984 274.223 209.484 271.922C212.984 269.621 218.892 265.01 222.148 261.965C225.404 258.92 233.493 248.693 237.451 242.923C241.409 237.153 245.229 230.246 245.562 229.264C245.784 228.61 245.146 226.773 243.649 223.753C247.985 223.11 250.289 222.646 250.559 222.362C250.964 221.936 259.751 207.046 260.392 205.593C261.033 204.14 260.979 201.512 256.522 198.781C252.065 196.05 242.711 186.162 241.569 180.079C240.427 173.995 242.88 167.925 242.961 167.055C243.041 166.185 242.199 164.237 241.364 163.821Z" fill="#A089E5"/>
<path d="M241.364 163.821C240.529 163.404 238.839 163.763 237.464 164.998C236.089 166.233 229.054 180.14 227.916 181.596C227.643 182.034 227.46 182.415 227.367 182.74C226.617 183.017 226.033 183.737 225.615 184.9C224.988 186.645 219.623 196.311 218.83 198.652C218.037 200.993 214.536 208.153 214.297 208.817C214.058 209.481 207.777 221.992 206.488 225.41C205.2 228.828 205.124 230.411 204.584 231.81C204.044 233.209 202.153 236.337 201.538 237.539C200.924 238.74 198.219 239.938 197.78 241.05C197.341 242.162 196.458 242.991 195.429 244.382C194.4 245.773 191.135 251.494 190.139 253.485C189.143 255.476 187.455 259.873 185.9 262.99C184.346 266.107 183.675 266.28 182.454 269.29C181.233 272.301 180.094 275.761 179.887 276.778C179.68 277.795 178.075 280.066 177.179 281.789C176.283 283.512 176.158 285.239 174.454 286.568C172.75 287.897 171.13 289.379 173.857 289.378C176.584 289.377 192.305 283.271 196.595 280.861C200.885 278.451 205.479 273.467 208.979 271.166C212.479 268.865 218.387 264.254 221.643 261.209C224.899 258.164 232.988 247.937 236.946 242.167C240.904 236.397 244.456 229.895 244.789 228.914C245.011 228.26 244.373 226.423 242.876 223.403C247.36 222.741 249.737 222.269 250.007 221.985C250.412 221.559 258.65 206.897 259.292 205.444C259.933 203.991 259.427 201.831 254.97 199.1C250.513 196.369 242.259 186.631 241.116 180.547C239.973 174.463 242.391 167.146 242.472 166.276C242.552 165.406 242.199 164.237 241.364 163.821Z" fill="#AA7EF7"/>
<path d="M241.121 180.574C242.21 186.279 249.517 195.173 254.093 198.509L254.969 199.1C259.426 201.831 259.932 203.991 259.291 205.444L258.854 206.31C257.002 209.826 250.369 221.604 250.006 221.985C249.736 222.269 247.359 222.741 242.875 223.403C244.372 226.422 245.01 228.259 244.788 228.914L244.518 229.529C243.561 231.51 240.408 237.118 236.945 242.168C232.987 247.938 224.898 258.165 221.642 261.21C218.386 264.255 212.478 268.866 208.978 271.167C205.478 273.468 200.884 278.453 196.594 280.862C194.167 282.226 188.079 284.773 182.757 286.728C183.246 285.223 182.799 283.253 184.291 282.226L185.076 281.749C191.743 278.195 190.964 267.547 195.573 262.06C200.182 256.573 202.692 252.109 203.401 248.938C204.11 245.767 203.315 243.385 204.972 237.616L211.017 229.397C215.242 223.575 218.001 219.559 219.292 217.35C222.037 212.657 225.219 198.687 228.209 198.417C231.199 198.147 234.645 196.916 235.383 193.83C235.684 192.573 236.726 190.086 238.131 186.992L241.121 180.574Z" fill="#8459EB"/>
<path d="M254.093 198.509L254.969 199.1C259.426 201.831 259.932 203.991 259.291 205.444L258.854 206.31L254.797 213.678C252.528 217.724 250.216 221.764 250.007 221.985C249.737 222.269 247.36 222.741 242.876 223.403C244.373 226.422 245.011 228.259 244.789 228.914L244.519 229.529L243.928 230.686C242.706 232.992 240.357 237.064 237.739 240.995L236.946 242.168C232.988 247.938 224.899 258.165 221.643 261.21C218.387 264.255 212.479 268.866 208.979 271.167C205.479 273.468 200.885 278.453 196.595 280.862C194.168 282.226 188.08 284.773 182.758 286.728C183.247 285.223 184.264 283.781 185.755 282.754L186.54 282.277C187.619 281.702 188.58 280.992 189.453 280.185L195.731 276.216C197.781 274.901 199.278 273.912 200.221 273.248C204.768 270.043 222.309 247.889 225.664 240.031C229.018 232.174 219.836 232.905 221.404 228.222C222.972 223.539 233.691 215.728 236.03 212.103L237.171 210.236C239.397 206.477 243.564 199.011 247.297 191.697C249.581 194.541 252.097 197.054 254.093 198.509Z" fill="#784DDE"/>
<path d="M191.776 257.014C192.354 257.59 192.832 258.686 193.209 260.303L193.423 261.335C193.97 264.29 195.025 268.109 195.191 269.797L195.211 270.277C195.156 271.585 195.516 272.877 195.846 273.414C196.176 273.952 196.531 276.705 196.666 277.685C196.756 278.338 196.824 279.158 196.872 280.144L196.401 278.074C196.272 277.45 196.17 276.891 196.096 276.397L196.005 275.706C195.905 274.789 195.849 274.547 195.683 274.367L195.056 273.81C194.426 273.164 193.972 272.934 194.046 273.367L194.366 274.351C194.737 275.564 195.246 277.575 194.928 277.203L194.539 276.662C194.197 276.148 193.691 275.325 193.02 274.195C192.264 273.069 191.888 272.317 191.891 271.94L192.13 269.141C192.267 267.143 192.323 264.574 191.811 263.106L190.225 258.642L191.776 257.014Z" fill="#4433A5"/>
<path d="M206.654 235.855C209.545 234.115 213.15 235.022 218.738 234.708C223.909 234.417 234.995 236.449 239.712 237.945C238.835 239.331 237.901 240.77 236.944 242.166C233.25 247.552 225.957 256.82 222.354 260.507L221.641 261.208C221.489 261.35 221.332 261.495 221.169 261.644C218.034 263.377 215.754 264.066 214.306 263.723C211.86 263.144 204.14 257.917 201.107 256.631C198.074 255.345 190.921 254.354 190.875 254.374L193.599 250.744C193.804 250.474 194.02 250.189 194.248 249.888L201.309 251.567C206.298 252.725 213.104 256.012 214.528 256.467C215.952 256.922 218.846 251.458 219.53 249.164C220.161 247.046 217.131 245.317 213.544 243.54L212.638 243.095C209.116 241.374 206.968 240.579 204.531 240.51L203.601 240.518C200.749 240.64 203.764 237.595 206.654 235.855Z" fill="#694ABE"/>
<path d="M180.514 275.216C181.861 275.39 183.717 275.282 183.63 275.671C183.542 276.059 183.433 276.608 183.257 276.978C183.081 277.348 180.455 278.469 178.957 279.13L178.639 279.275C179.244 278.264 179.775 277.333 179.888 276.777C179.952 276.462 180.107 275.91 180.325 275.21C180.395 275.203 180.455 275.209 180.514 275.216ZM215.774 243.755C216.741 243.282 219.017 243.047 220.06 243.054C221.103 243.06 221.139 243.463 221.143 244.169C221.147 244.876 220.118 245.109 219.765 245.179C219.412 245.249 217.177 245.567 216.756 245.718C216.335 245.869 215.758 246.551 215.899 246.626C216.04 246.701 216.689 246.577 217.287 246.78C217.885 246.983 217.469 248.308 217.186 248.575C216.903 248.842 214.544 248.896 213.442 248.99C212.34 249.084 212.262 249.78 212.918 249.631C213.574 249.482 214.021 250.227 214.168 250.441C214.316 250.655 214.198 251.796 213.654 251.876C213.11 251.957 209.523 252.654 209.22 252.715C208.917 252.776 208.911 253.195 209.693 253.01C210.475 252.825 210.436 253.804 210.479 254.262C210.521 254.719 207.784 255.272 207.206 255.341C206.701 255.402 206.412 255.591 206.633 256.132L206.891 256.646C207.212 257.37 207.293 258.303 206.988 258.462C206.645 258.64 203.321 259.669 202.368 259.862C201.415 260.055 201.244 258.272 201.828 258.032C202.412 257.792 205.639 256.547 206.007 256.499C206.375 256.452 205.814 256.126 205.416 256.007C205.018 255.888 204.737 255.435 204.814 254.774C204.891 254.113 206.861 253.266 207.63 253.155C208.398 253.044 208.481 253.024 208.159 252.318C207.838 251.612 208.532 250.725 209.139 250.495C209.746 250.265 211.604 250.087 211.943 249.904C212.282 249.721 212.228 249.079 211.864 248.644C211.5 248.209 211.812 247.035 212.192 246.99C212.572 246.945 214.604 246.615 215.12 246.536C215.635 246.457 215.903 245.911 216.043 245.762C216.182 245.613 215.446 245.756 215.22 245.264C214.992 244.773 214.807 244.228 215.774 243.755ZM223.52 239.228C224.009 239.356 224.302 240.861 223.781 241.113C223.26 241.364 219.577 242.512 218.685 242.216C217.794 241.92 217.912 240.91 218.425 240.54C218.939 240.17 223.032 239.1 223.52 239.228ZM226.557 235.319C227.046 235.447 227.339 236.952 226.818 237.204C226.297 237.456 222.614 238.603 221.722 238.307C220.831 238.011 220.949 237.001 221.462 236.631C221.976 236.261 226.068 235.191 226.557 235.319ZM228.852 231.687C229.477 231.796 229.904 233.242 229.175 233.525C228.446 233.808 225.294 234.492 224.403 234.195C223.512 233.899 223.63 232.889 224.143 232.519C224.656 232.15 228.227 231.578 228.852 231.687ZM231.278 228.006C231.903 228.115 232.33 229.561 231.601 229.844C230.872 230.127 227.808 230.83 226.916 230.534C226.025 230.238 226.143 229.228 226.656 228.858C227.17 228.488 230.653 227.897 231.278 228.006ZM233.801 224.107C234.426 224.216 234.853 225.662 234.124 225.945C233.395 226.228 230.331 226.931 229.439 226.635C228.547 226.339 228.666 225.329 229.179 224.959C229.693 224.589 233.176 223.998 233.801 224.107Z" fill="#2B2D2E"/>
<path d="M237.464 164.998C238.839 163.763 240.529 163.404 241.364 163.821C242.199 164.238 242.553 165.407 242.472 166.277L242.329 166.951C241.81 169.077 240.126 175.275 241.116 180.548C242.187 186.252 249.509 195.167 254.092 198.509L254.969 199.101C257.293 200.525 258.543 201.794 259.116 202.888C259.113 204.659 258.596 206.53 258.237 207.479L257.901 208.08L257.913 207.935C258.133 206.62 256.206 204.772 254.048 202.293C251.89 199.814 242.959 192.679 239.802 184.941C236.644 177.203 238.423 171.682 239.441 169.09C240.458 166.498 239.277 165.922 238.673 165.298C238.488 165.106 237.868 165.218 237.089 165.463L237.165 165.343L237.464 164.998Z" fill="#FFD895"/>
<path d="M254.092 198.508L254.969 199.1C257.293 200.524 258.543 201.793 259.116 202.887C259.113 204.658 258.596 206.529 258.237 207.478L257.901 208.079L257.913 207.934C258.133 206.619 256.206 204.771 254.048 202.292L253.086 201.29C250.723 198.958 245.936 194.729 242.532 189.832C242.21 187.779 242.124 185.65 242.127 183.586C244.523 189.035 250.263 195.716 254.092 198.508Z" fill="#FFCA6F"/>
<path d="M230.158 183.384C230.581 184.269 229.116 187.532 228.538 189.105C227.959 190.678 226.831 194.785 227.643 196.173C228.455 197.561 234.092 203.009 234.701 204.465C235.31 205.922 234.161 209.051 233.411 210.576C232.661 212.1 230.924 214.957 229.797 215.545L223.301 218.45C222.29 218.917 221.461 219.327 221.093 219.577C219.931 220.367 213.795 231.396 209.372 236.417L206.304 239.674C202.909 243.372 200.137 246.881 198.652 248.875L195.466 253.418C193.922 255.611 192.234 257.882 190.882 259.11C189.193 260.644 186.052 264.093 184.108 266.099L184.741 265.095C185.078 264.544 185.453 263.89 185.902 262.989C187.456 259.872 189.144 255.475 190.141 253.484L190.975 251.906C192.354 249.378 194.608 245.494 195.431 244.381L196.828 242.61C197.232 242.09 197.563 241.604 197.782 241.048C198.221 239.936 200.926 238.738 201.54 237.537C202.154 236.336 204.046 233.207 204.586 231.808C205.126 230.409 205.201 228.826 206.49 225.408L207.089 223.961C209.099 219.356 214.086 209.406 214.299 208.815L217.505 201.85C217.796 201.198 218.067 200.579 218.296 200.031L218.832 198.65C219.568 196.476 224.247 187.986 225.413 185.387L225.616 184.897C226.034 183.734 226.618 183.014 227.368 182.737L227.498 182.378C229.081 182.654 229.967 182.986 230.158 183.384Z" fill="#EDEBF0"/>
<path d="M230.158 183.384C230.581 184.269 229.116 187.532 228.537 189.105C227.958 190.678 226.83 194.785 227.642 196.173C228.454 197.561 234.091 203.009 234.7 204.465C235.309 205.922 234.16 209.051 233.41 210.576C232.66 212.1 230.923 214.957 229.796 215.545L223.3 218.45C222.289 218.917 221.46 219.327 221.092 219.577C219.93 220.367 213.794 231.396 209.371 236.417L206.303 239.674C202.908 243.372 200.136 246.881 198.651 248.875L195.465 253.418C193.921 255.611 192.233 257.882 190.881 259.11C190.176 259.751 189.218 260.725 188.199 261.789C188.478 260.746 188.845 259.731 189.299 258.742C191.412 254.147 196.066 247.903 199.656 244.703L200.697 243.839C204.11 241.239 208.694 233.471 210.383 228.754L210.72 227.723C211.888 223.703 217.806 209.625 221.05 202.557L224.288 195.694C225.389 193.311 227.274 189.126 229.942 183.14C230.045 183.218 230.117 183.3 230.158 183.384Z" fill="#E9E5E9"/>
<path d="M227.757 196.348L227.642 196.174C228.454 197.563 234.091 203.01 234.7 204.466C235.309 205.923 234.16 209.052 233.41 210.577C232.66 212.101 230.923 214.958 229.796 215.546L223.3 218.451C222.289 218.918 221.46 219.328 221.092 219.578C219.93 220.368 213.794 231.397 209.371 236.418L206.303 239.675C202.908 243.373 200.136 246.882 198.651 248.876L195.465 253.419C195.118 253.912 194.764 254.408 194.408 254.896L193.314 254.239C193.144 254.146 192.981 254.063 192.826 253.992L192.136 253.732L193.327 252.021C194.245 251.531 195.342 251.046 195.962 250.718C197.084 250.124 199.033 246.468 200.4 244.072L200.697 243.839C203.845 241.44 207.99 234.643 209.94 229.901L210.569 229.249L211.153 228.589C213.238 226.097 216.077 219.927 217.794 216.595C218.737 214.766 218.515 211.74 218.138 209.12L219.755 205.43L221.009 206.461C221.651 206.951 222.299 207.365 222.876 207.53C224.847 208.092 224.938 205.713 225.461 204.226L225.633 203.81C225.994 203.082 226.702 200.595 227.757 196.348Z" fill="#CDCDCD"/>
<path d="M192.248 252.389C192.831 251.849 192.916 252.171 195.139 251.649C195.703 251.516 196.278 251.473 196.832 251.477L195.409 253.482L194.166 253.295C194.087 253.288 194.027 253.285 193.986 253.286C193.411 253.308 192.445 253.438 191.088 253.676C191.473 253.178 191.859 252.749 192.248 252.389ZM201.852 236.96C202.185 236.722 202.497 236.575 202.941 236.493C203.719 236.349 206.319 236.464 208.491 236.436L209.37 236.417L207.204 238.714L205.645 238.461C204.091 238.227 202.658 238.091 202.276 238.417L201.484 239.204C200.115 240.646 197.76 243.344 197.578 243.561C197.394 243.78 197.187 242.931 197.124 242.197L196.827 242.611C197.231 242.091 197.562 241.605 197.781 241.049C198.22 239.937 200.925 238.739 201.539 237.538L201.852 236.96ZM222.07 191.971C222.417 191.879 222.663 191.865 222.737 191.912C222.961 192.053 222.189 193.267 221.48 194.707L219.219 199.778C218.805 200.691 218.429 201.484 218.182 201.913C217.571 202.975 223.025 207.137 224.993 208.845L225.381 209.193C226.213 209.978 229.063 212.113 231.336 213.991C230.789 214.72 230.245 215.313 229.797 215.546L222.657 218.752C224.225 217.558 227.423 215.831 227.856 215.38C228.329 214.888 226.963 214.154 225.912 213.179L225.487 212.746C224.788 211.95 221.872 209.736 216.741 206.104C215.641 209.465 214.899 211.136 214.513 211.117C214.333 211.108 214.114 210.51 213.899 209.685L217.504 201.852L218.295 200.033L218.831 198.652C219.043 198.025 219.584 196.872 220.273 195.487L222.07 191.971Z" fill="#908F91"/>
<path d="M173.16 289.525C173.454 288.141 172.758 287.118 172.036 286.777C171.314 286.436 169.141 286.827 167.471 288.508C165.802 290.189 165.897 291.793 166.525 292.676C167.153 293.559 168.637 293.323 169.644 292.851C170.652 292.379 172.865 290.909 173.16 289.525Z" fill="#242424"/>
<path d="M168.126 290.012C167.674 291.167 167.876 291.762 168.774 291.941C169.673 292.12 173.234 291.537 174.773 291.473C176.312 291.41 181.057 290.105 182.807 288.966C184.557 287.826 192.045 276.773 193.62 273.068C195.194 269.363 193.227 263.97 192.814 261.741C192.401 259.512 191.862 258.293 191.741 257.274C191.62 256.255 191.914 255.64 191.949 254.961C191.972 254.508 192.095 254.093 192.318 253.715C194.342 253.017 195.834 252.657 196.793 252.636C198.233 252.605 200.608 253.274 204.76 255.205C208.912 257.136 210.497 257.846 213.248 258.506C215.999 259.166 218.892 259.687 224.27 252.744C229.648 245.801 230.679 242.615 229.988 240.709C229.527 239.438 229.199 238.578 229.003 238.127C232.504 239.709 236.003 240.583 239.502 240.749C244.75 240.999 246.893 240.858 249.665 240.035C252.437 239.212 253.829 238.258 253.965 237.883C254.101 237.508 250.96 236.549 249.947 236.309C248.935 236.069 246.845 236.291 245.857 236.318C244.869 236.345 242.155 236.628 236.616 235.644C231.077 234.66 222.257 231.887 219.265 231.091C216.273 230.295 209.483 228.705 206.817 229.22C204.151 229.735 202.104 230.588 202.56 233.159C201.776 233.23 200.225 233.869 200.252 235.071C200.279 236.273 201.077 237.332 203.541 237.232C206.005 237.132 210.561 238.269 213.117 238.443C215.673 238.617 222.803 239.141 224.075 239.196C225.347 239.251 226.213 240.53 225.91 241.181C225.607 241.832 216.111 253.623 215.43 254.237C214.749 254.85 214.226 254.953 211.451 253.791C208.676 252.629 204.458 250.276 201.108 249.387C197.758 248.498 196.79 247.939 195.157 247.969C193.523 247.998 193.758 247.85 192.65 248.688C191.543 249.525 189.903 249.392 188.982 250.787C188.062 252.182 186.676 254.534 188.099 258.597C189.522 262.66 190.911 267.272 190.251 269.977C189.591 272.682 179.629 285.291 178.798 286.006C177.967 286.721 174.169 288.129 173.091 288.111C172.013 288.093 170.99 287.875 170.095 288.292C169.201 288.71 168.578 288.857 168.126 290.012Z" fill="#F0EDF4"/>
<path d="M204.513 233.27C212.73 233.943 217.843 234.429 219.851 234.73C222.863 235.181 213.446 232.803 210.114 232.776C207.893 232.757 206.026 232.922 204.513 233.27Z" fill="#D4D4D4"/>
<path d="M193.826 266.095C194.272 268.379 194.504 270.989 193.62 273.068C192.046 276.773 184.558 287.826 182.807 288.966C181.057 290.106 176.312 291.41 174.773 291.473C173.788 291.513 171.976 291.767 170.562 291.897L171.295 291.551C171.401 291.503 171.499 291.461 171.589 291.423C172.616 290.993 175.278 290.517 177.045 289.71C178.635 288.984 178.096 288.287 177.298 288.227L177.025 288.232C176.1 288.332 177.889 286.993 179.945 285.897C181.83 284.892 186.06 279.323 187.89 276.538L188.326 275.853C189.557 273.836 190.74 272.365 191.363 270.919L191.666 270.05C192.121 268.301 192.523 272.171 192.738 270.86L192.992 269.68C193.167 268.938 193.397 268.013 193.606 267.099L193.826 266.095ZM222.688 238.992L224.463 238.685C226.526 238.361 227.433 238.419 227.89 239.362L228.041 239.758C228.338 240.739 229.172 242.484 229.839 243.721C229.189 245.713 227.526 248.54 224.27 252.745C218.892 259.688 215.999 259.167 213.248 258.507C210.812 257.923 209.29 257.299 206.09 255.822C206.538 255.798 206.956 255.834 207.345 255.927L207.908 256.108C210.154 257.031 213.777 256.942 213.585 255.933C213.484 255.404 213.114 254.839 212.768 254.305C214.427 254.899 214.876 254.738 215.43 254.239C216.111 253.626 225.607 241.834 225.91 241.183C226.213 240.532 225.346 239.253 224.075 239.198L222.388 239.095C222.483 239.037 222.587 239.01 222.688 238.992ZM227.838 236.414C232.103 237.983 235.044 238.791 236.661 238.838C239.086 238.909 241.341 237.168 245.089 237.16C245.956 237.158 246.463 236.828 246.687 236.291C247.737 236.216 249.164 236.125 249.947 236.31L250.878 236.562C252.194 236.947 254.071 237.592 253.965 237.884C253.829 238.259 252.437 239.213 249.665 240.036C246.893 240.859 244.749 241 239.502 240.75C236.587 240.611 233.671 239.981 230.754 238.859L229.315 238.256L227.838 236.414Z" fill="#CCCDD8"/>
<path d="M258.315 234.081C258.6 232.608 258.529 231.398 258.101 230.452C257.459 229.032 257.063 227.537 254.027 225.94C250.991 224.342 245.46 221.911 243.277 220.377C241.094 218.843 230.607 210.535 227.656 208.276C224.705 206.017 220.019 202.677 219.011 201.132C218.339 200.102 218.154 199.428 218.455 199.108C217.488 198.065 216.582 197.738 215.737 198.125C214.47 198.706 213.859 200.234 214.081 200.937C214.303 201.64 214.998 202.914 217.491 205.346C219.984 207.778 228.174 214.028 232.779 218.109C237.384 222.19 243.215 225.471 246.602 227.024C249.989 228.577 253.793 230.924 254.943 231.493C255.711 231.872 256.835 232.735 258.315 234.081Z" fill="#E8E6E4"/>
<path d="M215.738 198.125C216.583 197.738 217.489 198.066 218.456 199.108C218.396 199.172 218.355 199.25 218.334 199.342L217.868 199.157C217.542 199.068 217.179 199.054 216.781 199.113C215.292 199.335 214.836 201.146 215.169 202.814C214.491 201.925 214.21 201.338 214.083 200.937C213.86 200.234 214.471 198.705 215.738 198.125Z" fill="#727272"/>
<path d="M246.802 224.488C248.718 225.191 251.561 225.786 251.984 224.912L254.027 225.939C257.063 227.537 257.459 229.032 258.101 230.451C258.529 231.397 258.6 232.607 258.315 234.08C257.131 233.003 256.175 232.236 255.448 231.777L250.672 229.102C249.703 228.569 248.661 228.015 247.629 227.509L246.603 227.022C245.255 226.404 243.521 225.513 241.631 224.406C243.698 224.582 245.043 223.842 246.802 224.488Z" fill="#DBD0D0"/>
<path d="M222.31 193.053C222.842 192.137 223.604 190.7 222.366 191.147C221.128 191.593 220.196 191.702 219.066 191.293C217.936 190.884 215.67 190.934 213.543 193.033C211.416 195.132 211.733 197.755 212.13 199.693C212.527 201.631 211.584 205.016 211.428 206.467C211.272 207.918 212.356 208.738 212.849 207.986C213.342 207.235 214.247 202.417 214.082 200.936C213.918 199.455 213.763 196.122 214.711 194.977C215.659 193.832 219.002 193.571 219.305 194.556C219.608 195.542 220.551 197.17 220.615 196.585C220.679 196.001 221.778 193.969 222.31 193.053Z" fill="#343434"/>
<path d="M201.325 293.009C198.48 295.908 194.56 297.42 193.22 297.821C191.88 298.222 189.394 296.784 188.829 293.818C188.264 290.852 190.095 287.382 191.768 285.814C193.441 284.246 196.297 282.225 198.775 282.604C201.253 282.983 203.696 284.245 204.414 285.743C205.133 287.242 204.171 290.11 201.325 293.009Z" fill="#6D5CCA"/>
<path d="M200.401 292.02C197.556 294.919 193.556 296.44 192.216 296.841C190.876 297.242 189.395 296.784 188.829 293.818C188.264 290.852 190.095 287.382 191.768 285.814C193.441 284.246 196.297 282.225 198.775 282.604C201.253 282.983 202.465 283.296 203.182 284.794C203.901 286.293 203.246 289.121 200.401 292.02Z" fill="#7B53E8"/>
<path d="M198.428 284.625C198.603 284.177 199.211 284.26 199.649 284.236C200.087 284.212 202.041 284.85 202.166 285.625C202.291 286.4 201.35 287.55 200.482 288.124C199.614 288.698 197.447 289.188 197.105 289.814C196.763 290.44 195.113 291.791 194.506 292.886C193.899 293.98 192.723 293.942 191.454 294.414C190.499 294.768 191.444 296.028 192.264 296.831C190.877 297.242 189.396 296.784 188.83 293.818C188.771 293.511 188.739 293.198 188.729 292.883L188.903 292.728L189.24 292.484C190.056 291.962 193.374 291.301 194.33 290.916C195.286 290.531 197.056 288.259 197.497 287.745C197.939 287.232 198.253 285.073 198.428 284.625Z" fill="#9175F6"/>
<path d="M198.776 282.604L199.446 282.697C199.898 283.349 199.912 284.486 200.764 285.189C201.566 285.851 201.033 287.461 199.546 287.81C198.059 288.159 197.478 288.238 196.94 289.083C196.402 289.928 195.122 291.1 194.621 291.41C194.357 291.811 194.241 292.155 194.273 292.442C194.347 293.113 193.768 293.543 192.883 293.854C191.998 294.165 191.409 293.525 191.163 293.071C190.917 292.617 190.854 292.922 189.636 293.225C189.225 293.327 189.037 293.808 188.969 294.408L188.829 293.819C188.264 290.853 190.095 287.383 191.768 285.815C193.442 284.246 196.298 282.226 198.776 282.604Z" fill="#4334A5"/>
<path d="M243.83 255.25C244.372 256.265 244.336 258.709 242.611 261.544C240.886 264.38 237.699 267.366 234.471 268.311C231.243 269.256 229.162 264.973 228.793 263.018C228.424 261.063 229.071 257.465 231.454 255.002C233.837 252.539 236.397 251.394 239.071 251.81C241.746 252.225 243.288 254.235 243.83 255.25Z" fill="#6645BD"/>
<path d="M243.231 254.401C243.773 255.416 243.68 257.776 241.953 260.295C240.226 262.814 236.66 266.453 233.431 267.398C230.203 268.343 229.163 264.973 228.794 263.018C228.425 261.063 229.072 257.465 231.455 255.002C233.838 252.539 236.398 251.394 239.072 251.81C241.746 252.225 242.689 253.386 243.231 254.401Z" fill="#7857DD"/>
<path d="M239.071 251.809C239.731 251.912 240.286 252.06 240.756 252.24C238.434 252.832 238.774 253.813 239.711 254.273C240.745 254.781 243.425 256.055 240.14 258.14C239.513 258.538 238.696 259.888 237.716 261.093C237.208 261.718 236.317 262.859 235.044 264.516C233.788 265.875 232.983 265.046 231.264 264.755C230.194 264.574 230.085 265.766 231.252 267.308C229.687 266.618 229.062 264.441 228.793 263.016C228.424 261.061 229.071 257.463 231.454 255C233.837 252.538 236.397 251.393 239.071 251.809Z" fill="#4D34B6"/>
<path d="M235.48 252.195L236.154 252.112L236.723 252.132C238.038 252.392 238.519 254.498 239.222 254.568C239.925 254.638 240.852 255.185 241.373 255.936C241.894 256.687 239.893 257.895 239.227 257.954L237.724 257.955C236.898 257.969 236.036 258.065 235.834 258.494C235.48 259.244 234.768 261.227 235.033 262.097C235.298 262.967 235.285 264.178 234.338 264.871C233.391 265.564 231.013 264.281 230.585 263.919C230.252 263.638 229.211 262.337 228.948 260.795L228.888 260.046C229.225 258.355 230.03 256.476 231.455 255.003C232.747 253.665 234.093 252.716 235.48 252.195Z" fill="#311B8E"/>
<path d="M180.246 282.494C179.107 283.482 177.698 284.938 178.128 285.479C178.558 286.02 183.863 289.989 185.674 290.788C187.485 291.587 189.123 292.048 190.956 291.538C192.789 291.028 195.405 290.104 196.625 287.97C197.846 285.836 197.601 282.669 196.719 280.861C195.837 279.052 192.603 273.567 192.004 272.747C191.404 271.927 190.171 270.503 190.473 269.689C189.813 269.262 189.336 269.392 188.944 269.8C188.552 270.208 186.198 274.864 185.35 275.93C184.502 276.995 181.385 281.506 180.246 282.494Z" fill="#4E2FBB"/>
<path d="M180.246 282.494C179.107 283.482 177.698 284.938 178.128 285.479C178.558 286.02 183.56 289.471 185.371 290.271C187.182 291.07 188.816 291.56 190.649 291.05C192.482 290.54 195.098 289.616 196.318 287.482C197.539 285.348 197.294 282.181 196.412 280.373C195.53 278.565 192.603 273.567 192.003 272.747C191.403 271.927 190.17 270.503 190.472 269.689C189.812 269.262 189.335 269.392 188.943 269.8C188.551 270.208 186.197 274.864 185.349 275.93C184.502 276.995 181.385 281.506 180.246 282.494Z" fill="#7B4EE4"/>
<path d="M188.187 271.045L192.163 277.39C192.609 278.124 192.958 278.716 193.212 279.167L193.433 279.57C194.474 281.529 195.879 284.581 194.446 286.974C193.013 289.367 190.53 289.783 187.357 288.96C185.438 288.462 182.688 286.669 179.108 283.58C179.461 283.2 179.868 282.821 180.245 282.494C180.625 282.165 181.224 281.444 181.886 280.59L185.349 275.93C185.951 275.175 187.308 272.617 188.187 271.045Z" fill="#8754ED"/>
<path d="M189.423 287.007C189.029 287.659 189.414 289.173 189.917 289.656C190.42 290.139 192.235 289.797 192.346 288.836C192.457 287.875 191.825 286.789 191.003 286.452C190.179 286.116 189.816 286.355 189.423 287.007Z" fill="#483C9D"/>
<path d="M192.823 284.343C193.019 285.079 194.375 285.854 195.071 285.828C195.767 285.802 196.782 284.258 196.169 283.511C195.555 282.764 194.335 282.464 193.521 282.821C192.707 283.178 192.627 283.607 192.823 284.343Z" fill="#483C9D"/>
<path d="M188.187 271.045L190.076 274.068L184.932 287.902C183.327 286.986 181.386 285.545 179.109 283.58C179.462 283.2 179.869 282.821 180.246 282.494C180.626 282.165 181.225 281.444 181.887 280.59L185.35 275.93C185.951 275.175 187.308 272.617 188.187 271.045Z" fill="#9D6CFA"/>
<path d="M189.992 287.239C189.764 287.418 189.858 288.45 190.426 289.866C190.994 291.282 191.961 292.943 192.173 293.157C192.385 293.371 193.548 292.944 193.576 292.442C193.604 291.94 191.453 287.662 191.194 287.199C190.935 286.736 190.219 287.059 189.992 287.239Z" fill="#7A00FE"/>
<path d="M194.22 283.227C193.533 283.27 193.061 283.815 193.341 284.291C193.622 284.767 197.394 286.636 197.734 286.902C198.074 287.168 199.155 287.463 199.75 286.801C200.345 286.139 200.308 285.646 199.705 285.49C199.102 285.334 195.891 283.67 195.133 283.395C194.375 283.12 194.907 283.184 194.22 283.227Z" fill="#7A00FE"/>
<path d="M236.679 259.506C238.393 257.45 236.918 252.606 234.948 249.651C232.978 246.696 227.591 241.097 226.96 240.762C226.329 240.427 226.109 239.143 225.403 239.511C224.697 239.879 218.15 249.116 217.026 250.764C215.902 252.413 214.882 253.218 214.671 254.297C214.46 255.376 217.647 257.791 219.609 258.876C221.571 259.961 225.597 262.002 228.885 261.97C232.175 261.937 234.965 261.561 236.679 259.506Z" fill="#784CDF"/>
<path d="M223.866 241.335C224.52 241.672 225.053 242 225.464 242.318C227.631 243.986 231.895 248.452 234.025 252.214C236.155 255.976 235.021 258.825 232.962 259.743C230.902 260.661 226.829 260.264 222.207 258.014C218.762 256.337 216.462 253.972 215.464 252.794L216.456 251.551L220.674 245.62C221.602 244.335 222.561 243.027 223.376 241.951L223.866 241.335Z" fill="#6D45D6"/>
<path d="M229.633 257.75C229.239 258.402 229.772 259.725 230.274 260.208C230.777 260.691 232.576 260.335 232.493 259.421C232.41 258.507 231.958 257.472 231.135 257.135C230.313 256.799 230.027 257.098 229.633 257.75Z" fill="#302387"/>
<path d="M232.341 254.888C232.6 255.604 233.725 255.962 234.521 255.751C235.317 255.539 235.772 253.919 235.01 253.408C234.248 252.897 233.656 252.887 232.877 253.315C232.096 253.741 232.081 254.171 232.341 254.888Z" fill="#302387"/>
<path d="M223.866 241.335C224.52 241.672 225.053 242 225.464 242.318L226.399 243.097C226.569 243.248 226.746 243.408 226.928 243.577L220.283 256.944C217.895 255.441 216.262 253.737 215.463 252.794L216.455 251.551L220.673 245.62L223.375 241.951L223.866 241.335Z" fill="#895BE9"/>
<path d="M224.973 241.971L218.773 249.597C217.995 250.534 217.406 251.227 217.007 251.676C216.372 252.391 216.122 252.433 216.257 251.803L216.455 251.551L220.673 245.62L223.375 241.951L223.866 241.336C224.285 241.551 224.654 241.763 224.973 241.971Z" fill="#AD90F5"/>
<path d="M229.221 243.144L227.838 241.525L229.471 243.177C231.349 245.146 233.765 247.875 234.948 249.65C236.918 252.605 238.393 257.449 236.679 259.505C234.965 261.561 232.175 261.936 228.887 261.968C225.599 262 221.573 259.959 219.611 258.874C217.901 257.928 215.26 255.972 214.75 254.771C217.259 256.91 221.881 259.496 224.763 260.275C227.881 261.117 230.686 261.28 232.541 260.799C234.396 260.318 235.351 259.106 235.94 257.466C236.529 255.826 235.691 253.707 234.211 250.293C233.493 248.638 231.83 246.255 229.221 243.144Z" fill="#4E34AF"/>
<path d="M230.439 257.657C229.909 257.847 229.527 258.372 230.466 260.113C231.405 261.853 232.659 264.826 233.758 264.289C234.857 263.753 233.841 262.368 233.627 261.881C233.413 261.394 231.919 258.501 231.652 258.062C231.384 257.624 230.969 257.467 230.439 257.657Z" fill="#9761E9"/>
<path d="M233.893 253.426C233.071 253.566 232.418 254.153 232.702 254.76C232.986 255.368 233.825 255.194 235.159 255.531C236.493 255.868 238.198 256.818 238.476 257.127C238.754 257.436 240.488 256.948 240.608 256.272C240.728 255.596 238.83 255.076 237.929 254.717C237.028 254.358 234.715 253.286 233.893 253.426Z" fill="#9761E9"/>
<path d="M278.257 272.749C277.846 271.499 278.143 266.129 277.938 262.775C277.733 259.421 279.558 239.696 280.292 236.061C281.025 232.426 281.491 231.175 282.687 229.887C283.883 228.6 287.429 224.806 287.391 223.395C287.352 221.983 286.854 218.459 287.746 216.607C288.638 214.755 303.332 197.435 305.936 194.374C308.54 191.314 316.077 182.31 317.283 181.082C318.489 179.854 319.82 179.458 322.143 180.032C324.466 180.606 331.123 183.279 331.969 183.547C332.815 183.815 334.901 182.463 335.083 182.622C335.205 182.728 337.735 185.804 342.675 191.849L333.715 206.292L303.462 248.013C286.933 265.336 278.531 273.582 278.257 272.749Z" fill="#DDDDE1"/>
<path d="M278.257 272.749C277.846 271.499 278.861 266.586 278.657 263.231C278.452 259.877 280.277 240.152 281.011 236.517C281.744 232.882 282.21 231.631 283.406 230.343C284.602 229.056 288.148 225.262 288.11 223.851C288.072 222.44 287.573 218.915 288.465 217.063C289.357 215.211 304.051 197.891 306.655 194.83C309.259 191.769 316.531 182.987 317.736 181.758C318.942 180.53 320.273 180.134 322.596 180.708C324.919 181.282 331.576 183.955 332.422 184.223C333.268 184.491 334.901 182.462 335.083 182.621C335.205 182.727 337.735 185.803 342.675 191.848L333.715 206.291L303.462 248.012C286.933 265.336 278.531 273.582 278.257 272.749Z" fill="#B9BDC1"/>
<path d="M332.421 184.223C333.267 184.491 334.9 182.462 335.082 182.621L342.674 191.848L334.577 204.895L330.996 192.217C330.075 188.963 328.024 185.361 324.843 181.41L328.574 182.774C330.425 183.472 332.034 184.101 332.421 184.223Z" fill="#CCC8C8"/>
<path d="M306.179 128.274C308.329 127.281 312.06 127.233 314.609 131.149C317.158 135.065 317.817 139.274 316.781 142.759C315.745 146.245 311.963 150.554 311.811 151.432C311.66 152.31 315.263 155.773 316.52 156.939C317.777 158.105 317.786 160.116 318.896 160.708C320.006 161.3 323.209 159.721 328.537 160.241C333.865 160.761 336.736 163.546 338.082 166.51C339.428 169.474 337.747 175.241 336.948 179.115C336.149 182.989 338.626 184.635 340.68 186.572C342.734 188.509 343.535 189.871 342.959 191.126C342.383 192.382 341.888 191.967 341.617 191.798C341.346 191.628 339.092 188.69 338.204 187.417C337.315 186.144 335.85 184.178 335.537 183.531C335.225 182.883 335.12 182.396 334.875 181.34C334.63 180.284 335.353 176.056 335.978 174.284C336.603 172.511 336.82 168.501 335.309 165.373C333.798 162.245 329.242 162.148 327.184 161.851C325.126 161.554 320.581 162.782 318.876 162.6C317.171 162.418 314.245 159.331 313.308 158.274C312.371 157.217 308.701 153.858 307.849 152.978C306.997 152.098 305.402 150.297 305.037 149.502C304.672 148.707 304.766 146.476 304.745 145.413C304.724 144.35 302.602 142.125 301.388 137.763C300.176 133.403 304.029 129.267 306.179 128.274ZM307.092 129.89C305.004 130.862 303.298 134.017 303.331 136.785C303.364 139.553 305.596 142.543 306.854 144.046C308.112 145.549 307.687 147.248 307.92 148.3C308.153 149.352 309.397 150.699 309.805 150.414C310.213 150.129 311.125 148.736 312.163 147.224C313.201 145.711 314.446 143.364 315.22 140.502C315.994 137.641 314.682 134.304 313.355 132.312C312.03 130.32 309.18 128.918 307.092 129.89Z" fill="#2C2F28"/>
<path d="M323.989 182.133L327.102 183.186C330.831 184.386 333.496 184.657 335.743 183.749L335.952 183.65L337.369 185.368C337.104 185.501 336.825 185.617 336.544 185.731C334.025 186.749 331.299 186.614 327.798 185.629L325.335 184.85L324.254 184.474C321.162 183.394 320.726 183.443 319.02 184.974L317.792 186.21L316.192 187.936C312.851 191.597 307.474 197.768 303.439 202.729L299.37 207.843L293.129 216.003C293.072 216.085 293.028 216.15 292.998 216.196C292.685 216.688 292.003 222.793 291.68 224.391C291.338 226.079 290.466 227.815 289.19 229.588C288.716 230.247 288.202 230.889 287.653 231.518L286.445 232.829L285.281 233.992L285.227 234.079L285.071 234.46L284.906 235.101C284.593 236.532 284.22 239.417 283.709 244.523L283.267 249.116C282.836 253.754 282.57 258.292 282.469 262.729C282.834 262.494 294.177 250.522 298.823 245.867C300.451 244.236 299.243 242.501 297.346 243.424C295.449 244.347 293.811 244.505 293.067 243.379C291.566 241.108 291.148 238.114 293.542 234.589C294.293 233.484 298.11 229.062 297.317 224.466C296.523 219.87 296.688 217.329 298.033 215.399C300.671 211.614 310.962 196.614 319.405 188.83C321.56 186.843 322.731 186.607 325.479 187.268C330.239 188.413 329.245 201.901 332.568 199.301C336.109 196.531 339.644 192.151 341.054 190.995C342.087 190.148 343.816 192.334 346.239 197.552C303.7 244.855 282.436 268.814 282.445 269.429L281.064 270.717C280.856 270.906 280.66 271.083 280.475 271.246C280.386 271.098 280.337 270.929 280.332 270.748C280.168 263.729 280.437 256.452 281.138 248.917L281.944 240.769L282.207 238.523C282.632 235.159 282.999 233.619 283.499 232.83L283.8 232.459L285.244 230.991C286.058 230.125 286.8 229.245 287.452 228.339C288.566 226.791 289.309 225.311 289.581 223.966L290.316 218.932C290.594 217.153 290.907 215.494 291.191 215.047L291.933 214.009L295.363 209.503C296.809 207.633 298.471 205.509 300.091 203.477L303.662 199.088L306.677 195.513C311.447 189.927 316.323 184.517 317.588 183.382C319.723 181.471 320.949 181.18 323.989 182.133Z" fill="#AA7EF7"/>
<path d="M130.988 328.445C130.485 328.346 128.961 331.159 132.302 337.823C135.644 344.487 139.937 345.974 142.769 347.529C145.601 349.084 155.745 351.661 163.399 350.509C171.053 349.357 174.789 347.929 176.095 347.796C177.401 347.663 180.386 347.287 181.17 346.654C181.954 346.02 183.878 345.953 185.043 345.937C186.208 345.921 188.462 344.45 188.994 344.427C189.526 344.403 190.784 344.497 192.989 343.394C195.193 342.291 205.003 337.382 206.386 336.69C207.769 335.998 207.194 334.51 206.513 333.365C205.832 332.221 204.055 330.43 202.436 330.192C200.816 329.955 175.429 340.564 167.766 342.207C160.103 343.85 151.343 345.37 147.862 344.561C144.381 343.752 142.453 342.446 140.871 341.273C139.289 340.1 136.757 338.141 135.38 335.544C134.003 332.947 131.491 328.544 130.988 328.445Z" fill="#E2E2E2"/>
<path d="M131.683 329.217C132.665 330.613 134.344 333.587 135.379 335.542C136.559 337.768 138.588 339.525 140.14 340.721L140.87 341.272C142.452 342.446 144.379 343.752 147.861 344.56C151.342 345.369 160.101 343.849 167.765 342.206C175.429 340.563 200.816 329.954 202.435 330.191C204.055 330.428 205.831 332.219 206.512 333.364C207.117 334.381 207.639 335.67 206.776 336.43L206.385 336.689L192.988 343.393C190.784 344.496 189.525 344.402 188.993 344.426C188.461 344.45 186.207 345.92 185.042 345.936C184.071 345.95 182.573 345.998 181.647 346.381L181.169 346.653C180.497 347.196 178.208 347.55 176.745 347.724L176.094 347.796C174.788 347.929 171.052 349.357 163.398 350.509C160.909 350.884 158.158 350.864 155.479 350.614C156.469 350.46 157.435 350.278 158.325 350.047L161.543 349.241C163.526 348.788 163.269 349.029 164.221 349.21C165.519 349.456 166.688 348.204 168.9 347.469C171.112 346.733 170.673 348.033 172.606 347.776C174.263 347.555 175 346.766 175.627 346.639L175.935 346.636C176.65 346.786 177.035 345.736 177.618 344.559C178.201 343.382 180.565 344.968 181.944 344.82C183.323 344.673 182.07 342.604 183.825 342.964C185.58 343.323 186.881 342.434 187.187 341.005C187.493 339.576 190.797 341.051 192.763 340.963C194.73 340.875 193.842 339.981 193.852 338.412C193.862 336.843 195.737 338.7 197.308 338.688C198.879 338.676 198.732 338.249 198.577 337.226C198.422 336.203 200.357 337.255 201.914 337.619C203.471 337.982 206.179 336.301 205.425 333.912C204.671 331.523 203.607 330.95 201.513 331.683C199.419 332.415 188.019 336.876 181.166 339.46C174.313 342.044 166.724 344.449 158.867 345.51C154.742 346.067 151.031 346.34 148.158 345.859C145.558 345.424 143.746 344.099 143.404 343.815C142.684 343.217 141.306 341.811 138.927 340.129C136.731 338.576 132.56 332.374 131.759 329.899L131.628 329.375L131.683 329.217Z" fill="#B7B7B6"/>
<path d="M206.513 333.363C207.118 334.38 207.64 335.669 206.777 336.429L206.386 336.688L192.989 343.392C190.785 344.495 189.526 344.401 188.994 344.425C188.462 344.449 186.208 345.919 185.043 345.935C184.329 345.945 183.33 345.974 182.483 346.141C182.827 345.894 183.085 345.689 183.413 345.534L183.977 345.339C184.813 345.14 186.353 344.424 187.38 344.053L188.036 343.852C188.905 343.67 190.3 342.963 190.733 342.925C191.166 342.887 192.648 341.902 193.5 341.847C194.352 341.792 195.833 340.798 195.843 340.191C195.853 339.584 199.192 339.642 198.997 339.494C198.801 339.346 198.838 338.901 199.404 338.621C199.97 338.341 201.951 338.17 202.84 337.787L203.97 337.201C204.864 336.67 205.863 335.978 206.074 335.599C206.282 335.226 206.371 334.35 206.343 332.972L206.357 333.119L206.513 333.363Z" fill="#727272"/>
<path d="M376.004 219.846C374.125 216.092 371.154 214.499 370.288 214.256C369.423 214.013 368.605 211.477 368.86 209.59C369.115 207.703 367.456 206.1 365.23 205.14C363.003 204.181 340.085 205.871 338.509 207.18C336.933 208.489 305.006 240.844 301.533 244.396C298.06 247.948 288.968 257.644 286.981 259.649C284.994 261.654 278.28 267.591 276.763 268.776C275.246 269.961 249.824 287.597 247.645 288.817C245.466 290.036 206.678 311.472 189.07 319.914C171.462 328.356 142.979 340.785 142.088 341.643C141.197 342.501 144.186 345.346 148.362 345.763C152.538 346.18 162.046 345.874 177.223 340.445C192.4 335.017 202.197 330.781 203.142 330.773C204.087 330.765 205.626 331.813 206.069 332.924C206.512 334.036 206.576 335.078 207.08 334.945C207.584 334.812 209.554 333.928 209.953 333.168C210.352 332.408 211.895 333.082 214.724 331.941C217.553 330.8 220.066 329.841 223.175 328.286C226.283 326.73 257.329 311.107 261.341 309.099C265.353 307.091 268.096 303.429 269.488 299.863C270.879 296.297 272.641 294.646 273.965 294.239C275.289 293.832 276.278 295.85 277.37 295.422C278.462 294.994 279.141 294.716 279.565 295.287C279.989 295.858 282.346 297.459 284.758 296.715C287.17 295.971 292.275 293.618 299.557 289.973C306.839 286.329 335.5 271.986 344.686 267.388C353.873 262.791 355.207 258.108 356.095 256.987C356.982 255.866 359.618 256.692 360.163 256.003C360.708 255.314 361.531 253.555 363.108 253.477C364.685 253.399 366.516 252.158 366.614 251.255C366.712 250.352 367.91 249.779 368.007 250.062C368.103 250.345 370.323 249.904 370.732 247.913C371.141 245.922 371.13 245.137 372.313 245.019C373.496 244.901 373.883 243.323 373.595 242.169C373.307 241.015 374.94 241.949 375.254 241.339C375.463 240.932 375.709 240.057 375.99 238.714C377.482 235.196 378.292 232.35 378.42 230.177C378.614 226.919 377.883 223.6 376.004 219.846Z" fill="#DFDFDF"/>
<path d="M338.51 207.18C340.086 205.871 363.004 204.181 365.231 205.14L365.896 205.454C362.777 208.207 355.34 218.807 352.355 219.53C348.909 220.364 348.277 217.944 346.923 217.687C345.568 217.429 343.111 218.733 339.319 222.571C337.694 223.727 332.008 224.008 322.259 223.413L337.848 207.8C338.183 207.475 338.409 207.264 338.51 207.18Z" fill="#E2E2E2"/>
<path d="M209.873 329.081L211.288 328.42L212.31 327.982C212.739 327.805 213.036 327.722 213.162 327.879C213.456 328.245 215.142 329.229 216.537 329.066L217.525 328.924L219.349 328.605C221.106 328.273 223.362 327.781 225.405 327.165L223.176 328.285C220.068 329.841 217.554 330.799 214.725 331.94C212.21 332.954 210.712 332.534 210.13 332.962L209.954 333.167C209.554 333.927 207.585 334.811 207.081 334.944C206.7 335.044 206.571 334.476 206.34 333.713C207.136 333.453 207.786 332.957 208.291 332.223C209.157 330.964 208.682 329.606 209.873 329.081Z" fill="#9C9C9C"/>
<path d="M214.134 329.53L215.068 329.817C216.025 330.099 217.401 330.392 218.989 329.967L220.224 329.665C218.348 330.503 216.607 331.181 214.726 331.94C212.211 332.954 210.713 332.534 210.131 332.962L209.955 333.167C209.555 333.927 207.586 334.811 207.082 334.944C206.792 335.021 206.647 334.708 206.493 334.218L207.706 333.684C208.135 333.481 208.539 333.256 208.761 333.017C209.367 332.368 209.744 331.14 210.811 330.516C211.878 329.893 213.311 329.31 214.134 329.53Z" fill="#404040"/>
<path d="M372.406 227.678C369.349 233.609 363.826 240.195 361.883 244.988C360.024 249.573 365.58 247.318 370.644 243.575L371.331 243.056C372.72 241.982 374.166 240.988 375.67 240.074C375.523 240.671 375.382 241.092 375.255 241.34C374.941 241.951 373.308 241.016 373.596 242.17C373.884 243.324 373.497 244.902 372.314 245.02C371.131 245.138 371.142 245.923 370.733 247.914C370.365 249.706 368.53 250.242 368.097 250.125L368.008 250.063C367.926 249.821 367.033 250.207 366.718 250.891L366.615 251.256C366.517 252.159 364.686 253.4 363.109 253.478C361.532 253.556 360.708 255.314 360.164 256.004C359.62 256.694 356.983 255.868 356.096 256.988C355.255 258.05 354.013 262.308 346.074 266.663L344.688 267.389L297.917 290.792C291.507 293.971 286.986 296.029 284.76 296.716C282.616 297.378 280.515 296.186 279.777 295.512L279.567 295.288C279.143 294.717 278.465 294.995 277.372 295.423C276.279 295.851 275.291 293.833 273.967 294.24C272.79 294.602 271.267 295.947 269.966 298.745L269.49 299.864C269.077 300.921 268.546 301.987 267.898 303.016C268.244 299.2 268.823 296.737 269.627 295.62C271.125 293.539 276.18 292.483 278.835 291.027L281.3 289.564C285.584 286.956 293.182 282.227 296.062 281.483C299.404 280.619 307.635 277.219 313.062 273.969L314.261 273.223C319.591 269.764 348.778 248.879 350.223 248.508C351.668 248.137 351.676 256.814 354.036 255.53C356.397 254.246 357.023 245.308 357.232 242.903C357.255 242.637 359.41 236.59 355.568 240.181C351.749 243.751 333.01 256.531 347.692 240.278C362.374 224.025 364.3 221.379 366.93 218.041L367.469 217.343C370.526 213.284 375.464 221.747 372.406 227.678Z" fill="#D4D4D4"/>
<path d="M371.617 245.231C371.11 245.606 371.039 246.421 370.733 247.913C370.365 249.705 368.53 250.241 368.097 250.124L368.008 250.062C367.926 249.82 367.033 250.206 366.718 250.89L366.615 251.255C366.517 252.158 364.686 253.399 363.109 253.477C361.532 253.555 360.708 255.313 360.164 256.003C359.62 256.693 356.983 255.867 356.096 256.987L355.772 257.489C354.87 259.052 353.079 262.819 346.073 266.661L344.687 267.387L297.916 290.79C291.506 293.969 286.985 296.027 284.759 296.714C282.615 297.376 280.514 296.184 279.776 295.51L279.566 295.286C279.142 294.715 278.464 294.993 277.371 295.421C276.842 295.628 276.338 295.262 275.807 294.876L281.567 291.398C286.033 288.74 289.401 286.836 291.671 285.686C296.59 283.195 309.223 278.358 312.909 276.398C316.595 274.439 320.254 274.59 321.224 274.201C322.194 273.812 322.868 270.692 325.662 270.938C328.281 271.169 327.115 274.227 329.285 271.492L329.766 270.865C332.59 267.083 334.009 268.751 334.541 268.475C335.073 268.199 336.82 267.02 336.722 265.727C336.624 264.434 335.713 264.168 337.763 264.882C339.813 265.596 343.27 265.57 343.351 264.066C343.432 262.563 341.737 260.168 344.698 260.488C347.659 260.809 349.197 261.652 350.237 261.123C351.277 260.594 350.547 260.598 349.954 259.104C349.362 257.61 350.306 255.585 351.792 255.597C352.172 255.6 352.576 255.502 352.966 255.339C353.252 255.664 353.604 255.76 354.033 255.527C354.77 255.126 355.337 253.98 355.776 252.52C356.682 252.194 358.446 252.236 359.73 252.143C361.545 252.013 361.463 248.889 363.987 250.013C366.511 251.137 367.088 249.499 367.205 246.697C367.269 245.205 368.739 244.716 371.617 245.231Z" fill="#B0B0B0"/>
<path d="M276.973 293.043C278.523 293.674 289.94 288.245 292.363 287.702C294.786 287.159 295.841 288.906 296.43 287.998C297.018 287.091 295.921 286.126 298.615 285.517L301.728 284.801C302.936 284.508 303.882 284.242 304.459 283.98L305.194 283.587C307.278 282.418 312.758 279.175 316.406 277.854L317.277 277.566C321.409 276.349 332.052 270.263 335.528 269.684C336.812 269.47 337.359 270.082 337.281 271.102L297.92 290.79C291.51 293.969 286.989 296.027 284.763 296.714C282.619 297.376 280.518 296.184 279.78 295.51L279.57 295.286C279.146 294.715 278.468 294.993 277.375 295.421C276.282 295.849 275.294 293.831 273.97 294.238C272.793 294.6 271.27 295.945 269.969 298.743L269.493 299.862C269.344 300.244 269.18 300.627 269 301.009C269.289 298.362 270.19 295.425 270.793 294.903C271.614 294.188 275.423 292.412 276.973 293.043Z" fill="#828282"/>
<path d="M355.922 257.245L355.09 258.675C353.945 260.563 351.678 263.589 346.074 266.662L344.688 267.388L297.917 290.791C291.507 293.97 286.986 296.028 284.76 296.715C283.673 297.05 282.597 296.909 281.704 296.601C283.008 296.047 284.562 295.182 285.521 294.227C287.201 292.553 290.652 290.169 292.869 289.764L295.653 289.313C296.978 289.066 298.01 288.73 297.878 288.043C297.658 286.898 297.89 286.258 300.288 286.051L302.337 285.88C303.686 285.748 304.975 285.534 306.055 284.972L306.823 284.481C308.512 283.163 309.181 284.312 310.793 282.869L311.776 281.962C312.799 280.972 313.329 280.226 312.75 279.815C312.006 279.286 315.045 279.61 315.551 279.271C315.985 278.981 315.84 278.433 316.468 278.473L316.853 278.546C317.93 278.85 319.656 277.979 318.856 277.544C318.234 277.206 318.7 277.241 320.053 277.032L321.425 276.779C323.625 276.304 321.746 277.429 324.65 275.944L330.264 273.062C331.491 272.413 332.306 271.929 332.645 271.558L335.321 268.519C336.51 267.522 337.317 267.119 337.742 267.307L339.17 268.004C339.859 268.315 340.483 268.514 340.353 268.075L339.855 266.786C339.722 266.352 339.718 265.987 340.128 265.914L340.518 265.918C341.947 266.114 344.242 264.895 345.231 264.439C346.22 263.983 346.551 264.821 347.276 263.843C347.91 262.988 348.055 261.74 349.15 261.413L349.682 261.333C351.277 261.29 354.06 259.638 354.455 258.494C354.67 257.868 355.051 257.529 355.922 257.245Z" fill="#404040"/>
<path d="M260.554 297.373C266.885 294.252 267.829 296.342 268.168 297.449C268.293 297.857 268.931 300.123 269.528 299.748L269.489 299.863C268.098 303.429 265.355 307.091 261.342 309.099L223.176 328.286C221.453 329.148 219.912 329.827 218.4 330.456L217.273 329.232C217.191 329.151 217.124 329.089 217.071 329.044L215.603 327.966C214.765 327.326 213.804 326.479 213.211 325.448C212.303 323.869 213.886 322.489 218.742 319.43L221.026 318.011C227.661 313.922 254.223 300.494 260.554 297.373ZM250.561 286.919C244.808 291.366 234.471 297.876 221.852 305.489L218.558 307.426C199.049 318.634 165.995 333.496 159.498 336.781C152.918 340.108 154.956 341.978 160.482 341.152C166.008 340.327 170.674 339 177.185 336.97L180.061 336.04C187.665 333.522 200.091 329.577 201.458 329.475C202.812 329.375 202.971 329.925 203.919 330.943C203.639 330.832 203.373 330.771 203.142 330.773C202.197 330.78 192.401 335.017 177.223 340.445C162.046 345.873 152.538 346.179 148.362 345.763C144.186 345.346 141.197 342.501 142.088 341.643C142.954 340.809 169.942 329.019 187.619 320.607L191.597 318.685C210.129 309.565 245.565 289.981 247.645 288.817L250.561 286.919ZM281.271 264.902C281.751 266.603 281.878 267.922 281.65 268.859C281.034 271.393 277.409 274.114 276.09 275.165C274.77 276.216 276.474 272.522 275.784 270.941C275.639 270.609 274.704 270.759 273.308 271.233L276.764 268.774L279.238 266.682L281.271 264.902Z" fill="#EDEDED"/>
<path d="M154.683 339.245L156.956 338.105C157.265 337.955 157.591 337.799 157.933 337.636C153.307 340.418 155.447 341.904 160.483 341.152C166.009 340.327 170.675 339 177.186 336.97L190.484 332.671C195.836 330.981 200.638 329.536 201.459 329.476C202.803 329.377 202.97 329.917 203.898 330.92C202.877 330.569 201.958 330.319 201.379 330.371C199.388 330.55 163.351 344.006 156.625 343.952C149.899 343.898 150.819 341.299 154.683 339.245Z" fill="#E7E7E7"/>
<path d="M369.178 212.611C369.458 213.476 369.868 214.137 370.289 214.256C371.154 214.499 374.126 216.092 376.005 219.846C376.333 220.502 376.626 221.144 376.885 221.775C375.639 220.527 374.742 221.188 372.416 224.854C369.791 228.992 363.408 235.958 361.189 238.315C359.71 239.886 359.321 241.466 359.159 243.16L358.763 248.606C358.562 250.937 358.231 253.358 357.392 254.077C356.328 254.991 355.141 254.207 354.497 252.787L354.282 252.227C353.722 250.469 352.192 249.011 351.206 248.603C350.59 248.348 348.424 249.821 345.58 252.025L339.915 256.565C334.919 260.628 324.517 267.9 319.487 270.952L316.639 272.59C311.401 275.534 302.213 280.571 300.809 281.769L298.827 283.384C296.858 284.952 294.443 286.804 294.988 286.199L295.523 285.679C298.097 283.305 296.996 282.655 299.382 280.892C301.768 279.128 314.07 272.197 320.587 268.127L322.428 266.932C329.556 262.17 343.335 251.75 346.215 249.256L346.55 248.955C348.61 247.002 350.9 245.964 353.002 247.03C355.103 248.095 356.18 252.926 356.541 251.098C356.902 249.27 357.09 241.074 357.677 239.181C358.265 237.288 372.525 223.657 372.441 220.846C372.357 218.035 369.407 216.956 368.803 216.052C368.552 215.675 368.582 215.036 368.749 214.243L369.178 212.611Z" fill="#C8C8C8"/>
<path d="M362.51 205.12L362.467 204.865L363.93 204.925C364.552 204.971 365.001 205.042 365.231 205.14C367.458 206.099 369.116 207.703 368.861 209.59C368.606 211.477 369.423 214.013 370.289 214.256C370.928 214.436 372.717 215.352 374.366 217.332L374.126 218.384L374.054 218.852C373.92 220.337 372.682 222.597 371.295 224.89C370.007 227.019 363.446 234.204 360.871 236.879L360.352 237.412C358.298 239.484 358.046 240.347 357.79 243.648C357.534 246.949 357.748 249.884 356.933 252.28C356.118 254.676 355.074 252.696 355.013 251.751C354.951 250.806 353.406 248.867 351.989 247.968C350.667 247.129 349.282 247.892 344.788 251.557L343.776 252.387C338.469 256.766 327.356 264.592 322.514 267.737L320.765 268.819C315.088 272.206 304.741 277.474 309.128 274.713L318.122 269.075C322.918 266.026 328.241 262.522 331.942 259.643L334.744 257.45C339.902 253.384 345.029 249.165 347.704 246.388L349.624 244.303C354.131 239.494 367.766 224.764 370.09 221.351C372.688 217.536 369.78 216.416 368.706 217.866L365.76 221.174C362.071 225.754 352.989 236.716 345.534 244.428C336.385 253.892 320.875 265.075 319.602 264.175C318.33 263.275 340.301 243.748 344.821 238.907L346.004 237.604C351.629 231.282 365.397 214.464 365.964 212.204C366.577 209.763 363.85 207.182 362.78 205.657C362.662 205.488 362.573 205.308 362.51 205.12Z" fill="#E7E7E7"/>
<path d="M299.272 246.741L298.878 247.792L293.119 254.724C289.412 259.13 286.841 262.044 285.405 263.467C282.664 266.184 279.739 267.973 277.531 269.465L264.016 279.068C258.644 282.854 253.072 286.715 250.57 288.236L247.032 290.284C241.559 293.482 231.515 299.432 220.325 305.333L214.311 308.453C198.609 316.501 171.002 330.078 158.409 335.323L155.468 336.53C149.546 338.922 146.454 339.908 144.45 340.417L155.391 335.395C164.205 331.401 175.846 326.159 185.379 321.666L191.595 318.685C210.127 309.565 245.563 289.981 247.643 288.817L249.086 287.9C254.996 284.007 275.407 269.834 276.761 268.776C278.278 267.591 284.992 261.654 286.979 259.649L299.272 246.741ZM338.51 207.18C340.086 205.871 363.004 204.181 365.231 205.14C367.458 206.099 369.116 207.703 368.861 209.59C368.681 210.923 369.036 212.579 369.565 213.523C369.119 213.359 368.825 213.134 368.819 212.791C368.798 211.477 367.39 209.849 366.141 208.965C365.225 208.316 362.399 212.084 360.857 214.303L359.837 215.822C359.583 216.235 358.702 215.974 354.877 214.602C351.052 213.23 344.582 212.489 344.113 212.412C343.644 212.334 341.508 214.555 335.674 222.401L334.311 224.146C327.342 232.743 309.714 250.792 306.761 253.624L306.495 253.875C304.46 255.732 303.758 256.392 302.837 255.702C302.008 255.082 301.455 253.835 301.761 251.066L301.896 250.085C302.161 248.448 302.176 246.41 301.942 243.973L333.638 211.968C336.323 209.282 338.161 207.47 338.51 207.18Z" fill="#ECECEC"/>
<path d="M261.545 304.069C262.74 304.018 262.887 305.89 263.88 305.243C264.873 304.596 264.776 303.141 266.133 302.75C266.91 302.526 267.76 302.293 268.331 302.42C267.982 303.204 267.304 304.047 266.205 305.006C263.415 307.44 257.795 310.856 251.961 313.869L221 329.376C220.599 329.577 217.969 329.371 217.707 329.277C217.57 329.228 217.108 328.346 216.705 327.331L217.017 327.501C217.648 327.791 218.907 328.191 220.794 328.704C219.209 327.167 218.853 326.455 219.724 326.566C221.031 326.733 222.812 327.93 223.424 327.197C224.036 326.465 224.146 324.38 225.064 324.309C225.982 324.238 228.547 324.501 229.195 323.966C229.843 323.431 230.754 320.121 231.777 320.127L233.347 320.171C234.381 320.163 235.564 320.01 236.298 319.267C237.473 318.077 239.462 315.034 240.188 315.441C240.913 315.849 240.99 316.453 240.94 316.944C240.89 317.435 242.827 315.422 243.185 314.825C243.498 314.302 243.172 313.135 244.151 312.857L244.656 312.797C246.07 312.805 247.87 311.525 248.352 311.94L248.468 312.181C248.61 313.178 251.02 310.748 251.595 311.031C252.17 311.314 253.561 311.447 254.081 310.368C254.601 309.288 255.93 307.312 256.908 307.074C257.886 306.836 258.909 307.707 259.225 307.267C259.539 306.826 260.35 304.12 261.545 304.069Z" fill="#727272"/>
<path d="M260.7 307.391C261.138 307.343 261.639 307.269 262.168 307.112L262.979 306.807L263.85 306.334C264.573 305.906 265.581 305.252 266.874 304.373L266.204 305.005C263.414 307.439 257.794 310.855 251.96 313.868L220.999 329.375C220.761 329.494 219.736 329.47 218.888 329.411C219.662 329.198 220.364 328.884 220.526 328.626L220.793 328.703L220.519 328.435C220.205 328.037 221.499 327.819 221.991 327.677L222.158 327.611C222.22 327.563 222.45 327.506 222.733 327.428C223.018 327.447 223.25 327.391 223.409 327.214C223.765 327.067 224.069 326.881 224.121 326.629C224.249 326.009 225.72 326.146 226.544 325.844C227.368 325.543 232.851 322.684 234.544 321.841C236.237 320.998 236.544 320.62 237.871 319.373C239.198 318.127 239.217 319.076 239.816 318.774C240.415 318.472 241.875 317.209 242.341 316.645C242.714 316.194 243.731 315.891 244.61 315.757L245.231 315.689C246.182 315.63 246.999 315.46 248.694 314.33C250.39 313.2 250.262 312.539 251.789 311.916C253.098 311.382 253.693 311.464 254.025 311.313L254.171 311.214C254.47 310.921 256.292 310.052 256.88 309.367C257.338 308.833 258.649 307.787 259.048 307.717C259.314 307.672 259.864 307.563 260.7 307.391Z" fill="#1A0855"/>
<path d="M162.337 339.839C165.467 338.046 204.501 322.487 204.062 323.284C203.623 324.082 193.858 328.632 182.457 333.368C171.056 338.105 159.206 341.632 162.337 339.839Z" fill="#D4D5D5"/>
<path d="M162.454 340.268C167.956 338.173 171.949 336.625 174.433 335.624C187.22 330.468 196.876 326.385 203.409 323.74C202.411 324.414 200.847 325.238 198.717 326.212C195.521 327.673 190.328 330.099 182.456 333.369L180.096 334.33C172.222 337.476 164.641 339.908 162.454 340.268Z" fill="#EDEDED"/>
<path d="M213.731 321.179C213.724 320.826 213.114 318.3 220.365 314.048C227.616 309.796 249.26 298.572 252.162 297.613C255.063 296.654 230.786 309.449 227.62 311.23C224.455 313.011 218.509 316.226 217.339 317.243C216.169 318.259 213.739 321.531 213.731 321.179Z" fill="#F1F1F1"/>
<path d="M264.287 292.697C262.692 291.559 260.179 290.87 257.235 292.63C255.272 293.803 253.766 294.106 252.716 293.539C253.092 295.009 254 295.694 255.441 295.594C257.603 295.444 258.759 293.062 260.801 292.912C262.842 292.761 265.882 293.835 264.287 292.697Z" fill="#D0D0D0"/>
<path d="M274.679 289.52C274.446 287.629 276.945 285.83 279.193 283.113C281.442 280.396 282.759 278.127 282.288 276.253C281.817 274.379 283.701 275.809 283.59 278.145C283.479 280.482 281.764 282.183 279.98 284.051C278.197 285.919 276.289 287.118 274.679 289.52Z" fill="#D0D0D0"/>
<path d="M330.771 258.355C324.723 263.372 311.24 271.915 312.733 271.515C314.225 271.115 328.446 263.028 338.505 254.735C348.564 246.442 358.599 233.952 356.414 234.968C354.229 235.984 345.794 245.302 341.338 249.216C336.882 253.13 336.819 253.339 330.771 258.355Z" fill="#CFD1D2"/>
<path d="M345.953 189.756C347.452 191.231 349.262 194.85 353.195 197.407C357.128 199.964 358.994 200.324 361.359 201.798C363.724 203.273 365.491 204.54 365.525 205.711C365.546 206.454 363.399 209.462 361.714 211.732C353.986 208.07 348.586 205.764 345.515 204.813C339.964 203.095 333.662 203.193 332.643 202.834C331.732 202.513 331.319 201.889 331.401 200.916C331.985 200.968 332.689 200.583 333.526 199.715C335.906 197.245 339.303 192.599 341.167 191.268L342.74 190.075C343.893 189.225 344.904 188.723 345.953 189.756Z" fill="#7756D3"/>
<path d="M253.522 293.837C252.233 293.163 253.813 291.296 258.261 288.235C264.933 283.644 278.473 276.224 279.712 275.659C280.951 275.095 282.082 275.7 282.175 275.491C282.268 275.282 281.273 273.909 279.541 274.542C277.809 275.175 263.991 282.957 257.502 287.392C253.176 290.349 251.58 292.397 252.716 293.537L253.522 293.837Z" fill="#E6E6E6"/>
</g>
<defs>
<clipPath id="clip0_7_88">
<rect width="458.899" height="458.899" fill="white"/>
</clipPath>
</defs>
</svg>
