<svg width="459" height="459" viewBox="0 0 459 459" fill="none" xmlns="http://www.w3.org/2000/svg">
<g clip-path="url(#clip0_7_204)">
<path d="M131.528 328.544C128.258 318.239 130.418 310.401 138.007 305.031C149.39 296.976 163.587 294.824 181.522 288.664C199.457 282.504 222.693 269.143 244.133 251.66C265.573 234.178 279.786 228.33 288.123 229.427C296.46 230.524 305.754 234.898 312.881 245.425C320.008 255.952 339.06 236.064 346.608 230.168C354.157 224.272 362.822 209.363 359.306 205.18C356.962 202.391 344.939 188.165 323.236 162.502C317.83 154.491 314.347 149.497 312.787 147.519C310.447 144.552 306.158 136.217 309.474 133.614C312.79 131.011 316.828 129.859 318.404 133.179C319.98 136.499 321.949 151.356 323.804 154.709C325.659 158.063 335.942 170.955 337.362 172.482C339.192 173.997 346.501 181.089 349.712 186.152C351.699 187.89 360.26 200.966 361.712 205.322C363.164 209.678 363.936 236.104 349.497 243.182C335.058 250.26 282.073 278.146 269.813 283.972C257.553 289.798 173.157 330.819 158.891 331.951C149.381 332.708 140.26 331.571 131.528 328.544ZM317.358 144.496C316.977 139.714 316.271 136.698 315.238 135.449C313.69 133.575 311.772 135.077 312.345 136.897C312.727 138.111 314.398 140.644 317.358 144.496Z" fill="#D8C0C9"/>
<path d="M359.488 205.422C359.432 205.338 359.371 205.257 359.306 205.18C356.962 202.391 344.939 188.165 323.236 162.502C317.83 154.491 314.347 149.497 312.787 147.519C310.447 144.552 306.158 136.217 309.474 133.614C312.79 131.011 316.828 129.859 318.404 133.179C319.98 136.499 321.949 151.356 323.804 154.709C325.659 158.063 335.942 170.955 337.362 172.482C339.192 173.997 346.501 181.089 349.712 186.152C351.318 187.557 357.225 196.378 360.194 202.005C360.062 203.11 359.824 204.263 359.488 205.422ZM317.358 144.496C316.977 139.714 316.271 136.698 315.238 135.449C313.69 133.575 311.772 135.077 312.345 136.897C312.727 138.111 314.398 140.644 317.358 144.496Z" fill="#4D4316"/>
<path d="M288.123 229.427C296.46 230.524 305.754 234.898 312.881 245.425C315.303 249.003 319.103 249.067 323.36 247.362C323.026 248.828 322.303 249.923 321.117 250.533C313.824 254.278 287.115 276.124 286.702 262.821C286.289 249.518 275.491 242.915 257.731 253.703C245.015 261.427 218.081 275.704 214.819 272.432C224.525 266.524 234.51 259.507 244.133 251.66C265.573 234.178 279.786 228.33 288.123 229.427Z" fill="#D8C0C9"/>
<path d="M130.258 322.984C129.264 315.374 131.847 309.39 138.006 305.031C149.389 296.976 163.586 294.824 181.521 288.664C199.456 282.504 222.692 269.143 244.132 251.66C265.572 234.178 279.785 228.33 288.122 229.427C294.318 230.243 301.043 232.868 307.014 238.484C307.612 242.611 306.541 243.623 303.801 241.52C298.702 237.607 288.122 231.138 280.032 234.013C271.942 236.888 253.846 249.706 237.917 260.676C221.988 271.646 199.603 284.416 187.386 289.512C175.169 294.609 161.273 297.081 146.16 303.725C136.924 307.786 131.623 314.206 130.258 322.984Z" fill="#D8C0C9"/>
<path d="M141.261 316.422C148.473 316.137 153.578 316.092 181.274 307.23C208.97 298.369 222.037 293.602 200.068 311.832C178.099 330.062 168.638 324.947 147.721 329.33C144.143 330.08 141.083 330.468 138.474 330.534C136.132 330 133.817 329.336 131.528 328.543C129.551 322.311 129.559 316.981 131.553 312.553C134.112 315.288 137.347 316.577 141.261 316.422Z" fill="#472A18"/>
<path d="M313.189 245.678C309.037 239.725 305.408 236.726 302.301 236.682C297.641 236.616 282.085 246.707 271.282 257.425C264.08 264.571 256.687 272.094 249.103 279.994L269.771 281.323L313.189 245.678Z" fill="#472A18"/>
<path d="M254.101 276.966C262.993 268.522 269.549 262.062 273.769 257.586C280.098 250.872 299.573 235.675 305.056 238.569C310.54 241.463 315.455 248.963 315.252 250.852C315.048 252.741 274.996 279.993 270.094 280.886C266.826 281.481 261.495 280.174 254.101 276.966Z" fill="#F575E7"/>
<path d="M259.255 276.393C274.354 261.441 283.801 252.465 287.596 249.466C293.289 244.967 299.787 241.519 303.522 241.493C306.012 241.476 309.669 245.621 314.494 253.928C289.423 270.319 274.646 278.99 270.163 279.943C265.68 280.895 262.044 279.712 259.255 276.393Z" fill="#A96257"/>
<path d="M303.522 241.492C305.263 241.48 307.574 243.502 310.456 247.559L309.03 248.275C306.818 245.251 304.949 243.581 303.425 243.267C301.139 242.796 286.482 252.146 281.62 256.585C278.658 259.29 271.96 266.591 261.527 278.49C260.714 277.93 259.957 277.229 259.254 276.393C274.353 261.441 283.8 252.465 287.595 249.466C293.289 244.967 299.787 241.518 303.522 241.492Z" fill="#633029"/>
<path d="M278.669 265.012C277.859 265.871 277.14 266.175 276.281 265.365C275.422 264.555 275.953 263.463 276.763 262.604C285.808 253.005 293.452 248.069 301.593 244.282C302.663 243.784 303.83 243.339 304.328 244.409C304.826 245.479 304.828 245.636 303.757 246.134C296.167 249.666 287.371 255.779 278.669 265.012Z" fill="#79E79C"/>
<path d="M382.398 232.581C384.247 242.276 377.878 250.775 363.289 258.079C341.406 269.035 334.669 272.402 331.431 274.023C328.193 275.644 315.909 280.732 312.555 279.785C309.174 281.465 301.668 285.027 297.751 284.854C294.816 287.264 287.42 294.184 285.855 294.594C284.29 295.004 282.958 295.115 282.239 296.404C281.52 297.693 274.274 300.686 272.491 301.948C271.608 303.202 267.787 305.859 261.343 309.099C254.898 312.339 222.302 328.637 216.758 331.411C211.215 334.185 197.567 338.704 182.117 341.919C166.667 345.134 145.878 349.246 139.811 346.191C135.766 344.154 132.732 340.303 130.708 334.637C129.745 330.086 129.832 327.633 130.969 327.277C132.675 326.743 136.231 327.243 145.609 325.046C154.987 322.849 175.187 320.423 184.163 315.474C193.139 310.525 205.431 301.245 209.937 299.542C214.443 297.839 225.982 297.712 229.342 294.155C232.702 290.598 234.661 283.087 245.658 277.86C252.989 274.375 262.148 272.632 273.133 272.63C286.242 256.443 298.378 247.53 309.538 245.891C313.952 245.493 354.525 212.993 357.008 208.086C359.49 203.179 359.054 199.42 361.696 200.826C362.867 201.449 365.662 203.962 371.377 213.115C373.298 216.19 376.971 222.679 382.398 232.581Z" fill="#9B8C98"/>
<path d="M382.524 233.317C383.919 242.706 377.508 250.96 363.29 258.079C341.407 269.035 334.67 272.402 331.432 274.023C328.194 275.644 315.91 280.732 312.556 279.785C309.175 281.465 301.669 285.027 297.752 284.854C294.817 287.264 287.421 294.184 285.856 294.594C284.291 295.004 282.959 295.115 282.24 296.404C281.521 297.693 274.275 300.686 272.492 301.948C271.609 303.202 267.788 305.859 261.344 309.099C254.899 312.339 222.303 328.637 216.759 331.411C211.216 334.185 197.568 338.704 182.118 341.919C180.842 342.185 179.53 342.456 178.193 342.729C189.609 339.517 208.904 333.188 213.888 330.659C220.275 327.419 256.135 310.584 256.982 309.84C257.546 309.344 258.846 307.416 260.881 304.056C260.864 305.775 261.112 306.68 261.625 306.769C262.393 306.903 269.707 302.261 270.833 301.444C271.584 300.9 272.512 299.238 273.618 296.46C274.431 297.653 274.969 297.791 275.229 296.875C275.49 295.958 275.529 293.197 275.345 288.591L276.242 288.142C276.686 292.076 277.094 294.614 277.465 295.756C278.022 297.468 280.853 295.756 282.185 294.442C283.073 293.566 283.864 291.52 284.557 288.304L284.812 292.078C286.073 290.417 287.063 288.978 287.782 287.761C288.501 286.544 288.729 280.878 288.467 270.765L289.887 269.379C289.705 278.746 289.782 284.239 290.118 285.859C290.623 288.289 293.876 285.484 295.131 284.082C295.968 283.147 296.361 280.719 296.31 276.796C296.768 279.824 297.121 281.635 297.37 282.23C297.743 283.123 299.167 281.62 300.137 280.845C300.784 280.329 300.443 273.778 299.114 261.192L300.013 260.742C300.883 271.612 301.492 277.706 301.839 279.026C302.361 281.005 309.568 279.126 310.215 278.164C310.646 277.523 310.477 273.077 309.707 264.826C311.235 272.724 312.299 276.715 312.901 276.799C315.565 275.743 316.461 274.685 316.082 272.865C315.83 271.652 313.69 265.722 309.664 255.076L306.569 256.625L310.108 253.563C314.453 264.916 316.937 271.328 317.558 272.797C318.49 275.001 320.514 275.342 327.223 272.787C333.932 270.232 339.824 267.701 353.411 260.831C366.998 253.961 375.012 247.918 378.663 243.82C380.507 241.754 381.794 238.252 382.524 233.317Z" fill="#B5968F"/>
<path d="M309.539 245.89C309.917 245.856 310.559 245.587 311.419 245.121C311.43 245.141 311.438 245.163 311.446 245.185C312.259 246.381 312.489 247.066 312.137 247.242C311.609 247.506 304.226 249.058 296.702 253.572C289.178 258.087 278.639 270.121 275.825 273.21C273.011 276.299 256.217 292.586 239.358 302.594C228.119 309.266 216.872 314.385 205.617 317.951C224.309 308.551 235.752 302.072 239.946 298.513C244.111 294.979 257.641 282.862 268.502 272.738C270.004 272.665 271.55 272.628 273.134 272.628C286.243 256.442 298.378 247.529 309.539 245.89Z" fill="#D0876F"/>
<path d="M130.215 328.211C130.366 327.698 130.617 327.387 130.969 327.277C132.675 326.743 136.231 327.243 145.609 325.046C154.987 322.849 175.187 320.423 184.163 315.474C193.139 310.525 205.431 301.245 209.937 299.542C214.443 297.839 225.982 297.712 229.342 294.155C232.702 290.598 234.661 283.087 245.658 277.86C252.961 274.389 262.077 272.645 273.007 272.63C272.1 273.721 271.252 274.748 270.464 275.711C269.507 276.879 256.274 290.956 236.202 303.455C217.014 315.403 191.135 325.763 182.476 328.228C164.759 333.271 136.306 337.98 134.703 337.382C133.452 336.914 130.438 331.535 130.215 328.211Z" fill="#562E39"/>
<path d="M130.536 329.997C133.486 333.955 138.026 336.49 145.456 335.004C155.326 333.029 163.074 330.414 180.558 324.96C198.042 319.505 210.205 313.063 215.307 310.715C220.409 308.368 236.78 297.839 243.117 292.228C246.693 289.062 253.373 285.967 263.158 282.943C257.179 288.429 247.84 296.207 236.202 303.454C217.014 315.402 191.135 325.762 182.476 328.227C164.759 333.27 136.306 337.979 134.703 337.381C133.716 337.013 131.629 333.583 130.685 330.519L130.536 329.997Z" fill="#604318"/>
<path d="M135.192 336.066C136.639 336.577 150.262 334.441 154.307 333.574C158.353 332.708 178.931 329.273 193.604 323.347C202.648 319.694 214.952 314.417 222.938 310.978C206.544 319.545 189.247 326.299 182.477 328.226C164.76 333.269 136.307 337.978 134.704 337.38C133.535 336.944 130.821 332.208 130.293 328.878C132.671 333.357 134.302 335.751 135.192 336.066Z" fill="#36271D"/>
<path d="M142.831 325.655C143.695 325.479 144.62 325.277 145.609 325.046C154.987 322.849 175.187 320.423 184.163 315.474C193.139 310.525 205.431 301.245 209.937 299.542C214.443 297.839 225.982 297.712 229.342 294.155C232.702 290.598 234.661 283.087 245.658 277.86C252.946 274.396 262.041 272.652 272.942 272.63C272.233 273.526 271.556 274.37 270.912 275.162C263.672 275.048 259.231 276.098 255.373 276.788C248.502 278.017 242.058 281.464 239.232 284.145C236.406 286.825 233.375 291.304 231.622 293.736C229.869 296.168 227.294 297.222 219.281 298.628C211.268 300.034 211.47 299.225 204.396 303.531C197.322 307.837 185.964 316.221 180.533 318.054C173.763 320.336 162.35 322.125 142.831 325.655Z" fill="#8BDBDF"/>
<path d="M353.161 248.238C347.648 251.664 326.645 262.113 324.502 262.532C322.359 262.951 318.37 257.863 317.206 254.996C316.042 252.13 308.993 241.611 306.896 239.232C304.799 236.853 287.154 225.917 275.409 232.715C263.665 239.513 220.95 268.968 211.186 274.828C201.423 280.689 184.632 288.665 168.282 292.888C151.932 297.111 139.576 303.995 136.544 306.614C134.523 308.361 133.148 309.776 132.42 310.859C134.23 307.73 137.51 304.564 142.258 301.361C149.381 296.556 166.513 282.645 167.085 282.111C167.657 281.577 170.823 278.516 171.703 278.325C172.583 278.134 175.485 273.011 176.442 271.894C177.399 270.777 179.146 267.248 180.568 267.965C181.99 268.681 184.241 265.95 184.64 265.28C185.039 264.61 186.434 260.671 189.204 261.605C191.974 262.539 193.839 260.139 193.735 258.249C193.631 256.36 195.239 253.905 196.05 253.361C196.861 252.817 197.594 249.899 200.373 248.849C203.151 247.799 203.713 244.653 205.009 243.528C206.305 242.403 209.486 242.161 210.332 240.864C211.177 239.567 213.466 237.822 214.195 235.595C214.925 233.367 214.302 230.384 217.132 229.122C219.962 227.86 219.566 225.37 220.879 224.238C222.193 223.107 224.205 218.973 224.796 218.045C225.386 217.117 227.095 212.36 228.923 211.6C230.751 210.839 231.626 208.889 230.932 207.472C230.238 206.054 228.38 202.63 231.01 201.695C233.64 200.76 234.927 199.906 235.921 196.161C236.914 192.416 234.461 188.505 234.948 187.267C235.435 186.029 237.994 185.071 238.614 183.844C239.234 182.617 241.683 172.928 241.338 171.443C240.993 169.958 238.134 167.735 238.786 166.343C239.438 164.951 240.606 162.561 242.035 162.36C243.736 161.749 246.426 158.964 247.972 158.733C248.952 156.911 248.857 155.73 250.163 155.158C251.469 154.586 257.496 155.204 261.534 156.744C265.916 155.132 273.925 153.81 282.214 152.369C290.503 150.927 299.882 150.558 303.226 148.62C306.57 146.682 308.569 144.374 309.738 144.472C310.907 144.57 316.244 148.21 318.212 151.545C320.179 154.88 325.018 159.299 325.144 160.325C325.27 161.352 326.478 163.817 327.511 165.055C328.544 166.293 332.606 170.894 333.752 171.807C334.898 172.72 341.247 178.481 343.624 180.848C345.208 182.426 347.054 184.725 349.163 187.746C351.157 189.665 352.982 192.109 354.638 195.078C357.121 199.532 360.552 205.086 361.156 205.434C361.76 205.782 363.732 204.715 365.888 209.405C368.044 214.095 371.29 221.579 373.542 224.703C375.793 227.827 376.611 231.129 373.437 234.084C370.261 237.038 358.675 244.812 353.161 248.238Z" fill="#EDEBA4"/>
<path d="M335.927 173.985C337.931 179.622 337.56 185.316 334.814 191.067C330.695 199.694 318.271 209.983 314.39 217.176C311.803 221.971 308.782 227.403 305.327 233.47C310.251 220.382 313.904 211.896 316.286 208.014C319.859 202.19 327.798 189.282 329.804 186.169C331.142 184.094 333.183 180.033 335.927 173.985Z" fill="#D497FA"/>
<path d="M350.244 189.264C351.991 195.546 351.514 200.234 348.813 203.329C344.762 207.972 336.47 213.118 329.714 219.088C325.21 223.068 319.439 229.555 312.401 238.548C316.237 228.729 319.148 222.707 321.133 220.483C324.111 217.147 340.939 199.658 342.523 198.006C343.579 196.905 346.152 193.991 350.244 189.264Z" fill="#F79695"/>
<path d="M336.654 256.967C350.991 248.513 360.185 242.494 364.238 238.912C370.562 233.321 373.498 230.771 369.775 223.684C366.052 216.597 363.594 210.048 361.636 210.432C359.678 210.816 344.856 220.722 335.016 231.763C328.456 239.124 322.264 245.985 316.439 252.347C329.464 234.626 338.748 223.547 344.292 219.112C350.174 214.406 357.962 207.972 362.729 205.71C363.601 206.011 364.717 206.861 365.886 209.405C368.042 214.095 371.288 221.579 373.54 224.703C375.791 227.827 376.609 231.129 373.435 234.084C370.261 237.038 358.675 244.812 353.162 248.238C350.269 250.035 343.113 253.766 336.654 256.967Z" fill="#D8C0C9"/>
<path d="M315.581 251.962C313.038 247.686 308.507 241.059 306.897 239.232C304.8 236.853 287.155 225.917 275.41 232.715C263.666 239.513 220.951 268.968 211.187 274.828C205.462 278.265 197.319 282.429 188.267 286.137C200.544 279.486 211.485 272.576 221.089 265.407C242.061 249.753 263.779 228.732 279.708 224.309C295.637 219.885 300.502 224.741 310.166 233.513C316.608 239.361 323.373 239.468 330.459 233.834L315.581 251.962Z" fill="#6F69A3"/>
<path d="M186.66 267.08C184.513 264.865 184.252 263.189 185.878 262.052C187.504 260.915 189.713 261.239 192.507 263.024C194.605 261.26 195.751 260.299 195.945 260.141C196.235 259.905 193.362 257.251 193.659 255.573C193.956 253.896 196.395 252.51 196.578 252.506C196.761 252.502 197.77 253.289 197.53 254.408C197.29 255.527 196.696 258.864 198.017 258.318C199.338 257.772 205.178 251.395 205.379 250.82C205.58 250.245 203.418 245.782 204.47 244.293C205.522 242.804 210.274 240.303 208.963 242.207C207.652 244.111 206.646 244.98 207.527 248.632C209.031 247.502 216.594 239.958 216.665 239.462C216.737 238.966 212.982 235.092 214.695 231.265C216.408 227.438 218.533 227.192 218.609 227.838C218.685 228.484 217.307 230.925 217.435 232.888C217.563 234.852 218.709 236.64 219.431 236.496C220.153 236.352 226.515 227.331 226.567 226.758C226.619 226.185 223.928 222.036 224.198 219.377C224.468 216.719 225.535 213.896 225.813 214.358C226.091 214.82 226.136 217.2 226.755 219.106C227.375 221.011 228.286 224.119 228.959 223.51C229.632 222.901 236.182 213.301 235.844 212.43C235.506 211.559 232.025 210.359 229.9 206.159C227.775 201.959 233.276 199.502 233.683 199.763C234.09 200.024 232.514 202.275 232.44 203.347C232.366 204.419 234.892 208.521 236.969 209.615C237.129 210.586 236.904 211.822 236.292 213.324L226.286 229.087L218.519 238.901L207.973 249.519L197.51 259.726L190.757 265.395L186.66 267.08Z" fill="#90A3E2"/>
<path opacity="0.46" d="M233.2 219.482C239.123 229.644 247.883 241.227 253.292 246.958C252.705 247.348 252.114 247.742 251.519 248.138C245.975 242.238 237.782 231.387 231.93 221.54C229.085 226.068 226.114 230.258 223.016 234.111L222.949 234.194C226.819 238.552 231.117 242.67 235.739 246.561C238.744 249.091 241.298 251.084 244.084 253.101C243.453 253.523 242.822 253.945 242.191 254.367C239.61 252.478 237.182 250.57 234.362 248.196C229.755 244.317 225.46 240.212 221.577 235.866C218.407 239.665 214.607 243.8 210.711 247.799C212.094 248.09 213.645 248.621 215.364 249.373C218.158 250.595 221.329 252.365 225.001 254.681C226.234 255.459 230.17 258.099 233.42 260.239C232.772 260.673 232.129 261.103 231.493 261.528C228.338 259.45 224.887 257.136 223.861 256.489C220.272 254.225 217.186 252.502 214.508 251.331C212.879 250.619 211.436 250.128 210.194 249.874C209.76 249.785 209.335 249.701 208.92 249.621C205.614 252.955 202.299 256.141 199.296 258.893C206.34 260.535 215.45 263.869 221.851 267.95C221.177 268.396 220.522 268.829 219.887 269.247C213.258 265.236 203.914 262.01 197.391 260.618C194.016 263.636 191.175 265.959 189.404 267.117L189.36 267.146C196.7 268.912 204.354 272.214 209.861 275.598C209.188 275.977 208.457 276.372 207.675 276.782C201.884 273.41 193.958 270.19 186.703 268.75C185.451 269.426 174.529 278.12 173.317 277.761C172.104 277.402 174.956 274.767 178.339 272.591C181.722 270.415 185.889 266.861 188.235 265.328C193.946 261.596 211.607 244.892 221.351 232.771C229.198 223.01 236.238 211.021 242.467 196.803C242.704 196.262 243.334 196.016 243.875 196.253C244.416 196.49 244.662 197.12 244.425 197.661C244.32 197.901 244.215 198.14 244.109 198.378C246.498 205.754 249.194 212.727 251.734 217.801C254.753 223.832 257.876 229.513 261.131 235.054C261.858 236.291 263.067 238.304 264.02 239.885C263.435 240.267 262.837 240.657 262.229 241.055C261.268 239.462 260.03 237.401 259.287 236.137C256.009 230.558 252.864 224.836 249.822 218.758C247.488 214.095 245.037 207.909 242.805 201.27C239.786 207.83 236.585 213.901 233.2 219.482ZM309.544 242.561C313.179 229.913 318.943 219.804 326.84 212.254C339.208 200.43 346.017 193.261 349.327 187.907C349.842 188.412 350.345 188.953 350.837 189.529C347.289 195.052 340.444 202.205 328.317 213.799C320.357 221.409 314.622 231.761 311.121 244.874C310.578 244.061 310.045 243.28 309.544 242.561ZM303.104 236.347C304.686 229.964 307.147 223.41 310.36 216.677C312.926 211.3 315.842 206.058 319.223 200.553C321.014 197.637 325.651 190.44 325.922 190.002C328.383 186.022 328.93 185.127 330.054 183.186C332.361 179.203 334.039 175.811 335.046 172.92C335.538 173.355 336.126 173.88 336.764 174.456C335.689 177.305 334.059 180.537 331.904 184.257C330.765 186.224 330.214 187.126 327.74 191.126C327.455 191.588 322.82 198.78 321.044 201.671C317.7 207.116 314.818 212.295 312.288 217.596C309.016 224.453 306.545 231.106 305.009 237.554C304.461 237.18 303.821 236.772 303.104 236.347ZM294.549 232.396C294.237 226.866 297.057 215.345 301.883 205.613C301.61 206.163 305.434 198.527 306.639 196.052C308.692 191.836 310.439 188.036 312.023 184.269C316.268 174.175 318.944 165.212 319.733 157.352C320.295 158.098 320.938 158.736 321.664 159.264C320.661 166.945 318.014 175.536 313.993 185.098C312.392 188.905 310.629 192.739 308.56 196.988C307.348 199.476 303.52 207.122 303.797 206.562C298.744 216.751 295.971 229.014 296.787 233.231C296.062 232.94 295.314 232.659 294.549 232.396ZM285.795 230.554C284.672 219.186 285.9 207.622 289.017 194.776C290.601 188.246 296.059 170.303 296.481 168.658C298.135 162.215 298.312 157.812 297.092 152.888C297.866 152.752 298.574 152.626 299.202 152.513C300.469 157.706 300.289 162.42 298.551 169.189C298.112 170.9 292.659 188.825 291.093 195.28C287.992 208.059 286.796 219.511 287.964 230.775C287.243 230.673 286.519 230.598 285.795 230.554ZM274.18 233.442C273.595 233.793 272.958 234.183 272.273 234.607C268.904 221.681 266.462 200.437 266.115 184.127C265.956 176.624 266.231 168.177 266.941 158.784C267.638 158.591 268.369 158.398 269.129 158.205C268.382 167.829 268.09 176.455 268.252 184.081C268.59 199.979 270.946 220.665 274.18 233.442ZM199.693 280.681C191.919 280.548 181.001 282.212 174.482 284.482C170.703 285.798 168.01 285.124 167.377 282.638C167.322 282.421 167.286 282.195 167.269 281.964C167.642 281.668 168.554 280.956 169.811 279.981C169.44 280.796 169.306 281.552 169.449 282.111C169.698 283.09 171.026 283.423 173.779 282.464C181.712 279.701 195.521 277.827 203.641 278.811C202.39 279.419 201.067 280.045 199.693 280.681ZM182.093 288.302C176.925 289.238 171.135 290.535 166.531 291.89C163.066 292.91 158.543 294.905 153.888 297.303C150.777 298.414 147.804 299.799 142.499 302.388C134.663 306.212 133.432 309.614 133.145 309.814C134.664 307.139 137.996 304.442 141.123 302.159C149.071 297.11 159.291 291.793 165.928 289.839C173.391 287.642 183.838 285.607 190.091 284.952C187.416 286.101 184.714 287.232 182.093 288.302Z" fill="white"/>
<path d="M325.498 161.524C324.077 161.248 319.649 158.084 318.466 156.636C317.157 155.034 313.091 150.633 310.053 150.681C307.015 150.729 288.713 154.969 283.591 155.793C278.469 156.617 266.492 158.765 264.158 159.64C261.824 160.515 256.069 163.437 254.284 164.595C250.826 166.839 248.762 172.992 248.098 176.361C247.16 181.125 246.747 194.009 243.862 200.72C243.303 202.02 241.273 201.502 241.32 201.283C243.62 190.506 244.525 185.736 245.36 177.607C245.833 173.008 247.811 165.88 251.245 163.077C253.534 161.208 255.919 159.677 258.4 158.485C254.187 157.426 251.427 156.975 250.119 157.133C249.316 157.23 249.142 156.733 249.109 156.145C249.342 155.717 249.64 155.389 250.164 155.16C251.47 154.588 257.497 155.206 261.535 156.746C265.917 155.134 273.926 153.812 282.215 152.371C290.504 150.929 299.883 150.56 303.227 148.622C306.571 146.684 308.57 144.376 309.739 144.474C310.908 144.572 316.245 148.212 318.213 151.547C320.18 154.882 325.019 159.301 325.145 160.327C325.18 160.625 325.309 161.047 325.498 161.524ZM248.038 158.611C246.417 164.781 243.331 176.654 242.152 178.644C241.779 179.274 238.519 188.202 238.44 185.915C238.422 185.4 238.405 184.819 238.39 184.185C238.479 184.074 238.555 183.961 238.613 183.845C239.233 182.618 241.682 172.929 241.337 171.444C241.082 170.35 239.463 168.855 238.89 167.587C238.957 166.935 239.031 166.292 239.113 165.661C239.794 164.285 240.82 162.533 242.034 162.362C243.735 161.751 246.425 158.966 247.971 158.735C247.995 158.693 248.017 158.652 248.038 158.611Z" fill="#8A6A43"/>
<path d="M262.981 189.97C262.783 190.435 262.065 190.795 260.827 191.048C258.97 191.428 253.967 191.646 253.283 191.037C252.599 190.427 248.864 187.898 249.345 187.103C249.826 186.308 251.82 182.044 252.918 182.704C253.56 183.09 256.801 183.934 261.472 187.365C261.911 187.687 262.414 188.555 262.981 189.97Z" fill="#96B24A"/>
<path d="M259.602 209.079C259.404 209.544 258.686 209.904 257.448 210.157C255.591 210.537 250.588 210.755 249.904 210.146C249.22 209.536 245.974 206.459 246.455 205.664C246.936 204.869 248.441 201.153 249.539 201.813C250.181 202.199 253.422 203.043 258.093 206.474C258.531 206.796 259.034 207.664 259.602 209.079Z" fill="#96B24A"/>
<path d="M263.048 189.962C263.371 189.477 264.639 183.955 264.511 183.514C264.382 183.073 258.188 180.851 257.852 180.406C257.516 179.962 253.554 175.318 252.714 174.508C251.875 173.698 249.699 173.716 248.963 174.851C248.227 175.986 247.562 181.606 247.838 182.237C248.114 182.868 252.06 187.43 252.975 187.781C253.89 188.132 255.937 187.642 257.582 188.416C259.226 189.192 262.725 190.447 263.048 189.962Z" fill="#BFBD33"/>
<path d="M259.106 181.057C259.796 181.359 260.681 181.721 261.534 182.075L259.443 189.19C258.746 188.929 258.079 188.651 257.582 188.417C257.453 188.356 257.322 188.304 257.189 188.257L259.106 181.057Z" fill="#55922E"/>
<path d="M249.275 175.315C250.065 176.775 250.806 177.601 251.583 178.541C252.73 179.929 253.648 180.608 254.337 180.579L252.559 187.514C251.216 186.451 248.084 182.799 247.839 182.239C247.563 181.608 248.227 175.988 248.964 174.853C248.998 174.8 249.036 174.749 249.076 174.701C249.12 174.946 249.185 175.148 249.275 175.315Z" fill="#BBEC8F"/>
<path d="M256.573 180.459C257.174 180.465 257.657 180.488 258.021 180.527C258.221 180.658 258.631 180.849 259.144 181.073L257.182 188.255C256.379 187.978 255.514 187.946 254.748 187.936L256.573 180.459Z" fill="#EBCA63"/>
<path d="M256.793 180.001C254.216 176.99 252.743 175.323 252.372 175C252.001 174.677 251.205 174.639 249.982 174.886C251.521 177.207 252.567 178.641 253.12 179.188C253.673 179.735 254.897 180.006 256.793 180.001Z" fill="#5E5F50"/>
<path d="M259.83 209.054C260.153 208.569 261.421 203.047 261.293 202.606C261.164 202.165 254.97 199.943 254.634 199.498C254.298 199.054 250.336 194.41 249.496 193.6C248.657 192.79 246.481 192.808 245.745 193.943C245.009 195.078 244.344 200.698 244.62 201.329C244.896 201.96 248.842 206.522 249.757 206.873C250.672 207.224 252.719 206.734 254.364 207.508C256.008 208.283 259.507 209.538 259.83 209.054Z" fill="#BFBD33"/>
<path d="M255.888 200.148C256.578 200.45 257.463 200.812 258.316 201.166L256.225 208.281C255.528 208.02 254.861 207.742 254.364 207.508C254.235 207.447 254.104 207.395 253.971 207.348L255.888 200.148Z" fill="#55922E"/>
<path d="M246.057 194.406C246.847 195.866 247.588 196.692 248.365 197.632C249.512 199.02 250.43 199.699 251.119 199.67L249.341 206.605C247.998 205.542 244.866 201.89 244.621 201.33C244.345 200.699 245.009 195.079 245.746 193.944C245.78 193.891 245.818 193.84 245.858 193.792C245.901 194.037 245.966 194.239 246.057 194.406Z" fill="#BBEC8F"/>
<path d="M253.354 199.551C253.955 199.557 254.438 199.58 254.802 199.619C255.002 199.75 255.412 199.941 255.925 200.165L253.963 207.347C253.16 207.07 252.295 207.038 251.529 207.028L253.354 199.551Z" fill="#EBCA63"/>
<path d="M253.574 199.092C250.998 196.081 249.524 194.414 249.153 194.091C248.782 193.768 247.986 193.73 246.763 193.977C248.302 196.298 249.348 197.732 249.901 198.279C250.454 198.826 251.679 199.097 253.574 199.092Z" fill="#5E5F50"/>
<path d="M249.129 183.295C248.009 184.922 247.072 185.893 246.32 186.209C245.191 186.683 241.247 187.302 239.566 187.076C237.885 186.849 235.594 186.289 235.114 187.377C234.634 188.464 235.623 190.192 238.161 190.717C240.699 191.243 246.612 189.792 248.288 188.856C249.406 188.232 250.312 187.63 251.008 187.049L249.129 183.295Z" fill="#7B725B"/>
<path d="M245.489 202.607C243.483 203.458 241.901 203.903 240.743 203.942C239.006 204.001 234.417 203.874 234.103 203.384C233.789 202.894 232.93 202.115 232.419 203.529C231.908 204.942 231.578 206.524 234.515 207.29C238.011 208.695 245.802 206.75 247.109 205.845C246.48 204.906 245.94 203.827 245.489 202.607Z" fill="#7B725B"/>
<path d="M239.286 213.256C240.513 214.476 241.029 215.506 240.832 216.346C240.537 217.606 236.786 217.631 235.043 217.311C233.3 216.991 227.536 218.038 226.872 219.468C226.208 220.898 225.288 215.989 225.778 215.463C226.268 214.937 231.429 213.222 233.024 213.276C234.088 213.311 236.175 213.305 239.286 213.256Z" fill="#7B725B"/>
<path d="M226.547 229.341C228.547 230.011 230.055 230.867 229.906 231.933C229.757 232.999 229.098 233.76 227.648 233.736C226.198 233.712 223.707 232.647 221.324 232.775C219.735 232.86 218.402 233.331 217.324 234.187C216.993 232.292 217.224 230.923 218.017 230.077C219.207 228.809 224.547 228.671 226.547 229.341Z" fill="#7B725B"/>
<path d="M218.421 243.123C219.154 243.943 218.819 245.41 217.553 245.936C216.287 246.463 212.458 244.74 211.355 244.797C210.62 244.835 209.204 245.544 207.108 246.922C207.407 244.836 207.891 243.566 208.558 243.113C209.559 242.433 211.649 241.38 213.739 241.67C215.829 241.96 217.688 242.303 218.421 243.123Z" fill="#7B725B"/>
<path d="M207.242 254.703C205.247 253.332 203.253 252.733 201.262 252.907C199.271 253.081 197.753 253.387 196.711 253.826C196.483 255.474 196.459 256.51 196.639 256.935C197.965 256.36 201.659 255.955 203.678 256.836C204.653 257.262 205.64 257.473 206.663 256.658C207.345 256.114 207.538 255.462 207.242 254.703Z" fill="#7B725B"/>
<path d="M196.185 264.487C196.54 265.483 197.347 265.842 195.465 266.571C193.583 267.3 190.166 266.12 189.373 265.768C188.58 265.417 187.107 265.953 187.218 265.052C187.329 264.15 187.744 263.419 189.364 262.858C190.983 262.296 195.83 263.491 196.185 264.487Z" fill="#7B725B"/>
<path d="M183.822 277.524C182.677 277.948 180.774 277.245 180.738 276.137C180.702 275.029 178.142 272.287 177.989 270.746C177.836 269.205 180.635 268.784 180.812 268.949C180.989 269.114 183.698 272.67 184.062 273.944C184.426 275.217 184.967 277.1 183.822 277.524Z" fill="#7B725B"/>
<path d="M249.234 182.239C248.114 183.866 247.177 184.837 246.425 185.153C245.296 185.627 241.352 186.246 239.671 186.02C237.99 185.794 235.699 185.233 235.219 186.321C234.739 187.408 235.728 189.136 238.266 189.661C240.804 190.187 246.409 189.422 248.086 188.486C249.204 187.862 250.213 187.031 251.113 185.994L249.234 182.239Z" fill="#D9A0D2"/>
<path d="M245.594 201.551C243.588 202.402 242.006 202.847 240.848 202.886C239.111 202.945 234.522 202.818 234.208 202.328C233.894 201.838 233.035 201.059 232.524 202.473C232.013 203.886 231.683 205.468 234.62 206.234C238.116 207.639 245.907 205.694 247.214 204.789C246.585 203.851 246.045 202.772 245.594 201.551Z" fill="#D9A0D2"/>
<path d="M239.392 212.2C240.619 213.42 241.135 214.45 240.938 215.29C240.643 216.55 236.892 216.575 235.149 216.255C233.406 215.935 227.642 216.982 226.978 218.412C226.314 219.842 225.394 214.933 225.884 214.407C226.374 213.881 231.535 212.166 233.13 212.22C234.193 212.256 236.281 212.249 239.392 212.2Z" fill="#D9A0D2"/>
<path d="M226.652 228.285C228.652 228.955 230.16 229.811 230.011 230.877C229.862 231.943 229.203 232.704 227.753 232.68C226.303 232.656 223.812 231.591 221.429 231.719C219.84 231.804 218.507 232.275 217.429 233.131C217.098 231.236 217.329 229.867 218.122 229.021C219.313 227.753 224.653 227.615 226.652 228.285Z" fill="#D9A0D2"/>
<path d="M218.527 242.068C219.26 242.888 218.925 244.355 217.659 244.881C216.393 245.408 212.564 243.685 211.461 243.742C210.726 243.78 209.31 244.489 207.214 245.867C207.513 243.781 207.996 242.511 208.664 242.058C209.665 241.378 211.755 240.325 213.845 240.615C215.934 240.905 217.793 241.247 218.527 242.068Z" fill="#D9A0D2"/>
<path d="M207.347 253.648C205.352 252.277 203.358 251.678 201.367 251.852C199.376 252.026 197.858 252.332 196.816 252.771C196.588 254.419 196.564 255.455 196.744 255.88C198.07 255.305 201.764 254.9 203.783 255.781C204.758 256.207 205.745 256.418 206.768 255.603C207.451 255.059 207.644 254.407 207.347 253.648Z" fill="#D9A0D2"/>
<path d="M196.29 263.431C196.645 264.427 197.452 264.786 195.57 265.515C193.688 266.244 190.271 265.064 189.478 264.712C188.685 264.361 187.212 264.897 187.323 263.996C187.434 263.094 187.849 262.363 189.469 261.802C191.089 261.241 195.935 262.436 196.29 263.431Z" fill="#D9A0D2"/>
<path d="M183.927 276.469C182.782 276.893 180.879 276.19 180.843 275.082C180.807 273.974 178.247 271.232 178.094 269.691C177.941 268.15 180.74 267.729 180.917 267.894C181.094 268.059 183.803 271.615 184.167 272.889C184.532 274.162 185.072 276.044 183.927 276.469Z" fill="#D9A0D2"/>
<path d="M249.935 197.05C250.684 196.936 251.087 194.592 250.232 192.689C249.662 191.42 248.271 190.292 246.058 189.304C242.175 190.032 239.803 190.28 238.941 190.049C236.905 189.702 236.333 190.055 239.552 191.269C242.771 192.483 243.817 192.456 245.106 192.853C245.965 193.118 246.645 193.706 247.146 194.62C248.506 196.316 249.436 197.126 249.935 197.05Z" fill="#7B725B"/>
<path d="M250.2 196.698C250.949 196.584 251.352 194.24 250.497 192.337C249.927 191.068 248.536 189.94 246.323 188.952C242.44 189.68 240.068 189.928 239.206 189.697C237.17 189.35 236.598 189.703 239.817 190.917C243.036 192.131 244.082 192.104 245.371 192.501C246.23 192.766 246.91 193.354 247.411 194.268C248.771 195.964 249.7 196.774 250.2 196.698Z" fill="#89C98A"/>
<path d="M253.237 177.409C253.884 177.165 254.857 175.62 254.548 173.895C254.239 172.169 249.658 167.446 248.299 166.799C246.94 166.152 242.574 164.082 243.32 162.723C243.817 161.817 244.142 161.197 244.294 160.863C241.875 162.764 240.445 163.937 240.003 164.383C239.34 165.052 238.265 165.615 238.754 167.551C239.243 169.487 240.199 170.158 240.736 170C241.273 169.842 243.01 169.501 244.116 169.417C245.221 169.333 249.951 172.333 250.587 173.382C251.011 174.081 251.107 174.62 250.877 174.999C252.019 176.768 252.806 177.572 253.237 177.409Z" fill="#90A3E2"/>
<path d="M245.048 169.653C244.646 169.49 244.319 169.401 244.115 169.417C243.01 169.501 241.272 169.843 240.735 170C240.198 170.158 239.243 169.487 238.753 167.551C238.43 166.273 238.789 165.593 239.261 165.086C239.415 166.182 240.032 166.845 241.111 167.074C242.242 167.313 243.554 168.173 245.048 169.653Z" fill="#B28AD4"/>
<path d="M252.692 169.16C252.692 169.16 254.823 168.271 255.214 167.741C255.605 167.21 253.599 163.996 252.689 162.696C251.779 161.396 253.908 160.034 255.099 159.908C253.717 159.183 251.072 159.5 250.367 159.945C249.661 160.391 248.591 161.643 248.96 162.98C249.329 164.317 250.369 166.438 251.091 167.239C251.813 168.04 252.692 169.16 252.692 169.16Z" fill="#90A3E2"/>
<path d="M315.283 251.465C323.286 241.57 330.325 233.109 336.397 226.081C344.779 216.382 356.344 208.323 361.234 205.469C361.719 205.636 362.813 205.283 364.147 206.664C363.56 206.693 362.99 206.837 362.437 207.097C360.731 207.899 345.9 218.224 337.733 227.248C332.483 233.048 325.264 241.568 316.076 252.807C315.836 252.39 315.57 251.939 315.283 251.465Z" fill="white"/>
<path d="M319.823 259.212C320.403 259.101 320.98 258.685 321.552 257.965C322.828 256.358 335.611 240.961 344.367 233.163C350.205 227.964 355.127 224.194 359.134 221.852C350.906 229.064 345.377 234.004 342.547 236.671C338.302 240.671 322.171 258.697 321.881 259.753C321.769 260.162 321.71 260.65 321.705 261.219C321.069 260.656 320.424 259.959 319.823 259.212Z" fill="#9C7924"/>
<path d="M244.241 184.047C242.584 179.313 242.099 175.934 242.784 173.909C243.812 170.871 245.338 169.393 245.609 170.112C245.88 170.831 243.887 174.963 244.021 176.453C244.155 177.943 244.992 182.068 244.955 182.373C244.932 182.575 244.693 183.134 244.241 184.047Z" fill="#A8894A"/>
</g>
<defs>
<clipPath id="clip0_7_204">
<rect width="458.899" height="458.899" fill="white"/>
</clipPath>
</defs>
</svg>
