<svg width="459" height="459" viewBox="0 0 459 459" fill="none" xmlns="http://www.w3.org/2000/svg">
<g clip-path="url(#clip0_5_2)">
<path d="M162.852 280.824C162.852 280.824 164.405 276.647 165.147 276.276C165.642 276.028 165.795 275.234 165.606 273.894C167.215 273.089 168.02 272.686 168.02 272.686C168.02 272.686 169.2 268.562 170.192 268.065C170.853 267.734 171.719 267.526 172.79 267.441C173.855 264.648 174.759 263.067 175.501 262.695C176.614 262.138 179.965 258.831 179.965 258.831L181.676 257.975C181.676 257.975 183.065 256.462 185.844 253.436C186.549 250.752 187.945 248.46 190.031 246.561C193.16 243.712 196.155 242.118 198.506 240.989C199.667 239.641 200.725 238.299 201.68 236.965C202.973 233.399 204.627 230.722 206.64 228.936C208.653 227.15 211.398 225.775 214.878 224.813C216.079 221.43 217.822 218.1 220.107 214.823C222.392 211.547 224.942 209.603 227.755 208.992C227.933 206.188 228.257 204.282 228.727 203.276C229.197 202.27 230.238 199.722 231.851 195.632L230.713 196.202L231.507 190.204L232.785 189.564C232.029 188.053 231.391 186.778 230.871 185.74C230.091 184.182 231.491 179.001 231.491 179.001L233.623 177.934C233.623 177.934 233.537 168.997 233.42 166.742C233.303 164.487 232.377 158.062 230.876 155.063C229.875 153.064 229.443 151.258 229.58 149.647C230.108 146.504 230.433 144.454 230.557 143.497C230.742 142.061 231.778 138.683 233.139 138.002C234.5 137.321 240.125 135.288 251.662 144.661C259.354 150.909 265.241 157.431 269.323 164.225C283.939 163.837 292.24 163.524 294.226 163.285C297.205 162.927 308.271 162.599 309.062 162.204C309.853 161.808 313.518 150.991 314.725 150.387C315.933 149.783 320.061 152.232 320.356 152.821C320.651 153.41 319.866 153.903 321.156 154.42C322.446 154.938 323.939 155.798 324.944 158.038C326.613 156.859 327.699 156.988 328.04 157.297C328.381 157.606 328.859 159.395 329.66 159.651C330.461 159.907 335.023 164.51 336.374 168.617C337.726 172.724 337.199 172.869 338.951 173.766C340.702 174.663 343.2 175.808 344.618 178.063C346.265 179.027 352.754 184.615 354.64 186.511C356.526 188.407 363.726 199.584 365.302 203.24C366.878 206.896 366.79 211.761 365.276 215.722C363.762 219.684 352.555 224.802 344.147 227.487C335.739 230.172 309.825 243.256 300.47 252.358C291.115 261.46 260.398 283.789 242.954 294.636C225.51 305.483 169.945 326.554 160.466 329.822C154.147 332.001 146.986 333.118 138.983 333.173L129.299 326.548C127.862 321.622 127.362 318.045 127.799 315.819C128.455 312.479 131.482 306.605 136.013 302.97C140.544 299.335 150.055 291.584 152.608 289.304C155.161 287.023 162.852 280.824 162.852 280.824Z" fill="#F7F5F3"/>
<path d="M138.679 312.516C143.476 314.51 163.512 309.801 179.402 302.91L201.808 293.255L221.103 291.054C202.618 304.37 184.725 312.98 167.423 316.883C142.18 322.578 131.683 328.276 127.864 320.257C127.597 318.42 127.578 316.946 127.799 315.817C128.398 312.768 130.972 307.608 134.863 303.967C134.649 308.525 135.92 311.369 138.679 312.516Z" fill="#EBE9E7"/>
<path d="M135.114 318.203C139.683 321.236 161.938 315.026 174.24 310.598L175.514 310.134C183.434 307.219 198.405 300.767 220.431 290.778C238.903 288.036 256.635 277.92 273.626 260.432L287.759 245.396C305.537 226.577 313.443 219.153 320.271 216.372C327.953 213.244 341.772 210.203 348.876 209.471L352.048 209.222C357.78 208.753 362.353 207.675 362.091 200.709C362.043 199.434 361.943 198.166 361.79 196.906L363.646 200.052C364.381 201.347 364.969 202.461 365.303 203.236C366.879 206.893 366.791 211.758 365.277 215.719C363.923 219.263 354.808 223.734 346.881 226.559L344.147 227.484C335.739 230.169 309.825 243.253 300.47 252.355C291.115 261.457 260.398 283.786 242.954 294.633C225.51 305.48 169.945 326.551 160.466 329.819C154.147 331.998 146.986 333.115 138.983 333.17L129.299 326.545C127.862 321.619 127.362 318.042 127.799 315.816C128.131 314.123 129.073 311.781 130.509 309.408C130.258 314.168 132.564 316.509 135.114 318.203Z" fill="#E1DCD6"/>
<path d="M310.965 222.383C304.966 233.592 298.113 250.021 292.202 257.112C289.921 259.849 287.083 262.903 283.834 266.058C273.035 274.289 259.675 283.773 249.036 290.742C235.386 297.302 229.353 298.572 220.165 300.437L218.15 300.83C211.919 302.003 201.256 303.689 186.159 305.887L193.505 302.755C200.837 299.585 209.815 295.592 220.43 290.777C238.903 288.035 256.635 277.919 273.626 260.431L287.759 245.395L293.102 239.774C300.367 232.189 305.738 226.868 310.072 223.151L310.965 222.383ZM361.789 196.907L363.645 200.053L364.575 201.746C364.845 202.259 365.071 202.716 365.242 203.1C364.876 209.679 363.497 213.315 361.1 214.01C357.441 215.071 350.839 212.342 345.526 209.909L347.839 209.588C348.198 209.544 348.544 209.505 348.876 209.471L352.048 209.222L353.815 209.048C358.689 208.461 362.325 206.942 362.09 200.71C362.043 199.434 361.942 198.167 361.789 196.907Z" fill="#DBD7D2"/>
<path d="M169.303 287.721C168.481 286.621 170.614 281.732 174.969 275.957C179.324 270.181 200.985 249.481 210.311 239.029C219.636 228.577 236.197 204.055 239.795 195.459C243.393 186.862 242.235 172.785 248.223 174.168C254.211 175.552 267.295 183.052 274.627 187.452C281.96 191.85 293.354 198.552 298.677 194.807C304 191.062 311.187 170.008 314.093 167.7C316.999 165.392 334.062 173.112 337.908 175.173C341.754 177.233 351.533 184.998 354.318 189.365C357.103 193.731 358.783 202.518 358.1 203.687C357.417 204.856 323.809 206.828 318.594 209.28C313.379 211.732 290.081 240.031 273.822 256.222C257.562 272.413 240.645 284.113 223.337 287.015C206.029 289.917 170.125 288.821 169.303 287.721Z" fill="#CDE0DC"/>
<path d="M337.908 175.172C341.754 177.232 351.533 184.997 354.318 189.363C357.103 193.729 358.783 202.517 358.1 203.686C357.417 204.855 323.809 206.827 318.594 209.279C318.127 209.499 317.514 209.926 316.774 210.534C315.761 208.319 314.917 206.141 314.187 204.215C312.115 198.749 316.976 187.684 328.769 171.023L331.357 172.105C334.267 173.357 336.719 174.535 337.908 175.172Z" fill="#959595"/>
<path d="M253.261 175.962L253.844 176.208C257.71 177.919 262.337 180.378 266.611 182.784C267.461 185.156 268.326 188.071 269.203 191.632C274.257 212.175 268.383 246.823 258.777 269.66C247.214 278.727 235.37 284.996 223.337 287.014C215.976 288.248 205.251 288.759 195.293 288.855C212.014 273.189 224.371 258.847 232.363 245.825C247.132 221.76 253.42 203.124 251.81 191.212C250.285 179.918 251.12 176.437 253.261 175.962Z" fill="#B2D8CF"/>
<path d="M248.223 174.167C253.088 175.291 262.637 180.454 269.98 184.709L277.827 189.345C284.954 193.482 294.08 198.04 298.677 194.805C303.525 191.395 309.918 173.63 313.216 168.74C314.183 168.094 315.438 167.626 316.853 167.33C321.463 167.835 330.004 171.401 334.923 173.701C336.467 179.714 327.329 187.862 325.403 196.066C323.264 205.176 335.632 202.391 340.182 204.847C340.816 205.189 341.185 205.529 341.318 205.863L332.903 206.771C326.319 207.532 320.519 208.372 318.593 209.278C313.379 211.73 290.08 240.029 273.82 256.22C261.262 268.726 248.31 278.553 235.089 283.715C228.471 284.516 237.984 271.559 243.247 261.045L243.742 260.036C250.561 245.844 260.1 222.184 261.298 206.239C262.096 195.609 257.093 186.229 246.29 178.103C245.68 176.703 245.475 175.581 245.676 174.739C246.359 174.153 247.183 173.927 248.223 174.167Z" fill="#0A9E7B"/>
<path d="M251.66 144.659C258.58 150.281 264.041 156.124 268.04 162.188L269.322 164.224C271.938 170.558 273.873 176.008 275.126 180.573C277.006 187.421 255.216 171.912 249.809 173.989C244.402 176.065 243.874 181.823 239.008 193.855C234.142 205.888 209.938 240.089 199.084 250.579L192.382 257.12C183.786 265.587 175.289 274.248 172.639 277.431L172.27 277.887C169.614 281.296 166.391 281.998 164.02 282.016C163.409 282.02 162.875 281.742 162.416 281.182L162.853 280.824L163.566 279.05C163.972 278.101 164.477 277.027 164.874 276.53L165.148 276.276C165.643 276.028 165.796 275.234 165.607 273.894L168.021 272.686L168.364 271.598C168.787 270.339 169.532 268.396 170.193 268.065C170.854 267.734 171.72 267.526 172.791 267.441C173.856 264.648 174.76 263.067 175.502 262.695C176.615 262.138 179.966 258.831 179.966 258.831L181.677 257.975L185.845 253.436C186.55 250.752 187.946 248.46 190.032 246.561C193.161 243.712 196.156 242.118 198.507 240.989C199.668 239.641 200.726 238.299 201.681 236.964C202.974 233.398 204.627 230.721 206.64 228.935C208.653 227.149 211.398 225.774 214.878 224.812C216.079 221.429 217.822 218.099 220.107 214.823C222.392 211.547 224.942 209.603 227.755 208.992C227.933 206.188 228.257 204.282 228.727 203.276L229.387 201.756C229.954 200.4 230.775 198.359 231.851 195.632L230.713 196.202L231.507 190.204L232.785 189.564L230.871 185.74C230.091 184.182 231.491 179.001 231.491 179.001L233.623 177.934L233.443 167.278C233.435 167.073 233.428 166.893 233.42 166.743C233.315 164.714 232.554 159.306 231.309 156.059L230.876 155.064C229.875 153.065 229.443 151.259 229.58 149.648L230.557 143.498C230.742 142.062 231.778 138.684 233.139 138.003L233.753 137.743C235.82 137.008 241.404 136.328 251.66 144.659Z" fill="#E7E4E1"/>
<path d="M229.643 149.211L229.751 148.504L230.137 148.505C231.718 148.532 233.295 148.621 234.816 148.791C238.441 149.196 241.24 149.992 242.874 151.308L243.431 151.826L243.622 152.047C244.363 152.966 244.72 154.158 244.735 155.591C244.76 157.91 243.921 160.749 242.376 164.238L241.592 165.942L236.869 175.376L231.193 186.395L230.87 185.74L230.814 185.573L237.853 171.874L240.507 166.553L241.352 164.777L241.726 163.95C243.233 160.548 244.048 157.79 244.024 155.599C244.013 154.572 243.812 153.702 243.409 152.995L242.991 152.402L242.909 152.31C241.559 150.848 238.655 149.937 234.738 149.5C233.74 149.389 232.716 149.312 231.682 149.266L229.643 149.211Z" fill="#8FA497"/>
<path d="M248.379 143.492C252.627 144.932 266.655 157.511 268.711 165.526C270.667 173.152 274 176.083 267.761 180.255L261.421 177.301C256.641 175.093 251.946 173.168 249.809 173.988C247.789 174.764 246.45 176.053 245.311 177.992C243.267 176.245 242.296 174.076 243.26 171.692L245.037 167.272C247.128 161.891 248.028 158.217 246.735 152.131L245.674 147.17C244.961 143.494 245.248 142.431 248.379 143.492Z" fill="#C0BBB5"/>
<path d="M232.603 150.851C234.065 151.034 241.054 152.623 241.55 155.161C242.046 157.699 237.178 169.511 235.824 172.514L235.605 172.959C235.074 173.898 234.412 175.32 233.62 177.226L233.441 167.275L233.418 166.74C233.313 164.711 232.552 159.303 231.307 156.056L230.874 155.061C230.144 153.602 229.716 152.246 229.592 150.993C230.92 150.816 231.917 150.765 232.603 150.851Z" fill="#9EA09D"/>
<path d="M233.137 138L233.751 137.74L234.342 137.563C236.784 136.957 242.259 137.021 251.661 144.658C258.581 150.28 264.041 156.123 268.04 162.187L269.322 164.223L270.729 167.711C270.951 168.277 271.168 168.834 271.378 169.384C267.124 170.785 264.745 170.684 264.226 169.079C263.299 166.211 257.28 156.412 250.611 151.015C243.941 145.617 235.339 142.686 234.023 142.344C233.362 142.172 232.195 142.632 230.522 143.724L230.556 143.494C230.74 142.058 231.776 138.681 233.137 138Z" fill="#113B17"/>
<path d="M233.137 138L233.751 137.74L234.342 137.563C236.596 137.003 241.434 137.015 249.557 143.025C253.446 147.704 256.13 152.468 257.632 157.322C257.79 157.833 257.887 158.313 257.926 158.763C255.77 155.958 253.24 153.144 250.609 151.015C243.94 145.617 235.338 142.686 234.022 142.344C233.361 142.172 232.194 142.632 230.521 143.724L230.555 143.494C230.74 142.058 231.776 138.681 233.137 138Z" fill="#347C3F"/>
<path d="M250.858 146.937C257.352 152.091 262.928 158.922 267.587 167.424C267.776 167.769 267.65 168.202 267.305 168.391C266.96 168.58 266.527 168.454 266.338 168.109C261.766 159.767 256.311 153.084 249.972 148.053C242.184 141.873 236.236 140.144 230.975 141.674C231.138 141.146 231.341 140.586 231.576 140.065C237.06 138.862 243.2 140.86 250.858 146.937Z" fill="#4F9362"/>
<path d="M245.713 163.288C246.565 162.986 247.11 162.845 247.349 162.866C249.644 163.065 252.9 163.536 257.117 164.278C259.226 164.444 260.778 164.549 261.773 164.593L264.41 164.611L269.323 164.222L287.093 163.674C290.141 163.556 292.272 163.449 293.487 163.352L294.226 163.282C297.205 162.924 308.271 162.596 309.062 162.201C309.853 161.805 313.518 150.988 314.725 150.384C315.933 149.78 320.061 152.229 320.356 152.818C320.651 153.407 319.866 153.9 321.156 154.417C322.446 154.935 323.939 155.795 324.944 158.035L325.161 157.896L325.142 158.368C325.049 160.758 323.735 163.274 321.934 163.536L319.452 163.87C317.433 164.184 314.864 164.768 312.821 166.144C309.756 168.207 308.475 185.484 303.579 188.886L301.178 190.531C296.758 193.446 291.51 195.952 285.033 192.248L278.796 188.576C268.11 182.198 250.808 171.628 249.624 171.103C248.645 170.668 245.265 175.129 239.483 184.486C238.029 186.729 237.394 188.938 237.577 191.114C237.853 194.377 236.303 206.259 232.261 212.938C228.338 219.419 197.817 254.691 191.535 260.449L189.755 261.981C184.109 266.945 172.489 278.538 171.71 277.307C171.129 276.388 172.03 271.091 172.82 267.363L172.791 267.443C173.856 264.65 174.76 263.069 175.502 262.697C176.253 262.321 178.024 260.692 179.096 259.673L179.966 258.833C178.194 260.866 177.305 262.454 177.3 263.596L177.249 265.922C177.232 267.317 177.291 268.684 177.714 269.034C178.165 269.407 179.236 267.985 180.927 264.768L177.474 263.942C178.172 261.591 178.862 260.166 179.544 259.668C180.567 258.921 186.501 259.701 187.407 259.878C188.011 259.996 192.154 255.911 199.837 247.624C196.711 246.477 194.234 246.325 192.405 247.17C192.467 243.191 196.951 240.829 202.956 241.89C208.648 238.345 214.603 232.094 214.212 231.414C213.82 230.734 208.52 229.809 205.095 230.9C205.297 230.47 205.552 230.066 205.851 229.688L206.641 228.935C207.372 228.286 208.2 227.692 209.124 227.152C212.181 225.615 216.101 225.085 218.684 225.453C221.805 223.484 219.116 220.305 219.64 219.253C219.99 218.552 222.102 217.887 225.978 217.261C227.494 214.842 227.914 213.67 227.237 213.745C226.335 213.845 225.054 212.835 222.649 213.578L221.693 213.944C221.083 214.221 220.793 214.181 220.768 213.932L220.11 214.823C222.396 211.547 224.945 209.602 227.758 208.991L227.814 208.256C228.415 208.042 229.037 207.87 229.672 207.756C232.323 204.756 232.7 199.952 232.793 197.227L232.983 192.329C233.184 187.858 233.53 180.788 233.729 179.732L233.933 178.597C234.115 177.733 234.413 177.071 235.481 176.588C236.478 176.137 238.047 175.671 240.186 175.189L240.335 172.385L239.094 173.006C237.411 170.962 236.841 169.824 237.385 169.591C237.928 169.358 239.245 169.052 241.336 168.674C241.827 167.199 242.375 166.091 242.979 165.349C243.583 164.607 244.49 163.919 245.713 163.288Z" fill="#113B17"/>
<path d="M320.355 152.818C320.558 153.223 320.249 153.583 320.458 153.937L317.622 158.854L319.524 154.688C319.607 154.483 319.657 154.346 319.673 154.275C319.787 153.776 318.795 152.619 317.8 152.041L317.307 151.806C316.379 151.469 315.775 150.921 315.631 150.328C317.312 150.612 320.114 152.337 320.355 152.818Z" fill="#4D7E54"/>
<path d="M245.712 163.288C246.564 162.986 247.109 162.845 247.348 162.866C249.643 163.065 252.899 163.536 257.116 164.278L261.773 164.593L264.41 164.611L269.323 164.222L287.093 163.674L292.91 163.394L296.238 163.109C299.564 162.881 305.045 162.66 307.647 162.417L306.64 166.3C305.335 171.19 304.18 174.936 303.174 177.541C301.249 182.526 298.471 185.474 297.161 186.344C295.851 187.214 293.299 187.402 291.8 186.638C290.301 185.875 294.812 186.641 296.883 185.335C298.954 184.029 301.339 179.775 302.663 175.924L303.253 174.117C304.466 170.239 305.782 165.099 305.614 164.324C305.445 163.54 302.026 164.278 297.62 164.789L295.525 165.003C294.182 165.118 292.638 165.28 290.994 165.468L276.246 167.311C270.928 167.955 268.816 168.927 269.41 169.828L271.378 172.598C273.206 175.261 275.267 178.697 272.758 177.754C268.995 176.34 254.191 166.079 252.136 164.747C250.706 163.82 247.208 163.626 245.1 163.619L245.712 163.288Z" fill="#426F4A"/>
<path d="M314.725 150.384C314.98 150.257 315.364 150.265 315.816 150.363C315.597 150.436 315.405 150.559 315.235 150.722C314.479 151.448 313.498 153.624 312.292 157.248L311.455 159.879L311.125 160.881L309.391 161.771C310.579 159.691 313.641 150.926 314.725 150.384Z" fill="#B0D1B5"/>
<path d="M320.958 154.315C323.213 156.386 324.217 157.928 323.968 158.94C323.595 160.458 322.208 161.773 320.84 161.922C319.472 162.071 316.456 161.16 315.316 160.84C314.175 160.519 309.913 160.245 308.357 162.743C306.801 165.241 306.841 170.247 305.1 174.688C303.359 179.129 300.032 186.646 297.128 188.15C294.225 189.654 289.045 188.123 286.266 187.109C283.486 186.095 269.194 177.908 267.284 176.642C265.374 175.376 257.831 170.1 255.929 168.451C254.027 166.801 250.221 163.346 249.066 163.291C248.296 163.254 246.885 163.576 244.832 164.256C241.932 172.409 239.819 176.695 238.491 177.113C236.5 177.741 235.729 177.024 235.755 178.547C235.78 180.07 236.552 180.504 236.637 181.92C236.694 182.864 236.711 184.649 236.688 187.275C235.122 191.331 234.177 193.835 233.851 194.784C233.363 196.209 234.033 196.812 233.766 197.612C233.499 198.412 232.584 200.439 231.674 201.118C230.764 201.797 230.62 201.832 231.393 203.417C232.166 205.002 227.497 213.63 226.277 213.545C225.057 213.46 223.797 213.348 222.657 214.304C221.516 215.26 220.108 217.659 220.317 219.399C220.526 221.139 219.522 227.686 217.143 229.339C214.764 230.992 212.649 230.228 211.737 230.063C210.825 229.898 208.299 229.701 207.891 230.414C207.483 231.127 206.093 234.791 205.817 236.318C205.633 237.336 204.855 239.75 203.484 243.561C200.748 246.194 198.764 247.43 197.53 247.27C195.68 247.03 194.749 245.561 193.607 246.005C192.466 246.449 189.612 251.62 189.451 253.971C189.29 256.322 182.946 264.67 181.914 264.424C180.882 264.177 178.19 263.295 177.654 263.391C177.685 262.729 177.599 262.18 177.395 261.743C176.551 264.16 176.331 266.142 176.735 267.689C177.223 269.125 177.517 270.214 177.618 270.958C177.807 268.846 177.929 267.813 177.985 267.859C178.068 267.928 177.093 264.523 177.212 264.13C177.844 264.282 179.574 264.705 182.402 265.4C186.889 260.668 189.236 258.033 189.444 257.492C189.756 256.679 193.287 247.201 193.611 247.053C193.935 246.905 197.726 248.417 198.464 248.175C199.202 247.933 204.942 244.323 205.736 242.435C206.113 241.539 205.846 239.74 206.21 238.341C206.612 236.793 207.618 235.659 207.404 235.141C206.996 234.153 207.978 231.087 208.203 231.044C208.428 231.001 214.324 231.403 216.005 230.837C217.686 230.271 220.929 225.896 220.95 224.3C220.971 222.704 221.113 219.756 221.559 218.781C222.005 217.806 223.422 215.397 223.392 214.992C224.264 214.864 225.85 214.639 228.148 214.317C230.867 208.614 232.472 205.073 232.962 203.694C233.697 201.625 242.634 180.207 244.278 176.08C245.923 171.953 248.575 170.146 252.059 173.153C255.544 176.16 277.689 190.423 281.438 191.75C285.185 193.076 295.98 198.691 299.266 194.181C300.394 192.633 303.968 189.878 305.859 185.804C309.477 178.011 311.887 167.57 313.965 166.809C317.13 165.65 323.033 167.574 324.421 166.138C325.809 164.703 326.65 159.513 326.262 158.751C325.872 157.99 323.758 154.791 323.144 154.407C322.736 154.147 322.007 154.118 320.958 154.315Z" fill="#276B3A"/>
<path d="M244.61 163.115C247.371 162.357 250.224 165.584 254.516 169.204L255.622 170.143C260.229 174.074 270.789 181.078 275.579 183.862L276.513 184.391C280.698 186.689 290.811 191.695 293.813 191.213C296.815 190.731 299.599 189.63 303.19 182.873C306.781 176.116 308.094 167.732 308.451 166.251C308.808 164.769 310.871 161.98 313.433 162.538L316.237 163.215L319.231 163.967C319.845 164.111 320.314 164.205 320.543 164.211C321.272 164.232 323.986 163.079 324.716 160.637L324.994 159.216L325.028 159.291C326.697 158.112 327.783 158.241 328.124 158.55C328.465 158.859 328.943 160.648 329.744 160.904C330.545 161.16 335.107 165.763 336.458 169.87L336.997 171.615C337.628 173.803 337.592 174.204 338.642 174.808L340.676 175.869C342.125 176.661 343.689 177.706 344.702 179.316C346.205 180.196 351.744 184.929 354.132 187.19L354.999 188.754L355.298 189.331C356.23 191.178 360.652 197.923 361.071 202.171C361.49 206.42 357.609 209.783 346.562 211.289L342.062 212.426L338.05 212.679C328.457 214.145 317.542 217.681 310.005 224.596C299.956 233.816 275.788 264.714 255.803 276.479C235.818 288.244 212.388 296.696 191.733 295.481C171.078 294.266 162.566 297.174 158.573 294.25C157.01 293.105 155.515 291.769 154.089 290.24L155.711 288.827C158.893 286.113 162.937 282.08 162.937 282.08L162.965 281.994L164.802 282.933L166.536 279.771L167.178 278.518C167.583 277.646 185.989 260.051 191.16 254.844L195.173 250.637L200.934 244.388C206.735 238.023 213.455 230.443 216.895 226.06L218.743 223.657L220.76 220.945C226.299 213.39 232.85 203.599 234.057 200.073C235.465 195.959 238.27 183.971 238.932 179.32L239.04 178.441C239.401 174.665 241.62 163.936 244.61 163.115ZM248.688 182.319C248.167 183.686 247.693 187.13 247.265 192.65L242.95 204.314C242.017 206.789 241.342 208.529 240.925 209.533L240.738 209.974C240.065 211.512 237.07 215.57 233.493 220.264L225.437 230.787C219.39 238.767 202.402 255.993 199.936 258.463L184.698 272.966C182.182 275.384 180.196 277.335 179.589 278.05C178.299 279.57 176.849 281.758 176.124 284.631C178.264 284.708 179.929 285.148 182.023 285.159L186.772 285.154L199.849 285.364C206.721 285.428 214.37 285.361 219.507 284.795C229.553 283.688 244.987 276.782 252.831 271.166C260.675 265.55 279.37 246.047 287.253 237.479L289.174 235.341L291.179 233.029C299.118 223.762 309.645 210.291 312.45 208.454C315.312 206.579 323.972 205.823 330.403 205.394L336.235 205.004L351.214 203.724C353.653 203.489 355.393 203.301 355.696 203.226C356.647 202.99 355.457 195.907 352.778 191.315C350.099 186.723 342.667 181.298 337.705 178.334C332.742 175.37 320.941 171.46 317.916 172.391C315.227 173.218 312.275 182.268 310.573 188.329L309.996 190.44C308.459 196.221 306.972 199.864 299.568 203.338C292.163 206.81 283.928 200.311 279.286 197.181L276.593 195.426L272.404 192.806C267.883 190.011 262.577 186.792 258.364 184.066C251.625 179.706 249.469 180.268 248.688 182.319Z" fill="#4C453C"/>
<path d="M244.61 163.115C247.371 162.357 250.139 164.326 254.432 167.946L255.538 168.885C260.146 172.816 270.706 179.82 275.496 182.604L276.43 183.133C280.615 185.431 290.727 190.437 293.729 189.955C296.731 189.473 299.515 188.372 303.106 181.615C306.697 174.858 308.01 166.474 308.367 164.993C308.724 163.511 310.787 160.722 313.349 161.28L316.153 161.957L319.148 162.709C319.762 162.853 320.231 162.947 320.46 162.953C321.189 162.974 323.903 161.821 324.633 159.379L324.911 157.958L324.945 158.033C326.614 156.854 327.7 156.983 328.041 157.292C328.382 157.601 328.86 159.39 329.661 159.646C330.462 159.902 335.024 164.505 336.375 168.612L336.914 170.357C337.545 172.545 337.509 172.946 338.559 173.55L340.593 174.611C342.042 175.403 343.606 176.448 344.619 178.058C346.122 178.938 351.661 183.671 354.049 185.932L354.916 187.496L355.215 188.073C356.147 189.92 361.507 197.82 361.926 202.068C362.345 206.316 358.464 209.679 347.417 211.185L342.157 211.883L338.395 212.421C328.802 213.887 318.397 217.577 310.861 224.492C300.812 233.712 276.645 264.611 256.659 276.376C236.674 288.141 212.846 297.174 192.191 295.959C171.536 294.744 160.637 296.629 156.645 293.705C155.082 292.56 153.587 291.224 152.161 289.695L153.783 288.282C156.965 285.568 162.854 280.822 162.854 280.822L162.882 280.736L164.719 281.675L166.453 278.513L167.095 277.26C167.5 276.388 185.906 258.793 191.077 253.586L195.09 249.379L200.851 243.13C206.652 236.764 213.372 229.184 216.812 224.801L218.66 222.398L220.677 219.686C226.216 212.131 232.767 202.341 233.974 198.815C235.382 194.701 238.187 182.713 238.849 178.062L238.957 177.183C239.316 173.407 241.62 163.936 244.61 163.115ZM247.709 181.448C247.188 182.815 246.714 186.259 246.286 191.779L241.971 203.443C241.038 205.918 240.363 207.657 239.946 208.661L239.759 209.102C239.086 210.64 236.091 214.698 232.514 219.392L224.458 229.915C218.411 237.895 201.423 255.122 198.957 257.592L183.719 272.095C181.203 274.513 179.217 276.464 178.61 277.179C177.32 278.699 176.312 280.896 175.586 283.77C177.726 283.847 179.843 283.891 181.937 283.902L186.686 283.897L199.763 284.107C206.635 284.171 214.284 284.105 219.421 283.538C229.467 282.431 244.901 275.525 252.746 269.909C260.591 264.293 279.286 244.79 287.169 236.221L289.089 234.083L291.094 231.771C299.033 222.504 309.56 209.033 312.365 207.196C315.227 205.321 323.887 204.565 330.318 204.136L336.15 203.747L351.129 202.467C353.568 202.232 355.308 202.044 355.611 201.969C356.562 201.733 355.372 194.65 352.693 190.058C350.014 185.465 342.582 180.041 337.62 177.077C332.657 174.113 320.856 170.203 317.831 171.134C315.142 171.961 312.19 181.011 310.488 187.072L309.911 189.183C308.374 194.964 306.887 198.607 299.483 202.08C292.079 205.552 283.843 199.054 279.202 195.924L276.509 194.169L272.32 191.549C267.799 188.754 262.493 185.535 258.279 182.809C251.54 178.448 248.491 179.397 247.709 181.448Z" fill="#F2EFEC"/>
<path d="M324.909 157.96L324.943 158.035C326.612 156.856 327.698 156.985 328.039 157.294C328.38 157.603 328.858 159.392 329.659 159.648C330.46 159.904 335.022 164.507 336.373 168.614L336.912 170.359L337.433 172.172C337.669 172.877 337.901 173.175 338.558 173.552L339.449 174.037C338.892 174.506 338.36 174.563 337.852 174.209L325.891 165.99C324.39 164.967 322.932 163.979 321.644 163.113L321.203 162.79C322.304 162.394 324.065 161.275 324.631 159.38L324.909 157.96Z" fill="#DCD8D2"/>
<path d="M186.783 284.65L199.86 284.86L204.521 284.879C210.008 284.869 215.525 284.732 219.52 284.291C229.566 283.184 245 276.278 252.844 270.662C260.688 265.046 279.383 245.543 287.266 236.975L289.186 234.837L291.191 232.525L298.542 223.735C304.614 216.388 310.475 209.25 312.462 207.949C313.395 207.338 314.943 206.846 316.828 206.445C315.649 207.507 314.857 208.345 314.092 209.489C309.764 215.959 330.412 209.344 343.102 210.211C345.823 210.397 346.299 211.283 345.223 212.691L342.556 213.047L338.794 213.585C329.201 215.051 318.395 217.577 310.858 224.493C302.063 232.564 282.452 257.241 264.296 271.16L260.588 273.56C248.932 280.988 238.246 286.655 232.58 287.168C224.233 287.923 211.011 287.855 192.722 285.458L186.783 284.65ZM339.269 177.383C341.257 178.172 343.279 178.684 346.127 179.147C348.406 180.903 352.185 184.17 354.048 185.934L354.915 187.498L355.214 188.075C356.055 189.742 360.505 196.341 361.671 200.734C361.168 202.318 360.503 203.518 359.804 204.056C358.159 205.322 357.651 203.943 356.446 201.666C357.052 200.588 355.848 194.171 353.359 189.903C350.68 185.31 343.248 179.886 338.286 176.922L339.269 177.383Z" fill="#DEDBD8"/>
<path d="M165.119 292.498C179.169 293.252 208.618 291.17 223.927 287.801C240.315 284.195 260.352 270.829 276.9 253.004L279.72 249.922L282.717 246.56L291.561 236.479L294.512 233.154C307.605 218.514 311.49 215.88 318.522 212.961L319.952 212.38C326.466 209.792 332.285 208.24 339.534 207.66L350.079 207.028L351.664 206.909C354.867 206.705 357.978 205.939 359.317 204.108C361.193 201.54 361.501 197.615 357.582 190.406C358.886 192.323 360.407 194.674 361.769 196.895C363.592 201.483 363.811 204.751 362.439 207.026C360.973 209.457 357.529 210.873 353.914 211.285L352.327 211.413C350.653 211.505 343.588 211.902 340.615 212.14C333.695 212.694 328.213 214.177 322.064 216.62L320.838 217.12C314.291 219.871 310.456 222.38 297.468 237.009L284.64 251.59L281.721 254.825C281.247 255.343 280.777 255.853 280.308 256.358C263.31 274.67 242.684 288.427 225.49 292.211C209.853 295.652 180.247 297.399 165.833 296.664C158.671 296.299 154.473 294.058 152.343 289.537L155.186 287.127C156.924 290.376 159.635 292.204 165.119 292.498Z" fill="#F4F4F4"/>
<path d="M165.916 293.427C180.026 294.147 209.415 292.099 224.724 288.73C241.112 285.124 261.149 271.758 277.697 253.933L280.517 250.851L283.514 247.49L292.358 237.409L295.309 234.084C308.402 219.444 312.287 216.81 319.319 213.891L320.749 213.31C327.263 210.722 333.082 209.17 340.331 208.59L350.876 207.957L352.461 207.838C355.664 207.634 358.775 206.868 360.114 205.037C361.99 202.469 360.285 197.246 356.366 190.038C357.67 191.955 360.409 194.675 361.771 196.896C363.594 201.484 363.813 204.752 362.441 207.027C360.975 209.458 357.531 210.874 353.916 211.286L352.329 211.415C350.655 211.507 343.59 211.904 340.617 212.142C333.697 212.696 328.215 214.179 322.066 216.622L320.84 217.122C314.293 219.873 310.458 222.382 297.47 237.011L284.642 251.592L281.723 254.826C281.249 255.344 280.779 255.854 280.31 256.359C263.311 274.671 242.686 288.428 225.492 292.212C209.855 295.653 180.249 297.4 165.835 296.665C158.673 296.3 154.475 294.059 152.345 289.538L154.422 287.745C156.137 291.233 159.872 293.118 165.916 293.427Z" fill="#E4E1DE"/>
<path d="M356.295 189.765C357.599 191.682 360.406 194.673 361.768 196.894C363.591 201.482 363.81 204.75 362.438 207.025C360.972 209.456 357.528 210.872 353.913 211.284L352.326 211.412L341.519 212.07C341.188 212.094 340.884 212.117 340.614 212.139C333.694 212.693 328.212 214.176 322.063 216.619L320.837 217.119C314.29 219.87 310.455 222.379 297.467 237.008L284.639 251.59L281.012 255.594L280.308 256.356C263.31 274.669 242.685 288.426 225.49 292.21C217.817 293.899 206.78 295.179 195.826 295.959L204.375 292.993C206.15 292.369 207.841 291.768 209.45 291.19L214.253 290.559C218.14 290.008 221.706 289.395 224.725 288.731C241.114 285.125 261.151 271.759 277.698 253.934L280.518 250.851L283.515 247.49L292.359 237.409L295.31 234.084C308.403 219.444 312.288 216.81 319.32 213.891L320.75 213.31C327.264 210.722 333.083 209.17 340.332 208.59L350.877 207.958L352.462 207.839C355.665 207.635 358.776 206.869 360.115 205.038C361.988 202.468 360.214 196.974 356.295 189.765Z" fill="#D4D0CC"/>
<path d="M335.874 167.361L335.843 167.475C335.732 167.887 335.578 168.137 335.38 168.225C334.488 168.621 331.422 165.255 330.906 164.749C330.476 164.328 330.319 163.634 330.63 163.213L330.875 162.997C331.166 162.83 331.43 162.305 331.668 161.421C333.072 162.884 334.836 165.123 335.874 167.361Z" fill="#5580A7"/>
<path d="M338.243 173.373L340.592 174.613C342.041 175.405 343.605 176.45 344.618 178.06C344.122 178.301 343.769 178.362 343.584 178.273L342.743 177.794C341.375 176.97 338.95 175.388 338.579 174.836C338.418 174.596 338.306 174.108 338.243 173.373Z" fill="#3C5242"/>
<path d="M374.156 224.818C377.991 226.889 379.645 229.424 379.117 232.422C378.326 236.92 365.001 247.892 354.797 254.906C344.593 261.92 272.41 297.748 269.523 299.526C266.636 301.304 263.96 303.632 259.299 304.642C254.639 305.652 252.164 304.855 246.317 307.788C240.471 310.72 222.942 321.149 205.973 327.199C189.004 333.249 167.837 337.869 161.863 339.126C155.889 340.383 147.792 337.374 147.082 337.01C150.376 336.323 188.648 326.613 208.752 316.761C228.856 306.909 250.131 294.961 269.359 283.265C288.587 271.568 353.14 235.03 359.885 231.62C364.384 229.348 369.14 227.081 374.156 224.818Z" fill="#082D11"/>
<path d="M159.258 333.87L164.8 332.316L172.177 330.641C173.888 330.25 175.611 329.849 177.24 329.445C185.253 327.46 202.082 320.92 212.198 316.54L214.012 315.746C220.167 313.018 234.902 305.093 245.229 299.466L256.234 293.446C257.095 293.011 244.539 302.087 230.869 309.858L228.029 311.444C213.316 319.503 201.466 324.205 199.456 324.635C198.116 324.922 197.491 325.952 197.582 327.727C198.285 327.421 200.491 326.204 204.202 324.076C209.768 320.884 220.651 317.186 228.139 314.694C235.627 312.202 245.895 306.101 249.192 303.687C252.489 301.273 255.762 300.832 259.111 299.195L287.589 282.761C289.728 281.543 291.692 280.436 293.352 279.519L300.401 275.743C313.838 268.65 341.175 254.426 355.399 245.954L356.924 245.037C373.076 235.225 375.569 231.771 376.843 230.188C377.437 229.451 377.606 228.436 377.35 227.144C378.874 228.698 379.462 230.461 379.117 232.422C378.326 236.92 365.001 247.892 354.797 254.906C344.593 261.92 272.41 297.748 269.523 299.526C266.636 301.304 263.96 303.632 259.299 304.642C254.639 305.652 252.164 304.855 246.318 307.788L242.835 309.63C235.091 313.825 220.331 322.08 205.973 327.199L202.141 328.519C185.952 333.915 181.645 334.738 174.743 336.633C170.218 337.876 156.322 339.417 153.721 338.928C157.611 338.589 162.362 337.95 165.152 337.331L167.107 336.876C172.575 335.555 181.877 332.994 183.126 332.067C184.542 331.016 173.888 333.208 170.085 334.11C166.282 335.012 160.412 334.976 159.03 334.295C158.81 334.188 158.906 334.044 159.258 333.87Z" fill="#43774F"/>
<path d="M370.497 217.508C374.337 220.212 376.336 221.809 376.493 222.299C376.728 223.034 376.848 224.769 375.301 225.824C373.754 226.879 358.103 236.325 342.737 244.47C327.371 252.616 300.247 267.342 281.717 278.246C263.186 289.15 251.736 296.395 247.881 299.205C244.026 302.015 218.4 316.349 197.074 324.17C182.857 329.384 166.633 333.942 148.403 337.843L142.895 334.555C168.225 327.967 185.123 323.031 193.59 319.747C206.29 314.82 239.085 297.931 246.49 293.584C253.895 289.237 273.359 275.104 287.748 266.713C302.137 258.322 346.265 232.964 352.646 229.585C356.898 227.332 362.849 223.306 370.497 217.508Z" fill="#E7E4DC"/>
<path d="M370.497 217.508L373.228 219.474C375.29 221.002 376.379 221.943 376.493 222.3C376.728 223.035 376.848 224.77 375.301 225.825L374.577 226.29C372.994 224.633 371.214 224.365 369.224 225.482L346.959 237.378L338.277 242.101C329.393 246.856 313.487 255.056 290.557 266.701L305.556 256.406L343.423 234.733C347.441 232.458 350.538 230.722 352.16 229.846L352.645 229.586C356.898 227.332 362.849 223.306 370.497 217.508Z" fill="#D4D1C8"/>
<path d="M288.43 266.332C286.943 270.026 284.956 272.952 282.47 275.112C278.618 278.459 270.184 284.1 260.734 289.407L255.878 292.07C244.589 298.165 224.029 308.78 216.505 310.729C214.975 311.125 215.742 310.234 218.804 308.055L229.772 302.51C237.324 298.63 243.703 295.219 246.489 293.584C253.894 289.237 273.358 275.104 287.747 266.713L288.43 266.332Z" fill="#D1CEC8"/>
<path d="M370.497 217.508L372.564 218.986C374.414 220.334 375.612 221.289 376.159 221.853L375.06 221.325C373.07 220.455 371.682 220.365 370.894 221.058L369.73 221.99C368.4 222.962 366.019 224.457 360.479 227.585L344.819 236.273C332.169 243.384 320.654 250.343 314.508 253.909L308.712 257.289C299.278 262.853 282.473 272.973 274.978 277.831L268.635 281.916C258.873 288.167 244.856 296.991 238.14 300.651L228.049 305.947C219.224 310.482 206.16 316.748 188.496 322.942C171.942 328.746 156.968 332.756 143.574 334.97L142.894 334.556L154.405 331.521C172.51 326.674 185.22 322.883 192.533 320.15L193.589 319.748C206.289 314.821 239.084 297.932 246.489 293.585C253.277 289.6 270.198 277.393 284.055 268.922L287.748 266.714C300.698 259.162 337.736 237.867 349.666 231.22L352.645 229.586C356.898 227.332 362.849 223.306 370.497 217.508Z" fill="#A3A097"/>
<path d="M363.672 199.926C363.791 200.08 366.025 199.82 366.457 200.722C366.887 201.625 370.458 209.358 370.75 211.686C371.042 214.014 371.111 217.884 370.064 219.234C369.017 220.584 361.756 225.9 346.211 234.762C330.666 243.624 296.401 263.602 286.78 269.099C277.159 274.594 258.161 287.47 253.458 290.622C248.755 293.774 237.247 300.502 221.221 308.522C205.195 316.542 193.744 320.9 174.303 326.942C161.342 330.97 151.153 333.48 143.737 334.472L138.921 331.057C155.147 327.475 169.4 323.681 181.679 319.673C200.098 313.662 234.476 296.858 245.976 289.52C257.476 282.182 271.589 271.02 285.775 257.964C299.961 244.907 310.293 230.96 320.603 227.035C330.913 223.11 338.746 224.757 346.065 223.314C353.384 221.871 366.046 218.194 366.155 210.499C366.262 202.804 363.553 199.772 363.672 199.926Z" fill="#DBD8D2"/>
<path d="M320.602 227.034C327.677 224.341 333.585 224.271 338.961 224.026L335.122 224.957C326.627 227.065 321.369 228.722 319.342 229.928L317.088 231.292C313.442 233.567 308.164 237.306 301.959 244.366L300.511 246.055C292.215 255.969 275.865 269.803 270.374 274.019L266.444 276.935C258.704 282.551 244.562 292.276 235.464 297.001L229.816 299.894C217.942 305.897 199.818 314.581 185.333 319.673C174.33 323.541 159.311 327.653 140.278 332.01L138.919 331.055C155.145 327.473 169.398 323.679 181.677 319.671C200.095 313.66 234.473 296.856 245.974 289.518C257.474 282.18 271.587 271.018 285.773 257.962C299.959 244.906 310.291 230.959 320.602 227.034ZM366.457 200.722L367.982 204.099C369.149 206.774 370.57 210.254 370.75 211.686C371.042 214.014 371.111 217.884 370.064 219.234C369.646 219.772 368.241 220.942 365.717 222.714C366.602 221.432 369.285 219.429 369.825 217.918C371.072 214.433 369.728 207.511 366.918 203.156C365.83 201.47 364.974 200.416 364.35 199.996C365.069 200.035 366.167 200.118 366.457 200.722Z" fill="#F1F0ED"/>
<path d="M309.845 234.156L306.891 237.62C303.644 241.488 301.065 244.787 299.154 247.517C295.06 253.367 289.829 262.779 286.859 268.382C286.685 268.711 286.423 269.087 286.084 269.502L282.777 271.471C277.462 274.713 270.8 279.056 265.068 282.854L253.456 290.621C249.881 293.017 242.372 297.48 231.934 303.007L219.366 308.794C215.525 310.509 212.893 311.579 212.817 311.284C212.565 310.286 241.135 295.823 247.399 291.901L248.472 291.212C250.471 289.879 249.053 290.419 246.551 291.579L236.547 296.403C233.578 297.762 230.279 299.052 230.757 297.997L234.474 296.053C239.248 293.522 243.251 291.255 245.973 289.519C257.473 282.181 271.586 271.019 285.772 257.963C295.1 249.378 302.761 240.409 309.845 234.156Z" fill="#D1CEC8"/>
<path d="M273.857 270.693L271.44 272.699C268.349 275.227 255.157 286.101 232.192 297.904C217.156 305.632 217.508 305.097 213.131 307.112C208.754 309.128 193.673 315.575 189.162 316.871C206.298 310.19 227.13 299.896 230.397 298.221C233.664 296.546 244.58 290.407 245.973 289.518C257.474 282.18 271.587 271.018 285.773 257.962C292.471 251.798 298.309 245.434 303.692 240.021C299.734 246.306 281.134 264.558 273.857 270.693Z" fill="#ABA59A"/>
<path d="M363.672 199.926C363.75 200.027 364.749 199.949 365.544 200.143C367.486 204.518 369.382 211.478 368.086 215.798C366.392 221.446 359.94 225.228 352.816 226.495C345.692 227.762 336.785 226.57 333.559 226.747C331.418 226.865 325.948 226.328 320.953 226.904L320.601 227.035C330.911 223.11 338.744 224.757 346.063 223.314C353.382 221.871 366.044 218.194 366.153 210.499C366.262 202.804 363.553 199.772 363.672 199.926Z" fill="#D1CEC8"/>
<path d="M363.672 199.926L363.78 199.952L364.375 201.001C365.48 203.057 367.535 207.481 366.96 211.132C366.193 216 364.079 218.424 359.526 220.576C354.973 222.727 350.02 224.296 342.85 224.569C338.246 224.744 333.971 224.563 330.786 224.566C336.445 223.892 341.361 224.241 346.064 223.314L348.083 222.886C355.49 221.202 366.055 217.525 366.154 210.5C366.262 202.804 363.553 199.772 363.672 199.926Z" fill="#ABA59A"/>
<path d="M379.587 231.553C379.374 237.309 377.536 242.322 374.071 246.594C368.874 253.001 357.407 261.423 344.419 267.723C331.431 274.023 296.437 291.736 287.056 296.43C277.675 301.125 228.981 325.493 223.258 328.357C217.535 331.221 198.465 337.33 179.673 342.21C160.881 347.09 156.022 346.025 146.996 345.665C139.504 344.382 132.166 337.563 130.703 334.639C129.24 331.715 126.842 326.215 127.461 325.794C128.079 325.373 131.923 325.471 135.402 327.996C138.881 330.521 147.212 337.978 152.36 338.598C157.508 339.217 169.743 339.066 193.435 331.151C217.127 323.236 247.246 306.677 248.648 306.068C250.05 305.459 260.307 305.173 264.155 302.731C268.002 300.29 275.535 295.905 284.539 291.399C293.543 286.893 322.769 272.125 329.223 268.895C335.676 265.665 360.082 252.682 368.533 244.22C374.167 238.581 377.852 234.358 379.587 231.553Z" fill="#2C4C2E"/>
<path d="M138.419 341.346L151.708 338.488L152.36 338.599L154.121 338.755C160.069 339.111 172.112 338.276 193.435 331.152L196.859 329.965C219.929 321.696 247.312 306.649 248.649 306.069C250.051 305.46 260.307 305.174 264.155 302.732L264.62 302.442L263.335 308.296L223.258 328.357C217.755 331.111 199.912 336.865 181.842 341.642L179.673 342.21C160.881 347.09 156.022 346.025 146.996 345.665C143.915 345.137 140.86 343.673 138.228 341.929L138.419 341.346Z" fill="#52684E"/>
<path d="M376.211 241.556C376.411 241.913 376.581 242.267 376.72 242.618C375.976 244.006 375.095 245.332 374.072 246.593C368.875 253 357.408 261.422 344.42 267.722L332.988 273.363C317.814 280.919 296.354 291.767 288.118 295.899L263.139 308.398C243.35 318.635 231.07 324.881 226.299 327.138C215.942 332.037 200.32 337.03 179.432 342.118C204.378 333.928 217.929 329.335 220.086 328.338C230.656 323.453 262.458 307.119 262.88 306.7C263.161 306.42 263.513 305.965 263.936 305.336C264.106 304.404 264.867 303.599 266.22 302.922L330.63 270.687L330.225 272.994L337.733 269.015C347.218 263.916 354.599 259.644 359.875 256.198C366.471 251.89 371.916 247.009 376.211 241.556Z" fill="#021405"/>
<path d="M136.279 339.015C137.862 339.279 139.151 339.338 140.144 339.191L142.977 338.632C144.398 338.329 146.296 337.908 148.671 337.37C150.004 338.017 151.256 338.466 152.361 338.599C153.347 338.718 154.593 338.808 156.129 338.821L150.178 340.697C147.139 341.63 143.944 342.575 143.002 342.742C141.11 343.078 137.419 341.054 136.907 340.27C136.566 339.747 136.356 339.329 136.279 339.015Z" fill="#7A9079"/>
<path d="M127.462 325.795C128.08 325.374 131.924 325.472 135.403 327.997C138.169 330.004 144.002 335.13 148.864 337.458L149.624 337.229L146.667 338.061C142.062 339.277 139.071 339.638 137.694 339.143L136.547 338.773C135.614 338.487 134.38 338.12 133.054 337.657C131.913 336.489 131.097 335.424 130.704 334.639L129.674 332.48C128.352 329.592 126.976 326.126 127.462 325.795Z" fill="#D5D0CD"/>
<path d="M134.698 329.252L135.81 330.55C137.043 332.044 138.637 334.124 140.593 336.79C139.694 337.75 138.851 338.57 138.065 339.249L137.694 339.142L136.547 338.772L134.028 337.985C133.711 337.881 133.385 337.771 133.054 337.656C131.913 336.488 131.097 335.423 130.704 334.638L129.674 332.479L128.769 330.42C128.192 329.047 127.698 327.735 127.481 326.857C129.93 326.912 133.368 327.774 134.698 329.252Z" fill="#C5BDB7"/>
<path d="M135.052 336.562L144.49 334.873C145.502 335.56 146.521 336.204 147.517 336.758L148.84 337.446L146.668 338.061L144.099 338.688C140.932 339.387 138.797 339.539 137.695 339.143L136.781 338.856L135.052 336.562Z" fill="#B1C5BE"/>
<path d="M130.952 333.373C131.891 332.794 134.624 334.717 136.948 337.063L137.57 337.712C139.679 339.986 144.57 343.814 149.882 345.817L148.44 345.729C144.915 344.531 141.381 342.347 139.433 340.641L137.446 338.82C135.161 336.663 132.82 334.312 132.432 334.297C132.104 334.285 131.353 334.371 130.651 334.547L130.159 333.522C130.476 333.554 130.739 333.504 130.952 333.373Z" fill="#EBEBEB"/>
<path d="M131.137 333.715C131.811 333.692 134.417 335.488 135.35 336.554L136.456 337.735C137.6 338.896 139.216 340.386 140.682 341.341L147.261 345.667L146.997 345.666C139.505 344.383 132.167 337.564 130.704 334.64L130.528 334.282C130.673 333.913 130.876 333.724 131.137 333.715Z" fill="#285D37"/>
<path d="M379.277 230.186C378.185 233.173 377.129 235.364 376.109 236.762C374.579 238.861 374.438 238.882 374.414 240.773C374.39 242.664 373.718 246.319 374.072 246.594C374.425 246.868 378.087 243.377 379.121 241.686C380.155 239.995 381.512 235.191 381.085 233.239C380.871 232.261 380.405 230.885 379.831 230.227C379.705 230.083 379.52 230.069 379.277 230.186Z" fill="#061D0F"/>
<path d="M373.428 227.969L375.848 225.86L375.775 225.801C376.512 226.32 377.131 226.864 377.631 227.431C377.171 228.186 375.446 230.243 374.376 231.044C373.191 231.93 375.538 229.494 376.37 228.015C377.202 226.535 373.81 229.152 372.226 229.693C371.494 229.942 371.895 229.368 373.428 227.969Z" fill="#224F2D"/>
<path d="M170.192 268.065C170.613 267.854 171.117 267.693 171.705 267.582C170.494 269.714 172.094 275.03 172.553 275.869C173.058 276.792 171.704 278.542 170.672 279.171C169.64 279.8 168.515 279.346 167.109 277.831C166.497 277.171 166.017 276.123 165.669 274.688C165.671 274.446 165.647 274.182 165.606 273.893L168.02 272.685L168.363 271.597C168.785 270.339 169.53 268.396 170.192 268.065ZM195.169 242.758L196.541 241.978L195.705 242.592C194.451 243.572 190.195 254.31 189.949 255.74C189.702 257.17 189.669 261.312 189.402 261.896C189.135 262.48 187.859 262.857 187.424 262.886C186.989 262.915 185.538 261.378 185.206 259.757C184.98 258.653 185.312 255.718 185.708 253.575L185.844 253.436C186.256 251.866 186.905 250.431 187.79 249.129L188.669 247.999C189.074 247.491 189.533 247.015 190.032 246.561C191.82 244.932 193.564 243.714 195.169 242.758ZM211.296 226.058L211.105 226.263C206.091 231.707 205.554 240.558 205.843 242.876L205.906 243.232C206.356 244.968 205.15 246.295 204.541 246.386C203.932 246.477 202.375 245.706 201.73 244.441C201.085 243.176 201.464 240.632 201.734 237.979C201.826 237.075 202.192 235.878 202.605 234.722C203.729 232.25 205.076 230.324 206.64 228.936C207.902 227.813 209.455 226.854 211.296 226.058ZM225.812 209.645L225.741 209.737C224.405 211.348 222.162 215.116 221.507 216.483C220.807 217.945 220.397 220.889 220.752 223.302L220.952 224.298C221.619 226.836 220.554 228.577 219.641 229.016C218.728 229.455 216.841 227.998 215.99 226.781C215.553 226.156 215.442 224.689 215.52 223.14L214.877 224.811C216.078 221.428 217.821 218.098 220.106 214.822C221.854 212.318 223.756 210.592 225.812 209.645ZM231.521 196.463L232.103 195.989C232.544 195.657 232.886 195.457 232.768 195.788L232.482 196.668C231.958 198.366 230.997 201.819 231.312 202.786C231.705 203.994 233.354 206.704 234.091 208.339C234.827 209.975 234.594 211.007 233.624 211.573C232.654 212.139 230.698 211.65 229.78 210.827C229.106 210.223 228.304 209.172 227.801 208.167L227.754 208.992C227.907 206.588 228.166 204.845 228.533 203.762L229.601 201.236C230.089 200.057 230.729 198.466 231.521 196.463ZM233.438 178.022C233.496 178.16 233.481 178.308 233.361 178.452C232.793 179.135 234.324 181.798 235.749 183.388C237.174 184.978 237.702 187.173 238.42 188.726C239.138 190.278 237.393 191.616 236.25 192.174C235.459 192.561 233.705 190.668 232.492 188.99L230.868 185.739C230.088 184.181 231.489 179 231.489 179L233.438 178.022Z" fill="#489056"/>
<path d="M239.627 168.921C238.759 169.476 238.333 169.848 238.349 170.037C238.426 170.983 238.635 171.746 238.976 172.327C239.641 173.457 245.526 180.619 246.254 181.958C246.982 183.297 249.05 186.102 248.974 186.631C248.898 187.161 248.432 190.044 247.708 190.405C246.984 190.766 243.277 191.526 241.121 192.211C238.965 192.896 233.243 194.524 232.417 194.918C231.591 195.312 230.478 196.252 230.487 195.884C230.496 195.515 230.789 191.323 231.045 191.03C231.301 190.737 233.228 189.649 234.442 189.079C235.655 188.509 241.704 186.361 241.856 186.148C242.008 185.935 242.143 185.455 240.471 182.887C238.8 180.32 236.685 175.687 236.325 175.097C235.965 174.507 235.903 173.888 236.078 173.265C236.253 172.642 237.097 169.967 237.315 169.639C237.46 169.42 238.231 169.181 239.627 168.921Z" fill="#A0B1EF"/>
<path d="M232.604 190.033L231.885 193.96L234.72 193.173L245.457 190.06L246.793 189.058L247.605 186.724L248.954 186.727L248.731 187.963C248.512 188.969 248.161 190.179 247.708 190.405C247.064 190.725 244.064 191.362 241.891 191.98L234.014 194.364C233.232 194.611 232.642 194.81 232.417 194.917C231.59 195.311 230.478 196.251 230.487 195.883L230.639 193.804C230.749 192.558 230.902 191.192 231.045 191.029L231.436 190.731C231.727 190.538 232.146 190.289 232.604 190.033Z" fill="#6B5FA5"/>
<path d="M236.033 174.387L237.095 171.183L239.43 175.138L242.792 177.416L243.481 178.205L245.45 180.782C245.709 181.135 245.923 181.436 246.074 181.667L246.898 183.028C247.793 184.432 249.031 186.22 248.972 186.633L248.929 186.869L248.291 186.884L247.664 188.956L246.534 189.334L247.089 186.352L238.729 174.896L237.41 177.26L236.438 175.306L236.323 175.098C236.181 174.864 236.086 174.627 236.033 174.387Z" fill="#102546"/>
<path d="M234.441 189.079C235.542 188.562 240.626 186.745 241.67 186.254L241.917 186.356L242.219 185.705C242.319 185.519 242.585 185.292 243.017 185.024L243.728 184.618C244.209 184.361 244.635 184.166 244.588 184.238C244.517 184.346 243.168 184.821 243.129 185.249C243.09 185.677 243.858 186.091 244.249 186.095C244.64 186.099 245.87 185.523 245.69 185.126C245.974 185.378 246.43 186.415 246.387 187.1C246.344 187.785 246.344 188.263 245.782 188.685L245.286 189.093C244.846 189.438 244.303 189.712 243.384 189.287C242.526 188.89 242.053 188.125 241.965 186.99L235.071 189.281L234.312 190.161L233.906 191.63L233.22 192.533C233.129 192.908 233.131 193.098 233.225 193.105L234.551 192.847C234.788 192.806 234.954 192.789 234.932 192.833C234.864 192.966 232.104 194.091 232.11 193.847L232.625 191.487C232.739 190.998 232.871 190.434 233.022 189.795C233.515 189.535 234.021 189.276 234.441 189.079Z" fill="#2E5860"/>
<path d="M245.014 172.21C244.716 171.328 243.757 171.287 242.805 171.966C241.853 172.645 242.121 173.501 242.368 173.917C242.615 174.333 243.234 175.255 244.163 174.61C245.092 173.964 245.312 173.092 245.014 172.21Z" fill="#251A1A"/>
<path d="M376.066 237.069C375.691 237.718 370.608 243.692 365.587 247.999C360.566 252.306 348.485 259.944 332.678 268.163C316.871 276.382 282.793 293.128 280.181 294.435C277.569 295.742 265.884 301.76 264.868 302.524C263.852 303.289 258.05 305.293 252.902 305.578C248.885 305.841 243.723 308.871 240.824 310.431C237.925 311.991 220.331 320.99 207.845 326.179C195.361 331.369 187.802 333.501 172.723 337.297C157.644 341.093 151.256 339.318 148.533 337.942C146.717 337.025 143.613 334.71 139.221 330.996C145.242 335.122 148.793 337.365 149.873 337.727C150.915 338.076 154.054 339.503 162.075 338.504C166.177 337.993 173.185 336.696 177.44 335.47C189.362 332.035 196.552 330.021 208.833 324.906C221.115 319.791 236.602 311.843 241.144 309.514C245.686 307.185 249.099 305.721 253.819 305.118C258.539 304.515 262.638 303.065 266.139 301.005C269.639 298.945 280.821 293.232 286.334 290.473C291.847 287.714 336.275 265.271 337.984 264.416C339.693 263.561 352.036 257.063 359.978 251.157C367.92 245.251 375.499 237.696 378.851 232.062L377.949 234.524C376.944 235.788 376.316 236.636 376.066 237.069Z" fill="#061D0F"/>
<path d="M254.583 170.094C268.772 183.201 278.752 191.844 284.523 196.022C293.18 202.29 297.43 201.433 299.573 200.649C301.715 199.865 306.378 197.54 308.395 189.942C309.74 184.877 310.011 176.741 309.208 165.535C306.491 177.546 303.685 184.827 300.789 187.377C296.446 191.202 293.696 192.439 287.219 190.053C282.9 188.462 272.022 181.809 254.583 170.094Z" fill="#E2DEDA"/>
<path d="M313.12 160.743C315.69 155.277 317.121 152.303 317.413 151.821C317.609 151.906 317.859 151.988 318.162 152.068C315.917 156.571 314.52 159.521 313.97 160.917C313.943 160.932 313.659 160.874 313.12 160.743Z" fill="#426F4A"/>
</g>
<defs>
<clipPath id="clip0_5_2">
<rect width="458.9" height="458.9" fill="white"/>
</clipPath>
</defs>
</svg>
