<svg width="459" height="459" viewBox="0 0 459 459" fill="none" xmlns="http://www.w3.org/2000/svg">
<g clip-path="url(#clip0_7_345)">
<path d="M300.983 136.078C303.388 132.59 307.306 133.115 309.625 135.839C311.944 138.563 312.063 141.655 311.407 144.762L310.558 148.876C310.048 151.499 309.62 154.163 309.851 155.033C310.214 156.401 312.065 161.52 313.341 163.331C314.617 165.141 318.674 167.671 319.893 169.174L321.988 171.959C322.965 173.237 323.956 174.401 324.531 174.476C325.27 174.573 326.077 173.708 326.641 172.975L327.181 172.228C327.629 171.593 329.479 169.281 330.363 169.271C331.247 169.261 332.341 171.094 332.992 172.248C333.643 173.402 336.542 174.894 337.234 176.713C337.926 178.532 340.266 180.743 341.462 182.218C342.658 183.693 343.509 185.065 343.17 185.853C342.83 186.64 341.741 187.757 342.051 188.206C342.361 188.655 349.401 194.39 350.087 195.207C350.545 195.751 350.974 197.092 351.375 199.231C350.583 200.327 349.952 200.979 349.482 201.187C348.948 201.424 345.197 198.204 342.032 195.411L339.309 192.996L337.718 191.636C333.15 187.802 323.158 179.75 319.674 175.987L315.888 171.759C312.61 168.033 307.823 162.493 301.527 155.138C299.988 152.877 298.979 150.409 298.499 147.735C297.779 143.721 298.578 139.566 300.983 136.078ZM301.141 145.743C302.597 150.029 306.523 155.108 307.369 154.816C308.215 154.524 308.161 152.363 308.335 150.166L308.661 146.99C308.78 145.45 308.771 143.774 308.255 142.108C307.352 139.194 305.737 137.478 303.629 138.038C301.521 138.598 299.685 141.456 301.141 145.743Z" fill="#0B0B0B"/>
<path d="M177.467 275.756C179.584 273.591 180.725 272.204 180.892 271.595C181.142 270.681 181.868 269.342 182.932 268.365C183.996 267.388 185.661 265.714 187.032 263.136C188.403 260.558 192.816 252.776 195.161 250.021C196.724 248.184 198.517 246.15 200.539 243.918C200.316 242.471 200.347 241.481 200.634 240.949C200.921 240.417 201.754 239.999 203.134 239.698C202.52 236.265 202.566 233.935 203.271 232.708C203.976 231.481 204.649 231.144 205.289 231.698C205.925 231.062 206.644 230.702 207.446 230.618C208.65 230.493 210.805 227.997 211.146 226.97C211.487 225.943 210.443 223.854 210.219 222.01C209.995 220.166 211.67 218.405 212.655 217.773C213.312 217.352 215.109 217.159 218.045 217.193L218.098 216.179C216.082 214.241 214.954 212.834 214.715 211.958C214.476 211.082 214.965 210.022 216.181 208.777C216.443 207.452 216.826 206.575 217.331 206.147C217.836 205.719 218.326 205.473 218.801 205.412C219.264 204.872 219.111 203.587 218.341 201.558C217.186 198.513 217.155 194.191 216.38 192.432C215.605 190.673 213.551 183.299 212.729 182.026C211.907 180.753 211.796 178.535 211.769 178.116C211.742 177.697 210.256 175.575 209.964 174.51C209.673 173.445 209.821 171.126 210.361 171.097C210.901 171.068 214.242 170.328 219.862 171.58C225.482 172.832 232.303 177.753 235.383 181.032C238.463 184.311 244.054 192.273 244.849 193.779C245.644 195.285 251.453 205.289 253.331 210.728C255.209 216.167 259.782 244.629 260.405 248.259C260.82 250.679 261.64 255.97 262.863 264.134L251.174 273.775C239.491 270.236 227.837 268.347 216.211 268.108C204.589 267.866 191.673 270.416 177.467 275.756Z" fill="#351220"/>
<path d="M213.019 177.395L213.973 177.402C217.061 177.46 226.639 178.241 230.635 184.173L233.123 187.904C235.825 192.021 237.845 195.4 239.384 198.965L240.309 201.198C242.399 206.379 245.772 215.367 247.572 219.3L248.543 221.365C251.209 227.337 258.802 246.867 257.67 248.672C256.444 250.628 241.126 264.108 237.963 264.926C234.944 265.706 232.641 264.656 237.206 259.448L237.906 258.675C243.067 253.144 248.929 244.862 250.321 242.253L251.237 240.374C252.194 238.315 252.909 235.443 247.702 232.606C241.519 229.237 232.984 227.106 230.646 225.652L230.264 225.37C228.692 223.912 219.78 221.916 220.183 220.767C220.585 219.618 220.823 216.126 220.623 215.222C220.489 214.62 219.278 212.937 216.989 210.172L216.454 207.708C216.689 206.966 216.983 206.445 217.337 206.145C217.842 205.717 218.332 205.471 218.807 205.41C219.27 204.87 219.117 203.585 218.347 201.556C217.192 198.511 217.161 194.189 216.386 192.43C215.682 190.831 213.92 184.591 212.988 182.514L212.735 182.024C211.913 180.751 211.802 178.533 211.775 178.114C211.768 178.001 211.655 177.765 211.488 177.46C211.911 177.42 212.424 177.399 213.019 177.395Z" fill="#6F374E"/>
<path d="M215.498 183.812C215.047 184.852 218.156 186.71 220.846 185.017C223.536 183.324 223.668 180.685 221.932 180.014C220.196 179.343 215.948 182.772 215.498 183.812Z" fill="#915970"/>
<path d="M218.701 192.94C218.25 193.98 222.292 195.881 224.775 194.862C227.258 193.843 227.248 190.086 225.788 188.718C224.328 187.35 219.152 191.9 218.701 192.94Z" fill="#915970"/>
<path d="M222.485 202.221C222.55 203.883 225.869 205.811 228.352 204.792C230.835 203.773 230.532 199.683 229.072 198.315C227.612 196.947 222.42 200.559 222.485 202.221Z" fill="#915970"/>
<path d="M242.18 224.069C238.339 224.498 238.728 222.23 235.946 220.39C233.634 218.861 234.415 216.319 232.445 216.579C229.869 216.918 228.806 216.921 226.778 215.709C224.339 214.252 224.669 212.807 223.775 211.644C221.433 208.6 219.554 212.433 218.618 211.044C218.218 210.45 219.823 207.982 222.939 207.118C226.572 206.111 232.309 206.13 232.275 206.04C230.984 202.63 230.555 199.441 230.421 198.257C230.254 196.777 230.488 196.591 230.85 192.434C231.022 190.456 230.28 185.361 226.289 181.885C221.616 177.815 214.504 176.117 215.115 176.155C216.072 176.215 223.689 175.966 228.766 179.821C235.254 184.747 239.402 194.087 239.63 194.736C240.247 196.494 246.021 223.64 242.18 224.069Z" fill="#421A2C"/>
<path d="M210.365 171.095L211.992 170.915C213.582 170.792 216.253 170.773 219.866 171.578C225.486 172.83 232.307 177.751 235.387 181.03C238.261 184.09 243.324 191.23 244.633 193.393L248.375 200.187C250.246 203.687 252.342 207.846 253.336 210.725C253.567 211.395 253.84 212.415 254.141 213.695L253.616 214.663C252.333 217.425 248.145 218.3 247.672 216.659L247.032 214.709C245.768 211.01 243.124 203.672 242.21 201.755C241.067 199.359 233.85 188.964 230.303 184.024C226.756 179.084 219.389 177.267 216.147 176.881C214.638 176.701 213.094 176.907 211.512 177.499L210.659 176.002C210.355 175.454 210.078 174.907 209.969 174.507C209.676 173.443 209.825 171.124 210.365 171.095Z" fill="#380A1D"/>
<path d="M210.365 171.095L211.992 170.915L213.385 170.853C214.977 170.833 217.156 170.974 219.866 171.578C225.486 172.83 232.307 177.751 235.387 181.03C238.261 184.09 243.324 191.23 244.633 193.393L245.895 195.693C238.955 186.225 233.19 180.079 228.6 177.256C223.488 174.111 217.238 172.535 209.85 172.527C209.905 171.758 210.081 171.11 210.365 171.095Z" fill="#653348"/>
<path d="M251.91 237.894L254.539 236.603L255.587 239.622C257.124 244.187 258.135 247.93 257.67 248.672C256.444 250.628 241.126 264.108 237.963 264.926C234.944 265.706 232.641 264.656 237.206 259.448L237.906 258.675C243.067 253.144 248.929 244.862 250.321 242.253L251.237 240.374C251.578 239.639 251.889 238.799 251.91 237.894Z" fill="#4C2435"/>
<path d="M134.143 338.048C132.059 333.427 130.996 330.304 130.954 328.679C130.891 326.242 132.725 322.498 141.264 313.748C149.802 304.998 169.922 285.39 173.029 281.029C174.515 278.237 174.919 276.76 176.603 275.097C178.287 273.434 189.985 268.673 193.843 267.221C197.701 265.768 208.241 263.878 220.595 264.593C228.831 265.07 239.691 267.258 253.178 271.158C236.711 289.324 222.497 301.925 210.534 308.961C192.59 319.515 164.104 331.463 155.517 334.775C149.79 336.983 142.666 338.074 134.143 338.048Z" fill="#E6E4E7"/>
<path d="M193.842 267.222C196.209 266.331 201.092 265.274 207.366 264.756L208.438 262.998C201.52 274.837 191.791 285.726 179.252 295.665L176.158 298.096C160.971 309.919 142.713 322.468 135.279 320.352C136.514 318.834 138.075 317.076 140.037 315.019L143.26 311.717C152.589 302.275 170.144 285.08 173.028 281.03C174.514 278.238 174.918 276.761 176.602 275.098C178.286 273.435 189.984 268.674 193.842 267.222Z" fill="#F5F3F6"/>
<path d="M186.401 274.523C192.299 272.507 204.453 269.547 212.469 269.572C220.485 269.597 230.729 270.881 232.72 271.329C234.639 271.761 243.222 277.887 244.278 280.689C231.517 293.804 220.277 303.229 210.532 308.961C192.588 319.515 164.102 331.463 155.515 334.775C149.79 336.983 142.666 338.074 134.143 338.048L133.015 335.455C131.675 332.237 130.988 329.979 130.954 328.679C130.916 327.222 131.557 325.297 133.905 322.113C134.519 324.206 136.905 324.893 141.064 324.176C151.161 322.435 189.821 304.812 205.785 295.776L208.305 294.069C215.849 288.837 204.579 271.713 202.149 271.915C198.097 272.253 190.047 273.337 186.401 274.523Z" fill="#D4D1D5"/>
<path d="M139.719 328.667C145.001 328.21 168.629 320.367 177.967 316.572L179.985 315.714C187.276 312.419 198.101 309.276 203.718 311.151C204.522 311.419 204.203 312.123 203.042 313.139L199.07 315.214C182.245 323.843 162.43 332.108 155.515 334.775C149.79 336.983 142.666 338.074 134.143 338.048L133.015 335.455C131.675 332.237 130.988 329.979 130.954 328.679C130.93 327.771 131.17 326.682 131.922 325.22C133.176 326.866 135.602 329.023 139.719 328.667Z" fill="#BEBBC0"/>
<path d="M193.053 267.523L193.842 267.222C197.7 265.769 208.24 263.879 220.594 264.594C227.898 265.017 237.267 266.786 248.702 269.901C247.972 270.925 246.729 271.997 244.991 273.121L240.643 271.817C230.201 268.755 222.962 267.174 218.926 267.074L193.053 267.523Z" fill="#BFBAC2"/>
<path d="M174.154 278.798L175.192 278.245C181.194 275.048 189.816 271.008 195.788 269.825C204.746 268.05 216.235 267.546 223.715 268.434C228.037 268.947 235.129 270.509 244.99 273.12L249.738 274.399L249.387 275.282L246.482 278.366L242.809 276.381C233.787 271.988 215.958 270.921 209.246 271.022C202.533 271.123 192.618 272.553 183.259 276.095C179.701 277.442 176.376 278.919 173.285 280.527L174.154 278.798Z" fill="#8F8F91"/>
<path d="M259.247 267.87C254.967 259.283 252.307 251.947 251.269 245.863C249.711 236.736 251.124 213.376 251.364 206.774C251.604 200.172 253.449 193.415 259.196 190.339C264.943 187.263 271.393 187.52 278.765 188.386C286.137 189.252 295.406 187.04 299.679 182.798C303.952 178.556 303.964 172.679 302.605 166.775C301.246 160.87 299.566 155.81 300.622 153.869C301.678 151.928 305.958 156.319 306.855 157.848C307.453 158.867 309.426 161.626 312.774 166.124C320.456 174.36 324.559 178.736 325.082 179.253C325.867 180.029 334.058 186.29 334.85 187.125C335.378 187.682 340.6 192.524 350.518 201.65C339.435 206.779 332.509 210.245 329.739 212.049C325.584 214.755 310.395 235.332 302.262 241.186C294.129 247.04 275.122 254.436 271.569 256.546C269.199 257.954 265.092 261.728 259.247 267.87Z" fill="#C5D5C9"/>
<path d="M266.229 203.159C270.302 200.534 288.581 201.267 293.525 208.945C295.842 212.544 295.384 229.295 292.19 246.949L287.632 249.143C280.509 252.477 273.574 255.355 271.568 256.546C269.199 257.953 265.093 261.727 259.247 267.869C254.967 259.282 252.307 251.946 251.269 245.862C250.244 239.855 250.971 228.008 251.338 218.506L252.399 215.491C263.573 224.574 271.297 231.5 273.308 226.458C276.689 217.981 262.156 205.784 266.229 203.159Z" fill="#B1C9B9"/>
<path d="M306.739 157.681L307.65 159.069C308.63 160.5 310.338 162.852 312.773 166.123L325.081 179.252L326.46 180.399C328.802 182.274 333.305 185.756 334.571 186.866L350.516 201.65L345.761 203.868C343.259 204.315 341.381 204.515 340.132 204.466L339.56 204.421C336.275 204.004 324.892 204.946 321.027 205.577L318.137 206.158C316.008 206.642 314.207 207.361 314.26 209.536C314.307 211.469 315.321 214.765 317.302 219.426L313.361 220.766C296.853 226.25 287.765 227.538 286.095 224.631C283.399 219.934 276.71 215.216 268.764 214.352C261.447 213.557 254.32 214.137 251.101 212.43L251.363 206.774C251.495 203.146 252.111 199.471 253.593 196.386L259.701 196.751C269.98 197.277 288.574 197.674 296.06 193.42C305.963 187.793 310.149 180.05 309.239 173.311L308.635 169.157C308.156 166.036 307.524 162.211 306.739 157.681Z" fill="#A1AEA5"/>
<path d="M305.207 155.839L305.826 157.623C306.41 159.34 306.843 160.782 307.126 161.949L307.31 162.773C307.856 165.477 310.592 172.972 308.83 179.057C307.068 185.142 301.909 191.558 293.138 193.476C284.994 195.257 279.645 194.171 275.271 193.904L274.278 193.859C269.717 193.73 264.538 191.685 261.947 195.372C259.356 199.059 257.251 206.965 256.626 210.683C256.001 214.402 256.645 227.089 257.575 234.467C258.195 239.385 258.89 243.988 259.659 248.274L254.056 252.635L251.215 245.513L251.268 245.862C249.71 236.735 251.123 213.375 251.363 206.773C251.603 200.171 253.448 193.414 259.195 190.338C264.942 187.262 271.392 187.519 278.764 188.385C286.136 189.251 295.405 187.039 299.678 182.797C303.951 178.555 303.963 172.678 302.604 166.774L301.067 160.465C300.357 157.438 299.971 155.063 300.62 153.868C301.344 152.538 303.581 154.181 305.207 155.839Z" fill="#BDC7C0"/>
<path d="M259.168 201.215L259.034 201.57C258.001 204.516 257.409 211.223 256.984 213.412C253.156 213.05 252.081 212.483 252.827 214.094C253.37 215.265 254.126 215.257 256.427 218.817C256.578 223.926 257.027 230.119 257.575 234.467C258.195 239.385 258.89 243.988 259.659 248.274L253.25 254.549L251.217 245.529L251.074 244.533C249.837 234.647 251.135 213.076 251.363 206.774C251.466 203.948 251.862 201.093 252.734 198.511C255.515 198.503 257.656 199.407 259.168 201.215Z" fill="#94A296"/>
<path d="M302.338 153.615L302.492 154.056C303.139 156.127 303.686 159.105 304.311 162.818C305.115 167.592 305.591 172.908 304.05 177.843C302.508 182.777 297.628 186.807 294.285 188.409C291.22 189.878 286.81 190.698 280.311 190.31L278.486 190.174C270.975 189.507 264.422 189.378 261.128 190.919C257.834 192.46 255.973 194.465 254.9 196.623L253.979 198.579C253.358 199.944 252.553 201.772 251.566 204.064C252.179 198.397 254.232 192.995 259.195 190.338C264.942 187.262 271.392 187.519 278.764 188.385C286.136 189.251 295.405 187.039 299.678 182.797C303.951 178.555 303.963 172.678 302.604 166.774L301.067 160.465C300.357 157.438 299.971 155.063 300.62 153.868C300.948 153.266 301.586 153.273 302.338 153.615Z" fill="#E1E1E1"/>
<path d="M264.687 260.36C257.432 247.147 251.642 237.507 247.315 231.441C240.825 222.342 231.098 209.823 230.541 208.799C229.984 207.774 233.159 199.392 234.286 196.536C235.037 194.632 236.995 193.914 240.157 194.381C245.722 194.368 249.473 194.404 251.408 194.491C253.343 194.578 258.439 195.115 266.694 196.102C272.275 196.94 275.152 197.51 275.326 197.81C275.586 198.261 275.596 209.424 274.995 210.161C274.394 210.899 263.32 210.018 260.951 209.331C258.583 208.643 252.538 208.099 251.198 208.684C249.858 209.269 248.811 210.855 250.647 213.727C252.483 216.599 272.486 244.037 275.505 248.407C277.518 251.321 278.39 253.064 278.122 253.636L264.687 260.36Z" fill="#E7E4E7"/>
<path d="M240.158 194.381L245.965 194.389C248.022 194.402 249.624 194.428 250.774 194.467L251.409 194.492C253.344 194.579 258.44 195.116 266.695 196.103L269.079 196.471C273.097 197.11 275.18 197.557 275.327 197.812C275.587 198.263 275.597 209.426 274.996 210.164C274.432 210.855 264.664 210.125 261.494 209.464L260.953 209.333C258.585 208.645 252.54 208.101 251.2 208.686C249.86 209.271 248.813 210.857 250.649 213.729L252.826 216.862C254.298 218.936 256.353 221.797 258.635 224.965C254.337 224.502 246.438 222.747 239.744 221.129L231.126 209.651C230.812 209.217 230.611 208.925 230.543 208.801C229.986 207.776 233.161 199.394 234.288 196.538C235.038 194.632 236.995 193.914 240.158 194.381Z" fill="#D9D5D9"/>
<path d="M237.723 217.395C242.296 218.264 245.147 218.664 246.276 218.595C251.263 218.292 251.057 216.413 250.779 215.91C249.634 213.84 246.525 208.926 250.753 208.219C260.228 206.634 261.548 208.297 264.396 208.569C267.244 208.841 275.005 198.251 268.356 197.097C261.707 195.943 247.615 194.993 244.79 195.216C241.965 195.439 238.104 194.67 236.568 195.469C235.032 196.269 230.633 206.418 230.92 207.405C231.111 208.062 233.379 211.392 237.723 217.395Z" fill="#D1C8CD"/>
<path d="M238.583 202.574C241.717 204.73 241.499 217.176 239.397 217.312C237.995 217.403 236.244 215.931 234.144 212.896C231.771 209.539 231.328 208.594 231.187 208.112C231.043 207.617 235.449 200.418 238.583 202.574Z" fill="#AFA3AA"/>
<path d="M237.589 203.882C237.726 205.568 238.153 205.985 239.189 205.02C240.225 204.056 238.981 202.296 238.498 202.048C238.015 201.799 237.452 202.196 237.589 203.882Z" fill="#4F4F4E"/>
<path d="M261.337 204.342C261.579 205.878 262.175 206.759 263.127 206.986L266.14 207.697C268.89 208.317 272.492 209.029 273.161 208.619L274.286 207.865C274.464 207.756 274.604 207.702 274.722 207.73L274.886 207.839C275.19 208.196 280.985 210.736 282.897 213.75C284.172 215.759 284.856 217.385 284.951 218.627C284.404 217.82 283.887 217.082 283.4 216.414L283.104 215.814C281.629 213.047 279.431 211.267 276.511 210.475L275.497 209.732C275.192 209.576 275.368 208.027 274.906 208.552C274.444 209.077 274.616 210.064 272.654 210.006C270.693 209.947 262.835 208.121 261.908 207.738C261.292 207.483 261.101 206.351 261.337 204.342Z" fill="#F1F1F1"/>
<path d="M313.294 166.189C313.5 166.163 322.928 176.198 323.097 176.582C323.209 176.839 323.339 177.098 323.487 177.361C324.032 177.636 324.388 177.954 324.555 178.315C324.805 178.857 323.682 183.172 323.946 184.413C324.21 185.654 326.49 186.374 328.485 186.168C330.481 185.962 332.027 185.383 332.742 185.556C333.219 185.671 333.746 185.9 334.325 186.243C334.716 186.631 335.092 186.873 335.453 186.971C335.994 187.118 345.198 195.046 346.323 196.39C347.073 197.286 348.374 199.38 350.225 202.672L346.906 204.461C342.138 203.21 338.262 202.59 335.276 202.601C330.797 202.618 321.228 203.225 318.512 203.733C315.797 204.241 312.158 206.301 312.06 209.086C311.995 210.943 313.772 215.054 317.393 221.421L301.156 241.208C298.817 244.024 292.235 247.997 281.41 253.126C279.957 243.584 280.053 236.167 281.697 230.875L283.501 225.281C284.096 223.365 284.457 221.87 284.443 220.424C286.618 220.383 289.046 220.201 291.711 219.88C304.129 218.383 300.857 205.004 296.913 201.677C295.116 200.161 289.848 197.971 281.111 195.107L284.829 195.502C285.583 195.574 286.279 195.633 286.893 195.673C292.128 196.02 300.008 194.429 303.67 192.458C307.332 190.487 312.742 184.938 312.937 180.081C313.132 175.224 311.758 170.821 312.122 168.889C312.488 166.957 313.088 166.214 313.294 166.189Z" fill="#D4CED6"/>
<path d="M313.294 166.189C313.5 166.163 322.928 176.198 323.097 176.582C323.209 176.839 323.339 177.098 323.487 177.361C324.032 177.636 324.388 177.954 324.555 178.315C324.805 178.857 323.682 183.172 323.946 184.413C324.21 185.654 326.49 186.374 328.485 186.168C330.481 185.962 332.027 185.383 332.742 185.556C333.219 185.671 333.746 185.9 334.325 186.243C334.716 186.631 335.092 186.873 335.453 186.971C335.994 187.118 345.198 195.046 346.323 196.39C347.073 197.286 348.374 199.38 350.225 202.672L346.906 204.461C342.138 203.21 338.262 202.59 335.276 202.601C330.797 202.618 321.228 203.225 318.512 203.733C316.774 204.058 314.659 205.019 313.335 206.398C309.871 202.834 306.589 199.264 303.483 195.691C302.858 194.972 302.356 194.146 301.979 193.216C302.624 192.975 303.185 192.72 303.671 192.459C307.333 190.489 312.743 184.939 312.938 180.082C313.133 175.225 311.759 170.822 312.123 168.89C312.488 166.957 313.088 166.214 313.294 166.189Z" fill="#C5BEC7"/>
<path d="M313.294 166.189C313.5 166.163 322.928 176.198 323.097 176.582C323.209 176.839 323.339 177.098 323.487 177.361C324.032 177.636 324.388 177.954 324.555 178.315C324.805 178.857 323.682 183.172 323.946 184.413C324.21 185.654 326.49 186.374 328.485 186.168C330.481 185.962 332.027 185.383 332.742 185.556C333.219 185.671 333.746 185.9 334.325 186.243C334.716 186.631 335.092 186.873 335.453 186.971C335.994 187.118 345.198 195.046 346.323 196.39C347.073 197.286 348.374 199.38 350.225 202.672L346.906 204.461C342.734 203.366 339.245 202.754 336.437 202.626L335.019 202.601C327.415 195.073 319.65 188.933 311.724 184.18C312.428 182.829 312.883 181.428 312.938 180.081C313.133 175.224 311.759 170.821 312.123 168.889C312.488 166.957 313.088 166.214 313.294 166.189Z" fill="#B7B1BA"/>
<path d="M317.394 221.421L301.157 241.208C298.818 244.024 292.236 247.997 281.411 253.126C280.619 247.927 280.287 243.359 280.415 239.422L280.034 239.635C289.661 234.712 296.365 230.249 300.147 226.247L302.88 223.313C305.755 220.187 309.058 216.485 312.789 212.206C313.619 214.407 315.154 217.482 317.394 221.421ZM345.11 195.175L346.141 196.189C346.215 196.267 346.276 196.334 346.322 196.39C347.072 197.286 348.373 199.38 350.224 202.672L346.905 204.461C342.137 203.21 338.261 202.59 335.275 202.601L332.95 202.646C332.087 202.673 331.149 202.711 330.178 202.757C330.996 202.322 331.724 201.921 332.366 201.552L333.266 201.023C336.673 198.971 341.491 196.463 345.11 195.175Z" fill="#C6C2C8"/>
<path d="M278.874 211.435C281.318 212.341 283.966 214.071 284.968 217.923C286.472 223.702 283.997 226.248 282.65 233.411C281.303 240.575 285.16 250.104 285.529 250.613C285.58 250.683 285.548 250.879 285.447 251.157L281.411 253.124C279.958 243.582 280.054 236.165 281.698 230.873L282.627 227.98C284.498 222.281 285.341 220.009 283.104 215.813C282.148 214.02 280.889 212.641 279.327 211.678L278.874 211.435Z" fill="#B2AFB3"/>
<path d="M313.294 166.189C313.332 166.184 313.691 166.528 314.25 167.094C313.78 167.645 313.546 168.46 313.557 169.544C313.58 171.915 314.341 178.176 313.917 180.819C313.493 183.463 309.926 188.826 306.536 191.675C303.146 194.524 295.207 196.312 291.443 196.613C288.934 196.814 280.856 196.114 275.018 195.537L268.918 194.892C266.451 194.597 265.778 194.644 265.166 195.504C264.758 196.077 264.286 197.23 263.748 198.963C263.782 196.631 264.157 195.115 264.873 194.415C265.114 194.179 265.682 193.944 266.577 193.708L266.758 193.706C270.594 193.671 281.658 195.327 286.893 195.673C292.128 196.02 300.008 194.429 303.67 192.458C307.332 190.487 312.742 184.938 312.937 180.081C313.132 175.224 311.758 170.821 312.122 168.889C312.488 166.957 313.088 166.214 313.294 166.189Z" fill="#F1F1F1"/>
<path d="M315.043 204.206C318.168 202.479 329.97 201.391 334.022 201.537C337.805 201.673 345.649 203.039 347.706 203.746L347.999 203.87L346.906 204.461C342.138 203.21 338.262 202.59 335.276 202.601C330.797 202.618 321.228 203.225 318.512 203.733C315.797 204.241 312.158 206.301 312.06 209.086C311.999 210.806 313.521 214.462 316.624 220.052L315.777 220.256C313.454 216.489 312.006 213.458 311.434 211.164C310.575 207.723 311.919 205.932 315.043 204.206ZM323.097 176.582C323.209 176.839 323.339 177.098 323.487 177.361C324.032 177.636 324.388 177.954 324.555 178.315C324.805 178.857 323.682 183.172 323.946 184.413C324.21 185.654 326.49 186.374 328.485 186.168C330.481 185.962 332.027 185.383 332.742 185.556C332.993 185.617 333.259 185.709 333.538 185.833C332.338 186.149 331.113 186.432 329.873 186.701C326.934 187.338 324.343 186.624 323.45 185.258C322.557 183.891 323.473 179.487 323.298 178.084L323.056 176.533L323.097 176.582Z" fill="#DDDDDD"/>
<path d="M191.128 267.045C190.291 267.036 189.787 264.247 191.642 261.459C193.498 258.671 194.87 257.411 195.59 254.93C196.31 252.45 195.683 251.828 198.769 248.776C201.855 245.724 206.942 236.662 207.246 236.906C207.55 237.15 216.733 249.385 216.995 256.387C217.257 263.389 215.88 263.125 215.181 263.16C214.482 263.195 204.23 262.58 200.664 263.696C197.099 264.812 191.965 267.054 191.128 267.045Z" fill="#712E3D"/>
<path d="M220.353 183.759C218.481 184.937 215.124 184.248 214.484 182.864C213.844 181.48 214.976 179.989 216.31 178.933C217.644 177.878 220.237 177.057 221.282 178.343C222.326 179.628 222.224 182.581 220.353 183.759Z" fill="#421A2C"/>
<path d="M223.909 193.304C221.595 194.658 218.856 194.342 218.04 192.409C217.224 190.476 218.231 189.17 219.564 188.114C220.897 187.058 223.807 185.878 224.988 187.211C226.17 188.544 226.223 191.95 223.909 193.304Z" fill="#421A2C"/>
<path d="M227.853 203.391C225.539 204.745 222.853 203.443 222.254 201.994C221.655 200.545 222.756 198.872 224.604 197.689C226.452 196.507 228.563 196.775 229.18 198.534C229.796 200.294 230.167 202.037 227.853 203.391Z" fill="#421A2C"/>
<path d="M201.098 250.781C198.499 252.499 198.018 254.84 198.282 255.699C198.546 256.558 200.638 257.049 203.073 255.747C205.507 254.445 203.697 249.063 201.098 250.781Z" fill="#190912"/>
<path d="M221.108 183.204C221.839 182.406 221.679 180.723 220.862 180.139C220.045 179.555 218.502 179.492 217.935 180.63C217.368 181.768 217.019 182.845 217.846 183.433C218.673 184.02 220.378 184.002 221.108 183.204Z" fill="#091118"/>
<path d="M225.125 193.76C225.856 192.962 225.696 191.279 224.879 190.695C224.062 190.111 222.519 190.048 221.952 191.186C221.385 192.324 221.036 193.401 221.863 193.989C222.69 194.576 224.395 194.558 225.125 193.76Z" fill="#091118"/>
<path d="M228.854 204.236C229.585 203.438 229.425 201.755 228.608 201.171C227.791 200.587 226.248 200.524 225.681 201.662C225.114 202.8 224.765 203.877 225.592 204.465C226.419 205.052 228.124 205.034 228.854 204.236Z" fill="#091118"/>
<path d="M231.312 215.256C232.043 214.458 231.883 212.775 231.066 212.191C230.249 211.607 228.706 211.544 228.139 212.682C227.572 213.82 227.223 214.897 228.05 215.485C228.877 216.072 230.581 216.054 231.312 215.256Z" fill="#091118"/>
<path d="M234.462 224.27C235.193 223.472 235.033 221.789 234.216 221.205C233.399 220.621 230.497 220.544 229.93 221.681C229.363 222.819 230.373 223.911 231.2 224.498C232.027 225.086 233.732 225.068 234.462 224.27Z" fill="#091118"/>
<path d="M235.47 227.481C234.679 226.484 226.908 221.882 224.01 221.117C221.112 220.352 215.342 218.793 214.082 219.339C212.822 219.885 211.939 220.625 211.755 221.793C211.571 222.961 211.725 225.261 212.509 225.457C213.293 225.652 213.685 222.341 215.554 222.281C217.424 222.221 227.285 225.84 231.357 228.494C235.429 231.148 222.711 238.876 221.533 238.629C220.355 238.382 212.877 233.138 211.108 232.446C209.339 231.754 206.379 229.331 204.076 231.244C201.773 233.157 203.462 240.787 204.229 242.798C204.741 244.139 205.208 245.857 205.632 247.954C207.645 249.282 208.588 249.461 208.461 248.49C208.27 247.034 206.83 238.902 206.338 237.344C205.845 235.786 206.336 234.381 208.579 235.23C210.822 236.079 218.776 242.373 219.409 242.619C220.042 242.864 223.06 242.259 229.501 237.861C235.942 233.463 236.261 228.478 235.47 227.481Z" fill="#EFEDEE"/>
<path d="M216.39 221.194C219.282 221.771 230.364 225.842 232.714 227.816C233.648 228.601 234.6 229.946 235.173 231.45C234.384 233.355 232.695 235.68 229.502 237.861C223.061 242.259 220.044 242.864 219.41 242.619C218.777 242.374 210.822 236.08 208.58 235.23C206.541 234.458 205.95 235.549 206.23 236.925L206.616 238.437C206.995 240.121 207.543 243.057 207.948 245.362C207.294 243.802 206.771 242.331 206.376 240.95C204.957 235.99 205.475 233.911 207.051 233.55C208.627 233.189 211.216 235.194 215.282 236.969C219.348 238.744 220.789 242.034 223.823 239.783C224.636 239.18 224.986 238.286 224.875 237.1L226.215 236.249C229.873 233.811 233.911 230.158 231.36 228.495C227.288 225.841 217.426 222.222 215.557 222.282C214.307 222.322 213.718 223.816 213.23 224.743C213.645 222.034 214.7 220.857 216.39 221.194ZM203.019 233.587L202.941 232.871C203.214 235.87 203.857 238.858 204.871 241.836C205.547 243.822 206.741 246.049 208.451 248.52C208.56 249.455 207.615 249.261 205.633 247.954C205.294 246.277 204.927 244.842 204.531 243.648L204.229 242.798C203.655 241.292 202.563 236.634 203.019 233.587Z" fill="#BBB6B6"/>
<path d="M233.661 225.133C240.147 222.84 245.245 222.749 251.918 225.753C258.591 228.757 265.77 232.2 275.627 237.678C282.199 241.33 287.592 244.419 291.809 246.945C281.366 249.798 274.562 252.203 271.396 254.161C266.647 257.098 233.487 291.214 228.139 296.276C224.574 299.651 217.606 304.607 207.236 311.145C205.878 301.709 204.651 293.711 203.554 287.151C201.908 277.312 200.671 256.962 201.888 251.78C203.104 246.598 207.504 240.028 210.878 237.562C214.251 235.096 227.175 227.425 233.661 225.133ZM215.953 258.853C214.47 259.043 212.962 261.292 212.414 261.972C211.866 262.652 211.959 263.462 212.591 265.866C213.223 268.27 214.926 283.036 215.256 285.097C215.586 287.158 216.38 288.517 217.426 288.492C218.471 288.468 231.426 276.665 231.695 275.039C231.964 273.413 228.706 267.915 226.032 265.101C223.359 262.289 217.437 258.663 215.953 258.853ZM237.441 237.012C236.248 237.681 234.403 238.541 232.236 242.151C230.07 245.761 232.238 249.588 233.328 250.999C234.418 252.41 239.898 253.901 242.087 254.306C244.276 254.711 247.312 255.922 248.27 255.529C249.228 255.136 255.757 248.01 256.569 247.059C257.382 246.108 255.512 244.169 253.128 243.208C250.744 242.247 247.091 240.493 244.66 239.182C242.229 237.871 238.633 236.343 237.441 237.012Z" fill="#5D5B60"/>
<path d="M234.024 224.794C240.51 222.501 245.608 222.41 252.281 225.414C258.954 228.418 266.133 231.861 275.99 237.339C282.562 240.991 287.955 244.08 292.172 246.606C281.729 249.459 274.925 251.864 271.759 253.822C267.01 256.759 232.031 291.943 226.683 297.005C223.118 300.38 216.15 305.336 205.78 311.874C204.422 302.438 203.195 294.439 202.098 287.88C200.452 278.041 199.215 257.691 200.432 252.509C201.648 247.327 206.048 240.757 209.422 238.291C212.795 235.825 227.538 227.086 234.024 224.794ZM214.498 259.582C213.015 259.772 211.507 262.021 210.959 262.701C210.411 263.381 210.504 264.192 211.136 266.595C211.768 268.998 213.471 283.765 213.801 285.826C214.131 287.887 214.925 289.246 215.971 289.221C217.017 289.196 229.971 277.394 230.24 275.768C230.509 274.142 227.251 268.644 224.577 265.83C221.903 263.018 215.981 259.392 214.498 259.582ZM235.985 237.741C234.792 238.41 232.947 239.27 230.78 242.88C228.613 246.49 230.782 250.317 231.872 251.728C232.962 253.139 238.442 254.63 240.631 255.035C242.82 255.44 245.856 256.651 246.814 256.258C247.772 255.864 254.301 248.739 255.113 247.788C255.926 246.837 254.056 244.898 251.672 243.937C249.288 242.976 245.635 241.222 243.204 239.911C240.773 238.6 237.178 237.072 235.985 237.741Z" fill="#D7D6D8"/>
<path d="M234.024 224.794C237.24 223.657 240.116 223.061 243.011 223.116C235.076 227.483 227.787 233.223 221.142 240.328C211.059 251.109 203.824 259.988 200.154 267.997L200.029 264.918C199.846 259.395 199.929 254.653 200.433 252.509C201.649 247.327 206.049 240.757 209.423 238.291C212.795 235.825 227.538 227.086 234.024 224.794Z" fill="#E0DFE1"/>
<path d="M206.827 248.933C205.435 249.895 205.241 250.676 206.341 250.812C207.442 250.948 208.603 249.727 208.577 249.184C208.551 248.641 208.219 247.971 206.827 248.933Z" fill="#4F4F4E"/>
<path d="M220.339 238.531C218.947 239.493 218.753 240.274 219.853 240.41C220.954 240.546 222.115 239.325 222.089 238.782C222.063 238.238 221.731 237.569 220.339 238.531Z" fill="#4F4F4E"/>
<path d="M236.262 230.628C234.87 231.59 234.676 232.371 235.776 232.507C236.877 232.643 238.038 231.422 238.012 230.879C237.986 230.336 237.653 229.666 236.262 230.628Z" fill="#4F4F4E"/>
<path d="M252.281 225.414L255.67 226.96C260.847 229.356 266.511 232.149 273.581 236.011L280.699 239.972C285.186 242.5 289.011 244.711 292.173 246.605L286.344 248.263C279.154 250.402 274.293 252.255 271.76 253.821C267.011 256.758 232.032 291.942 226.684 297.004L225.077 298.438C221.201 301.728 214.769 306.207 205.782 311.873L204.049 300.143C203.635 297.424 203.236 294.864 202.851 292.465L202.1 287.879C201.873 286.524 201.655 284.97 201.449 283.284C205.254 279.896 208.828 276.546 212.182 273.228L213.803 285.825C214.133 287.886 214.927 289.245 215.973 289.22C217.019 289.195 229.973 277.393 230.242 275.767C230.511 274.141 227.253 268.643 224.579 265.829C223.809 265.019 222.77 264.142 221.645 263.308C225.284 259.237 228.583 255.217 231.54 251.246L231.874 251.727C232.855 252.997 237.392 254.332 239.885 254.881L240.633 255.034C242.822 255.439 245.858 256.65 246.816 256.257C247.774 255.863 254.303 248.738 255.115 247.787C255.928 246.836 254.058 244.897 251.674 243.936C249.687 243.135 246.819 241.784 244.512 240.597L243.206 239.91C242.246 239.392 241.105 238.841 240.002 238.404C242.88 233.377 245.173 228.434 246.886 223.573C248.59 223.948 250.371 224.554 252.281 225.414Z" fill="#CBCCCF"/>
<path d="M255.221 247.944C256.384 247.213 257.53 246.679 258.65 246.399C264.823 244.496 270.68 242.447 276.222 240.252L279.087 239.078L280.699 239.972C285.186 242.5 289.011 244.711 292.173 246.605L286.344 248.263L282.943 249.309C277.598 251.012 273.871 252.516 271.76 253.821C267.011 256.758 232.032 291.942 226.684 297.004L225.077 298.438C221.201 301.728 214.769 306.207 205.782 311.873L203.878 299.028L207.327 295.992C209.753 293.826 212.406 291.404 215.114 288.885C215.371 289.112 215.661 289.228 215.972 289.221C217.017 289.197 229.972 277.394 230.241 275.768C230.29 275.47 230.221 275.042 230.059 274.525L232.547 271.994C234.506 269.979 236.16 268.217 237.363 266.838C240.242 263.539 243.237 259.75 246.238 256.325C246.48 256.339 246.671 256.316 246.815 256.257C247.663 255.909 252.874 250.287 254.625 248.34L255.221 247.944Z" fill="#BCBDC1"/>
<path d="M234.024 224.794C240.51 222.501 245.608 222.41 252.281 225.414L255.67 226.96C260.847 229.356 266.511 232.149 273.581 236.011L275.991 237.339C281.982 240.668 286.994 243.53 291.028 245.923L289.846 246.279L271.877 236.771C261.736 231.456 255.273 228.188 252.486 226.968L252.056 226.784C246.507 224.467 241.597 224.074 236.684 225.223C231.771 226.373 214.204 236.112 211.065 238.142C207.926 240.172 203.377 247.011 201.883 250.573C201.024 252.62 200.488 259.051 200.274 269.867C199.835 262.369 199.785 255.276 200.434 252.508C201.65 247.326 206.05 240.756 209.424 238.29C212.795 235.825 227.538 227.086 234.024 224.794Z" fill="white"/>
<path d="M202.816 239.771L202.782 240.001L202.587 240.283C202.104 240.79 205.356 245.211 206.632 246.563L206.927 246.85C207.875 247.653 208.369 248.995 208.211 249.415C208.053 249.835 207.234 250.746 206.047 250.498C204.86 250.25 202.845 247.384 201.578 245.439C201.241 244.921 200.868 244.26 200.493 243.508L200.541 243.918C200.318 242.471 200.349 241.481 200.636 240.949C200.899 240.458 201.626 240.065 202.816 239.771ZM217.834 205.779L218.145 205.619L218.458 205.487L218.803 205.411L218.831 205.355L218.923 205.319C219.645 205.054 220.62 204.892 221.721 204.744L224.053 204.439C226.073 204.156 229.455 204.213 230.607 203.834L232.002 203.438C233.822 202.955 236.598 202.288 237.465 202.123C238.621 201.902 239.764 203.609 238.831 204.853C237.898 206.097 233.752 207.312 231.981 207.362C230.21 207.412 227.546 207.719 225.181 207.859C222.816 207.999 221.11 208.919 220.285 209.332C219.46 209.745 217.724 210.101 217.358 210.464C217.526 211.089 221.304 214.771 223.053 216.317C224.802 217.864 232.081 223.039 233.609 224.811L236.004 227.404C236.994 228.521 237.777 229.608 237.617 230.384C237.33 231.781 236.332 232.343 235.36 232.279C234.388 232.214 231.488 228.904 230.519 227.731C229.689 226.725 227.708 225.019 225.914 223.34L225.039 222.506C223.282 220.795 220.254 218.437 219.024 217.111L218.653 216.666C218.359 216.248 218.105 216.046 217.923 216.006L218.097 216.178C216.081 214.24 214.953 212.833 214.714 211.957C214.475 211.081 214.964 210.021 216.18 208.776C216.442 207.451 216.825 206.574 217.33 206.146L217.834 205.779ZM217.891 217.19L218.004 217.497C218.12 218.328 217.3 218.923 217.004 218.872C216.659 218.813 213.652 218.969 213.027 219.875C212.506 220.63 214.455 224.29 215.835 226.566L217.465 229.166C218.817 231.432 220.644 234.809 220.986 235.725L221.379 236.835C221.703 237.825 221.947 238.871 221.602 239.164C221.118 239.575 220.048 240.414 219.362 239.976C218.904 239.684 218.387 238.82 217.939 237.904L217.335 236.555C216.868 235.424 212.706 228.436 211.012 225.247L210.432 223.117C210.341 222.745 210.265 222.371 210.221 222.008C209.997 220.164 211.672 218.403 212.657 217.771C213.303 217.358 215.047 217.164 217.891 217.19Z" fill="#F1EEEE"/>
<path d="M200.457 243.272C201.614 245.037 202.998 246.881 203.817 247.635C205.175 248.886 207.592 249.015 206.367 247.242C205.693 246.267 204.592 244.586 203.894 243.027C204.817 244.385 205.981 245.872 206.632 246.561L206.927 246.848C207.875 247.651 208.369 248.993 208.211 249.413C208.053 249.833 207.234 250.744 206.047 250.496C204.86 250.248 202.845 247.382 201.578 245.437C201.241 244.919 200.868 244.258 200.493 243.506L200.457 243.272ZM214.837 212.276C216.135 213.491 217.528 214.843 219.015 216.331C221.29 218.607 224.32 220.828 226.517 222.543L227.539 223.356C229.727 225.145 234.447 230.093 235.31 229.366C235.937 228.838 234.892 227.28 233.604 225.516L232.006 223.324L232.96 224.155C233.096 224.28 233.219 224.398 233.328 224.507L236.007 227.402C236.997 228.519 237.78 229.606 237.62 230.382C237.333 231.779 236.335 232.341 235.363 232.277C234.607 232.227 232.685 230.213 231.412 228.769L230.522 227.729C229.692 226.723 227.711 225.017 225.917 223.338L225.042 222.504C223.285 220.793 220.257 218.435 219.027 217.109L218.656 216.664C218.362 216.246 218.108 216.044 217.926 216.004L217.291 215.378C216.032 214.102 215.227 213.097 214.875 212.363L214.837 212.276ZM213.012 219.918C212.506 220.631 214.454 224.291 215.835 226.567L217.465 229.167L218.415 230.803C219.555 232.812 220.72 235.013 220.986 235.725L221.379 236.835C221.703 237.825 221.947 238.871 221.602 239.164C221.118 239.575 220.048 240.414 219.362 239.976C218.904 239.684 218.387 238.82 217.939 237.904L217.335 236.555C216.868 235.424 212.706 228.436 211.012 225.247L210.705 224.134L212.716 227.564C213.303 228.544 213.806 229.361 214.227 230.014L214.956 231.103C216.575 233.385 218.861 238.304 219.843 237.548C220.606 236.96 220.326 235.941 218.053 231.973L215.594 227.791C212.288 222.241 212.421 220.546 213.012 219.918ZM216.56 209.352C218.158 208.678 219.534 208.232 220.69 208.014L222.845 207.72C225.979 207.26 232.507 206.087 235.119 205.304C236.948 204.756 237.571 203.766 236.989 202.335L236.942 202.232L237.466 202.123C238.622 201.902 239.765 203.609 238.832 204.853C237.899 206.097 233.753 207.312 231.982 207.362C230.211 207.412 227.547 207.719 225.182 207.859C222.817 207.999 221.111 208.919 220.286 209.332C219.489 209.731 217.842 210.076 217.401 210.427L216.56 209.352Z" fill="#BDB8B8"/>
<path d="M135.739 337.748C134.197 335.437 133.254 333.841 132.911 332.958C132.396 331.634 131.555 328.843 130.599 328.745C129.643 328.647 129.3 330.582 130.208 333.097C131.116 335.612 131.582 336.435 132.458 338.186C133.334 339.937 136.028 345.264 141.313 346.826C146.598 348.388 157.75 349.175 158.812 348.697C159.874 348.219 160.407 347.032 160.618 346.522C160.83 346.012 161.873 344.554 161.684 344.076C161.495 343.598 148.859 343.789 144.14 342.798C140.994 342.137 138.194 340.453 135.739 337.748Z" fill="#BFAFAF"/>
<path d="M256.797 307.256C257.021 307.231 258.047 307.306 258.61 307.525C259.173 307.744 260.156 309.301 260.492 309.333C260.716 309.354 260.999 309.281 261.341 309.113C277.332 301.11 285.865 296.84 286.941 296.302C288.554 295.495 290.375 294.378 289.746 291.943C289.327 290.32 289.063 289.357 288.954 289.054C267.367 301.205 256.648 307.272 256.797 307.256Z" fill="#606060"/>
<path d="M136.126 336.207C134.495 336.966 134.584 338.457 135.899 340.063C137.214 341.669 140.206 343.55 143.493 344.332C146.78 345.115 159.611 345.98 160.276 345.682C160.941 345.383 161.651 343.759 163.003 344.043C164.355 344.327 166.349 342.496 166.891 342.569C167.433 342.641 167.65 344.409 168.829 344.565C170.008 344.721 171.099 344.112 171.499 344.481C171.899 344.85 173.14 346.276 174.807 346.097C176.473 345.917 184.233 343.907 186.083 343.616C187.933 343.325 195.459 340.842 196.058 340.416C196.657 339.991 197.843 336.581 198.565 335.791C199.287 335.001 200.792 335.647 201.247 336.558C201.703 337.47 207.912 335.736 210.369 334.609C212.826 333.482 234.266 322.591 237.007 321.278C239.748 319.965 242.784 318.438 243.669 317.944C244.554 317.449 244.486 316.095 244.47 314.927C244.454 313.759 245.994 309.627 247.966 308.778C249.938 307.929 254.479 308.439 255.558 308.275C256.637 308.111 288.422 291.99 289.295 291.498C290.168 291.006 290.597 289.501 291.973 288.424C293.349 287.347 296.449 286.124 297.772 286.574C298.4 286.788 298.961 287.275 299.456 288.036C299.656 288.344 299.748 288.548 300.079 288.741C300.41 288.933 300.867 288.665 301.284 288.454C325.33 276.241 337.564 270.005 337.986 269.745C338.63 269.348 337.095 267.702 337.756 267.265C338.417 266.828 338.155 267.472 339.023 267.079C339.89 266.685 341.266 265.523 341.57 265.804C341.874 266.085 342.037 267.012 344.289 265.28C346.541 263.548 356.461 254.559 359.745 250.787C363.029 247.015 370.083 238.069 373.364 229.984C375.552 224.593 376.438 221.212 376.022 219.84C373.709 215.218 372.407 212.617 372.117 212.038C371.682 211.169 370.137 208.196 367.73 209.995C366.144 209.386 363.885 208.355 361.268 202.895C359.367 200.131 354.958 196.638 353.853 196.728C352.747 196.818 346.118 200.251 339.579 202.353C333.04 204.455 325.651 206.445 322.968 208.622C320.285 210.799 308.046 224.036 303.474 229.497C298.903 234.959 292.059 242.811 289.094 244.149C286.129 245.487 274.093 248.028 271.456 249.289C268.819 250.551 241.983 276.971 234.144 284.276C226.306 291.581 212.269 304.002 204.418 308.677C196.567 313.352 164.302 328.367 156.735 330.885C149.168 333.401 137.758 335.448 136.126 336.207Z" fill="#968E8F"/>
<path d="M136.217 336.865C134.586 337.624 134.584 338.457 135.9 340.063C137.215 341.669 140.207 343.55 143.494 344.332C146.781 345.115 159.612 345.98 160.277 345.682C160.942 345.383 161.652 343.759 163.004 344.043C164.356 344.327 166.35 342.496 166.892 342.569C167.434 342.641 167.651 344.409 168.83 344.565C170.009 344.721 171.1 344.112 171.5 344.481C171.9 344.85 173.141 346.276 174.808 346.097C176.474 345.917 184.234 343.907 186.084 343.616C187.934 343.325 195.46 340.842 196.059 340.416C196.658 339.991 197.844 336.581 198.566 335.791C199.288 335.001 200.793 335.647 201.248 336.558C201.704 337.47 207.913 335.736 210.37 334.609C212.827 333.482 234.267 322.591 237.008 321.278C239.749 319.965 242.785 318.438 243.67 317.944C244.555 317.449 244.487 316.095 244.471 314.927C244.455 313.759 245.995 309.627 247.967 308.778C249.939 307.929 254.48 308.439 255.559 308.275C256.638 308.111 288.423 291.99 289.296 291.498C290.169 291.006 290.598 289.501 291.974 288.424C293.35 287.347 296.45 286.124 297.773 286.574C298.401 286.788 298.962 287.275 299.457 288.036C299.657 288.344 299.749 288.548 300.08 288.741C300.411 288.933 300.868 288.665 301.285 288.454C325.331 276.241 337.565 270.005 337.987 269.745C338.631 269.348 337.096 267.702 337.757 267.265C338.418 266.828 338.156 267.472 339.024 267.079C339.891 266.685 341.267 265.523 341.571 265.804C341.875 266.085 342.038 267.012 344.29 265.28C346.542 263.548 356.462 254.559 359.746 250.787C363.03 247.015 370.084 238.069 373.365 229.984C375.553 224.593 376.439 221.212 376.023 219.84C373.71 215.218 372.408 212.617 372.118 212.038C371.683 211.169 370.138 208.196 367.731 209.995C366.145 209.386 363.886 208.355 361.269 202.895C359.368 200.131 354.959 196.638 353.854 196.728C352.748 196.818 346.21 200.909 339.67 203.011C333.131 205.113 325.742 207.103 323.059 209.28C320.377 211.457 308.137 224.694 303.565 230.155C298.994 235.617 292.15 243.469 289.185 244.807C286.22 246.145 274.184 248.686 271.547 249.947C268.91 251.209 242.074 277.629 234.235 284.934C226.397 292.239 212.36 304.66 204.509 309.335C196.658 314.01 164.393 329.025 156.826 331.543C149.259 334.059 137.848 336.105 136.217 336.865Z" fill="#D3CACB"/>
<path d="M372.257 212.277L375.275 218.352L373.358 220.273C368.5 225.139 363.501 230.267 358.36 235.657C349.108 245.359 341.784 260.379 341.789 265.169L341.828 265.713C341.845 265.82 341.839 265.938 341.808 266.065L341.568 265.802C341.265 265.52 339.889 266.683 339.021 267.077C338.154 267.471 338.415 266.827 337.754 267.263C337.093 267.699 338.629 269.345 337.984 269.743L301.282 288.452C300.866 288.663 300.408 288.931 300.077 288.739C299.746 288.547 299.654 288.342 299.454 288.034C298.959 287.273 298.398 286.786 297.77 286.572C296.447 286.122 293.347 287.345 291.971 288.422L291.547 288.793C282.762 282.023 279.873 276.273 282.887 271.543C288.314 263.026 326.652 249.791 343.549 236.31C354.097 227.896 363.666 219.885 372.257 212.277Z" fill="#CFC3C4"/>
<path d="M171.679 344.669C174.7 344.23 177.782 343.58 180.925 342.72L185.742 341.347C190.424 339.964 195.328 338.376 196.238 337.704C196.782 336.277 200.548 331.123 204.022 330.489C206.338 330.067 208.234 330.573 209.71 332.009L214.626 329.549L219.732 327.063C228.061 322.929 239.743 316.854 244.6 314.159C244.535 314.376 244.497 314.562 244.48 314.718L244.465 316.118C244.424 316.902 244.258 317.614 243.668 317.943L240.621 319.509L231.713 323.916C224.372 327.607 212.185 333.774 210.369 334.607L209.114 335.118C206.256 336.176 201.638 337.338 201.247 336.556C200.791 335.644 199.286 334.999 198.565 335.789C197.843 336.579 196.658 339.988 196.058 340.414C195.505 340.807 189.05 342.953 186.605 343.51L184.56 343.922C181.613 344.576 176.171 345.948 174.807 346.095C173.617 346.223 172.644 345.532 172.039 344.993L171.679 344.669ZM288.38 289.369L288.634 289.09C289.969 287.017 296.998 286.232 300.23 284.726L304.114 282.777C309.35 280.093 319.41 274.841 334.294 267.02L336.195 266.86C337.574 266.762 338.439 266.754 338.789 266.835C338.903 266.861 339.002 266.926 339.086 267.031L339.021 267.076C338.154 267.47 338.415 266.826 337.754 267.262C337.093 267.698 338.629 269.344 337.984 269.742L301.282 288.451C300.866 288.662 300.408 288.93 300.077 288.738C299.746 288.546 299.654 288.341 299.454 288.033C298.959 287.272 298.398 286.785 297.77 286.571C296.447 286.121 293.347 287.344 291.971 288.421C290.595 289.498 290.166 291.003 289.293 291.495L267.646 302.437C261.332 305.587 255.988 308.206 255.556 308.272C255.194 308.327 254.444 308.306 253.531 308.286L256.471 306.361C257.111 305.953 257.817 305.511 258.59 305.036L259.799 304.298C262.826 302.467 285.457 292.014 288.38 289.369Z" fill="#655B5C"/>
<path d="M354.809 202.825C351.968 205.104 342.867 211.001 336.314 215.214C329.761 219.427 316.429 226.272 314.236 227.79C312.043 229.308 310.971 233.162 314.777 232.936C318.583 232.711 324.262 230.384 333.738 224.494C343.214 218.604 353.349 210.693 355.633 208.296C357.917 205.9 357.65 200.546 354.809 202.825Z" fill="#DDD8D9"/>
<path d="M354.981 197.626C355.258 197.628 355.7 197.748 356.238 197.952C357.972 199.209 360.096 201.189 361.268 202.892C363.885 208.353 366.144 209.383 367.73 209.992L367.879 209.886L368.05 210.151C368.672 210.732 368.665 211.336 368.028 211.964C367.072 212.906 363.781 208.965 362.115 209.271C360.449 209.577 357.855 212.471 355.167 214.509L353.925 215.41C349.752 218.36 339.179 225.352 333.98 228.189L330.496 230.097C325.901 232.603 321.566 234.848 318.23 235.518C314.061 236.355 313.024 234.251 312.763 233.123C312.502 231.995 312.66 231.524 313.049 230.089L313.327 230.643C313.84 231.586 314.715 232.509 317.711 231.686C321.306 230.699 338.998 220.598 343.652 217.78C348.306 214.962 356.11 208.734 358.048 207.06C359.986 205.386 359.925 203.75 359.596 202.899C359.267 202.048 357.787 201.004 357.298 200.17C356.809 199.336 355.199 199.275 354.413 198.72C353.627 198.165 351.456 199.318 352.204 200.583C352.802 201.595 353.593 202.258 354.153 202.782L355.21 203.858C355.575 204.257 355.793 204.631 355.268 204.807C354.428 205.087 353.694 204.05 352.814 204.068L351.71 204.102C350.872 204.106 349.922 204.013 349.419 203.47L348.848 202.836C348.309 202.18 347.979 201.46 348.88 200.71C350.081 199.708 353.584 197.617 354.981 197.626Z" fill="#C2BCBA"/>
<path d="M353.541 203.032C351.42 204.449 341.802 210.309 337.356 213.216C332.91 216.123 321.883 222.76 318.345 224.332C314.807 225.904 321.353 213.597 318.359 216.712C315.366 219.827 301.377 234.145 304.565 234.127C307.753 234.109 312.775 232.119 313.945 230.939C315.115 229.759 315.136 228.204 319.015 226.202C322.894 224.2 334.728 217.103 340.593 213.423C346.458 209.743 352.759 205.27 354.599 203.478C356.439 201.685 355.662 201.615 353.541 203.032Z" fill="#ECE6E7"/>
<path d="M374.881 217.56L376.021 219.837C376.437 221.209 375.551 224.591 373.363 229.981C370.3 237.528 363.951 245.824 360.448 249.963L359.743 250.785C356.459 254.557 346.539 263.546 344.287 265.278C343.066 266.217 342.459 266.375 342.111 266.277C341.653 264.58 341.641 262.669 342.727 261.279C344.479 259.037 349.741 257.463 356.548 250.42C363.355 243.377 368.038 235.14 370.657 230.163C372.209 227.214 373.59 223.146 374.798 217.958L374.881 217.56Z" fill="#A59A98"/>
<path d="M367.309 210.027L367.162 209.761L367.73 209.992C368.377 209.508 368.962 209.37 369.479 209.442L369.541 209.786C369.684 211.344 367.273 213.879 363.296 217.522L356.294 224.235C348.867 231.632 340.318 238.409 331.115 244.073L327.814 246.085C321.803 249.61 313.44 254.095 316.026 252.669L318.44 251.254C323.022 248.493 331.672 243.024 335.577 240.097L337.862 238.275C342.957 234.113 353.605 225.181 354.744 223.958L362.538 216.353C365.157 213.749 367.429 211.361 367.479 210.818C367.5 210.585 367.444 210.321 367.309 210.027Z" fill="white"/>
<path d="M323.059 209.277C325.741 207.1 333.13 205.11 339.67 203.008C343.563 201.757 347.456 199.8 350.202 198.403C348.488 199.669 346.955 200.699 345.591 201.498C341.972 203.617 335.281 205.494 331.47 206.579C327.658 207.663 323.366 209.766 320.548 213.233L319.089 214.956C315.729 218.818 310.075 224.816 308.608 226.548L306.669 228.941C304.439 231.819 301.155 236.503 298.391 242.37C294.785 250.022 283.899 251.141 280.409 250.38L279.98 250.265C277.067 249.301 272.831 250.745 270.6 252.379C269.559 253.141 267.556 255.03 265.185 257.361L256.501 266.069C253.179 269.412 250.43 272.242 248.252 274.557C251.072 272.294 261.813 264.772 259.808 267.832C257.803 270.892 250.815 278.215 245.203 282.014C239.591 285.813 233.994 290.174 230.088 292.995C226.181 295.816 215.787 304.406 210.278 307.796L203.274 312.073C196.439 316.181 186.84 321.716 177.795 325.879C169.181 329.844 161.314 332.819 154.193 334.804C161.533 332.906 167.828 330.872 173.079 328.703C180.955 325.45 190.294 320.893 199.678 315.412L202.968 313.455C210.979 308.618 221.012 302.1 226.424 298.475L232.994 294.033C238.746 290.198 246.447 285.31 249.104 284.92C252.579 284.41 254.914 286.434 256.037 287.965C256.786 288.985 257.926 291.402 259.456 295.215L258.331 292.872C257.825 291.84 257.403 291.016 257.065 290.401C256.221 288.864 254.765 287.028 252.138 286.179C249.949 285.472 242.569 289.766 233.15 295.968L227.28 299.893C215.151 308.102 192.838 320.872 185.931 324.278C179.024 327.684 163.349 333.985 155.572 335.779C147.795 337.573 139.311 337.647 137.823 337.608C136.973 337.586 136.311 338.144 135.839 339.281L135.656 339.752C134.592 338.345 134.694 337.572 136.217 336.863C137.848 336.104 149.259 334.057 156.826 331.539C164.393 329.021 196.658 314.006 204.509 309.331C212.36 304.656 226.397 292.235 234.235 284.93L244.982 274.65C255.766 264.26 269.685 250.834 271.546 249.943C274.183 248.681 286.218 246.141 289.184 244.803C291.408 243.799 295.814 239.131 299.806 234.556L305.149 228.298C310.489 222.154 320.645 211.236 323.059 209.277Z" fill="#5B2906"/>
<path d="M136.301 340.5L138.566 341.417C142.908 343.104 146.247 344.018 148.584 344.159L151.612 344.294C155.478 344.419 159.605 344.409 160.2 344.391C160.957 344.368 164.038 341.82 164.667 340.566L165.031 339.73C165.402 338.792 165.629 338.118 166.151 339.114C166.822 340.395 170.069 341.903 172.276 341.962C174.373 342.017 189.635 336.113 193.645 334.163L194.181 333.889C197.084 332.304 198.784 331.689 200.123 330.915C201.462 330.142 201.003 324.629 201.393 324.405C201.783 324.181 205.428 328.579 207.678 327.402C230.61 314.539 242.72 307.737 244.01 306.995C245.945 305.882 243.162 300.923 243.852 300.066C244.253 299.568 245.849 301.876 251.888 303.602C252.155 303.678 254.131 303.386 256.782 302.479C263.001 300.351 278.809 292.751 281.364 292.483C283.022 292.309 279.285 294.659 271.603 298.703C268.635 300.266 259.798 304.418 257.84 305.542L257.404 307.468C256.358 307.961 255.697 308.253 255.557 308.274C254.478 308.438 249.937 307.928 247.965 308.777C246.594 309.367 245.432 311.544 244.856 313.209C243.26 313.836 240.466 314.633 238.586 315.572L221.816 323.875C219.472 325.052 217.374 326.119 215.919 326.888L212.964 328.52C211.005 329.649 209.656 330.545 208.916 331.208C206.418 329.99 204.422 329.789 202.928 330.606C201.007 331.656 200.077 332.357 199.253 333.628L198.846 334.315C198.003 335.856 197.721 335.43 196.057 335.989L194.032 336.739C189.505 338.302 176.843 342.198 174.762 343.088C172.403 344.096 167.432 341.629 166.21 341.896C165.337 342.087 163.836 343.243 162.864 344.047C161.604 343.869 160.92 345.394 160.278 345.683C159.613 345.982 146.782 345.116 143.495 344.333C140.619 343.648 137.969 342.123 136.47 340.676L136.301 340.5Z" fill="#E1DCDC"/>
<path d="M306.203 244.195C315.045 242.057 324.151 239.111 335.312 233.588L341.931 230.269L352.114 225.073C353.109 224.584 353.908 224.216 354.553 223.959C357.247 222.888 345.982 233.201 338.117 238.585C330.252 243.969 317.19 251.894 309.177 256.976L306.051 259.015L302.225 261.668C295.987 266.354 293.542 269.22 292.799 271.54C292.048 273.887 297.249 275.22 300.93 276.763C304.611 278.306 310.377 277.129 312.315 271.722C314.253 266.315 318.168 260.762 319.732 259.713C321.296 258.664 324.494 257.949 328.705 258.708C332.449 259.382 335.251 260.848 336.924 263.232L337.498 264.169C337.584 264.331 338.693 265.59 337.937 265.989L330.405 269.984L327.714 271.452L323.708 273.668L316.658 277.403C311.46 280.121 305.744 283.055 302.368 284.76L299.175 286.355C298.939 286.479 298.646 286.636 298.295 286.826C298.122 286.717 297.95 286.634 297.771 286.573C296.448 286.123 293.348 287.346 291.972 288.423C290.596 289.5 290.167 291.005 289.294 291.497L267.264 302.63C265.191 303.664 263.232 304.635 261.531 305.471L259.413 306.314C257.954 306.837 257.378 306.848 258.583 305.875C262.182 302.969 285.45 291.539 287.511 290.26C289.451 289.056 285.479 289.13 280.757 288.253L279.864 288.077C274.769 287.01 262.916 284.253 261.547 279.549C260.178 274.845 264.782 263.95 276.261 255.769C287.74 247.586 297.362 246.333 306.203 244.195Z" fill="#D6CDCC"/>
<path d="M322.786 263.522C325.772 262.094 330.669 262.299 337.478 264.136L337.755 264.53C338.066 264.979 338.477 265.703 337.938 265.988L330.406 269.983L327.715 271.451L323.709 273.667L316.659 277.402C311.461 280.12 305.745 283.054 302.369 284.759L299.176 286.354L298.296 286.825C298.123 286.716 297.951 286.633 297.772 286.572C296.449 286.122 293.349 287.345 291.973 288.422C290.597 289.499 290.168 291.004 289.295 291.496L267.265 302.629L261.532 305.47L259.414 306.313L258.582 306.58C257.787 306.791 257.647 306.63 258.584 305.873C262.183 302.967 285.451 291.537 287.512 290.258C288.597 289.584 287.832 289.311 286.12 289.047L287.423 288.54C287.787 288.406 288.077 288.309 288.283 288.252L288.527 288.199C290.576 287.956 307.118 279.12 310.13 277.388C313.142 275.656 317.436 266.081 322.786 263.522Z" fill="#C6BEBD"/>
<path d="M322.939 267.954L324.298 267.346C327.684 266.003 331.665 265.85 336.241 266.888L330.407 269.984L327.716 271.452L323.71 273.668L316.66 277.403C311.462 280.121 305.746 283.055 302.37 284.76L299.177 286.355L298.297 286.826C298.124 286.717 297.952 286.634 297.773 286.573C296.45 286.123 293.35 287.346 291.974 288.423C290.598 289.5 290.169 291.005 289.296 291.497L267.266 302.63L261.533 305.471L259.415 306.314L258.583 306.581C257.788 306.792 257.648 306.631 258.585 305.874C262.184 302.968 285.452 291.538 287.513 290.259C287.83 290.063 287.989 289.9 288.013 289.762L293.181 287.286C301.581 283.226 312.094 277.981 313.958 276.584C316.774 274.471 317.852 270.51 322.939 267.954Z" fill="#B6ADAC"/>
<path d="M253.742 297.312C254.525 295.986 252.642 290.175 248.935 290.214C245.227 290.253 225.222 302.651 219.149 306.104C213.076 309.557 191.228 322.583 186.362 324.938C181.496 327.293 161.143 335.55 162.911 335.439C164.679 335.328 174.92 332.784 177.087 333.459C179.254 334.134 182.531 336.117 184.522 335.244C186.513 334.371 198.254 329.328 198.709 328.241C199.164 327.154 199.197 320.924 199.901 320.579C200.605 320.235 204.638 324.136 205.99 324.18C207.342 324.224 217.648 318.241 224.241 314.67C230.834 311.099 242.381 304.831 242.521 304.427C242.662 304.023 241.264 296.708 242.091 296.236C242.918 295.764 247.99 300.646 248.509 300.695C249.028 300.743 252.959 298.638 253.742 297.312Z" fill="#DDD8D9"/>
<path d="M274.728 198.199C269.261 197.488 266.26 197.245 265.724 197.47C265.188 197.695 264.59 200.482 263.929 205.831L263.164 205.006C263.862 199.756 264.537 196.968 265.189 196.64C266.168 196.148 273.95 197.002 274.258 197.261C274.463 197.432 274.62 197.745 274.728 198.199Z" fill="#F4F4F4"/>
<path d="M265.037 205.276C265.98 205.593 271.565 206.667 272.379 206.146C273.193 205.625 274.416 199.101 274.344 198.772C274.272 198.443 274.019 197.675 273.639 197.364C274.646 197.609 275.197 198.097 275.217 198.573C275.237 199.049 274.015 206.398 273.743 206.928C273.471 207.458 272.745 207.971 271.77 207.916C270.795 207.86 264.306 206.428 263.937 206.164C263.568 205.9 263.278 205.016 263.342 204.44C263.361 204.269 263.62 203.386 263.685 203.358C263.765 203.323 263.875 204.904 265.037 205.276Z" fill="#BFB9C1"/>
<path d="M265.131 196.006C264.301 196.361 264.023 197.305 263.37 200.927L263.061 202.809C262.754 204.995 262.886 205.948 263.643 206.424C264.459 206.937 269.831 208.075 271.475 208.193C273.013 208.303 273.905 207.91 274.203 206.77L274.443 205.629C274.691 204.334 275.03 202.35 275.242 200.974L275.505 199.013C275.636 197.704 275.051 197.005 273.11 196.69L270.838 196.344C268.312 195.987 266.283 195.805 265.425 195.932L265.131 196.006ZM265.411 196.661C265.94 196.435 269.364 196.805 272.996 197.393C274.351 197.613 274.773 197.917 274.808 198.579L274.772 199.143L274.397 201.752C274.096 203.611 273.675 205.969 273.513 206.589C273.322 207.323 272.762 207.569 271.525 207.481C269.991 207.372 264.709 206.252 264.021 205.82C263.536 205.515 263.506 204.458 263.902 202.029L264.07 201.053C264.58 198.224 264.871 197.113 265.26 196.76L265.411 196.661Z" fill="#AEAEAE"/>
<path d="M301.893 280.934C301.797 279.789 299.674 277.598 296.379 276.737C293.085 275.876 289.395 272.778 291.071 270.45C292.748 268.121 305.304 258.361 309.812 255.81C314.319 253.258 334.204 240.666 341.463 235.33C346.302 231.773 350.142 228.491 352.983 225.484C342.674 231.06 334.065 235.421 327.157 238.568C316.795 243.288 299.338 246.592 292.568 249.013C285.798 251.434 273.994 257.164 270.08 262.175C266.165 267.186 262.269 274.846 262.915 278.115C263.561 281.384 264.9 283.762 269.251 285.169C273.602 286.576 282.361 287.648 283.909 287.774C285.457 287.9 287.266 287.984 288.823 287.442C290.379 286.9 301.988 282.079 301.893 280.934Z" fill="#C2B8B6"/>
</g>
<defs>
<clipPath id="clip0_7_345">
<rect width="458.899" height="458.899" fill="white"/>
</clipPath>
</defs>
</svg>
