<svg width="459" height="459" viewBox="0 0 459 459" fill="none" xmlns="http://www.w3.org/2000/svg">
<g clip-path="url(#clip0_3_3)">
<path d="M295.087 154.129C296.769 153.662 298.314 153.046 299.723 152.279C301.836 151.129 310.446 146.114 314.445 143.606C318.444 141.098 321.344 139.641 322.349 139.651C323.353 139.661 325.656 139.841 326.293 141.261C326.93 142.681 326.785 141.648 327.811 142.574C328.836 143.5 330.614 141.907 330.086 144.009C329.558 146.111 329.644 145.474 330.95 147.259C332.256 149.044 331.467 148.076 331.575 150.096C331.683 152.116 329.662 150.41 331.221 152.481C332.78 154.552 334.45 154.658 334.835 155.929C335.22 157.2 334.456 158.098 335.487 159.632C336.518 161.167 338.125 162.221 338.507 162.359C338.889 162.496 340.099 161.158 341.382 162.733C342.665 164.308 343.76 164.187 344.23 166.827C344.7 169.467 345.203 169.277 346.075 170.513C346.947 171.749 347.5 174.086 347.894 175.743C348.288 177.4 349.255 179.109 347.37 180.067C345.485 181.025 328.862 192.833 326.095 193.08C323.328 193.326 318.524 193.645 316.06 189.415C313.596 185.184 307.155 172.448 305.332 168.958C303.509 165.468 300.384 159.332 297.396 158.741C295.402 158.345 294.633 156.809 295.087 154.129Z" fill="#CAC7C6"/>
<path d="M314.423 171.191C317.707 168.408 327.544 164.292 336.372 160.71C337.265 161.648 338.224 162.256 338.508 162.358C338.89 162.495 340.1 161.157 341.383 162.732C342.666 164.307 343.761 164.186 344.231 166.826C344.701 169.466 345.204 169.276 346.076 170.512C346.599 171.254 347.007 172.391 347.335 173.541L347.894 175.742C348.288 177.399 349.255 179.108 347.37 180.066L346.455 180.615C342.444 183.167 328.598 192.855 326.095 193.078L324.797 193.175C322.003 193.323 318.172 193.04 316.06 189.413C314.485 186.709 311.286 180.531 308.706 175.513L311.942 173.152C312.734 172.561 313.568 171.916 314.423 171.191Z" fill="#BFBCBB"/>
<path d="M338.507 162.357C338.889 162.494 340.099 161.156 341.382 162.731C342.665 164.306 343.76 164.185 344.23 166.825C344.668 169.288 345.135 169.288 345.904 170.28C345.67 171.175 345.317 171.938 344.719 172.151L343.823 172.528C340.026 174.197 326.39 180.555 324.922 180.968C323.281 181.43 325.627 179.622 328.011 178.206C330.395 176.79 340.028 173.518 342.856 171.992C344.742 170.975 345.109 169.923 343.957 168.837L342.966 166.064C342.934 165.967 342.908 165.886 342.89 165.824C342.722 165.261 341 164.808 340.255 164.597C339.51 164.387 335.611 167.341 332.951 169.145C330.586 170.748 325.888 171.831 321.952 173.055L320.518 173.522C316.557 174.882 321.481 171.62 325.194 169.886L330.51 167.476C334.081 165.807 337.853 163.919 338.327 163.227C338.432 163.074 338.387 162.721 338.231 162.223L338.507 162.357ZM314.179 152.194L314.839 151.887L318.264 150.44C320.6 149.484 322.843 148.614 323.799 148.224C324.839 147.801 328.516 147.025 330.574 146.751L330.951 147.257C332.145 148.889 331.587 148.219 331.566 149.638C330.284 148.275 326.821 148.869 325.289 148.836C324.071 148.809 318.105 151.365 314.4 153.032L311.592 154.333C310.156 155.047 311.43 153.543 314.179 152.194Z" fill="#DCD9D8"/>
<path d="M312.024 175.46C315.7 181.979 319.202 185.939 322.182 186.23C326.652 186.667 338.818 180.52 341.13 178.1C342.456 176.712 344.239 174.425 346.479 171.239L346.074 170.511C346.597 171.253 347.005 172.39 347.333 173.54L347.892 175.741C348.286 177.398 349.253 179.107 347.368 180.065L346.453 180.614C342.442 183.166 328.596 192.854 326.093 193.077L324.795 193.174C322.001 193.322 318.17 193.039 316.058 189.412L315.014 187.553C313.433 184.667 311.175 180.313 309.187 176.451C310.365 175.807 310.198 176.13 312.024 175.46Z" fill="#A5A19F"/>
<path d="M322.351 139.65L323.301 139.706C324.402 139.827 325.817 140.195 326.294 141.26C326.931 142.68 326.786 141.647 327.812 142.573C328.607 143.291 329.855 142.494 330.129 143.081L329.966 143.219L328.279 143.655C327.974 143.725 327.608 143.803 327.147 143.894L325.449 144.211C322.374 144.758 319.236 145.843 318.081 146.908L316.425 148.521C315.333 149.534 313.998 150.55 312.64 150.621C310.738 150.72 308.928 151.293 308.183 151.784L307.513 152.343C306.787 152.901 305.227 153.963 302.834 155.529L300.513 156.11L299.109 156.404C298.48 156.504 297.262 156.875 295.455 157.516C294.96 156.731 294.84 155.603 295.09 154.129C296.772 153.662 298.317 153.046 299.726 152.279L306.38 148.452C308.047 147.474 309.79 146.441 311.352 145.501L316.516 142.345C319.438 140.617 321.529 139.642 322.351 139.65Z" fill="#DCD9D7"/>
<path d="M300.826 159.72C304.821 159.076 307.878 158.241 309.996 157.216L314.166 155.256C317.797 153.605 322.025 151.851 322.48 152.417C322.921 152.966 324.577 152.912 327.448 152.256C328.757 152.201 329.837 151.998 330.687 151.649C330.743 151.81 330.911 152.071 331.219 152.48C332.778 154.551 334.448 154.657 334.833 155.928C335.218 157.199 334.454 158.097 335.485 159.631C336.516 161.166 338.123 162.22 338.505 162.358C338.62 162.399 338.809 162.308 339.052 162.202C338.889 163.048 338.429 163.71 337.681 164.193L336.546 164.846C332.507 167.046 321.113 172.564 320.064 173.009C318.884 173.51 315.553 175.718 314.784 176.818C314.015 177.919 312.64 178.9 311.731 177.179L310.623 175.302C309.003 172.644 305.737 167.45 300.826 159.72Z" fill="#A5A19F"/>
<path d="M312.858 164.949C310.643 164.803 313.024 164.017 315.56 163.597C317.734 163.237 319.668 162.124 322.491 160.997L323.982 160.436C327.658 159.141 329.768 157.875 332.959 157.465L334.602 157.234C334.735 157.212 334.853 157.19 334.958 157.168C334.906 157.903 334.818 158.632 335.488 159.629C335.916 160.266 336.443 160.82 336.94 161.26C335.603 160.87 333.777 160.017 332.416 159.599C330.837 159.113 328.745 160.273 325.755 161.284L324.591 161.652C320.968 162.716 315.073 165.096 312.858 164.949ZM300.826 159.72C304.821 159.076 307.878 158.241 309.996 157.216L314.166 155.256L316.721 154.126C319.547 152.919 322.13 151.981 322.48 152.417C322.921 152.966 324.577 152.912 327.448 152.256C328.757 152.201 329.837 151.998 330.687 151.649C330.743 151.81 330.912 152.071 331.22 152.48C331.964 153.469 332.734 154.01 333.377 154.444C332.59 154.073 331.746 153.803 331.099 153.758C329.66 153.656 323.753 156.566 320.141 158.004L319.29 158.33C316.089 159.499 307.366 162.284 302.426 161.125L301.54 160.847L300.826 159.72Z" fill="#989593"/>
<path d="M137.131 332.215C136.026 326.385 136.321 322.055 138.014 319.223C140.555 314.975 156.029 304.05 161.423 299.922C166.818 295.794 175.017 288.397 180.621 283.025C186.225 277.653 210.398 249.906 220.269 237.413C230.14 224.92 239.364 209.718 240.775 198.884C242.187 188.05 241.142 178.72 241.758 175.026C242.374 171.332 245.319 162.982 246.926 162.178C248.533 161.374 251.85 162.54 253.498 162.951C254.597 163.225 255.936 164.061 257.516 165.458C259.456 166.739 260.961 167.333 262.031 167.239C263.636 167.099 267.072 164.441 269.447 164.252C271.822 164.063 280.996 162.463 287.127 158.738C293.258 155.014 294.213 154.567 295.088 154.129C295.963 153.691 301.121 157.403 305.219 163.206C309.317 169.009 317.403 186.439 318.912 188.047C320.421 189.655 323.979 191.413 330.849 187.975C337.719 184.537 345.529 178.733 346.35 178.321C347.171 177.909 347.387 173.796 347.387 173.796C347.387 173.796 350.038 178.868 351.303 180.321C352.568 181.774 358.3 190.311 359.708 192.776C361.116 195.241 363.937 198.104 365.49 201.206C367.043 204.308 372.303 214.27 374.002 221.338C366.981 226.673 298.858 264.382 276.568 275.528C254.277 286.673 175.867 321.363 166.861 325.001C160.857 327.428 150.947 329.832 137.131 332.215Z" fill="#F5C3A7"/>
<path d="M318.911 188.046C320.42 189.654 323.978 191.412 330.848 187.974C337.718 184.536 345.528 178.732 346.349 178.32C347.17 177.908 347.386 173.795 347.386 173.795L348.87 176.513C349.554 177.721 350.348 179.055 350.96 179.887L351.303 180.321C352.568 181.774 358.3 190.311 359.708 192.776C361.116 195.241 363.937 198.104 365.49 201.206L367.81 205.826C369.982 210.251 372.834 216.478 374.002 221.337C367.491 226.284 308.443 259.068 282.117 272.697L276.568 275.528C254.277 286.673 175.867 321.363 166.861 325.001C160.857 327.427 150.947 329.831 137.131 332.214C136.026 326.384 136.321 322.054 138.014 319.222C139.222 317.201 143.357 313.67 147.941 310.078C154.161 310.117 161.534 307.875 170.059 303.365C187.68 294.042 215.731 274.013 226.912 247.75C229.657 241.303 230.139 233.08 229.75 224.124C235.469 215.17 317.403 186.438 318.911 188.046Z" fill="#EEEBEA"/>
<path d="M253.497 162.949C254.596 163.223 255.935 164.059 257.515 165.456L257.713 165.577L256.941 165.827C256.175 166.121 254.521 166.116 253.451 167.92C252.38 169.724 252.108 171.388 250.301 173.135C249.096 174.3 247.921 175.921 246.775 177.997C246.533 177.268 246.583 175.265 246.927 171.986C247.364 167.814 250.48 163.653 251.733 162.457L253.497 162.949Z" fill="#4F232C"/>
<path d="M265.71 172.416C276.329 172.455 281.093 176.017 289.618 171.65C295.094 168.845 299.485 163.964 303.084 160.459C303.808 161.31 304.529 162.228 305.219 163.206C309.317 169.009 317.403 186.439 318.912 188.047C320.421 189.655 323.979 191.413 330.849 187.975C337.719 184.537 345.529 178.733 346.35 178.321C347.171 177.909 347.387 173.796 347.387 173.796L348.871 176.514C349.555 177.722 350.349 179.056 350.961 179.888L351.756 180.887C344.849 187.024 331.168 196.24 317.198 200.997C301.346 206.395 278.1 202.691 283.502 207.966C288.904 213.241 311.033 213.132 324.062 206.147L327.72 204.167C335.362 199.992 344.965 194.535 356.528 187.794L358.659 191.057C359.106 191.763 359.471 192.357 359.71 192.776C361.118 195.241 363.939 198.104 365.492 201.206L367.812 205.826C369.984 210.251 372.836 216.478 374.004 221.337C367.493 226.284 308.445 259.068 282.119 272.697L276.57 275.528C254.279 286.673 175.869 321.363 166.863 325.001C160.859 327.427 150.949 329.831 137.133 332.214C136.028 326.384 136.323 322.054 138.016 319.222C138.703 318.073 140.337 316.435 142.461 314.576C144.627 317.191 150.44 318.759 161.946 314.329C182.15 306.549 195.047 299.167 210.25 287.966C225.453 276.765 229.265 262.031 232.61 243.794L233.097 241.392C237.501 221.306 255.524 172.379 265.71 172.416Z" fill="#E5E2E1"/>
<path d="M288.099 172.437L288.799 172.05L289.617 171.65C295.093 168.845 299.484 163.964 303.083 160.459C303.807 161.31 304.528 162.228 305.218 163.206C309.316 169.009 317.402 186.439 318.911 188.047C319.723 188.913 321.13 189.822 323.327 189.94C323.403 190.924 323.271 191.615 322.9 191.93C319.796 194.567 309.081 200.417 298.536 200.441C287.991 200.465 274.792 204.494 283.053 208.538C284.236 209.117 285.605 209.614 287.113 210.023C295.538 213.043 313.05 212.051 324.062 206.147L327.72 204.167L332.253 201.668C335.414 199.911 338.855 197.971 342.574 195.849L342.026 196.612C335.956 204.376 321.039 217.224 312.629 221.176C304.219 225.128 293.752 226.463 287.241 224.575C280.729 222.687 272.954 212.686 266.95 214.982C260.947 217.278 245.667 228.279 249.273 219.531C252.879 210.783 262.843 193.614 262.99 185.834C263.119 179.007 264.455 173.66 269.239 172.557C272.11 172.777 274.532 173.197 276.787 173.492L278.532 173.694C281.33 174.307 284.249 174.499 288.099 172.437Z" fill="#DBD9D8"/>
<path d="M144.082 324.391C153.193 323.41 193.761 310.561 224.478 295.126C255.195 279.691 276.075 267.952 307.032 254.026C320.278 248.067 331.877 243.463 341.83 240.214L326.021 249.017C309.816 257.972 293.113 267.006 282.117 272.698L276.568 275.529C254.277 286.674 175.867 321.364 166.861 325.002C160.857 327.428 150.947 329.832 137.131 332.215C136.55 329.151 136.356 326.5 136.549 324.264C138.565 324.673 141.075 324.715 144.082 324.391Z" fill="#D5D1CF"/>
<path d="M268.451 181.033C269.204 173.666 271.728 181.795 283.157 178.757C294.586 175.719 298.802 169.728 303.869 165.792C304.493 165.307 305.219 164.939 306.047 164.688L306.884 165.983C311.186 172.938 317.531 186.578 318.909 188.046C319.18 188.335 319.517 188.628 319.927 188.895L319.766 189.067C314.767 193.98 309.319 196.491 299.775 196.334C290.231 196.177 287.541 193.705 281.169 197.955C274.797 202.204 276.103 207.59 278.864 209.636C281.625 211.682 299.23 214.826 307.241 212.833C315.252 210.84 346.96 191.665 343.202 197.616C339.444 203.567 312.126 220.276 302.987 220.676C293.848 221.075 282.927 217.007 275.548 213.803C268.169 210.598 265.054 213.674 257.488 216.327L256.085 216.758C250.922 218.048 257.292 212.032 260.374 206.95C262.79 202.967 266.764 199.113 268.381 191.943C268.886 189.706 268.272 182.783 268.451 181.033Z" fill="#CFCDCC"/>
<path d="M356.525 187.793L358.656 191.056L359.428 192.3C359.534 192.476 359.628 192.636 359.708 192.775C361.116 195.24 363.937 198.103 365.49 201.205L367.81 205.826C369.982 210.251 372.834 216.478 374.002 221.337L373.142 221.948C366.544 226.427 338.539 242.22 313.309 256.001C322.691 244.952 328.769 230.132 331.546 211.541C331.976 208.642 349.382 191.957 356.525 187.793Z" fill="#CECECE"/>
<path d="M356.526 187.793L358.657 191.056L359.708 192.775C361.116 195.24 363.937 198.103 365.49 201.205L367.81 205.826C369.982 210.251 372.834 216.478 374.002 221.337L373.142 221.948L370.235 223.809C364.212 227.532 352.561 234.211 339.257 241.657C351.324 226.354 354.783 210.097 349.634 192.891L351.846 191.094C353.63 189.692 355.243 188.54 356.526 187.793Z" fill="#C2C2C2"/>
<path d="M356.527 187.793L358.658 191.056L359.709 192.775C361.117 195.24 363.938 198.103 365.491 201.205L367.811 205.826C369.983 210.251 372.835 216.478 374.003 221.337L373.143 221.948L370.236 223.809L366.668 225.97C366.221 226.237 365.758 226.512 365.279 226.794L365.211 226.389C363.926 216.567 359.863 204.5 353.021 190.192C354.335 189.198 355.53 188.374 356.527 187.793Z" fill="#B9B9B9"/>
<path d="M262.03 167.237C262.331 167.211 262.696 167.096 263.107 166.926L262.817 168.06C263.349 168.111 263.952 167.958 264.625 167.599L266.166 166.804C267.072 166.36 268.141 165.891 269.183 165.594C270.919 165.099 276.704 165.177 279.822 163.956C282.94 162.735 295.839 155.921 296.942 155.388L297.448 155.182C299.539 156.637 302.595 159.493 305.216 163.206C309.314 169.009 317.4 186.439 318.909 188.047C320.418 189.655 323.976 191.413 330.846 187.975C337.716 184.537 345.526 178.733 346.347 178.321C347.168 177.909 347.384 173.796 347.384 173.796L348.868 176.514C349.552 177.722 350.346 179.056 350.958 179.888L351.301 180.322C352.566 181.775 358.298 190.312 359.706 192.777C361.114 195.242 363.935 198.105 365.488 201.207L367.808 205.827C369.98 210.252 372.832 216.479 374 221.338L373.105 221.972L373.406 222.727L371.711 218.658C366.798 206.973 363.445 199.987 361.651 197.698C358.661 193.884 350.979 182.288 350.146 181.268C349.591 180.588 348.928 180.024 348.159 179.577L343.143 183.144C336.357 187.905 331.563 190.972 328.761 192.344C323.589 194.876 317.266 194.163 313.028 185.665L308.179 175.959C305.118 169.917 302.103 164.264 300.377 162.252C298.599 160.179 296.894 158.486 295.264 157.174L291.869 159.065C286.505 162.005 282.616 163.888 280.2 164.713C275.853 166.198 271.035 164.879 268.4 166.268C266.643 167.194 264.806 168.113 262.89 169.025L261.341 168.8L262.03 167.237Z" fill="#BFBCBA"/>
<path d="M249.207 200.558L249.977 200.248C263.909 203.657 284.205 205.663 310.854 206.263L318.279 206.392L318.981 207.152C318.862 209.084 318.782 210.376 318.742 211.028C318.731 211.211 318.603 211.788 318.359 212.759C318.19 215.347 317.969 218.847 317.697 223.259C317.289 229.877 317.263 234.83 317.15 236.517C317.09 237.409 317.032 238.307 316.981 239.197C316.627 245.378 316.305 252.026 315.89 259.515C315.868 259.908 315.532 260.209 315.139 260.187C314.746 260.165 314.445 259.829 314.467 259.436C315.352 250.626 315.921 244.059 316.173 239.733C316.216 238.999 316.258 238.221 316.3 237.399C316.439 234.692 316.963 230.403 317.329 223.639C317.729 216.245 317.526 214.549 317.55 212.295C317.566 210.792 317.549 209.296 317.499 207.806L314.496 207.763C287.179 207.29 266.215 205.402 251.591 202.094L250.129 201.748L226.155 239.6L216.917 254.374L217.466 254.8C224.343 260.197 234.23 269.696 247.141 283.308L251.443 287.876C251.712 288.163 251.697 288.614 251.409 288.883C251.121 289.152 250.671 289.137 250.402 288.849L246.221 284.409C233.982 271.5 224.47 262.297 217.698 256.807L215.542 255.115L215.366 254.172L223.796 240.673L249.207 200.558Z" fill="#BBBBBB"/>
<path d="M246.925 162.177C248.532 161.373 251.849 162.539 253.497 162.95C254.284 163.147 255.195 163.631 256.229 164.404C255.856 164.623 255.445 164.904 255 165.252L252.489 167.331C251.757 167.943 251.412 168.344 251.072 169.362L250.384 171.73C250.195 172.291 250.046 172.497 249.492 173.671C248.606 175.55 247.695 176.354 247.04 177.383C246.385 178.412 245.257 180.576 244.694 181.732C244.13 182.888 243.311 183.304 242.373 183.816C242.138 183.944 241.87 184.165 241.57 184.478L241.543 178.865C241.552 177.267 241.601 175.964 241.758 175.025C242.373 171.331 245.318 162.982 246.925 162.177Z" fill="#682340"/>
<path d="M246.607 165.468C246.274 165.763 245.516 166.142 244.331 166.607C245.831 167.129 246.26 167.553 245.618 167.881C244.655 168.373 243.811 168.163 243.657 168.862C243.503 169.561 244.046 169.669 245.709 169.361C246.818 169.156 247.528 169.372 247.839 170.009L245.889 170.428C244.179 170.837 243.191 171.215 242.926 171.562C242.394 172.256 242.94 172.8 243.646 173C244.352 173.2 244.143 174.884 243.863 175.537C243.583 176.19 243.104 176.011 242.588 176.175C242.339 176.254 241.882 176.639 241.573 177.133C241.608 176.301 241.664 175.595 241.759 175.024C242.189 172.445 243.754 167.597 245.207 164.631C246.366 164.996 246.832 165.268 246.607 165.468Z" fill="#E2AAC1"/>
<path d="M176.634 320.453C174.523 310.999 173.647 304.096 174.009 299.745C174.551 293.218 176.119 287.371 177.041 286.175C177.964 284.978 187.894 273.707 191.297 269.979C194.7 266.251 220.162 237.063 224.747 230.867C229.332 224.671 238.551 211.444 239.871 202.914C241.191 194.384 241.844 188.79 242.82 186.51C243.796 184.23 247.138 177.792 251.284 174.294C255.43 170.796 261.313 167.477 262.03 167.238C262.508 167.079 263.133 167.603 263.904 168.811C260.841 179.37 259.035 185.996 258.487 188.688C257.665 192.726 252.292 203.69 251.521 207.628C250.75 211.566 245.959 220.609 238.626 231.056C231.293 241.502 208.69 267.479 200.963 275.163C193.236 282.848 193.247 283.372 192.678 283.729C192.109 284.085 191.237 286.043 190.368 286.627C189.499 287.211 188.743 289.347 188.565 290.764C188.387 292.18 188.188 298.326 189.611 304.158C190.56 308.046 191.487 311.479 192.394 314.458L176.634 320.453Z" fill="#F2EFEE"/>
<path d="M189.612 304.155C190.561 308.043 191.488 311.476 192.395 314.455L176.635 320.451C175.886 317.095 175.292 314.061 174.854 311.349C179.01 306.962 184.274 302.262 188.542 296.788C188.682 299.025 188.994 301.62 189.612 304.155ZM262.031 167.237C262.509 167.078 263.134 167.602 263.905 168.81L260.989 179.03C259.664 183.786 258.83 187.005 258.488 188.687C257.73 192.414 253.093 202.043 251.778 206.599L251.523 207.626C251.147 209.546 249.815 212.681 247.698 216.6L248.671 213.323C252.985 197.954 254.115 181.934 252.563 181.76C251.284 181.616 245.833 186.82 241.701 191.042L242.136 188.826C242.354 187.851 242.578 187.078 242.821 186.509L243.434 185.187C244.845 182.317 247.777 177.252 251.285 174.293C255.431 170.796 261.314 167.476 262.031 167.237Z" fill="#E0DCDC"/>
<path d="M260.455 168.551L261.152 169.427C258.044 181.949 254.656 191.574 251.4 200.528C248.94 207.292 247.813 210.459 244.983 216.523C243.096 220.566 240.772 224.568 238.009 228.527C233.063 236.106 217.965 253.589 210.417 261.272L205.322 266.362L201.153 270.647C194.315 277.788 188.257 284.689 186.525 287.872C184.693 291.238 185.513 299.579 189.026 312.612L189.603 314.709L189.939 315.384L188.607 315.891L188.28 315.221C185.365 304.871 183.987 297.217 184.177 292.187L184.214 291.542L179.002 295.806C176.904 297.558 175.854 298.517 175.853 298.683C175.849 299.361 175.726 300.155 175.765 300.774L175.948 303.048C176.228 305.979 176.739 309.887 177.482 314.768L178.276 319.828L176.935 320.332L175.359 310.398C174.885 307.309 174.639 305.246 174.541 301.418C174.4 295.963 176.209 289.541 177.163 286.025L177.825 285.232L177.944 284.773C176.902 289.176 176.028 293.221 175.806 296.482L175.942 296.405C176.079 296.307 176.32 296.121 176.665 295.847L184.499 289.386L184.518 289.316C184.642 288.758 184.797 288.253 184.985 287.801L185.275 287.193C187.424 283.245 195.642 274.148 204.081 265.593L208.292 261.387C214.933 254.853 230.06 237.485 235.964 229.011C238.679 225.418 241.27 221.025 243.738 215.834C247.44 208.048 247.626 206.741 250.062 200.041C252.976 192.028 256.04 183.68 258.84 172.773L259.33 170.812L259.014 171.018C255.468 173.316 252.903 175.424 250.58 177.539L249.469 178.589C247.049 180.969 245.566 183.242 244.998 185.4L244.811 186.318L243.401 186.115C243.481 185.558 243.614 184.998 243.798 184.436C244.59 182.931 245.695 181.004 247.024 179.12C247.456 178.607 247.943 178.091 248.47 177.573C251.015 175.07 254.392 172.456 258.601 169.728L260.455 168.551Z" fill="#D1CDCC"/>
<path d="M263.903 168.81L260.987 179.03C259.662 183.786 258.828 187.005 258.486 188.687C257.728 192.414 253.091 202.043 251.776 206.599L251.521 207.626C250.75 211.564 245.959 220.607 238.626 231.054C231.586 241.083 210.474 265.423 201.96 274.154L197.466 278.685C193.221 283.031 193.144 283.435 192.678 283.726C192.204 284.023 191.519 285.432 190.801 286.231L190.368 286.624C189.499 287.208 188.743 289.344 188.565 290.761L188.493 291.627C188.376 293.678 188.385 298.14 189.283 302.67L188.2 297.451C187.974 296.288 187.793 295.28 187.686 294.541C187.073 290.318 187.703 286.096 192.099 281.372L195.165 278.159C201.129 271.984 211.835 261.105 219.703 252.106C229.227 241.212 238.861 230.038 244.772 217.998C250.683 205.958 258.563 181.463 259.442 178.303L261.935 168.826C262.066 168.316 262.202 167.788 262.342 167.243C262.765 167.317 263.287 167.845 263.903 168.81Z" fill="#C4C4C4"/>
<path d="M184.485 276.697C186.072 275.859 187.72 278.07 188.199 278.863C188.678 279.656 188.021 281.622 187.154 281.923C186.286 282.225 183.501 281.136 182.972 280.25C182.442 279.365 182.898 277.534 184.485 276.697ZM193.187 267.682C194.774 266.844 197.583 269.081 198.062 269.874C198.541 270.667 197.308 272.573 196.441 272.875C195.574 273.177 192.297 271.467 191.755 270.229C191.213 268.991 191.6 268.52 193.187 267.682ZM201.08 258.074L201.286 257.982C202.045 257.731 205.959 259.793 206.438 260.586C206.917 261.379 205.684 263.285 204.817 263.587C203.949 263.889 199.964 262.405 199.422 261.167C198.88 259.929 200.528 258.233 201.287 257.982L201.08 258.074ZM207.166 252.384C206.077 251.55 207.685 249.743 209.338 249.238C210.99 248.732 214.011 251.049 214.49 251.842C214.969 252.635 213.829 254.162 212.43 254.76C211.031 255.358 208.255 253.219 207.166 252.384ZM215.573 242.236C214.049 242.046 216.075 239.494 217.727 238.988C219.379 238.482 222.271 240.61 222.75 241.404C223.229 242.197 222.186 243.632 220.787 244.23C219.388 244.827 217.097 242.426 215.573 242.236ZM225.565 228.884L225.844 228.778C227.496 228.272 229.207 229.827 229.686 230.62C230.165 231.413 229.122 232.848 227.723 233.446C226.324 234.044 225.104 232.646 223.58 232.456C222.056 232.266 224.192 229.284 225.844 228.779L225.565 228.884ZM233.225 218.677L233.491 218.575C235.143 218.069 237.608 219.484 238.087 220.277C238.566 221.07 237.523 222.505 236.124 223.103C234.725 223.701 232.516 222.696 230.991 222.506C229.467 222.316 231.839 219.081 233.491 218.576L233.225 218.677ZM238.131 207.593L238.379 207.486C240.031 206.98 242.533 207.812 243.14 209.24C243.747 210.668 242.432 211.885 241.033 212.482C239.634 213.079 237.428 211.563 236.215 212.161C235.002 212.758 236.727 207.991 238.379 207.486L238.131 207.593ZM241.158 195.634L241.413 195.519C243.065 195.013 247.477 196.107 248.084 197.536C248.691 198.964 246.703 200.534 245.304 201.131C243.905 201.728 241.23 199.684 240.017 200.281C238.804 200.878 239.762 196.025 241.414 195.519L241.158 195.634ZM244.083 183.942L244.52 183.74C248.145 182.308 251.113 183.559 252.007 185.463C252.901 187.367 251.696 188.258 249.283 189.683C246.87 191.108 242.788 190.052 241.575 190.65C240.362 191.247 240.895 185.172 244.52 183.74L244.083 183.942Z" fill="#F8CAB0"/>
<path d="M188.2 278.863C188.679 279.656 188.022 281.622 187.155 281.923C186.287 282.225 183.502 281.136 182.973 280.25C182.846 280.038 182.776 279.772 182.764 279.478C183.554 280.452 184.23 280.602 184.877 280.797C185.83 281.084 186.123 279.919 186.429 279.009C186.61 278.472 186.564 277.64 186.443 276.943C187.261 277.479 187.924 278.406 188.2 278.863ZM198.063 269.874C198.542 270.667 197.309 272.573 196.442 272.875C195.89 273.067 194.363 272.445 193.186 271.648L194.296 271.743C195.264 271.848 196.189 270.802 196.44 270.015C196.583 269.568 196.265 268.807 195.8 268.036C196.862 268.592 197.804 269.445 198.063 269.874ZM206.44 260.586C206.919 261.379 205.686 263.285 204.819 263.587C204.082 263.843 201.096 262.811 199.881 261.736C201.258 261.81 202.512 262.098 202.955 262.295C203.454 262.518 204.459 261.321 204.581 260.018C204.616 259.644 204.582 259.379 204.501 259.167C205.424 259.691 206.238 260.252 206.44 260.586ZM214.491 251.842C214.97 252.635 213.83 254.162 212.431 254.76C211.27 255.256 209.161 253.867 207.854 252.904C208.676 252.888 209.625 253.022 210.258 253.194C211.438 253.514 212.372 252.811 212.776 251.934C212.995 251.459 212.533 250.739 212.172 249.952C213.275 250.579 214.238 251.423 214.491 251.842ZM222.751 241.403C223.23 242.196 222.187 243.631 220.788 244.229C219.588 244.742 217.732 243.048 216.266 242.436C216.89 242.326 217.189 242.39 217.525 242.567L218.243 242.996C219.147 243.522 220.068 242.742 220.747 241.89C221.154 241.379 220.747 240.34 220.254 239.475C221.415 240.06 222.477 240.95 222.751 241.403ZM229.688 230.62C230.167 231.413 229.124 232.848 227.725 233.446C226.47 233.982 225.358 232.912 224.042 232.549C225.247 232.038 225.776 232.365 226.389 232.26L226.773 232.135C227.592 231.737 228.157 231.946 228.562 231.24C228.861 230.72 227.679 229.869 227.037 228.738C228.257 228.983 229.325 230.02 229.688 230.62ZM238.088 220.278C238.567 221.071 237.524 222.506 236.125 223.104C235.094 223.544 233.623 223.115 232.31 222.782C233.704 222.538 235.21 222.205 235.992 221.361C236.489 220.824 236.473 219.9 236.247 218.951C237.121 219.336 237.85 219.883 238.088 220.278ZM243.141 209.24C243.748 210.668 242.433 211.885 241.034 212.482C240.263 212.811 239.248 212.499 238.288 212.252C239.857 212.112 241.004 211.775 240.566 211.1C240.056 210.316 240.81 210.573 241.995 210.071C242.602 209.814 242.312 208.883 241.707 207.881C242.367 208.207 242.901 208.677 243.141 209.24ZM248.085 197.536C248.692 198.964 246.704 200.534 245.305 201.131C243.906 201.728 241.231 199.684 240.018 200.281C239.831 200.373 239.696 200.336 239.607 200.205L240.21 199.934C241.543 199.553 243.483 200.048 244.514 200.207C245.717 200.392 246.118 199.648 245.551 198.692C244.985 197.736 246.524 197.769 246.081 196.924C245.935 196.646 245.513 196.226 244.95 195.757C246.397 196.128 247.766 196.786 248.085 197.536ZM252.008 185.462C252.902 187.366 251.697 188.257 249.284 189.682C247.14 190.949 243.676 190.255 242.08 190.505L241.576 190.649C241.417 190.727 241.289 190.691 241.193 190.566L241.369 190.443L241.81 190.179C243.333 189.324 244.449 189.51 246.298 189.238C247.962 188.993 249.227 188.063 248.534 187.237L248.228 186.967C246.953 186.086 249.608 186.609 249.24 185.538C248.97 184.754 247.232 183.821 245.829 183.334C248.852 182.629 251.225 183.795 252.008 185.462Z" fill="#BEB9B5"/>
<path d="M135.397 334.271C135.179 333.609 134.441 329.731 135.751 329.46C137.062 329.189 147.172 327.433 156.911 324.496C166.65 321.558 191.494 312.207 216.524 300.385C241.554 288.563 260.544 280.233 283.088 268.968C305.632 257.703 341.509 237.198 351.54 232.05C361.571 226.902 373.035 219.97 373.343 219.679C373.651 219.388 372.562 218.604 373.645 218.421C374.728 218.238 377.013 221.822 377.569 222.934C378.126 224.046 382.491 236.38 383.696 239.736C384.901 243.092 383.927 247.757 379.306 250.094C374.685 252.432 335.424 272.054 325.07 277.237C314.716 282.42 305.963 285.908 295.259 291.265C284.555 296.622 268.611 305.461 261.341 309.099C254.071 312.737 238.635 320.462 232.369 323.598C226.103 326.734 185.986 340.845 181.933 342.352C177.88 343.86 147.079 352.365 144.291 352.802C141.503 353.239 139.538 352.339 138.927 351.068C138.32 349.795 134.267 339.041 133.976 336.642C133.687 334.242 135.616 334.933 135.397 334.271Z" fill="#DFD9D7"/>
<path d="M135.751 329.461L140.961 328.442C145.091 327.596 151.069 326.259 156.913 324.496L159.23 323.769C165.574 321.711 175.959 317.889 188.08 312.91C194.12 312.527 199.507 312.977 203.859 314.679C213.006 318.257 220.937 321.901 227.654 325.612L222.038 327.785C217.322 329.572 211.629 331.662 206.022 333.696L181.936 342.352C177.883 343.86 147.081 352.365 144.293 352.802C141.505 353.239 139.54 352.339 138.929 351.068L138.209 349.309C136.851 345.827 134.211 338.561 133.978 336.642C133.687 334.242 135.616 334.934 135.397 334.272C135.178 333.61 134.441 329.732 135.751 329.461Z" fill="#D7D1CF"/>
<path d="M134.197 335.196L142.321 333.138C149.951 331.166 156.147 329.428 160.911 327.926L162.446 327.434C172.299 324.219 179.048 322.83 183.924 322.689C188.799 322.547 194.34 325.868 196.67 327.271C197.941 328.036 200.117 329.863 203.196 332.752L204.693 334.176L181.936 342.351C177.883 343.859 147.082 352.364 144.294 352.801C141.506 353.238 139.541 352.338 138.93 351.067L138.21 349.308C136.852 345.826 134.212 338.56 133.979 336.641C133.89 335.921 134.003 335.48 134.197 335.196Z" fill="#D0CDCC"/>
<path d="M134.198 335.197L142.322 333.139L149.474 331.245C153.924 330.035 157.736 328.929 160.912 327.927L165.838 326.363C166.382 326.197 166.915 326.037 167.438 325.883L176.521 344.039L169.794 345.976C159.405 348.92 146.081 352.523 144.292 352.803C141.504 353.24 139.539 352.34 138.928 351.069L138.209 349.31L137.008 346.132C135.682 342.53 134.153 338.083 133.978 336.643C133.891 335.922 134.004 335.481 134.198 335.197Z" fill="#CDCAC8"/>
<path d="M134.198 335.197L142.322 333.139L147.291 331.834C148.082 331.622 148.855 331.414 149.61 331.208L151.174 335.773C153.211 341.565 155.052 346.181 156.697 349.622L148.573 351.777C146.379 352.343 144.826 352.72 144.293 352.803C141.505 353.24 139.54 352.34 138.929 351.069L138.209 349.31L137.008 346.132C135.682 342.53 134.153 338.083 133.978 336.643C133.891 335.922 134.004 335.481 134.198 335.197Z" fill="#C5C2C0"/>
<path d="M134.198 335.197L137.902 334.258L139.258 337.797C142.32 345.628 144.674 350.48 146.321 352.352L144.294 352.803C141.506 353.24 139.541 352.34 138.93 351.069L138.21 349.31L137.009 346.132C135.683 342.53 134.154 338.083 133.979 336.643C133.891 335.922 134.004 335.481 134.198 335.197Z" fill="#BEB9B6"/>
<path d="M373.646 218.42C374.729 218.237 377.014 221.821 377.57 222.933L377.913 223.759C379.11 226.823 382.634 236.774 383.697 239.736C384.902 243.092 383.928 247.757 379.307 250.094L325.071 277.237C314.716 282.419 305.964 285.908 295.26 291.265L289.685 294.116C283.814 297.168 277.235 300.713 271.56 303.744C273.083 298.083 263.387 292.937 242.484 288.302L254.058 282.927C263.597 278.476 272.986 274.017 283.089 268.969L287.198 266.89C308.354 256.066 338.097 239.175 349.51 233.114L355.345 230.054C364.263 225.275 373.075 219.935 373.344 219.68C373.652 219.387 372.563 218.603 373.646 218.42Z" fill="#D8D2D0"/>
<path d="M373.647 218.42C374.73 218.237 377.015 221.821 377.571 222.933L377.914 223.759L379.709 228.605C381.187 232.681 382.989 237.761 383.698 239.736C384.903 243.092 383.929 247.757 379.308 250.094L325.072 277.237C321.361 279.094 317.856 280.734 314.393 282.32C305.889 284.002 299.652 278.207 291.257 274.384L289.657 273.693C285.752 272.101 285.625 269.563 288.15 266.406L296.372 262.109C316.211 251.612 339.671 238.338 349.511 233.113L355.346 230.053L360.149 227.424C367.186 223.5 373.124 219.887 373.345 219.679C373.653 219.387 372.564 218.603 373.647 218.42Z" fill="#CCC7C5"/>
<path d="M373.648 218.42C374.731 218.237 377.016 221.821 377.572 222.933L377.915 223.759L379.71 228.605C381.188 232.681 382.99 237.761 383.699 239.736C384.904 243.092 383.93 247.757 379.309 250.094L349.813 264.855C342.605 259.41 336.14 252.319 330.418 243.581L342.944 236.671C345.511 235.264 347.733 234.057 349.511 233.113L355.346 230.053L360.149 227.424L363.746 225.393C369.103 222.331 373.163 219.851 373.345 219.679C373.654 219.387 372.565 218.603 373.648 218.42Z" fill="#C6C1C0"/>
<path d="M373.647 218.42C374.73 218.237 377.015 221.821 377.571 222.933L377.914 223.759L379.709 228.605C381.187 232.681 382.989 237.761 383.698 239.736C384.903 243.092 383.929 247.757 379.308 250.094L369.294 255.106C371.048 253.495 372.239 252.088 372.866 250.884C375.149 246.502 371.508 236.188 370.921 230.52C370.62 227.615 367.063 226.561 360.25 227.359L363.745 225.392C369.102 222.33 373.162 219.85 373.344 219.678C373.653 219.387 372.564 218.603 373.647 218.42Z" fill="#C1BCBB"/>
<path d="M156.912 324.495L159.057 323.823C169.575 320.425 191.522 312.045 214.023 301.558L226.91 295.513C247.053 286.123 263.765 278.623 283.089 268.968L287.198 266.889C308.355 256.065 338.098 239.174 349.511 233.113L355.346 230.053C364.264 225.274 373.076 219.934 373.345 219.679C373.653 219.388 372.564 218.604 373.647 218.421C374.73 218.238 377.015 221.822 377.571 222.934L377.908 223.744C376.461 222.424 374.958 219.87 374.617 219.838C374.066 219.785 373.945 220.109 373.693 220.327L373.066 220.817C370.244 222.875 361.704 227.801 348.602 234.808L270.051 276.031L259.567 281.402C247.961 287.125 211.228 304.453 189.159 313.594L184.821 315.354C165.428 323.061 148.016 327.842 142.47 328.128L146.181 327.311C149.479 326.552 153.222 325.608 156.912 324.495Z" fill="#D1EFA4"/>
<path d="M135.406 334.376C136.631 333.83 147.024 331.878 156.899 328.778L165.505 326.009C174.019 323.363 182.799 321.128 187.434 322.431C192.798 323.938 196.387 326.165 199.19 328.41L203.914 332.346C204.438 332.772 204.744 333.015 204.834 333.08L205.06 333.048C206.936 332.601 220.227 328.03 237.444 321.056L232.372 323.599L230.875 324.285C225.972 326.408 214.108 330.776 203.25 334.7L181.935 342.353C177.882 343.861 147.081 352.366 144.293 352.803L143.724 352.864L145.104 352.543C162.773 348.316 182.274 342.034 203.606 333.695C202.692 332.469 195.057 325.68 189.1 324.222L186.566 323.6C182.594 322.683 179.349 322.541 168.824 325.815L160.305 328.548C146.896 332.719 136.064 335.143 135.238 335.515C134.973 335.634 134.699 335.844 134.416 336.145L133.981 336.657C133.949 336.399 133.849 335.71 134.031 335.324C134.213 334.939 134.565 334.788 134.917 334.689C135.093 334.632 135.25 334.59 135.338 334.519L135.406 334.376Z" fill="#EBEBEB"/>
<path d="M263.741 226.368L273.282 234.279L285.208 230.904L280.633 242.423L287.529 252.723L275.159 251.931L267.495 261.672L264.426 249.663L252.793 245.384L263.265 238.754L263.741 226.368Z" fill="#720834"/>
</g>
<defs>
<clipPath id="clip0_3_3">
<rect width="458.9" height="458.9" fill="white"/>
</clipPath>
</defs>
</svg>
